<svg width="61" height="56" viewBox="0 0 61 56" fill="none" xmlns="http://www.w3.org/2000/svg">
<path d="M30.3545 0.162659C37.4916 0.162659 44.0502 2.63951 49.2182 6.78016L48.7554 7.24292C43.7076 3.21867 37.312 0.81311 30.3545 0.81311C23.3969 0.81311 17.0014 3.21867 11.9536 7.24287L11.4909 6.78016C16.6588 2.63956 23.2174 0.162659 30.3545 0.162659ZM53.9289 11.4908C58.0695 16.6587 60.5463 23.2173 60.5463 30.3545C60.5463 37.4917 58.0695 44.0503 53.9289 49.2182L53.4661 48.7554C57.4904 43.7076 59.8959 37.3121 59.8959 30.3545C59.8959 23.397 57.4903 17.0014 53.4661 11.9536L53.9289 11.4908ZM6.7801 49.2182C2.63944 44.0502 0.162598 37.4915 0.162598 30.3545C0.162598 23.2173 2.6395 16.6587 6.78015 11.4908L7.24286 11.9535C3.21861 17.0013 0.812998 23.3969 0.812998 30.3545C0.812998 37.3121 3.21866 43.7076 7.24286 48.7554L6.7801 49.2182ZM30.3544 5.23535C36.09 5.23535 41.3765 7.15783 45.6049 10.3933L45.1407 10.8575C41.0333 7.73771 35.9102 5.88575 30.3544 5.88575C24.7986 5.88575 19.6755 7.73771 15.5682 10.8575L15.104 10.3933C19.3325 7.15783 24.619 5.23535 30.3544 5.23535ZM50.3156 15.104C53.5511 19.3325 55.4736 24.6189 55.4736 30.3545C55.4736 36.0899 53.5511 41.3765 50.3157 45.6049L49.8514 45.1407C52.9712 41.0333 54.8232 35.9103 54.8232 30.3545C54.8232 24.7986 52.9711 19.6756 49.8514 15.5682L50.3156 15.104ZM10.3933 45.605C7.15782 41.3765 5.23534 36.09 5.23534 30.3545C5.23534 24.6189 7.15788 19.3325 10.3934 15.104L10.8575 15.5682C7.7377 19.6755 5.88574 24.7987 5.88574 30.3545C5.88574 35.9104 7.73775 41.0335 10.8575 45.1408L10.3933 45.605ZM30.3544 10.5032C34.6336 10.5032 38.5965 11.8572 41.8382 14.1601L41.3714 14.6269C38.2528 12.4383 34.4537 11.1535 30.3544 11.1535C26.2552 11.1535 22.4562 12.4383 19.3376 14.6268L18.8707 14.1601C22.1123 11.8571 26.0753 10.5032 30.3544 10.5032ZM46.5488 18.8708C48.8517 22.1125 50.2057 26.0753 50.2057 30.3545C50.2057 34.6336 48.8517 38.5965 46.5488 41.8382L46.0821 41.3714C48.2706 38.2528 49.5554 34.4538 49.5554 30.3545C49.5554 26.2553 48.2706 22.4562 46.082 19.3376L46.5488 18.8708ZM14.16 41.8382C11.8571 38.5966 10.5031 34.6337 10.5031 30.3545C10.5031 26.0753 11.8571 22.1125 14.16 18.8707L14.6268 19.3375C12.4383 22.4562 11.1535 26.2552 11.1535 30.3545C11.1535 34.4538 12.4383 38.2529 14.6268 41.3715L14.16 41.8382Z" fill="#2B2A29"/>
<path d="M49.3333 6.89512L49.1033 6.66511L49.1166 6.90698L48.6306 6.52574L48.1368 6.15439L47.6351 5.79296L47.1258 5.44166L46.6089 5.10075L46.0847 4.77023L45.5532 4.45035L45.0147 4.14111L44.4693 3.84282L43.9171 3.55548L43.3583 3.2794L42.793 3.01456L42.2214 2.76129L41.6436 2.51962L41.0598 2.28966L40.4701 2.07168L39.8746 1.86576L39.2736 1.67206L38.6671 1.49068L38.0553 1.32183L37.4384 1.16561L36.8165 1.02227L36.1897 0.891811L35.5583 0.774441L34.9222 0.670361L34.2817 0.579672L33.637 0.502529L32.9882 0.439082L32.3353 0.389436L31.6787 0.353843L31.0183 0.332354L30.3545 0.325175V0L31.0254 0.00728155L31.6928 0.0289734L32.3564 0.0649738L33.0163 0.11513L33.6721 0.179238L34.3238 0.257196L34.9712 0.348903L35.6142 0.454104L36.2525 0.572696L36.8861 0.704579L37.5148 0.849548L38.1385 1.0074L38.7569 1.17808L39.37 1.3615L39.9776 1.55733L40.5796 1.7655L41.1757 1.98583L41.766 2.21833L42.35 2.46264L42.9278 2.71867L43.4993 2.98635L44.0642 3.26544L44.6224 3.55584L45.1737 3.85739L45.718 4.16998L46.2552 4.49333L46.7851 4.82741L47.3076 5.17209L47.8225 5.52715L48.3295 5.8924L48.8288 6.26783L49.3199 6.65315L49.3332 6.89501L49.3333 6.89512ZM49.3199 6.65325C49.3899 6.70941 49.4013 6.81176 49.3451 6.88183C49.289 6.95184 49.1866 6.9632 49.1166 6.90703L49.3199 6.65325H49.3199ZM48.6405 7.12792L49.1033 6.66516L49.3333 6.89517L48.8705 7.35793L48.6541 7.3701L48.6405 7.12797V7.12792ZM48.8705 7.35793C48.807 7.42143 48.704 7.42143 48.6405 7.35793C48.577 7.29443 48.577 7.19142 48.6405 7.12792L48.8705 7.35793ZM30.3545 0.975727V0.650553L31.0087 0.657631L31.6594 0.678762L32.3065 0.713693L32.9498 0.762424L33.5893 0.82475L34.2247 0.900519L34.856 0.989527L35.4829 1.09177L36.1054 1.20701L36.7234 1.33512L37.3365 1.47596L37.9448 1.62934L38.548 1.79518L39.146 1.9733L39.7386 2.16359L40.3258 2.36584L40.9073 2.58001L41.4831 2.80584L42.053 3.04323L42.6168 3.29207L43.1745 3.55217L43.7257 3.82342L44.2704 4.10562L44.8085 4.39862L45.3398 4.7024L45.8642 5.01673L46.3815 5.3414L46.8917 5.67635L47.3944 6.02143L47.8896 6.3765L48.3772 6.74134L48.857 7.11585L48.6542 7.37015L48.1797 6.99971L47.6975 6.63879L47.2076 6.28759L46.7104 5.94628L46.2059 5.61499L45.6942 5.29389L45.1756 4.98302L44.6501 4.6826L44.1178 4.39276L43.5791 4.11372L43.0339 3.84542L42.4824 3.58817L41.9248 3.34208L41.3612 3.10734L40.7918 2.88395L40.2166 2.67223L39.636 2.47221L39.0498 2.28396L38.4585 2.10778L37.8619 1.94377L37.2604 1.79213L36.654 1.65281L36.0429 1.52612L35.4272 1.41221L34.8072 1.31109L34.1828 1.22299L33.5543 1.14804L32.9218 1.08643L32.2854 1.03821L31.6454 1.00368L31.0017 0.982754L30.3546 0.975778L30.3545 0.975727ZM30.3545 0.975727C30.2648 0.975727 30.192 0.902912 30.192 0.81314C30.192 0.723368 30.2648 0.650553 30.3545 0.650553V0.975727ZM11.8387 7.35788L12.0687 7.12787L11.8523 7.1157L12.3321 6.74119L12.8197 6.37634L13.3149 6.02128L13.8176 5.6762L14.3277 5.34124L14.845 5.01658L15.3695 4.70225L15.9008 4.39851L16.4388 4.10547L16.9836 3.82327L17.5348 3.55202L18.0924 3.29192L18.6562 3.04313L19.2261 2.80574L19.8019 2.57991L20.3835 2.36574L20.9706 2.16343L21.5633 1.9732L22.1613 1.79508L22.7644 1.62923L23.3727 1.47581L23.9859 1.33502L24.6038 1.2069L25.2262 1.09167L25.8532 0.989425L26.4844 0.900366L27.1199 0.824648L27.7594 0.762322L28.4027 0.713592L29.0498 0.67861L29.7005 0.657529L30.3546 0.650451V0.975626L29.7076 0.982602L29.0639 1.00348L28.4238 1.03805L27.7875 1.08627L27.1549 1.14789L26.5265 1.22279L25.9022 1.31093L25.282 1.41206L24.6664 1.52597L24.0553 1.65266L23.4489 1.79192L22.8474 1.94361L22.2508 2.10763L21.6595 2.28381L21.0733 2.47201L20.4927 2.67207L19.9175 2.8838L19.348 3.10718L18.7845 3.34193L18.2268 3.58797L17.6754 3.84522L17.1302 4.11351L16.5915 4.39256L16.0593 4.68244L15.5338 4.98282L15.0151 5.29369L14.5035 5.61479L13.999 5.94607L13.5017 6.28739L13.0119 6.63858L12.5297 6.9995L12.0551 7.36995L11.8387 7.35778L11.8387 7.35788ZM12.055 7.37005C11.9849 7.42601 11.8825 7.41445 11.8265 7.34428C11.7705 7.27411 11.7821 7.17171 11.8523 7.11575L12.055 7.37005H12.055ZM11.606 6.66521L12.0687 7.12792L11.8387 7.35793L11.376 6.89522L11.3893 6.65335L11.606 6.66526V6.66521ZM11.376 6.89522C11.3125 6.83172 11.3125 6.72871 11.376 6.66521C11.4395 6.60172 11.5425 6.60172 11.606 6.66521L11.376 6.89522ZM30.3545 0.00015276V0.325327L29.6907 0.332507L29.0304 0.353995L28.3737 0.389588L27.7209 0.439235L27.072 0.502681L26.4273 0.579825L25.7868 0.670513L25.1508 0.774645L24.5194 0.891964L23.8926 1.02242L23.2707 1.16581L22.6538 1.32203L22.042 1.49088L21.4355 1.67221L20.8344 1.86591L20.239 2.07183L19.6493 2.28987L19.0655 2.51977L18.4878 2.76144L17.9161 3.01476L17.3508 3.27955L16.792 3.55569L16.2398 3.84298L15.6944 4.14132L15.1559 4.4505L14.6245 4.77043L14.1002 5.10095L13.5834 5.44186L13.074 5.79311L12.5724 6.15454L12.0786 6.5259L11.5926 6.90713L11.3893 6.65335L11.8804 6.26804L12.3796 5.89261L12.8867 5.52736L13.4015 5.17234L13.924 4.82767L14.4539 4.49358L14.9911 4.17019L15.5354 3.85764L16.0867 3.55604L16.6449 3.2657L17.2098 2.98656L17.7812 2.71892L18.359 2.46284L18.9431 2.21853L19.5333 1.98608L20.1295 1.7657L20.7314 1.55754L21.339 1.3617L21.9521 1.17834L22.5706 1.00765L23.1942 0.849802L23.8229 0.704783L24.4565 0.5729L25.0949 0.454358L25.7378 0.349107L26.3852 0.2574L27.0369 0.179442L27.6928 0.115334L28.3526 0.0651775L29.0162 0.0291771L29.6836 0.00748523L30.3545 0.00020368L30.3545 0.00015276ZM30.3545 0.00015276C30.4443 0.00015276 30.5171 0.0729683 30.5171 0.16274C30.5171 0.252512 30.4443 0.325327 30.3545 0.325327V0.00015276ZM60.709 30.3546H60.3838L60.3766 29.6907L60.3551 29.0304L60.3195 28.3737L60.2699 27.7209L60.2065 27.072L60.1293 26.4273L60.0386 25.7868L59.9345 25.1508L59.8172 24.5194L59.6868 23.8926L59.5434 23.2707L59.3872 22.6538L59.2183 22.0419L59.037 21.4354L58.8433 20.8344L58.6374 20.239L58.4193 19.6493L58.1894 19.0655L57.9477 18.4877L57.6944 17.9161L57.4296 17.3508L57.1535 16.792L56.8662 16.2398L56.5679 15.6943L56.2587 15.1559L55.9388 14.6244L55.6083 14.1002L55.2674 13.5833L54.9161 13.074L54.5546 12.5723L54.1833 12.0785L53.8021 11.5925L54.0558 11.3892L54.4412 11.8803L54.8166 12.3795L55.1818 12.8866L55.5369 13.4015L55.8816 13.9239L56.2157 14.4538L56.539 14.991L56.8516 15.5353L57.1531 16.0867L57.4435 16.6449L57.7226 17.2098L57.9903 17.7812L58.2463 18.359L58.4907 18.9431L58.7231 19.5333L58.9435 20.1294L59.1516 20.7314L59.3475 21.339L59.5308 21.9521L59.7015 22.5706L59.8594 23.1942L60.0044 23.8229L60.1362 24.4565L60.2548 25.0948L60.36 25.7378L60.4517 26.3852L60.5297 27.0369L60.5938 27.6927L60.644 28.3526L60.68 29.0163L60.7016 29.6837L60.7089 30.3545L60.709 30.3546ZM60.709 30.3546C60.709 30.4444 60.6362 30.5172 60.5464 30.5172C60.4566 30.5172 60.3838 30.4444 60.3838 30.3546H60.709ZM53.814 49.3332L54.044 49.1032L53.8022 49.1166L54.1834 48.6306L54.5547 48.1368L54.9162 47.6351L55.2674 47.1258L55.6083 46.6089L55.9389 46.0847L56.2588 45.5533L56.568 45.0148L56.8663 44.4693L57.1536 43.9172L57.4297 43.3584L57.6945 42.793L57.9478 42.2214L58.1895 41.6436L58.4194 41.0598L58.6374 40.4701L58.8433 39.8747L59.037 39.2737L59.2184 38.6672L59.3872 38.0554L59.5434 37.4384L59.6868 36.8165L59.8172 36.1898L59.9346 35.5583L60.0387 34.9223L60.1294 34.2818L60.2065 33.6371L60.27 32.9882L60.3196 32.3354L60.3552 31.6787L60.3767 31.0184L60.3839 30.3545H60.709L60.7018 31.0254L60.6801 31.6928L60.6441 32.3564L60.5939 33.0163L60.5298 33.6722L60.4518 34.3239L60.3601 34.9713L60.2549 35.6143L60.1363 36.2526L60.0045 36.8862L59.8595 37.5149L59.7016 38.1385L59.5309 38.757L59.3476 39.3701L59.1517 39.9777L58.9436 40.5797L58.7232 41.1758L58.4908 41.766L58.2464 42.35L57.9904 42.9279L57.7227 43.4993L57.4436 44.0642L57.1532 44.6224L56.8517 45.1738L56.5392 45.718L56.2158 46.2552L55.8817 46.7852L55.537 47.3076L55.182 47.8225L54.8167 48.3295L54.4413 48.8287L54.056 49.3199L53.8141 49.3332L53.814 49.3332ZM54.0559 49.3199C53.9997 49.3899 53.8974 49.4013 53.8273 49.3451C53.7573 49.2889 53.7459 49.1866 53.8021 49.1165L54.0559 49.3199V49.3199ZM53.5812 48.6405L54.044 49.1032L53.814 49.3332L53.3512 48.8705L53.339 48.6541L53.5812 48.6405H53.5812ZM53.3512 48.8705C53.2877 48.807 53.2877 48.704 53.3512 48.6405C53.4147 48.577 53.5177 48.577 53.5812 48.6405L53.3512 48.8705ZM59.7334 30.3546H60.0585L60.0515 31.0087L60.0304 31.6594L59.9954 32.3065L59.9467 32.9499L59.8843 33.5893L59.8086 34.2248L59.7196 34.8561L59.6173 35.483L59.5021 36.1054L59.374 36.7233L59.2332 37.3366L59.0798 37.9448L58.9139 38.548L58.7358 39.146L58.5455 39.7386L58.3432 40.3258L58.1291 40.9073L57.9032 41.4831L57.6659 42.053L57.4171 42.6168L57.157 43.1744L56.8857 43.7256L56.6035 44.2704L56.3105 44.8085L56.0067 45.3398L55.6924 45.8642L55.3677 46.3815L55.0328 46.8916L54.6877 47.3943L54.3326 47.8896L53.9678 48.3772L53.5933 48.8569L53.339 48.6542L53.7094 48.1797L54.0703 47.6974L54.4215 47.2075L54.7629 46.7104L55.0941 46.2059L55.4152 45.6942L55.7261 45.1755L56.0265 44.65L56.3164 44.1178L56.5954 43.579L56.8637 43.0338L57.121 42.4824L57.367 41.9248L57.6017 41.3612L57.8251 40.7918L58.0369 40.2166L58.2369 39.636L58.4251 39.0498L58.6013 38.4584L58.7653 37.8619L58.917 37.2604L59.0563 36.654L59.183 36.0429L59.2969 35.4272L59.398 34.8071L59.4861 34.1828L59.561 33.5543L59.6227 32.9218L59.6709 32.2855L59.7055 31.6454L59.7263 31.0017L59.7333 30.3546L59.7334 30.3546ZM59.7334 30.3546C59.7334 30.2648 59.8062 30.192 59.8959 30.192C59.9857 30.192 60.0585 30.2648 60.0585 30.3546H59.7334ZM53.3512 11.8387L53.5812 12.0687L53.5933 11.8523L53.9678 12.3321L54.3327 12.8197L54.6878 13.3149L55.0328 13.8176L55.3678 14.3277L55.6925 14.845L56.0068 15.3695L56.3106 15.9008L56.6036 16.4389L56.8858 16.9836L57.157 17.5348L57.4171 18.0925L57.666 18.6562L57.9033 19.2261L58.1292 19.8019L58.3433 20.3835L58.5456 20.9707L58.7359 21.5633L58.914 22.1613L59.0798 22.7645L59.2332 23.3727L59.3741 23.9859L59.5022 24.6038L59.6174 25.2263L59.7197 25.8533L59.8087 26.4845L59.8844 27.1199L59.9468 27.7594L59.9955 28.4028L60.0304 29.0499L60.0516 29.7006L60.0586 30.3547H59.7335L59.7265 29.7076L59.7056 29.0639L59.671 28.4239L59.6228 27.7875L59.5612 27.155L59.4862 26.5265L59.3982 25.9021L59.297 25.2821L59.1831 24.6664L59.0564 24.0553L58.9171 23.449L58.7655 22.8474L58.6015 22.2509L58.4253 21.6595L58.237 21.0734L58.037 20.4927L57.8253 19.9175L57.6019 19.348L57.3672 18.7845L57.1211 18.2269L56.8638 17.6755L56.5955 17.1303L56.3165 16.5915L56.0266 16.0593L55.7262 15.5338L55.4153 15.0152L55.0942 14.5035L54.763 13.999L54.4216 13.5017L54.0705 13.0119L53.7095 12.5297L53.3391 12.0551L53.3513 11.8387L53.3512 11.8387ZM53.339 12.055C53.283 11.9849 53.2946 11.8825 53.3647 11.8265C53.4349 11.7705 53.5373 11.7821 53.5933 11.8523L53.339 12.055V12.055ZM54.0439 11.6059L53.5811 12.0687L53.3511 11.8387L53.8139 11.3759L54.0557 11.3893L54.0438 11.6059H54.0439ZM53.8139 11.3759C53.8774 11.3124 53.9804 11.3124 54.0439 11.3759C54.1074 11.4394 54.1074 11.5424 54.0439 11.6059L53.8139 11.3759ZM5.09199e-05 30.3546H0.325226L0.332405 31.0184L0.353894 31.6788L0.389487 32.3354L0.439133 32.9882L0.50258 33.6371L0.579723 34.2818L0.670412 34.9223L0.774492 35.5583L0.891863 36.1898L1.02232 36.8165L1.16566 37.4385L1.32188 38.0554L1.49073 38.6672L1.67211 39.2737L1.86581 39.8747L2.07173 40.4701L2.28972 41.0599L2.51967 41.6437L2.76134 42.2215L3.01461 42.7931L3.27945 43.3584L3.55554 43.9172L3.84288 44.4694L4.14117 45.0148L4.4504 45.5533L4.77028 46.0848L5.1008 46.609L5.44171 47.1259L5.79301 47.6352L6.15444 48.1369L6.5258 48.6307L6.90703 49.1167L6.65325 49.32L6.26794 48.8289L5.89251 48.3297L5.52726 47.8226L5.17219 47.3078L4.82752 46.7853L4.49343 46.2553L4.17009 45.7181L3.85749 45.1739L3.55594 44.6225L3.26555 44.0643L2.98645 43.4994L2.71877 42.928L2.46274 42.3501L2.21843 41.7661L1.98593 41.1759L1.7656 40.5797L1.55744 39.9778L1.3616 39.3702L1.17819 38.757L1.0075 38.1386L0.84965 37.5149L0.704681 36.8862L0.572798 36.2526L0.454206 35.6143L0.349005 34.9713L0.257298 34.3239L0.17934 33.6722L0.115232 33.0164L0.0650757 32.3566L0.0290753 31.6929L0.00738339 31.0255L0.00010184 30.3546L5.09199e-05 30.3546ZM5.09199e-05 30.3546C5.09199e-05 30.2648 0.0728664 30.192 0.162638 30.192C0.25241 30.192 0.325226 30.2648 0.325226 30.3546H5.09199e-05ZM6.89517 11.3759L6.66516 11.6059L6.90703 11.5926L6.5258 12.0786L6.15444 12.5724L5.79301 13.074L5.44171 13.5834L5.1008 14.1003L4.77028 14.6245L4.4504 15.1559L4.14117 15.6944L3.84288 16.2398L3.55554 16.792L3.27945 17.3508L3.01461 17.9161L2.76129 18.4878L2.51962 19.0655L2.28972 19.6493L2.07168 20.239L1.86576 20.8345L1.67206 21.4355L1.49073 22.042L1.32188 22.6538L1.16566 23.2708L1.02227 23.8926L0.891812 24.5194L0.774492 25.1509L0.670361 25.7869L0.579672 26.4274L0.502529 27.0721L0.439083 27.721L0.389436 28.3738L0.353843 29.0305L0.332354 29.6908L0.325175 30.3546H0L0.00728155 29.6838L0.0289734 29.0164L0.0649738 28.3527L0.11513 27.6928L0.179238 27.037L0.257197 26.3853L0.348903 25.7379L0.454155 25.095L0.572696 24.4566L0.704579 23.823L0.849599 23.1943L1.00745 22.5707L1.17813 21.9522L1.3615 21.3391L1.55734 20.7315L1.7655 20.1295L1.98588 19.5334L2.21833 18.9432L2.46264 18.3591L2.71872 17.7813L2.9864 17.2099L3.2655 16.645L3.55589 16.0868L3.85744 15.5355L4.17004 14.9911L4.49338 14.454L4.82746 13.9241L5.17214 13.4016L5.52721 12.8867L5.89245 12.3797L6.26789 11.8804L6.6532 11.3893L6.89507 11.376L6.89517 11.3759ZM6.6533 11.3893C6.70946 11.3192 6.81181 11.3079 6.88188 11.3641C6.95189 11.4202 6.96325 11.5226 6.90709 11.5926L6.6533 11.3893V11.3893ZM7.12792 12.0686L6.66522 11.6059L6.89522 11.3759L7.35793 11.8386L7.3701 12.055L7.12798 12.0686H7.12792ZM7.35793 11.8386C7.42143 11.9021 7.42143 12.0051 7.35793 12.0686C7.29443 12.1321 7.19142 12.1321 7.12792 12.0686L7.35793 11.8386ZM0.975677 30.3546H0.650502L0.65758 29.7005L0.678712 29.0498L0.713643 28.4027L0.762373 27.7593L0.824699 27.1198L0.900468 26.4844L0.989476 25.8531L1.09172 25.2262L1.20696 24.6037L1.33507 23.9858L1.47591 23.3726L1.62934 22.7644L1.79513 22.1612L1.9733 21.5632L2.16354 20.9705L2.36584 20.3833L2.58001 19.8018L2.80584 19.226L3.04323 18.6561L3.29208 18.0923L3.55217 17.5347L3.82337 16.9835L4.10562 16.4387L4.39862 15.9006L4.7024 15.3693L5.01673 14.8449L5.3414 14.3276L5.67635 13.8175L6.02143 13.3147L6.3765 12.8195L6.74134 12.3319L7.11586 11.8522L7.37015 12.0549L6.99971 12.5295L6.63879 13.0117L6.28759 13.5015L5.94628 13.9988L5.61499 14.5033L5.29389 15.015L4.98302 15.5336L4.6826 16.0591L4.39276 16.5913L4.11367 17.1301L3.84542 17.6752L3.58818 18.2267L3.34208 18.7843L3.10734 19.3479L2.88395 19.9173L2.67223 20.4925L2.47216 21.0732L2.28396 21.6593L2.10773 22.2507L1.94377 22.8473L1.79208 23.4488L1.65276 24.0551L1.52607 24.6662L1.41216 25.2819L1.31104 25.9019L1.22294 26.5263L1.14799 27.1548L1.08638 27.7874L1.03816 28.4237L1.00363 29.0638L0.982704 29.7074L0.975728 30.3545L0.975677 30.3546ZM0.975677 30.3546C0.975677 30.4444 0.902861 30.5172 0.813089 30.5172C0.723318 30.5172 0.650502 30.4444 0.650502 30.3546H0.975677ZM7.35793 48.8705L7.12792 48.6405L7.11576 48.8569L6.74124 48.3771L6.3764 47.8895L6.02133 47.3943L5.67625 46.8916L5.3413 46.3815L5.01663 45.8642L4.7023 45.3398L4.39851 44.8084L4.10552 44.2703L3.82327 43.7256L3.55207 43.1743L3.29197 42.6168L3.04313 42.0529L2.80574 41.483L2.57991 40.9072L2.36574 40.3257L2.16343 39.7385L1.9732 39.1459L1.79503 38.5479L1.62923 37.9447L1.47581 37.3365L1.33497 36.7233L1.20685 36.1054L1.09162 35.4829L0.989374 34.8559L0.900366 34.2247L0.824597 33.5892L0.762271 32.9498L0.713541 32.3064L0.67861 31.6593L0.657478 31.0086L0.6504 30.3545H0.975575L0.982551 31.0016L1.00348 31.6453L1.038 32.2853L1.08622 32.9217L1.14784 33.5542L1.22279 34.1826L1.31088 34.807L1.41201 35.4271L1.52592 36.0428L1.65261 36.6539L1.79192 37.2602L1.94361 37.8618L2.10758 38.4583L2.28381 39.0497L2.47201 39.6358L2.67207 40.2165L2.8838 40.7916L3.10719 41.3611L3.34193 41.9247L3.58802 42.4823L3.84527 43.0338L4.11352 43.5789L4.39261 44.1177L4.68244 44.6499L4.98287 45.1754L5.29374 45.6941L5.61484 46.2058L5.94612 46.7103L6.28744 47.2074L6.63864 47.6973L6.99956 48.1796L7.37 48.6541L7.35783 48.8705L7.35793 48.8705ZM7.3701 48.6542C7.42606 48.7244 7.4145 48.8268 7.34434 48.8827C7.27417 48.9387 7.17177 48.9271 7.11581 48.8569L7.3701 48.6542V48.6542ZM6.66522 49.1033L7.12798 48.6405L7.35798 48.8705L6.89522 49.3333L6.65335 49.32L6.66527 49.1033H6.66522ZM6.89522 49.3333C6.83172 49.3968 6.72871 49.3968 6.66522 49.3333C6.60172 49.2698 6.60172 49.1668 6.66522 49.1033L6.89522 49.3333ZM45.7201 10.5084L45.4901 10.2784L45.5063 10.5225L45.1094 10.225L44.7063 9.93524L44.2975 9.65335L43.8827 9.3794L43.4623 9.11355L43.0363 8.85589L42.6047 8.60659L42.1678 8.36568L41.7256 8.13329L41.2782 7.90954L40.8258 7.69456L40.3685 7.48844L39.9064 7.29133L39.4395 7.10323L38.968 6.9244L38.492 6.75478L38.0116 6.59469L37.5269 6.44412L37.0381 6.30312L36.5452 6.1719L36.0485 6.05051L35.5478 5.9392L35.0435 5.83787L34.5354 5.74667L34.0239 5.66591L33.5091 5.59554L32.9909 5.53566L32.4696 5.48637L31.9451 5.44792L31.4177 5.42027L30.8874 5.40357L30.3544 5.39802V5.07285L30.8942 5.0785L31.4312 5.0954L31.9654 5.12336L32.4966 5.16231L33.0247 5.21221L33.5497 5.27291L34.0712 5.3442L34.5895 5.42608L35.1041 5.51839L35.6151 5.62105L36.1222 5.73389L36.6256 5.85681L37.1249 5.98976L37.6201 6.13259L38.1111 6.2852L38.5978 6.44743L39.08 6.61918L39.5578 6.80046L40.0308 6.991L40.499 7.19066L40.9623 7.39953L41.4206 7.61726L41.8739 7.84396L42.3218 8.07936L42.7644 8.32342L43.2016 8.57598L43.6332 8.837L44.0591 9.10631L44.4792 9.38378L44.8935 9.66934L45.3016 9.96289L45.7037 10.2643L45.7199 10.5084L45.7201 10.5084ZM45.7039 10.2643C45.7752 10.3189 45.7888 10.421 45.7342 10.4923C45.6796 10.5636 45.5776 10.5772 45.5062 10.5226L45.7038 10.2643H45.7039ZM45.0259 10.7427L45.4901 10.2785L45.7201 10.5085L45.2559 10.9727L45.0426 10.9872L45.0259 10.7427V10.7427ZM45.2559 10.9727C45.1924 11.0362 45.0894 11.0362 45.0259 10.9727C44.9624 10.9092 44.9624 10.8062 45.0259 10.7427L45.2559 10.9727ZM30.3545 6.04847V5.7233L30.8775 5.72875L31.3978 5.74504L31.9154 5.77198L32.4301 5.8095L32.9418 5.85757L33.4505 5.91608L33.9559 5.98477L34.4581 6.06365L34.9568 6.15265L35.452 6.25154L35.9436 6.3603L36.4315 6.47874L36.9156 6.60691L37.3957 6.7446L37.8717 6.89165L38.3437 7.04808L38.8112 7.21362L39.2744 7.38833L39.7331 7.572L40.1872 7.76447L40.6367 7.96581L41.0813 8.1758L41.521 8.3943L41.9557 8.6213L42.3852 8.8566L42.8096 9.1001L43.2285 9.3518L43.6419 9.61149L44.0499 9.87902L44.4521 10.1544L44.8486 10.4376L45.2393 10.7282L45.0426 10.9871L44.6571 10.7003L44.2658 10.421L43.8688 10.1492L43.4663 9.88513L43.0583 9.62891L42.6449 9.38057L42.2262 9.14023L41.8024 8.90803L41.3735 8.68409L40.9395 8.46844L40.5008 8.2612L40.0573 8.06261L39.6092 7.87263L39.1567 7.6914L38.6996 7.51904L38.2382 7.35564L37.7726 7.20135L37.303 7.05623L36.8292 6.92037L36.3516 6.79394L35.8702 6.67703L35.3851 6.56979L34.8964 6.47213L34.4043 6.38434L33.9088 6.30648L33.41 6.23871L32.9081 6.18102L32.4031 6.13356L31.8952 6.09654L31.3843 6.06991L30.8708 6.05382L30.3546 6.04847H30.3545ZM30.3545 6.04847C30.2648 6.04847 30.192 5.97566 30.192 5.88588C30.192 5.79611 30.2648 5.7233 30.3545 5.7233V6.04847ZM15.4533 10.9726L15.6833 10.7426L15.4699 10.7281L15.8605 10.4375L16.2571 10.1544L16.6593 9.87897L17.0672 9.61144L17.4807 9.35175L17.8996 9.10005L18.3239 8.85655L18.7535 8.62125L19.1882 8.39425L19.6279 8.17575L20.0725 7.96581L20.5219 7.76447L20.976 7.57194L21.4347 7.38828L21.8979 7.21357L22.3656 7.04803L22.8374 6.89165L23.3135 6.74455L23.7935 6.60691L24.2776 6.47874L24.7655 6.3603L25.2571 6.25154L25.7523 6.1526L26.2511 6.06365L26.7532 5.98477L27.2586 5.91608L27.7672 5.85757L28.279 5.8095L28.7937 5.77198L29.3112 5.74504L29.8316 5.72875L30.3545 5.7233V6.04847L29.8383 6.05382L29.3248 6.06991L28.814 6.09654L28.3061 6.13356L27.8011 6.18102L27.2991 6.23871L26.8004 6.30648L26.3049 6.38434L25.8128 6.47207L25.3241 6.56969L24.839 6.67703L24.3575 6.79394L23.88 6.92037L23.4063 7.05618L22.9366 7.20135L22.471 7.35559L22.0096 7.51899L21.5526 7.69135L21.0999 7.87258L20.6519 8.06261L20.2084 8.2612L19.7697 8.46839L19.3358 8.68404L18.9069 8.90798L18.483 9.14018L18.0644 9.38052L17.6509 9.62885L17.2429 9.88508L16.8404 10.1492L16.4434 10.4209L16.0521 10.7003L15.6667 10.9871L15.4533 10.9726L15.4533 10.9726ZM15.6666 10.9871C15.5951 11.0415 15.4931 11.0275 15.4388 10.956C15.3844 10.8845 15.3984 10.7825 15.4699 10.7282L15.6666 10.9871H15.6666ZM15.2191 10.2785L15.6832 10.7427L15.4532 10.9727L14.9891 10.5085L15.0053 10.2644L15.2191 10.2786V10.2785ZM14.9891 10.5085C14.9256 10.4451 14.9256 10.342 14.9891 10.2785C15.0526 10.215 15.1556 10.215 15.2191 10.2785L14.9891 10.5085ZM30.3545 5.07295V5.39812L29.8215 5.40367L29.2913 5.42037L28.7639 5.44802L28.2394 5.48647L27.7181 5.53576L27.1999 5.59564L26.685 5.66601L26.1736 5.74677L25.6656 5.83797L25.1612 5.9393L24.6606 6.05061L24.1638 6.172L23.6709 6.30322L23.1821 6.44422L22.6975 6.59479L22.2171 6.75488L21.7411 6.9245L21.2696 7.10333L20.8027 7.29143L20.3406 7.48854L19.8832 7.69466L19.4308 7.90965L18.9835 8.13339L18.5413 8.36579L18.1044 8.60669L17.6728 8.85599L17.2468 9.11365L16.8263 9.3795L16.4116 9.65345L16.0028 9.93534L15.5997 10.2251L15.2028 10.5227L15.0052 10.2644L15.4073 9.96299L15.8155 9.66944L16.2297 9.38388L16.6498 9.10642L17.0757 8.8371L17.5073 8.57609L17.9445 8.32352L18.3871 8.07946L18.8351 7.84406L19.2883 7.61736L19.7465 7.39963L20.2099 7.19076L20.6781 6.9911L21.1511 6.80056L21.6289 6.61928L22.1111 6.44753L22.5978 6.2853L23.0888 6.13269L23.584 5.98986L24.0832 5.85691L24.5866 5.73399L25.0938 5.62115L25.6048 5.5185L26.1194 5.42618L26.6376 5.3443L27.1592 5.27301L27.6841 5.21232L28.2122 5.16241L28.7434 5.12346L29.2776 5.09551L29.8146 5.0786L30.3543 5.07295H30.3545ZM30.3545 5.07295C30.4443 5.07295 30.5171 5.14576 30.5171 5.23554C30.5171 5.32531 30.4443 5.39812 30.3545 5.39812V5.07295ZM55.6362 30.3546H55.3111L55.3055 29.8217L55.2888 29.2914L55.2612 28.764L55.2227 28.2395L55.1734 27.7182L55.1135 27.2L55.0432 26.6851L54.9624 26.1737L54.8712 25.6657L54.7699 25.1613L54.6586 24.6606L54.5372 24.1639L54.406 23.671L54.265 23.1822L54.1144 22.6976L53.9543 22.2171L53.7847 21.7411L53.6059 21.2697L53.4178 20.8028L53.2206 20.3406L53.0145 19.8833L52.7995 19.4309L52.5758 18.9836L52.3434 18.5414L52.1025 18.1044L51.8532 17.6729L51.5955 17.2468L51.3297 16.8264L51.0557 16.4116L50.7738 16.0028L50.4841 15.5998L50.1865 15.2029L50.4448 15.0052L50.7462 15.4073L51.0397 15.8155L51.3253 16.2298L51.6028 16.6499L51.8721 17.0757L52.1331 17.5074L52.3857 17.9445L52.6297 18.3872L52.8651 18.8351L53.0918 19.2884L53.3096 19.7466L53.5184 20.21L53.7181 20.6782L53.9086 21.1512L54.0899 21.6289L54.2617 22.1111L54.4239 22.5979L54.5765 23.0888L54.7193 23.584L54.8523 24.0833L54.9752 24.5867L55.088 25.0939L55.1907 25.6049L55.283 26.1195L55.3649 26.6377L55.4362 27.1593L55.4969 27.6842L55.5468 28.2123L55.5857 28.7435L55.6137 29.2777L55.6306 29.8147L55.6362 30.3545V30.3546ZM55.6362 30.3546C55.6362 30.4444 55.5634 30.5172 55.4737 30.5172C55.3839 30.5172 55.3111 30.4444 55.3111 30.3546H55.6362ZM50.2007 45.7201L50.4307 45.4901L50.1866 45.5063L50.4842 45.1093L50.7739 44.7063L51.0558 44.2975L51.3297 43.8828L51.5956 43.4623L51.8532 43.0362L52.1025 42.6047L52.3435 42.1677L52.5758 41.7256L52.7996 41.2782L53.0146 40.8258L53.2207 40.3685L53.4178 39.9063L53.6059 39.4395L53.7847 38.968L53.9544 38.492L54.1144 38.0116L54.265 37.527L54.406 37.0381L54.5372 36.5452L54.6586 36.0485L54.7699 35.5479L54.8713 35.0435L54.9624 34.5355L55.0432 34.024L55.1135 33.5091L55.1734 32.9909L55.2227 32.4696L55.2612 31.9451L55.2888 31.4177L55.3055 30.8875L55.3111 30.3545H55.6362L55.6306 30.8943L55.6137 31.4313L55.5857 31.9654L55.5468 32.4966L55.4969 33.0248L55.4362 33.5497L55.3649 34.0713L55.2831 34.5895L55.1907 35.1041L55.0881 35.6151L54.9752 36.1223L54.8523 36.6256L54.7193 37.1249L54.5765 37.6201L54.4239 38.1111L54.2617 38.5979L54.09 39.0801L53.9087 39.5577L53.7181 40.0307L53.5185 40.499L53.3096 40.9623L53.0919 41.4207L52.8652 41.8738L52.6298 42.3218L52.3857 42.7644L52.1332 43.2016L51.8721 43.6332L51.6028 44.0591L51.3254 44.4792L51.0398 44.8934L50.7463 45.3016L50.4449 45.7037L50.2008 45.7199L50.2007 45.7201ZM50.4449 45.7039C50.3903 45.7752 50.2882 45.7888 50.2169 45.7342C50.1456 45.6796 50.132 45.5775 50.1866 45.5062L50.4449 45.7038V45.7039ZM49.9665 45.0259L50.4307 45.4901L50.2007 45.7201L49.7365 45.2559L49.7219 45.0425L49.9664 45.0259H49.9665ZM49.7365 45.2559C49.673 45.1924 49.673 45.0894 49.7365 45.0259C49.7999 44.9624 49.903 44.9624 49.9665 45.0259L49.7365 45.2559ZM54.6606 30.3546H54.9858L54.9803 30.8776L54.964 31.3979L54.9371 31.9155L54.8996 32.4302L54.8515 32.9419L54.793 33.4506L54.7243 33.956L54.6454 34.4582L54.5564 34.9569L54.4575 35.4521L54.3488 35.9437L54.2303 36.4316L54.1022 36.9157L53.9645 37.3957L53.8174 37.8718L53.661 38.3437L53.4955 38.8113L53.3208 39.2745L53.1371 39.7332L52.9446 40.1873L52.7433 40.6367L52.5333 41.0813L52.3148 41.521L52.0878 41.9557L51.8525 42.3853L51.609 42.8095L51.3573 43.2285L51.0976 43.642L50.8301 44.0499L50.5547 44.4521L50.2716 44.8486L49.981 45.2392L49.722 45.0425L50.0088 44.6571L50.2882 44.2658L50.5599 43.8688L50.824 43.4663L51.0802 43.0583L51.3286 42.6449L51.5689 42.2262L51.801 41.8023L52.025 41.3735L52.2407 40.9396L52.4479 40.5008L52.6465 40.0574L52.8365 39.6093L53.0177 39.1567L53.19 38.6996L53.3534 38.2383L53.5077 37.7727L53.6529 37.303L53.7887 36.8293L53.9151 36.3517L54.0321 35.8703L54.1393 35.3852L54.237 34.8965L54.3247 34.4043L54.4026 33.9089L54.4704 33.4101L54.5281 32.9082L54.5755 32.4032L54.6125 31.8953L54.6392 31.3844L54.6553 30.8709L54.6606 30.3547V30.3546ZM54.6606 30.3546C54.6606 30.2649 54.7334 30.192 54.8232 30.192C54.913 30.192 54.9858 30.2649 54.9858 30.3546H54.6606ZM49.7364 15.4534L49.9664 15.6834L49.9809 15.47L50.2715 15.8606L50.5546 16.2572L50.8301 16.6594L51.0976 17.0673L51.3573 17.4808L51.609 17.8997L51.8525 18.324L52.0878 18.7536L52.3148 19.1883L52.5333 19.6279L52.7433 20.0726L52.9446 20.522L53.1371 20.9761L53.3208 21.4348L53.4955 21.898L53.661 22.3656L53.8174 22.8375L53.9645 23.3136L54.1022 23.7936L54.2303 24.2777L54.3488 24.7656L54.4575 25.2572L54.5564 25.7524L54.6454 26.2511L54.7243 26.7533L54.793 27.2587L54.8515 27.7673L54.8996 28.2791L54.9371 28.7938L54.964 29.3113L54.9803 29.8317L54.9858 30.3546H54.6606L54.6553 29.8384L54.6392 29.3249L54.6125 28.8141L54.5755 28.3062L54.5281 27.8012L54.4704 27.2992L54.4026 26.8004L54.3247 26.305L54.237 25.8129L54.1393 25.3242L54.0321 24.839L53.9151 24.3576L53.7887 23.8801L53.6529 23.4064L53.5077 22.9367L53.3534 22.4711L53.19 22.0097L53.0177 21.5527L52.8365 21.1L52.6465 20.6519L52.4479 20.2085L52.2406 19.7698L52.025 19.3359L51.801 18.907L51.5689 18.4832L51.3285 18.0645L51.0802 17.651L50.8239 17.2431L50.5599 16.8405L50.2881 16.4435L50.0088 16.0522L49.7219 15.6668L49.7365 15.4534L49.7364 15.4534ZM49.7219 15.6667C49.6676 15.5952 49.6815 15.4932 49.753 15.4389C49.8245 15.3845 49.9265 15.3985 49.9809 15.47L49.7219 15.6667V15.6667ZM50.4305 15.2191L49.9664 15.6833L49.7364 15.4533L50.2005 14.9891L50.4446 15.0053L50.4305 15.2191H50.4305ZM50.2005 14.9891C50.264 14.9256 50.367 14.9256 50.4305 14.9891C50.494 15.0526 50.494 15.1556 50.4305 15.2191L50.2005 14.9891ZM5.07269 30.3546H5.39787L5.40342 30.8876L5.42012 31.4178L5.44777 31.9452L5.48622 32.4697L5.53551 32.991L5.59539 33.5092L5.66576 34.0241L5.74652 34.5356L5.83772 35.0436L5.939 35.548L6.05036 36.0486L6.17175 36.5453L6.30297 37.0382L6.44397 37.5271L6.59454 38.0117L6.75463 38.4921L6.92425 38.9681L7.10313 39.4396L7.29112 39.9065L7.48829 40.3686L7.69436 40.8259L7.90939 41.2783L8.13313 41.7257L8.36553 42.1679L8.60639 42.6048L8.85574 43.0364L9.11339 43.4624L9.37925 43.8829L9.6532 44.2976L9.93504 44.7064L10.2248 45.1094L10.5223 45.5064L10.2641 45.704L9.96269 45.3019L9.66914 44.8937L9.38363 44.4795L9.10616 44.0594L8.83685 43.6335L8.57583 43.2019L8.32322 42.7647L8.07921 42.322L7.84381 41.8741L7.61711 41.4209L7.39933 40.9626L7.19051 40.4993L6.9908 40.031L6.80025 39.558L6.61903 39.0803L6.44728 38.5981L6.28505 38.1114L6.13244 37.6204L5.98961 37.1252L5.85666 36.6259L5.73374 36.1226L5.62085 35.6154L5.51824 35.1044L5.42593 34.5897L5.34405 34.0715L5.27276 33.55L5.21206 33.025L5.16216 32.4969L5.12321 31.9657L5.09525 31.4315L5.07835 30.8945L5.07269 30.3547V30.3546ZM5.07269 30.3546C5.07269 30.2648 5.14551 30.192 5.23528 30.192C5.32505 30.192 5.39787 30.2648 5.39787 30.3546H5.07269ZM10.5083 14.9891L10.2783 15.2191L10.5225 15.2029L10.2249 15.5998L9.93514 16.0029L9.65325 16.4117L9.3793 16.8264L9.11345 17.2469L8.85579 17.6729L8.60649 18.1045L8.36558 18.5414L8.13319 18.9836L7.90944 19.431L7.69441 19.8834L7.48834 20.3407L7.29117 20.8029L7.10308 21.2697L6.92425 21.7412L6.75468 22.2172L6.59454 22.6976L6.44397 23.1822L6.30297 23.671L6.17175 24.1639L6.05036 24.6607L5.93905 25.1614L5.83772 25.6657L5.74652 26.1737L5.66576 26.6852L5.59539 27.2L5.53551 27.7183L5.48627 28.2396L5.44777 28.764L5.42012 29.2914L5.40342 29.8217L5.39787 30.3547H5.07269L5.07835 29.8149L5.09525 29.2779L5.12321 28.7437L5.16221 28.2125L5.21206 27.6844L5.27276 27.1595L5.34405 26.6379L5.42593 26.1197L5.51824 25.6051L5.6209 25.0941L5.73374 24.5869L5.85666 24.0835L5.98961 23.5842L6.13244 23.089L6.28505 22.5981L6.44733 22.1113L6.61903 21.6291L6.80031 21.1514L6.99085 20.6784L7.19056 20.2102L7.39938 19.7468L7.61716 19.2886L7.84386 18.8353L8.07926 18.3874L8.32332 17.9447L8.57588 17.5076L8.8369 17.0759L9.10622 16.6501L9.38368 16.23L9.66924 15.8157L9.96279 15.4076L10.2642 15.0054L10.5083 14.9892L10.5083 14.9891ZM10.2642 15.0053C10.3188 14.934 10.4209 14.9204 10.4922 14.975C10.5635 15.0296 10.5771 15.1316 10.5225 15.203L10.2642 15.0053V15.0053ZM10.7425 15.6832L10.2784 15.2191L10.5084 14.9891L10.9725 15.4532L10.987 15.6666L10.7425 15.6832H10.7425ZM10.9725 15.4532C11.036 15.5167 11.036 15.6197 10.9725 15.6832C10.909 15.7467 10.806 15.7467 10.7425 15.6832L10.9725 15.4532ZM6.04832 30.3546H5.72315L5.72859 29.8316L5.74489 29.3113L5.77183 28.7937L5.80935 28.279L5.85742 27.7673L5.91593 27.2586L5.98462 26.7532L6.06349 26.251L6.1525 25.7523L6.25139 25.2571L6.36015 24.7655L6.47859 24.2776L6.60676 23.7935L6.74445 23.3134L6.8915 22.8373L7.04793 22.3655L7.21347 21.8979L7.38813 21.4347L7.57184 20.976L7.76432 20.5218L7.96566 20.0724L8.1756 19.6278L8.3941 19.1881L8.62115 18.7534L8.85645 18.3238L9.0999 17.8996L9.3516 17.4807L9.61129 17.0671L9.87887 16.6593L10.1542 16.257L10.4374 15.8605L10.728 15.4699L10.9869 15.6666L10.7001 16.052L10.4208 16.4433L10.1491 16.8403L9.88493 17.2428L9.62871 17.6508L9.38037 18.0642L9.14008 18.4829L8.90788 18.9068L8.68389 19.3357L8.46824 19.7696L8.26105 20.2083L8.06246 20.6517L7.87248 21.0998L7.6912 21.5525L7.51889 22.0095L7.35549 22.4709L7.2012 22.9365L7.05608 23.4062L6.92022 23.8799L6.79379 24.3575L6.67688 24.8389L6.56964 25.324L6.47197 25.8127L6.38419 26.3048L6.30633 26.8003L6.23856 27.2991L6.18087 27.8011L6.13341 28.306L6.09639 28.8139L6.06976 29.3248L6.05367 29.8383L6.04832 30.3545V30.3546ZM6.04832 30.3546C6.04832 30.4444 5.9755 30.5172 5.88573 30.5172C5.79596 30.5172 5.72315 30.4444 5.72315 30.3546H6.04832ZM10.9725 45.2559L10.7425 45.0259L10.728 45.2392L10.4374 44.8486L10.1542 44.4521L9.87887 44.0499L9.61129 43.642L9.3516 43.2285L9.0999 42.8095L8.85645 42.3853L8.62115 41.9557L8.3941 41.521L8.1756 41.0813L7.96566 40.6367L7.76432 40.1873L7.57184 39.7332L7.38813 39.2744L7.21347 38.8113L7.04793 38.3437L6.8915 37.8718L6.74445 37.3957L6.60676 36.9157L6.47859 36.4316L6.36015 35.9437L6.25139 35.4521L6.1525 34.9569L6.06349 34.4581L5.98462 33.9559L5.91593 33.4506L5.85742 32.9419L5.80935 32.4302L5.77183 31.9154L5.74489 31.3979L5.72859 30.8775L5.72315 30.3546H6.04832L6.05367 30.8708L6.06976 31.3843L6.09639 31.8952L6.13341 32.4031L6.18087 32.9081L6.23856 33.41L6.30633 33.9088L6.38419 34.4042L6.47197 34.8964L6.56964 35.3851L6.67688 35.8702L6.79379 36.3516L6.92022 36.8292L7.05608 37.303L7.2012 37.7726L7.35549 38.2382L7.51889 38.6995L7.6912 39.1566L7.87248 39.6092L8.06246 40.0573L8.26105 40.5008L8.46824 40.9395L8.68389 41.3734L8.90788 41.8023L9.14008 42.2262L9.38037 42.6448L9.62871 43.0582L9.88493 43.4663L10.1491 43.8688L10.4208 44.2658L10.7001 44.6571L10.9869 45.0425L10.9724 45.2558L10.9725 45.2559ZM10.987 45.0425C11.0413 45.114 11.0274 45.2161 10.9559 45.2704C10.8844 45.3247 10.7823 45.3108 10.728 45.2393L10.987 45.0426V45.0425ZM10.2783 45.4901L10.7425 45.0259L10.9725 45.2559L10.5083 45.7201L10.2642 45.7039L10.2784 45.4901H10.2783ZM10.5083 45.7201C10.4448 45.7836 10.3418 45.7836 10.2783 45.7201C10.2148 45.6566 10.2148 45.5536 10.2783 45.4901L10.5083 45.7201ZM41.9532 14.2753L41.7232 14.0453L41.7441 14.2928L41.4406 14.0815L41.1329 13.8757L40.8212 13.6756L40.5056 13.4813L40.186 13.2927L39.8627 13.1099L39.5356 12.9333L39.2049 12.7625L38.8705 12.5979L38.5326 12.4396L38.1912 12.2874L37.8465 12.1415L37.4985 12.0021L37.1472 11.8691L36.7927 11.7426L36.4352 11.6229L36.0746 11.5098L35.7112 11.4034L35.3448 11.3039L34.9757 11.2112L34.6039 11.1256L34.2293 11.0471L33.8523 10.9757L33.4727 10.9114L33.0907 10.8545L32.7063 10.8049L32.3196 10.7627L31.9307 10.7281L31.5397 10.701L31.1466 10.6816L30.7515 10.6698L30.3544 10.6659V10.3407L30.7579 10.3447L31.1594 10.3566L31.559 10.3764L31.9565 10.4039L32.3517 10.4392L32.7448 10.482L33.1355 10.5324L33.5238 10.5903L33.9097 10.6556L34.2931 10.7282L34.6738 10.8081L35.0519 10.8951L35.4271 10.9893L35.7996 11.0905L36.169 11.1985L36.5356 11.3135L36.899 11.4353L37.2594 11.5639L37.6165 11.6991L37.9704 11.8409L38.3209 11.9891L38.6679 12.1438L39.0114 12.3048L39.3513 12.4721L39.6876 12.6457L40.0201 12.8254L40.3488 13.0111L40.6736 13.2028L40.9944 13.4003L41.3112 13.6038L41.6239 13.8129L41.9325 14.0278L41.9533 14.2753H41.9532ZM41.9324 14.0278C42.0056 14.0798 42.0227 14.1813 41.9708 14.2545C41.9188 14.3277 41.8172 14.3449 41.744 14.2929L41.9324 14.0278ZM41.2564 14.5121L41.7232 14.0453L41.9532 14.2753L41.4865 14.7421L41.278 14.7603L41.2565 14.5122L41.2564 14.5121ZM41.4865 14.7421C41.423 14.8056 41.3199 14.8056 41.2564 14.7421C41.193 14.6786 41.193 14.5756 41.2564 14.5121L41.4865 14.7421ZM30.3545 11.3163V10.9912L30.7411 10.995L31.1259 11.0062L31.5087 11.025L31.8896 11.0512L32.2685 11.0846L32.6452 11.1253L33.0197 11.1732L33.392 11.2281L33.762 11.2901L34.1295 11.3591L34.4945 11.4349L34.8571 11.5175L35.217 11.6069L35.5742 11.7031L35.9287 11.8058L36.2804 11.915L36.6292 12.0306L36.975 12.1528L37.3177 12.2811L37.6574 12.4158L37.9938 12.5567L38.327 12.7037L38.6569 12.8567L38.9834 13.0156L39.3064 13.1805L39.6259 13.3512L39.9418 13.5277L40.254 13.7099L40.5626 13.8977L40.8672 14.0911L41.1681 14.2898L41.4649 14.494L41.278 14.7603L40.9862 14.5595L40.6904 14.364L40.3909 14.1739L40.0875 13.9892L39.7806 13.8101L39.47 13.6366L39.1558 13.4688L38.8382 13.3066L38.5173 13.1503L38.193 13L37.8654 12.8554L37.5346 12.717L37.2008 12.5846L36.8638 12.4583L36.5238 12.3384L36.1811 12.2246L35.8353 12.1173L35.4868 12.0163L35.1356 11.9218L34.7818 11.8339L34.4254 11.7527L34.0664 11.6781L33.705 11.6104L33.3413 11.5494L32.9753 11.4953L32.6071 11.4483L32.2367 11.4083L31.8642 11.3754L31.4896 11.3497L31.1131 11.3313L30.7348 11.3201L30.3545 11.3164V11.3163ZM30.3545 11.3163C30.2647 11.3163 30.1919 11.2435 30.1919 11.1538C30.1919 11.064 30.2647 10.9912 30.3545 10.9912V11.3163ZM19.2227 14.742L19.4526 14.512L19.2443 14.4939L19.5411 14.2897L19.8419 14.0909L20.1466 13.8976L20.4551 13.7098L20.7674 13.5276L21.0833 13.3511L21.4028 13.1804L21.7258 13.0155L22.0523 12.8566L22.3822 12.7036L22.7153 12.5566L23.0518 12.4157L23.3914 12.2811L23.7342 12.1526L24.08 12.0305L24.4287 11.9149L24.7804 11.8057L25.1348 11.703L25.4921 11.6069L25.852 11.5175L26.2146 11.4348L26.5796 11.359L26.9472 11.2901L27.3171 11.2281L27.6894 11.1731L28.0639 11.1252L28.4406 11.0846L28.8195 11.0512L29.2003 11.025L29.5832 11.0062L29.968 10.9949L30.3545 10.9911V11.3163L29.9743 11.32L29.5959 11.3312L29.2194 11.3496L28.8449 11.3753L28.4724 11.4082L28.102 11.4482L27.7338 11.4952L27.3678 11.5493L27.0041 11.6103L26.6427 11.678L26.2837 11.7526L25.9274 11.8338L25.5735 11.9217L25.2223 12.0161L24.8739 12.1171L24.5281 12.2245L24.1853 12.3382L23.8454 12.4582L23.5085 12.5844L23.1745 12.7168L22.8439 12.8553L22.5163 12.9999L22.1919 13.1502L21.871 13.3065L21.5534 13.4686L21.2393 13.6365L20.9287 13.8099L20.6217 13.989L20.3184 14.1737L20.0188 14.3638L19.7231 14.5593L19.4311 14.7601L19.2228 14.7419L19.2227 14.742ZM19.431 14.7602C19.3576 14.8117 19.2561 14.7939 19.2046 14.7204C19.153 14.647 19.1708 14.5455 19.2443 14.4939L19.431 14.7602ZM18.9858 14.0453L19.4526 14.5121L19.2227 14.7421L18.7558 14.2753L18.7766 14.0278L18.9858 14.0454V14.0453ZM18.7558 14.2753C18.6924 14.2119 18.6923 14.1089 18.7558 14.0454C18.8193 13.9819 18.9223 13.9818 18.9858 14.0453L18.7558 14.2753ZM30.3544 10.3408V10.666L29.9574 10.6699L29.5623 10.6817L29.1692 10.7011L28.7782 10.7282L28.3893 10.7628L28.0027 10.805L27.6182 10.8546L27.2362 10.9115L26.8566 10.9757L26.4796 11.0471L26.1051 11.1257L25.7333 11.2113L25.3641 11.3039L24.9978 11.4035L24.6343 11.5099L24.2737 11.6229L23.9162 11.7427L23.5618 11.8692L23.2105 12.0021L22.8624 12.1416L22.5177 12.2874L22.1763 12.4396L21.8385 12.598L21.5041 12.7626L21.1733 12.9333L20.8462 13.11L20.5229 13.2927L20.2034 13.4813L19.8877 13.6756L19.5761 13.8757L19.2684 14.0815L18.9649 14.2929L18.7765 14.0278L19.0851 13.8129L19.3977 13.6037L19.7146 13.4003L20.0354 13.2028L20.3602 13.0111L20.6889 12.8254L21.0214 12.6457L21.3577 12.4721L21.6975 12.3048L22.041 12.1438L22.3881 11.9891L22.7385 11.8409L23.0924 11.6991L23.4495 11.5639L23.8099 11.4353L24.1734 11.3135L24.5399 11.1986L24.9094 11.0905L25.2818 10.9893L25.6571 10.8951L26.0351 10.8081L26.4158 10.7282L26.7992 10.6556L27.1851 10.5904L27.5734 10.5324L27.9642 10.482L28.3572 10.4392L28.7525 10.404L29.1499 10.3765L29.5494 10.3567L29.951 10.3448L30.3544 10.3408V10.3408ZM30.3544 10.3408C30.4442 10.3408 30.517 10.4136 30.517 10.5034C30.517 10.5932 30.4442 10.666 30.3544 10.666V10.3408ZM50.3684 30.3547H50.0432L50.0393 29.9577L50.0276 29.5626L50.0082 29.1695L49.9811 28.7785L49.9464 28.3895L49.9042 28.0029L49.8546 27.6185L49.7977 27.2365L49.7334 26.8569L49.6621 26.4798L49.5835 26.1053L49.4979 25.7335L49.4053 25.3643L49.3057 24.998L49.1993 24.6345L49.0863 24.274L48.9665 23.9165L48.84 23.562L48.7071 23.2108L48.5676 22.8627L48.4218 22.518L48.2696 22.1766L48.1112 21.8387L47.9466 21.5043L47.7759 21.1736L47.5992 20.8465L47.4164 20.5232L47.2279 20.2036L47.0336 19.888L46.8334 19.5763L46.6276 19.2687L46.4163 18.9652L46.6814 18.7768L46.8963 19.0853L47.1054 19.398L47.3088 19.7149L47.5064 20.0357L47.6981 20.3605L47.8838 20.6892L48.0635 21.0217L48.2371 21.3579L48.4044 21.6978L48.5654 22.0413L48.72 22.3884L48.8683 22.7388L49.0101 23.0926L49.1453 23.4498L49.2738 23.8102L49.3956 24.1736L49.5107 24.5401L49.6187 24.9096L49.7199 25.282L49.8141 25.6573L49.9011 26.0354L49.981 26.4161L50.0536 26.7995L50.1189 27.1853L50.1768 27.5737L50.2272 27.9644L50.27 28.3575L50.3053 28.7527L50.3328 29.1502L50.3526 29.5497L50.3644 29.9513L50.3685 30.3547H50.3684ZM50.3684 30.3547C50.3684 30.4445 50.2956 30.5173 50.2058 30.5173C50.1161 30.5173 50.0432 30.4445 50.0432 30.3547H50.3684ZM46.4339 41.9534L46.6639 41.7234L46.4164 41.7442L46.6277 41.4407L46.8335 41.1331L47.0336 40.8214L47.2279 40.5057L47.4165 40.1862L47.5992 39.8629L47.7759 39.5358L47.9466 39.205L48.1112 38.8706L48.2696 38.5328L48.4218 38.1914L48.5676 37.8467L48.7071 37.4986L48.84 37.1474L48.9665 36.7929L49.0863 36.4354L49.1993 36.0748L49.3057 35.7114L49.4053 35.345L49.4979 34.9759L49.5835 34.6041L49.6621 34.2295L49.7334 33.8525L49.7977 33.4729L49.8546 33.0909L49.9042 32.7065L49.9464 32.3198L49.9811 31.9309L50.0082 31.5399L50.0276 31.1468L50.0393 30.7517L50.0432 30.3547H50.3684L50.3644 30.7581L50.3525 31.1597L50.3327 31.5592L50.3052 31.9567L50.2699 32.3519L50.2272 32.745L50.1767 33.1357L50.1188 33.524L50.0535 33.9099L49.9809 34.2933L49.9011 34.674L49.814 35.052L49.7199 35.4273L49.6187 35.7998L49.5106 36.1692L49.3956 36.5358L49.2738 36.8992L49.1453 37.2596L49.0101 37.6167L48.8683 37.9705L48.72 38.3211L48.5654 38.668L48.4043 39.0116L48.237 39.3515L48.0635 39.6877L47.8838 40.0202L47.6981 40.3489L47.5064 40.6737L47.3088 40.9945L47.1054 41.3113L46.8963 41.624L46.6814 41.9326L46.4339 41.9534V41.9534ZM46.6814 41.9326C46.6294 42.0057 46.5279 42.0229 46.4547 41.9709C46.3815 41.9189 46.3643 41.8174 46.4163 41.7441L46.6814 41.9326ZM46.1971 41.2566L46.6638 41.7234L46.4338 41.9534L45.9671 41.4866L45.949 41.2782L46.1971 41.2566L46.1971 41.2566ZM45.9671 41.4866C45.9036 41.4231 45.9036 41.3201 45.9671 41.2566C46.0306 41.1931 46.1336 41.1931 46.1971 41.2566L45.9671 41.4866ZM49.3928 30.3547H49.718L49.7141 30.7413L49.7029 31.1261L49.6841 31.509L49.6579 31.8899L49.6245 32.2687L49.5838 32.6454L49.536 33.02L49.481 33.3923L49.419 33.7622L49.3501 34.1297L49.2743 34.4947L49.1916 34.8573L49.1022 35.2172L49.0061 35.5745L48.9034 35.9289L48.7942 36.2806L48.6785 36.6293L48.5564 36.9751L48.428 37.3179L48.2934 37.6575L48.1525 37.994L48.0055 38.3272L47.8525 38.657L47.6935 38.9835L47.5287 39.3065L47.358 39.626L47.1814 39.9419L46.9993 40.2542L46.8115 40.5627L46.6182 40.8674L46.4194 41.1682L46.2152 41.465L45.949 41.2782L46.1498 40.9863L46.3452 40.6906L46.5354 40.391L46.72 40.0877L46.8991 39.7807L47.0726 39.4701L47.2404 39.156L47.4025 38.8384L47.5588 38.5175L47.7092 38.1931L47.8537 37.8655L47.9922 37.5349L48.1246 37.2009L48.2509 36.864L48.3708 36.5241L48.4845 36.1812L48.5919 35.8355L48.6929 35.4871L48.7874 35.1359L48.8752 34.782L48.9565 34.4256L49.0311 34.0666L49.0988 33.7053L49.1597 33.3415L49.2138 32.9756L49.2609 32.6073L49.3008 32.2369L49.3337 31.8644L49.3594 31.4898L49.3779 31.1134L49.389 30.735L49.3927 30.3547H49.3928ZM49.3928 30.3547C49.3928 30.265 49.4656 30.1922 49.5554 30.1922C49.6452 30.1922 49.718 30.265 49.718 30.3547H49.3928ZM45.967 19.2228L46.197 19.4528L46.2151 19.2444L46.4194 19.5413L46.6181 19.8421L46.8115 20.1467L46.9993 20.4552L47.1814 20.7675L47.358 21.0834L47.5287 21.4029L47.6935 21.7259L47.8525 22.0524L48.0055 22.3823L48.1525 22.7155L48.2934 23.0519L48.4281 23.3916L48.5564 23.7343L48.6785 24.0801L48.7942 24.4289L48.9034 24.7805L49.0061 25.135L49.1022 25.4922L49.1917 25.8522L49.2743 26.2147L49.3501 26.5798L49.4191 26.9473L49.481 27.3172L49.536 27.6895L49.5839 28.0641L49.6246 28.4408L49.658 28.8196L49.6841 29.2005L49.7029 29.5834L49.7142 29.9682L49.718 30.3547H49.3928L49.3891 29.9745L49.378 29.5961L49.3595 29.2196L49.3338 28.8451L49.3009 28.4726L49.261 28.1021L49.2139 27.7339L49.1598 27.3679L49.0989 27.0043L49.0312 26.6429L48.9566 26.2839L48.8753 25.9275L48.7875 25.5737L48.693 25.2225L48.592 24.874L48.4846 24.5282L48.3709 24.1854L48.2509 23.8455L48.1247 23.5086L47.9922 23.1747L47.8538 22.8439L47.7093 22.5163L47.5589 22.1921L47.4026 21.8711L47.2405 21.5534L47.0726 21.2393L46.8991 20.9287L46.72 20.6218L46.5354 20.3184L46.3452 20.0189L46.1498 19.7232L45.949 19.4313L45.9671 19.2229L45.967 19.2228ZM45.9489 19.4312C45.8973 19.3578 45.9151 19.2563 45.9885 19.2047C46.062 19.1531 46.1635 19.1709 46.2151 19.2444L45.9489 19.4312ZM46.6637 18.986L46.197 19.4528L45.9669 19.2228L46.4337 18.756L46.6813 18.7768L46.6637 18.986H46.6637ZM46.4337 18.756C46.4972 18.6925 46.6002 18.6925 46.6637 18.756C46.7272 18.8195 46.7272 18.9225 46.6637 18.986L46.4337 18.756ZM10.3405 30.3547H10.6656L10.6696 30.7517L10.6813 31.1468L10.7007 31.5399L10.7278 31.9309L10.7625 32.3198L10.8047 32.7065L10.8542 33.0909L10.9112 33.4729L10.9754 33.8525L11.0468 34.2296L11.1253 34.6041L11.2109 34.9759L11.3036 35.345L11.4031 35.7114L11.5095 36.0749L11.6226 36.4354L11.7424 36.7929L11.8688 37.1474L12.0018 37.4986L12.1412 37.8467L12.2871 38.1915L12.4392 38.5328L12.5977 38.8707L12.7623 39.2051L12.933 39.5359L13.1096 39.8629L13.2924 40.1863L13.481 40.5058L13.6753 40.8214L13.8754 41.1331L14.0812 41.4408L14.2925 41.7442L14.0274 41.9327L13.8125 41.6241L13.6034 41.3114L13.4 40.9946L13.2024 40.6738L13.0107 40.349L12.825 40.0203L12.6454 39.6878L12.4718 39.3515L12.3045 39.0116L12.1435 38.6681L11.9888 38.3211L11.8405 37.9706L11.6987 37.6168L11.5635 37.2596L11.435 36.8993L11.3132 36.5358L11.1982 36.1693L11.0901 35.7998L10.9889 35.4273L10.8948 35.0521L10.8078 34.6741L10.7279 34.2933L10.6553 33.91L10.59 33.524L10.5321 33.1357L10.4817 32.745L10.4389 32.3519L10.4036 31.9567L10.3761 31.5592L10.3563 31.1597L10.3444 30.7581L10.3404 30.3547H10.3405ZM10.3405 30.3547C10.3405 30.2649 10.4133 30.1921 10.503 30.1921C10.5928 30.1921 10.6656 30.2649 10.6656 30.3547H10.3405ZM14.275 18.7559L14.045 18.986L14.2925 18.9651L14.0812 19.2686L13.8754 19.5763L13.6753 19.8879L13.481 20.2036L13.2924 20.5232L13.1096 20.8465L12.933 21.1736L12.7623 21.5043L12.5977 21.8387L12.4392 22.1765L12.2871 22.518L12.1412 22.8626L12.0018 23.2107L11.8688 23.562L11.7424 23.9165L11.6226 24.274L11.5095 24.6345L11.4031 24.998L11.3036 25.3643L11.2109 25.7335L11.1253 26.1053L11.0468 26.4798L10.9754 26.8569L10.9112 27.2365L10.8542 27.6185L10.8047 28.0029L10.7625 28.3895L10.7278 28.7785L10.7007 29.1695L10.6813 29.5626L10.6696 29.9577L10.6656 30.3547H10.3405L10.3445 29.9513L10.3563 29.5497L10.3762 29.1502L10.4037 28.7527L10.4389 28.3575L10.4817 27.9644L10.5321 27.5737L10.5901 27.1853L10.6554 26.7995L10.728 26.4161L10.8078 26.0354L10.8948 25.6573L10.989 25.282L11.0902 24.9096L11.1983 24.5401L11.3132 24.1736L11.4351 23.8102L11.5636 23.4498L11.6988 23.0927L11.8406 22.7388L11.9888 22.3883L12.1435 22.0413L12.3045 21.6977L12.4719 21.3578L12.6454 21.0216L12.8251 20.6891L13.0108 20.3604L13.2025 20.0356L13.4 19.7148L13.6035 19.3979L13.8126 19.0853L14.0275 18.7767L14.275 18.7559V18.7559ZM14.0275 18.7768C14.0795 18.7036 14.181 18.6864 14.2542 18.7384C14.3274 18.7904 14.3446 18.892 14.2926 18.9652L14.0275 18.7768ZM14.5118 19.4527L14.045 18.986L14.275 18.7559L14.7418 19.2227L14.76 19.4311L14.5119 19.4527L14.5118 19.4527ZM14.7418 19.2227C14.8053 19.2862 14.8053 19.3892 14.7418 19.4527C14.6783 19.5162 14.5753 19.5162 14.5118 19.4527L14.7418 19.2227ZM11.3161 30.3547H10.9909L10.9947 29.9681L11.006 29.5833L11.0248 29.2004L11.0509 28.8196L11.0844 28.4407L11.125 28.064L11.1729 27.6894L11.2279 27.3172L11.2899 26.9472L11.3589 26.5797L11.4346 26.2147L11.5173 25.8521L11.6067 25.4922L11.7028 25.1349L11.8055 24.7804L11.9147 24.4288L12.0304 24.08L12.1525 23.7342L12.2809 23.3915L12.4156 23.0519L12.5564 22.7154L12.7034 22.3822L12.8564 22.0523L13.0154 21.7258L13.1803 21.4029L13.351 21.0833L13.5275 20.7674L13.7096 20.4551L13.8974 20.1467L14.0908 19.842L14.2895 19.5412L14.4937 19.2444L14.76 19.4311L14.5592 19.7231L14.3637 20.0188L14.1736 20.3184L13.9889 20.6217L13.8098 20.9286L13.6364 21.2393L13.4685 21.5534L13.3064 21.871L13.1501 22.192L12.9997 22.5163L12.8552 22.8438L12.7167 23.1746L12.5844 23.5085L12.4581 23.8454L12.3381 24.1854L12.2243 24.5282L12.117 24.8739L12.016 25.2224L11.9216 25.5736L11.8337 25.9275L11.7524 26.2838L11.6779 26.6428L11.6101 27.0042L11.5492 27.3679L11.4951 27.7338L11.448 28.1021L11.4081 28.4725L11.3752 28.845L11.3494 29.2196L11.331 29.596L11.3199 29.9744L11.3161 30.3547H11.3161ZM11.3161 30.3547C11.3161 30.4445 11.2433 30.5173 11.1535 30.5173C11.0637 30.5173 10.9909 30.4445 10.9909 30.3547H11.3161ZM14.7418 41.4866L14.5118 41.2566L14.4937 41.465L14.2895 41.1682L14.0907 40.8674L13.8974 40.5628L13.7096 40.2542L13.5274 39.942L13.3509 39.6261L13.1802 39.3066L13.0153 38.9835L12.8564 38.6571L12.7034 38.3272L12.5564 37.9939L12.4155 37.6576L12.2808 37.3179L12.1524 36.9751L12.0303 36.6294L11.9147 36.2806L11.8054 35.9289L11.7027 35.5744L11.6066 35.2172L11.5172 34.8573L11.4346 34.4947L11.3588 34.1297L11.2898 33.7621L11.2278 33.3922L11.1729 33.0199L11.125 32.6454L11.0843 32.2687L11.0509 31.8898L11.0248 31.5089L11.0059 31.1261L10.9947 30.7413L10.9909 30.3547H11.316L11.3198 30.735L11.3309 31.1133L11.3493 31.4898L11.3751 31.8644L11.4079 32.2369L11.4479 32.6073L11.495 32.9755L11.549 33.3415L11.61 33.7052L11.6777 34.0666L11.7523 34.4256L11.8335 34.782L11.9214 35.1358L12.0159 35.487L12.1169 35.8355L12.2242 36.1812L12.338 36.524L12.458 36.864L12.5842 37.2009L12.7166 37.5348L12.8551 37.8656L12.9996 38.1931L13.15 38.5174L13.3063 38.8385L13.4684 39.156L13.6363 39.4702L13.8097 39.7808L13.9888 40.0877L14.1735 40.3911L14.3636 40.6906L14.5591 40.9863L14.7599 41.2782L14.7417 41.4866L14.7418 41.4866ZM14.76 41.2783C14.8115 41.3518 14.7937 41.4532 14.7202 41.5048C14.6468 41.5563 14.5453 41.5385 14.4937 41.4651L14.76 41.2783ZM14.0451 41.7234L14.5119 41.2567L14.7419 41.4867L14.2751 41.9534L14.0276 41.9326L14.0451 41.7234H14.0451ZM14.2751 41.9534C14.2116 42.0169 14.1086 42.0169 14.0451 41.9534C13.9816 41.8899 13.9816 41.7869 14.0451 41.7234L14.2751 41.9534Z" fill="#2B2A29"/>
<path fill-rule="evenodd" clip-rule="evenodd" d="M28.6268 32.5188C28.5169 32.2868 28.3826 32.1403 28.2727 31.8472C28.1749 31.5907 28.1261 31.2733 28.1383 30.968C28.1749 30.1743 28.4436 30.04 28.6878 29.5637C28.4313 29.4416 28.2237 29.2585 27.9428 29.0875C27.1124 28.5746 26.4531 28.2815 25.4884 27.9396C24.316 27.5244 22.7041 27.2557 21.3486 27.3046C19.6146 27.2923 17.7829 27.8297 16.4274 28.4769C15.3527 28.9898 13.5088 30.1254 12.8494 31.0169C13.0936 31.5786 15.2551 32.9707 15.9633 33.3493C18.7231 34.7781 21.9591 35.181 24.9998 34.2773C26.2088 33.9232 27.6376 33.2759 28.6268 32.5188H28.6268Z" fill="#056137"/>
<path fill-rule="evenodd" clip-rule="evenodd" d="M32.0582 29.5758C32.1803 29.8079 32.3268 29.9544 32.4489 30.2475C32.9496 31.4686 32.2047 32.2501 32.0948 32.5554C32.6565 32.8607 32.9007 33.1172 33.7678 33.5324C35.9048 34.5703 38.164 34.9978 40.6184 34.6802C42.1937 34.4849 43.5125 34.0087 44.7459 33.3736C45.6618 32.9096 47.4569 31.7006 47.8598 31.0412C47.347 30.2718 45.2954 28.9774 44.3062 28.5134C43.2805 28.0249 40.6794 27.1457 39.3606 27.3533C38.3959 27.1457 36.0634 27.6586 35.2086 27.9639C34.0242 28.3791 32.9495 28.9408 32.0581 29.5758H32.0582Z" fill="#056137"/>
<path fill-rule="evenodd" clip-rule="evenodd" d="M29.0909 39.2351C28.0651 38.82 27.2958 38.2582 25.9525 38.2582C23.0339 38.2582 21.6174 40.725 24.2551 41.8485C25.9525 42.5812 27.5156 42.0072 29.0298 41.2257C29.5061 40.9814 29.909 40.7128 30.3487 40.4808C30.5807 40.554 30.9593 40.8105 31.1791 40.9326C31.46 41.0913 31.7042 41.2378 31.9973 41.3722C32.5468 41.6286 33.194 41.9217 33.8534 42.0805C35.331 42.4346 37.0651 41.8851 37.6513 40.957C38.1031 40.2487 37.8222 39.6259 37.3948 39.1741C37.004 38.7711 36.369 38.478 35.6607 38.3437C33.597 37.9529 32.2781 39.1008 31.6432 39.2351C31.7531 39.1253 32.0339 38.7588 32.1683 38.6001C32.7056 37.9774 34.7205 35.6938 34.9647 35.2297C35.4043 34.436 34.8548 33.9842 34.0733 33.9842L26.6975 33.9841C25.9037 33.9841 25.3908 34.3993 25.7816 35.2052C25.9892 35.6204 26.5753 36.2432 26.8684 36.5852C27.3202 37.1469 28.7734 38.7588 29.0909 39.2351L29.0909 39.2351Z" fill="#E14124"/>
<path fill-rule="evenodd" clip-rule="evenodd" d="M34.1586 22.0047C34.1464 22.0169 34.1342 22.029 34.122 22.0413L33.4748 22.6763C32.217 23.9096 30.4952 27.3289 30.544 28.8553C30.8615 28.8797 31.1423 28.9652 31.3988 29.0995C31.6797 29.2461 31.8506 29.4781 32.046 29.588C32.9375 28.9652 34.0121 28.4035 35.2088 27.9761C36.0759 27.6708 38.4083 27.1579 39.3608 27.3655C39.4097 27.2556 40.3377 26.1566 40.6674 25.6559C41.9008 23.7753 42.8655 21.0155 42.7312 18.6586C40.9483 18.6586 39.1898 19.025 37.7489 19.66C37.0406 19.9653 36.3934 20.295 35.8073 20.698C35.331 20.9911 34.464 21.614 34.1587 22.0047H34.1586Z" fill="#018D41"/>
<path fill-rule="evenodd" clip-rule="evenodd" d="M21.3365 27.3289C22.692 27.2678 24.3039 27.5365 25.4762 27.9639C26.4409 28.3058 27.1003 28.6111 27.9307 29.1118C28.2116 29.2827 28.4192 29.4537 28.6756 29.588C29.0908 29.246 29.3595 28.9286 30.1655 28.8431C30.1411 27.7929 29.2984 25.7902 28.8588 24.9964C28.5291 24.3981 28.1994 23.8974 27.833 23.4089C27.43 22.896 27.0271 22.4808 26.6241 22.0412C25.9402 21.4917 25.8425 21.3085 24.9389 20.7102C22.985 19.4401 20.3962 18.5731 17.9294 18.6464C18.0638 19.6111 17.9051 19.9042 18.2225 21.3452C18.6499 23.299 19.6391 25.4727 20.9823 26.9014C21.1045 27.0358 21.251 27.1945 21.3365 27.3289V27.3289Z" fill="#018D41"/>
<path fill-rule="evenodd" clip-rule="evenodd" d="M27.2224 18.5244C27.1125 19.0617 26.9293 19.5868 26.8194 20.1729C26.6973 20.8201 26.6973 21.3697 26.624 22.029C27.0271 22.4687 27.4422 22.8839 27.833 23.3967C28.2116 23.8852 28.5291 24.3736 28.8587 24.9843C29.2862 25.7779 30.141 27.7929 30.1654 28.8309H30.5439C30.4951 27.3045 32.217 23.8852 33.4747 22.6518L34.1219 22.0168C34.1342 22.0046 34.1463 21.9925 34.1586 21.9802C34.0975 21.9436 34.0731 22.0413 34.0487 21.6627C33.9266 19.8554 33.6579 18.7808 32.8886 17.0712C32.4734 16.1309 31.0202 13.8718 30.3487 13.5054C29.4938 14.1404 28.3582 15.96 27.8087 17.0834C27.601 17.5352 27.4178 18.1703 27.2224 18.5244H27.2224Z" fill="#95BE32"/>
<path fill-rule="evenodd" clip-rule="evenodd" d="M28.6878 29.5758C28.4436 30.0521 28.1749 30.1864 28.1383 30.9801C28.1261 31.2854 28.1749 31.5907 28.2727 31.8593C28.3825 32.1402 28.5169 32.2867 28.6268 32.531C28.8344 32.6653 28.981 32.8607 29.2984 33.0438C29.9334 33.3857 30.7149 33.4101 31.3499 33.0927C31.6796 32.9339 31.8506 32.7141 32.0949 32.5553C32.2047 32.2623 32.9497 31.4807 32.449 30.2474C32.3269 29.9543 32.1804 29.8078 32.0583 29.5758C31.8629 29.4659 31.6919 29.2338 31.411 29.0873C31.1546 28.953 30.8737 28.8675 30.5562 28.8431H30.1776C29.3717 28.9286 29.1031 29.2339 28.6879 29.5758H28.6878Z" fill="#E14124"/>
<path d="M19.5763 44.4992H20.045L20.0247 44.4298C19.9687 44.2408 19.923 44.0798 19.8873 43.9468C19.8516 43.8137 19.8299 43.7279 19.8222 43.6893L19.8106 43.6314C19.7952 43.7375 19.7239 44.0036 19.5966 44.4298L19.5763 44.4992L19.5763 44.4992ZM20.2706 45.2571L20.152 44.8579H19.4693L19.3507 45.2571H18.885L19.5359 43.3075H20.0971L20.748 45.2571H20.2706H20.2706ZM21.3959 45.234L20.8289 43.7905H21.2888L21.4479 44.2476C21.4884 44.3652 21.5216 44.4665 21.5477 44.5513C21.5737 44.6362 21.5897 44.6921 21.5955 44.7191L21.6041 44.7596C21.6254 44.6825 21.6774 44.5118 21.7604 44.2476L21.905 43.7905H22.3389L21.8095 45.2138C21.6572 45.6245 21.4248 45.83 21.1123 45.83C21.0526 45.83 20.9986 45.8251 20.9504 45.8155V45.48C20.9812 45.4877 21.0141 45.4915 21.0487 45.4915C21.2088 45.4915 21.3245 45.4057 21.3959 45.2341V45.234ZM23.4353 43.7905H23.8576V45.2572H23.4353V45.0229C23.3581 45.1868 23.2096 45.2687 22.9898 45.2687C22.8393 45.2687 22.7222 45.2268 22.6383 45.1429C22.5544 45.059 22.5124 44.9351 22.5124 44.7712V43.7905H22.9348V44.6757C22.9348 44.8473 23.01 44.9332 23.1604 44.9332C23.3437 44.9332 23.4353 44.8107 23.4353 44.5658V43.7905ZM25.1304 43.834V44.1956C25.0282 44.1358 24.9086 44.1059 24.7717 44.1059C24.7216 44.1059 24.683 44.116 24.656 44.1362C24.629 44.1565 24.6155 44.1821 24.6155 44.2129C24.6155 44.2303 24.6203 44.2466 24.63 44.2621C24.6396 44.2775 24.6555 44.2919 24.6777 44.3054C24.6999 44.319 24.7211 44.331 24.7414 44.3416C24.7616 44.3522 24.7896 44.3652 24.8253 44.3806C24.8609 44.3961 24.8894 44.4096 24.9106 44.4212C24.9993 44.4675 25.0707 44.521 25.1247 44.5817C25.1787 44.6425 25.2056 44.7201 25.2056 44.8146C25.2056 44.9593 25.1536 45.0711 25.0495 45.1502C24.9453 45.2292 24.8075 45.2687 24.6358 45.2687C24.4584 45.2687 24.3099 45.2389 24.1903 45.179V44.803C24.3234 44.8956 24.4642 44.9418 24.6126 44.9418C24.7188 44.9418 24.7718 44.9081 24.7718 44.8406C24.7718 44.8232 24.7669 44.8068 24.7572 44.7914C24.7476 44.7759 24.7312 44.7615 24.7081 44.748C24.6849 44.7345 24.6637 44.7234 24.6444 44.7148C24.6251 44.7061 24.5972 44.694 24.5605 44.6786C24.5239 44.6632 24.4959 44.6507 24.4766 44.641C24.2819 44.5484 24.1844 44.4096 24.1844 44.2245C24.1844 44.0817 24.239 43.9709 24.3479 43.8918C24.4568 43.8127 24.5923 43.7732 24.7543 43.7732C24.9047 43.7732 25.0301 43.7935 25.1303 43.834L25.1304 43.834ZM25.8883 43.212V44.0394C25.9634 43.8639 26.11 43.7761 26.328 43.7761C26.4707 43.7761 26.5869 43.8214 26.6766 43.9121C26.7662 44.0027 26.8111 44.1397 26.8111 44.3229V45.2572H26.3887V44.3894C26.3887 44.3045 26.3675 44.238 26.3251 44.1897C26.2827 44.1415 26.2277 44.1174 26.1602 44.1174C26.1313 44.1174 26.1038 44.1218 26.0778 44.1305C26.0517 44.1392 26.0233 44.1546 25.9924 44.1768C25.9616 44.1989 25.9365 44.2366 25.9172 44.2896C25.8979 44.3426 25.8883 44.4067 25.8883 44.4819V45.2572H25.466V43.212H25.8883H25.8883ZM27.5661 43.7905V44.0191C27.6471 43.8571 27.7849 43.7761 27.9797 43.7761C28.186 43.7761 28.323 43.8687 28.3905 44.0538C28.4232 43.967 28.4782 43.899 28.5554 43.8499C28.6325 43.8007 28.7231 43.7761 28.8273 43.7761C28.9719 43.7761 29.0862 43.822 29.1701 43.9136C29.2539 44.0052 29.2959 44.1397 29.2959 44.3171V45.2572H28.8736V44.3865C28.8736 44.3036 28.8572 44.238 28.8244 44.1898C28.7916 44.1416 28.7444 44.1175 28.6826 44.1175C28.6171 44.1175 28.5587 44.144 28.5076 44.1971C28.4565 44.2501 28.431 44.3451 28.431 44.482V45.2572H28.0086V44.3865C28.0086 44.3036 27.9922 44.238 27.9594 44.1898C27.9267 44.1416 27.8794 44.1175 27.8177 44.1175C27.7522 44.1175 27.6938 44.144 27.6427 44.1971C27.5916 44.2501 27.566 44.3451 27.566 44.482V45.2572H27.1437V43.7906H27.566L27.5661 43.7905ZM30.3547 44.6555H30.2187C30.1474 44.6555 30.0924 44.6709 30.0538 44.7018C30.0152 44.7326 29.9959 44.7722 29.9959 44.8204C29.9959 44.9187 30.0529 44.9679 30.1666 44.9679C30.2264 44.9679 30.2727 44.9496 30.3055 44.913C30.3382 44.8763 30.3547 44.8261 30.3547 44.7625V44.6556V44.6555ZM29.6691 44.2418V43.8629C29.7848 43.7974 29.9516 43.7645 30.1695 43.7645C30.3778 43.7645 30.533 43.8094 30.6352 43.899C30.7374 43.9887 30.7885 44.1281 30.7885 44.317V45.2572H30.3749V45.0778C30.3132 45.2032 30.1917 45.2659 30.0104 45.2659C29.8677 45.2659 29.7564 45.2254 29.6763 45.1444C29.5963 45.0634 29.5563 44.9622 29.5563 44.8407C29.5563 44.6999 29.6079 44.5904 29.711 44.5123C29.8142 44.4342 29.967 44.3952 30.1695 44.3952H30.3547V44.2939C30.3547 44.1705 30.2727 44.1088 30.1088 44.1088C29.9507 44.1088 29.8041 44.1531 29.6691 44.2418ZM31.5436 43.7906V44.0394C31.5802 43.9584 31.6366 43.8942 31.7128 43.847C31.789 43.7998 31.8801 43.7762 31.9862 43.7762C32.1366 43.7762 32.2542 43.821 32.3391 43.9107C32.424 44.0004 32.4664 44.132 32.4664 44.3055V45.2573H32.044V44.3837C32.044 44.2969 32.0238 44.2308 31.9833 44.1855C31.9428 44.1402 31.8859 44.1175 31.8126 44.1175C31.7355 44.1175 31.6714 44.1479 31.6203 44.2087C31.5692 44.2695 31.5437 44.3605 31.5437 44.4821V45.2573H31.1213V43.7907H31.5437L31.5436 43.7906ZM33.9822 44.9014H34.2165C34.4364 44.9014 34.5462 44.8262 34.5462 44.6758C34.5462 44.5254 34.4373 44.4501 34.2194 44.4501H33.9822V44.9014L33.9822 44.9014ZM33.9822 43.6633V44.1001H34.147C34.2627 44.1001 34.35 44.0789 34.4088 44.0365C34.4677 43.9941 34.4971 43.9381 34.4971 43.8687C34.4971 43.7318 34.4045 43.6633 34.2194 43.6633H33.9822H33.9822ZM33.5367 43.3075H34.2946C34.5086 43.3075 34.6716 43.3581 34.7834 43.4594C34.8953 43.5606 34.9512 43.6894 34.9512 43.8455C34.9512 43.9478 34.9242 44.0374 34.8702 44.1146C34.8162 44.1917 34.7459 44.2438 34.659 44.2708C34.8847 44.3382 34.9975 44.4906 34.9975 44.7278C34.9975 44.8821 34.942 45.0088 34.8311 45.1082C34.7203 45.2075 34.5694 45.2572 34.3785 45.2572H33.5367V43.3075H33.5367ZM35.6946 43.212V44.0394C35.7698 43.8639 35.9164 43.7761 36.1343 43.7761C36.2771 43.7761 36.3932 43.8214 36.4829 43.9121C36.5726 44.0027 36.6174 44.1397 36.6174 44.3229V45.2572H36.1951V44.3894C36.1951 44.3045 36.1739 44.238 36.1314 44.1897C36.089 44.1415 36.034 44.1174 35.9666 44.1174C35.9376 44.1174 35.9101 44.1218 35.8841 44.1305C35.8581 44.1392 35.8296 44.1546 35.7988 44.1768C35.768 44.1989 35.7429 44.2366 35.7236 44.2896C35.7043 44.3426 35.6947 44.4067 35.6947 44.4819V45.2572H35.2724V43.212H35.6947H35.6946ZM37.6762 44.6555H37.5402C37.4689 44.6555 37.4139 44.6709 37.3754 44.7018C37.3368 44.7326 37.3175 44.7722 37.3175 44.8204C37.3175 44.9187 37.3744 44.9679 37.4881 44.9679C37.5479 44.9679 37.5942 44.9496 37.627 44.913C37.6597 44.8763 37.6762 44.8261 37.6762 44.7625V44.6556V44.6555ZM36.9906 44.2418V43.8629C37.1063 43.7974 37.2731 43.7645 37.491 43.7645C37.6993 43.7645 37.8545 43.8094 37.9568 43.899C38.059 43.9887 38.11 44.1281 38.11 44.317V45.2572H37.6964V45.0778C37.6347 45.2032 37.5132 45.2659 37.3319 45.2659C37.1892 45.2659 37.0779 45.2254 36.9978 45.1444C36.9178 45.0634 36.8778 44.9622 36.8778 44.8407C36.8778 44.6999 36.9294 44.5904 37.0326 44.5123C37.1357 44.4342 37.2885 44.3952 37.491 44.3952H37.6762V44.2939C37.6762 44.1705 37.5942 44.1088 37.4303 44.1088C37.2722 44.1088 37.1256 44.1531 36.9906 44.2418ZM38.8622 43.7906V44.0626C38.8892 43.9777 38.934 43.9097 38.9967 43.8586C39.0594 43.8075 39.1322 43.782 39.2151 43.782C39.2614 43.782 39.298 43.7859 39.325 43.7935V44.1928C39.2787 44.1715 39.2257 44.161 39.166 44.161C39.0753 44.161 39.002 44.1942 38.9461 44.2608C38.8902 44.3273 38.8622 44.4155 38.8622 44.5255V45.2573H38.4399L38.4428 43.7907H38.8622V43.7906ZM40.2391 44.6556H40.1032C40.0318 44.6556 39.9769 44.671 39.9383 44.7019C39.8997 44.7327 39.8804 44.7722 39.8804 44.8204C39.8804 44.9188 39.9373 44.968 40.0511 44.968C40.1109 44.968 40.1572 44.9496 40.19 44.913C40.2227 44.8764 40.2391 44.8262 40.2391 44.7626V44.6556V44.6556ZM39.5536 44.2419V43.8629C39.6692 43.7974 39.8361 43.7646 40.054 43.7646C40.2623 43.7646 40.4175 43.8094 40.5197 43.8991C40.6219 43.9888 40.673 44.1281 40.673 44.3171V45.2572H40.2594V45.0779C40.1976 45.2032 40.0761 45.2659 39.8949 45.2659C39.7521 45.2659 39.6408 45.2254 39.5608 45.1444C39.4807 45.0634 39.4408 44.9622 39.4408 44.8407C39.4408 44.6999 39.4924 44.5905 39.5955 44.5124C39.6987 44.4343 39.8515 44.3953 40.054 44.3953H40.2391V44.294C40.2391 44.1706 40.1572 44.1088 39.9933 44.1088C39.8351 44.1088 39.6885 44.1532 39.5536 44.2419ZM41.4946 44.1001V44.7742C41.4946 44.8262 41.5095 44.8658 41.5394 44.8927C41.5693 44.9197 41.6083 44.9332 41.6566 44.9332C41.7337 44.9332 41.8022 44.9139 41.8619 44.8753V45.2254C41.7906 45.2562 41.6941 45.2716 41.5727 45.2716C41.2391 45.2716 41.0722 45.1048 41.0722 44.7713V44.1001H40.8611V43.7906H41.0722V43.4435H41.4946V43.7906H41.8359V44.1001H41.4946Z" fill="#2B2A29"/>
<path d="M14.2596 49.3914H14.6306C14.9591 49.3914 15.2126 49.289 15.391 49.0841C15.5695 48.8792 15.6587 48.5894 15.6587 48.2149C15.6587 47.8969 15.5686 47.6417 15.3884 47.4491C15.2082 47.2566 14.9538 47.1604 14.6253 47.1604H14.2596V49.3914ZM13.4224 46.4873H14.6518C15.1888 46.4873 15.6287 46.6525 15.9714 46.9828C16.3141 47.3131 16.4854 47.7238 16.4854 48.2149C16.4854 48.7872 16.3167 49.2377 15.9793 49.5663C15.6419 49.8948 15.1959 50.0591 14.6412 50.0591H13.4224V46.4873V46.4873ZM17.0419 50.0591V47.3723H17.8156V50.0591H17.0419ZM17.1107 46.9113C17.0224 46.823 16.9782 46.717 16.9782 46.5933C16.9782 46.4696 17.0224 46.3636 17.1107 46.2753C17.199 46.187 17.305 46.1428 17.4287 46.1428C17.5524 46.1428 17.6584 46.187 17.7467 46.2753C17.835 46.3636 17.8792 46.4696 17.8792 46.5933C17.8792 46.7169 17.835 46.823 17.7467 46.9113C17.6584 46.9996 17.5524 47.0437 17.4287 47.0437C17.3051 47.0437 17.199 46.9996 17.1107 46.9113ZM19.6703 49.3543C19.8364 49.3543 19.9662 49.2916 20.0599 49.1662C20.1535 49.0408 20.2003 48.8897 20.2003 48.7131C20.2003 48.2326 20.0255 47.9924 19.6757 47.9924C19.5202 47.9924 19.3984 48.0525 19.31 48.1726C19.2217 48.2927 19.1775 48.4587 19.1775 48.6707C19.1775 48.8933 19.22 49.0629 19.3047 49.1794C19.3895 49.296 19.5114 49.3543 19.6703 49.3543ZM20.2003 47.3723H20.9687V49.7994C20.9687 50.2305 20.8398 50.5546 20.5819 50.7719C20.324 50.9892 20.0007 51.0978 19.6121 51.0978C19.2341 51.0978 18.9037 51.0307 18.6211 50.8964V50.1068C18.8684 50.3047 19.1722 50.4036 19.5326 50.4036C19.7658 50.4036 19.9354 50.3541 20.0413 50.2552C20.1474 50.1562 20.2003 50.0008 20.2003 49.7888V49.6086C20.0449 49.8489 19.7975 49.969 19.4584 49.969C19.1616 49.969 18.9064 49.8595 18.6926 49.6405C18.4789 49.4215 18.372 49.0964 18.372 48.6654C18.372 48.2839 18.4754 47.9685 18.6821 47.7195C18.8887 47.4704 19.1599 47.3459 19.4955 47.3459C19.8135 47.3459 20.0484 47.473 20.2003 47.7274V47.3723ZM21.6047 50.0591V47.3723H22.3784V50.0591H21.6047ZM21.6735 46.9113C21.5852 46.823 21.541 46.717 21.541 46.5933C21.541 46.4696 21.5852 46.3636 21.6735 46.2753C21.7619 46.187 21.8678 46.1428 21.9915 46.1428C22.1152 46.1428 22.2212 46.187 22.3095 46.2753C22.3979 46.3636 22.442 46.4696 22.442 46.5933C22.442 46.7169 22.3979 46.823 22.3095 46.9113C22.2212 46.9996 22.1153 47.0437 21.9915 47.0437C21.8679 47.0437 21.7619 46.9996 21.6735 46.9113ZM23.9364 47.9394V49.1741C23.9364 49.2695 23.9638 49.342 24.0185 49.3914C24.0733 49.4409 24.1449 49.4656 24.2332 49.4656C24.3745 49.4656 24.4999 49.4303 24.6094 49.3596V50.0008C24.4787 50.0573 24.3021 50.0856 24.0795 50.0856C23.4683 50.0856 23.1626 49.78 23.1626 49.1688V47.9393H22.7758V47.3723H23.1626V46.7363H23.9364V47.3723H24.5617V47.9393H23.9364L23.9364 47.9394ZM26.4166 48.9569H26.1675C26.0368 48.9569 25.936 48.9851 25.8654 49.0416C25.7948 49.0982 25.7594 49.1706 25.7594 49.2589C25.7594 49.4391 25.8636 49.5292 26.0721 49.5292C26.1816 49.5292 26.2664 49.4956 26.3264 49.4285C26.3865 49.3614 26.4166 49.2695 26.4166 49.1529V48.9569ZM25.1606 48.1991V47.5048C25.3726 47.3847 25.6781 47.3246 26.0774 47.3246C26.4589 47.3246 26.7433 47.4068 26.9306 47.571C27.1178 47.7353 27.2114 47.9906 27.2114 48.3368V50.0591H26.4536V49.7306C26.3406 49.9602 26.118 50.0751 25.7859 50.0751C25.5245 50.0751 25.3205 50.0009 25.1738 49.8524C25.0272 49.7041 24.9539 49.5186 24.9539 49.296C24.9539 49.0381 25.0484 48.8376 25.2374 48.6945C25.4264 48.5514 25.7064 48.4799 26.0773 48.4799H26.4165V48.2944C26.4165 48.0683 26.2664 47.9552 25.9661 47.9552C25.6764 47.9552 25.4078 48.0365 25.1606 48.199V48.1991ZM27.8474 50.0591V46.3124H28.6211V50.0591H27.8474ZM30.5554 50.0591L30.8627 46.4873H31.7584L32.2565 47.7804C32.3413 47.9959 32.4137 48.1937 32.4738 48.3739C32.5338 48.5541 32.5727 48.6813 32.5904 48.7555L32.6168 48.8615C32.6734 48.6283 32.797 48.268 32.9878 47.7804L33.4912 46.4873H34.3868L34.7578 50.0591H33.9416L33.8091 48.6759L33.7403 47.6319C33.6484 47.8969 33.5212 48.2449 33.3587 48.6759L32.8553 50.022H32.373L31.8749 48.6759C31.7936 48.4569 31.7248 48.2608 31.6682 48.0877C31.6117 47.9146 31.5746 47.7945 31.5569 47.7273L31.5305 47.6319C31.5305 47.8828 31.5146 48.2308 31.4828 48.6759L31.3715 50.0591H30.5554ZM35.3673 50.0591V47.3723H36.141V50.0591H35.3673ZM35.4361 46.9113C35.3478 46.823 35.3036 46.717 35.3036 46.5933C35.3036 46.4696 35.3478 46.3636 35.4361 46.2753C35.5245 46.187 35.6304 46.1428 35.7541 46.1428C35.8778 46.1428 35.9838 46.187 36.0721 46.2753C36.1605 46.3636 36.2046 46.4696 36.2046 46.5933C36.2046 46.7169 36.1605 46.823 36.0721 46.9113C35.9838 46.9996 35.8778 47.0437 35.7541 47.0437C35.6305 47.0437 35.5245 46.9996 35.4361 46.9113ZM38.4992 47.4518V48.1142C38.312 48.0047 38.093 47.9499 37.8421 47.9499C37.7502 47.9499 37.6796 47.9685 37.6301 48.0056C37.5806 48.0427 37.5559 48.0895 37.5559 48.1461C37.5559 48.1778 37.5648 48.2079 37.5824 48.2361C37.6001 48.2644 37.6292 48.2909 37.6698 48.3156C37.7105 48.3403 37.7493 48.3624 37.7864 48.3818C37.8235 48.4013 37.8747 48.4251 37.9401 48.4534C38.0054 48.4816 38.0575 48.5064 38.0964 48.5276C38.2589 48.6123 38.3896 48.7104 38.4886 48.8217C38.5875 48.9329 38.6369 49.0751 38.6369 49.2483C38.6369 49.5133 38.5416 49.7182 38.3508 49.863C38.16 50.0079 37.9074 50.0803 37.593 50.0803C37.268 50.0803 36.9959 50.0255 36.7769 49.916V49.2271C37.0206 49.3967 37.2786 49.4814 37.5506 49.4814C37.7449 49.4814 37.8421 49.4196 37.8421 49.2959C37.8421 49.2642 37.8332 49.2341 37.8156 49.2059C37.7979 49.1776 37.7679 49.1511 37.7255 49.1264C37.6831 49.1017 37.6443 49.0813 37.6089 49.0654C37.5736 49.0495 37.5224 49.0274 37.4552 48.9992C37.3881 48.971 37.3369 48.9479 37.3016 48.9303C36.9447 48.7607 36.7664 48.5064 36.7664 48.1672C36.7664 47.9058 36.8662 47.7027 37.0658 47.5578C37.2654 47.4129 37.5136 47.3405 37.8104 47.3405C38.086 47.3405 38.3156 47.3776 38.4993 47.4518L38.4992 47.4518ZM40.8097 47.4518V48.1142C40.6225 48.0047 40.4035 47.9499 40.1526 47.9499C40.0608 47.9499 39.9901 47.9685 39.9406 48.0056C39.8912 48.0427 39.8665 48.0895 39.8665 48.1461C39.8665 48.1778 39.8753 48.2079 39.8929 48.2361C39.9106 48.2644 39.9397 48.2909 39.9804 48.3156C40.021 48.3403 40.0599 48.3624 40.097 48.3818C40.134 48.4013 40.1853 48.4251 40.2506 48.4534C40.3159 48.4816 40.3681 48.5064 40.4069 48.5276C40.5695 48.6123 40.7002 48.7104 40.7991 48.8217C40.898 48.9329 40.9475 49.0751 40.9475 49.2483C40.9475 49.5133 40.8521 49.7182 40.6614 49.863C40.4706 50.0079 40.218 50.0803 39.9035 50.0803C39.5786 50.0803 39.3065 50.0255 39.0874 49.916V49.2271C39.3312 49.3967 39.5891 49.4814 39.8612 49.4814C40.0554 49.4814 40.1526 49.4196 40.1526 49.2959C40.1526 49.2642 40.1438 49.2341 40.1262 49.2059C40.1084 49.1776 40.0784 49.1511 40.036 49.1264C39.9937 49.1017 39.9548 49.0813 39.9195 49.0654C39.8841 49.0495 39.8329 49.0274 39.7658 48.9992C39.6987 48.971 39.6475 48.9479 39.6121 48.9303C39.2553 48.7607 39.0769 48.5064 39.0769 48.1672C39.0769 47.9058 39.1767 47.7027 39.3764 47.5578C39.5759 47.4129 39.8241 47.3405 40.1209 47.3405C40.3965 47.3405 40.6261 47.3776 40.8099 47.4518L40.8097 47.4518ZM41.451 50.0591V47.3723H42.2247V50.0591H41.451ZM41.5198 46.9113C41.4315 46.823 41.3873 46.717 41.3873 46.5933C41.3873 46.4696 41.4315 46.3636 41.5198 46.2753C41.6082 46.187 41.7141 46.1428 41.8378 46.1428C41.9615 46.1428 42.0675 46.187 42.1558 46.2753C42.2442 46.3636 42.2883 46.4696 42.2883 46.5933C42.2883 46.7169 42.2442 46.823 42.1558 46.9113C42.0675 46.9996 41.9616 47.0437 41.8378 47.0437C41.7142 47.0437 41.6082 46.9996 41.5198 46.9113ZM44.0742 50.1015C43.6538 50.1015 43.3287 49.9752 43.0991 49.7226C42.8695 49.47 42.7546 49.1459 42.7546 48.7502C42.7546 48.3369 42.8748 47.9968 43.115 47.73C43.3552 47.4633 43.675 47.3299 44.0742 47.3299C44.4911 47.3299 44.8144 47.4589 45.044 47.7168C45.2737 47.9747 45.3885 48.3033 45.3885 48.7025C45.3885 49.1088 45.2728 49.4436 45.0414 49.7067C44.8099 49.9699 44.4876 50.1015 44.0742 50.1015H44.0742ZM44.0689 47.9394C43.8993 47.9394 43.7721 48.0118 43.6873 48.1567C43.6026 48.3015 43.5601 48.4888 43.5601 48.7184C43.5601 48.948 43.6034 49.1362 43.69 49.2828C43.7765 49.4295 43.9064 49.5027 44.0795 49.5027C44.2491 49.5027 44.3754 49.4312 44.4584 49.2881C44.5414 49.145 44.5829 48.9587 44.5829 48.729C44.5829 48.2026 44.4116 47.9394 44.0689 47.9394V47.9394ZM46.6656 47.3723V47.8281C46.7327 47.6796 46.836 47.5622 46.9756 47.4756C47.1152 47.3891 47.2821 47.3458 47.4764 47.3458C47.752 47.3458 47.9675 47.4279 48.1229 47.5922C48.2784 47.7565 48.3561 47.9976 48.3561 48.3156V50.0591H47.5824V48.4587C47.5824 48.2997 47.5453 48.1787 47.4711 48.0957C47.397 48.0127 47.2927 47.9712 47.1584 47.9712C47.0171 47.9712 46.8997 48.0268 46.806 48.1381C46.7124 48.2493 46.6656 48.4163 46.6656 48.6389V50.0591H45.8919V47.3723H46.6656Z" fill="#E14124"/>
<path d="M8.05588 55.0075V55.0019C8.05588 54.8713 8.02324 54.7693 7.95847 54.6957C7.89369 54.622 7.80423 54.5638 7.69144 54.5209C7.72637 54.5022 7.75942 54.4799 7.78977 54.4538C7.82052 54.4277 7.8471 54.3974 7.87037 54.363C7.89364 54.3285 7.91182 54.2898 7.92583 54.2469C7.93983 54.204 7.94686 54.1547 7.94686 54.0987V54.0931C7.94686 53.9384 7.88952 53.8154 7.77536 53.7241C7.66074 53.6327 7.50319 53.587 7.30236 53.587H6.39502V55.5443H7.32472C7.43419 55.5443 7.5344 55.5331 7.62479 55.5107C7.71476 55.4883 7.79211 55.4548 7.85642 55.41C7.92027 55.3653 7.96967 55.3094 8.00419 55.2423C8.03866 55.1752 8.05593 55.0969 8.05593 55.0075H8.05588ZM7.52183 54.1715C7.52183 54.2441 7.49392 54.2968 7.43796 54.3294C7.38205 54.362 7.30654 54.3783 7.21147 54.3783H6.8144V53.9646H7.23943C7.33078 53.9646 7.40064 53.9818 7.44911 54.0163C7.49759 54.0508 7.52178 54.1006 7.52178 54.1659V54.1715H7.52183ZM7.63085 54.9543C7.63085 55.027 7.60386 55.0806 7.54978 55.1151C7.4957 55.1496 7.42116 55.1668 7.32609 55.1668H6.8144V54.7363H7.31209C7.42391 54.7363 7.50497 54.7554 7.55533 54.7936C7.60569 54.8318 7.6308 54.8835 7.6308 54.9487V54.9543H7.63085ZM9.73073 55.5443V54.0456H9.3057V54.8798C9.3057 54.98 9.28198 55.0559 9.23442 55.1067C9.18691 55.158 9.12214 55.1836 9.04016 55.1836C8.95812 55.1836 8.89473 55.158 8.84997 55.1067C8.80526 55.0559 8.78291 54.98 8.78291 54.8798V54.0456H8.35788V55.0159C8.35788 55.1892 8.40218 55.3253 8.49073 55.424C8.57928 55.5229 8.70459 55.5723 8.86677 55.5723C8.92085 55.5723 8.96933 55.5657 9.0122 55.5527C9.05508 55.5391 9.09418 55.5214 9.12962 55.499C9.16501 55.4762 9.19714 55.4506 9.22612 55.4217C9.25499 55.3924 9.28157 55.362 9.30576 55.3299V55.5443H9.73078L9.73073 55.5443ZM10.5667 53.8807V53.5032H10.1193V53.8807H10.5667ZM10.5555 55.5443V54.0456H10.1305V55.5443H10.5555ZM11.3999 55.5443V53.5032H10.9749V55.5443H11.3999ZM13.3068 55.5443V53.5032H12.8818V54.2395C12.8315 54.1803 12.7695 54.1286 12.6959 54.0843C12.6222 54.0401 12.5286 54.0177 12.4149 54.0177C12.3254 54.0177 12.2397 54.0345 12.1576 54.0681C12.0756 54.1016 12.0034 54.1515 11.941 54.2176C11.8785 54.2838 11.8282 54.3649 11.79 54.4609C11.7518 54.5569 11.7327 54.6673 11.7327 54.7922V54.7978C11.7327 54.9227 11.7518 55.0331 11.79 55.1291C11.8282 55.2251 11.879 55.3062 11.9423 55.3723C12.0057 55.4385 12.0784 55.4883 12.1604 55.5219C12.2425 55.5555 12.3273 55.5723 12.4149 55.5723C12.5267 55.5723 12.6194 55.5495 12.6931 55.5042C12.7667 55.459 12.8296 55.4012 12.8818 55.3309V55.5443H13.3068ZM12.8874 54.7978C12.8874 54.8598 12.8776 54.9166 12.8581 54.9679C12.8385 55.0196 12.8124 55.0639 12.7798 55.1002C12.7472 55.1371 12.709 55.165 12.6651 55.1851C12.6214 55.2046 12.5743 55.2144 12.5239 55.2144C12.4736 55.2144 12.4265 55.2046 12.3827 55.1851C12.339 55.165 12.3003 55.1371 12.2667 55.1002C12.2332 55.0639 12.2066 55.0196 12.1871 54.9679C12.1675 54.9166 12.1577 54.8598 12.1577 54.7978V54.7922C12.1577 54.7283 12.1675 54.671 12.1871 54.6207C12.2066 54.5699 12.2332 54.5261 12.2667 54.4898C12.3003 54.4529 12.339 54.425 12.3827 54.4049C12.4265 54.3853 12.4736 54.3756 12.5239 54.3756C12.5743 54.3756 12.6214 54.3854 12.6651 54.4049C12.709 54.425 12.7472 54.4529 12.7798 54.4898C12.8124 54.5261 12.8385 54.5704 12.8581 54.6221C12.8777 54.6734 12.8874 54.7302 12.8874 54.7922V54.7978ZM14.1428 53.8807V53.5033H13.6955V53.8807H14.1428ZM14.1317 55.5444V54.0457H13.7067V55.5444H14.1317ZM15.9044 55.5444V54.5741C15.9044 54.4008 15.8601 54.2647 15.7715 54.166C15.683 54.0671 15.5577 54.0177 15.3955 54.0177C15.3414 54.0177 15.2929 54.0242 15.25 54.0373C15.2072 54.0509 15.1681 54.0685 15.1326 54.091C15.0972 54.1138 15.0651 54.1394 15.0362 54.1683C15.0073 54.1976 14.9807 54.2279 14.9565 54.2601V54.0457H14.5315V55.5444H14.9565V54.7103C14.9565 54.6101 14.9802 54.5341 15.0278 54.4833C15.0753 54.4321 15.1401 54.4065 15.222 54.4065C15.3041 54.4065 15.3675 54.4321 15.4122 54.4833C15.4569 54.5341 15.4793 54.6101 15.4793 54.7103V55.5444H15.9043L15.9044 55.5444ZM17.7805 55.206V54.0457H17.3555V54.2414C17.2977 54.178 17.2315 54.1249 17.157 54.082C17.0825 54.0392 16.9874 54.0177 16.8718 54.0177C16.786 54.0177 16.7031 54.0331 16.6229 54.0639C16.5428 54.0946 16.472 54.1398 16.4105 54.1995C16.3489 54.2591 16.2996 54.3323 16.2622 54.419C16.225 54.5056 16.2063 54.6049 16.2063 54.7168V54.7224C16.2063 54.8342 16.2245 54.9335 16.2609 55.0201C16.2972 55.1068 16.3461 55.18 16.4077 55.2397C16.4692 55.2993 16.54 55.3445 16.6201 55.3753C16.7003 55.406 16.7842 55.4214 16.8718 55.4214C16.9855 55.4214 17.0796 55.4 17.1542 55.3571C17.2287 55.3143 17.2977 55.2546 17.3611 55.1781V55.2509C17.3611 55.385 17.3262 55.4866 17.2562 55.5556C17.1863 55.6246 17.0786 55.6591 16.9333 55.6591C16.8326 55.6591 16.7427 55.647 16.6635 55.6227C16.5842 55.5985 16.5055 55.5649 16.4272 55.5221L16.2818 55.8408C16.3769 55.8912 16.4803 55.9299 16.5922 55.9569C16.704 55.9838 16.8215 55.9974 16.9445 55.9974C17.0843 55.9974 17.2064 55.9825 17.3107 55.9526C17.4152 55.9228 17.5023 55.8763 17.5722 55.8129C17.6421 55.7495 17.6943 55.6679 17.7287 55.5682C17.7632 55.4684 17.7805 55.3478 17.7805 55.2061V55.206ZM17.3611 54.7223C17.3611 54.7727 17.3518 54.8193 17.3331 54.8621C17.3145 54.905 17.2889 54.9418 17.2562 54.9725C17.2237 55.0033 17.185 55.0271 17.1402 55.0438C17.0955 55.0606 17.047 55.069 16.9948 55.069C16.8904 55.069 16.8037 55.0373 16.7348 54.9739C16.6658 54.9105 16.6313 54.8266 16.6313 54.7223V54.7167C16.6313 54.6663 16.6407 54.6197 16.6593 54.5768C16.6779 54.534 16.7036 54.4971 16.7361 54.4664C16.7687 54.4357 16.807 54.4119 16.8508 54.3951C16.8946 54.3783 16.9426 54.37 16.9948 54.37C17.047 54.37 17.0954 54.3784 17.1402 54.3951C17.185 54.412 17.2236 54.4357 17.2562 54.4664C17.2888 54.4971 17.3145 54.534 17.3331 54.5768C17.3518 54.6197 17.361 54.6663 17.361 54.7167V54.7223L17.3611 54.7223ZM20.8478 54.5657V54.5601C20.8478 54.4222 20.8226 54.2941 20.7723 54.1757C20.722 54.0573 20.6507 53.9543 20.5583 53.8667C20.4661 53.7791 20.3561 53.7106 20.2284 53.6612C20.1008 53.6118 19.9605 53.5871 19.8076 53.5871H19.0443V55.5444H19.8076C19.9605 55.5444 20.1008 55.5192 20.2284 55.4689C20.3561 55.4185 20.4661 55.3496 20.5583 55.262C20.6507 55.1744 20.722 55.0709 20.7723 54.9516C20.8226 54.8323 20.8478 54.7037 20.8478 54.5657ZM20.3976 54.5713C20.3976 54.659 20.3831 54.7382 20.3543 54.809C20.3254 54.8798 20.2853 54.9414 20.234 54.9936C20.1828 55.0458 20.1208 55.0858 20.0481 55.1138C19.9754 55.1417 19.8953 55.1557 19.8076 55.1557H19.4749V53.9758H19.8076C19.8953 53.9758 19.9754 53.9903 20.0481 54.0192C20.1208 54.048 20.1828 54.0886 20.234 54.1407C20.2853 54.1929 20.3254 54.2554 20.3543 54.3281C20.3831 54.4008 20.3976 54.48 20.3976 54.5657V54.5713ZM21.6418 53.8807V53.5033H21.1944V53.8807H21.6418ZM21.6307 55.5444V54.0457H21.2056V55.5444H21.6307ZM23.5375 55.206V54.0457H23.1125V54.2414C23.0547 54.178 22.9886 54.1249 22.9141 54.082C22.8395 54.0392 22.7444 54.0177 22.6289 54.0177C22.5431 54.0177 22.4602 54.0331 22.38 54.0639C22.2999 54.0946 22.2291 54.1398 22.1675 54.1995C22.106 54.2591 22.0566 54.3323 22.0193 54.419C21.982 54.5056 21.9634 54.6049 21.9634 54.7168V54.7224C21.9634 54.8342 21.9816 54.9335 22.0179 55.0201C22.0543 55.1068 22.1032 55.18 22.1647 55.2397C22.2263 55.2993 22.2971 55.3445 22.3772 55.3753C22.4574 55.406 22.5413 55.4214 22.6289 55.4214C22.7426 55.4214 22.8367 55.4 22.9113 55.3571C22.9858 55.3143 23.0548 55.2546 23.1181 55.1781V55.2509C23.1181 55.385 23.0832 55.4866 23.0132 55.5556C22.9434 55.6246 22.8357 55.6591 22.6904 55.6591C22.5897 55.6591 22.4997 55.647 22.4205 55.6227C22.3413 55.5985 22.2625 55.5649 22.1843 55.5221L22.0388 55.8408C22.1339 55.8912 22.2374 55.9299 22.3492 55.9569C22.4611 55.9838 22.5785 55.9974 22.7016 55.9974C22.8413 55.9974 22.9634 55.9825 23.0678 55.9526C23.1722 55.9228 23.2593 55.8763 23.3293 55.8129C23.3991 55.7495 23.4513 55.6679 23.4858 55.5682C23.5203 55.4684 23.5375 55.3478 23.5375 55.2061V55.206ZM23.1181 54.7223C23.1181 54.7727 23.1088 54.8193 23.0902 54.8621C23.0716 54.905 23.0459 54.9418 23.0133 54.9725C22.9807 55.0033 22.9421 55.0271 22.8973 55.0438C22.8525 55.0606 22.8041 55.069 22.7519 55.069C22.6475 55.069 22.5608 55.0373 22.4918 54.9739C22.4229 54.9105 22.3884 54.8266 22.3884 54.7223V54.7167C22.3884 54.6663 22.3977 54.6197 22.4163 54.5768C22.435 54.534 22.4606 54.4971 22.4932 54.4664C22.5258 54.4357 22.564 54.4119 22.6078 54.3951C22.6516 54.3783 22.6996 54.37 22.7518 54.37C22.804 54.37 22.8525 54.3784 22.8973 54.3951C22.942 54.412 22.9807 54.4357 23.0132 54.4664C23.0459 54.4971 23.0715 54.534 23.0901 54.5768C23.1088 54.6197 23.1181 54.6663 23.1181 54.7167V54.7223L23.1181 54.7223ZM24.3736 53.8807V53.5033H23.9262V53.8807H24.3736ZM24.3624 55.5444V54.0457H23.9374V55.5444H24.3624ZM25.6038 55.4828V55.1417C25.5386 55.1771 25.4687 55.1948 25.3942 55.1948C25.3028 55.1948 25.2571 55.1464 25.2571 55.0494V54.4092H25.6094V54.0457H25.2571V53.6626H24.8322V54.0457H24.6532V54.4092H24.8322V55.1193C24.8322 55.2069 24.8429 55.2791 24.8643 55.336C24.8857 55.3929 24.9156 55.439 24.9538 55.4744C24.992 55.5098 25.0377 55.5346 25.0908 55.5485C25.1439 55.5625 25.2031 55.5695 25.2683 55.5695C25.3392 55.5695 25.4016 55.5616 25.4557 55.5457C25.5097 55.5299 25.5592 55.509 25.6039 55.4828H25.6038ZM27.2115 55.5444V54.6747C27.2115 54.4716 27.1584 54.3131 27.0522 54.1995C26.9459 54.0858 26.7763 54.0289 26.5433 54.0289C26.4166 54.0289 26.3085 54.0401 26.219 54.0624C26.1295 54.0848 26.0438 54.1137 25.9618 54.1491L26.068 54.4734C26.137 54.4473 26.2027 54.4273 26.2651 54.4133C26.3276 54.3993 26.3998 54.3923 26.4819 54.3923C26.5881 54.3923 26.6683 54.4156 26.7223 54.4622C26.7763 54.5088 26.8034 54.5768 26.8034 54.6663V54.6914C26.7493 54.6728 26.6939 54.6579 26.637 54.6467C26.5801 54.6355 26.5135 54.6299 26.4371 54.6299C26.3476 54.6299 26.2661 54.6397 26.1925 54.6592C26.1189 54.6788 26.0555 54.7081 26.0023 54.7473C25.9492 54.7865 25.9077 54.8359 25.8779 54.8955C25.8481 54.9552 25.8331 55.026 25.8331 55.108V55.1136C25.8331 55.1882 25.8467 55.2539 25.8737 55.3107C25.9007 55.3676 25.9376 55.4156 25.9841 55.4547C26.0307 55.4938 26.0852 55.5232 26.1477 55.5428C26.2102 55.5624 26.2768 55.5722 26.3476 55.5722C26.452 55.5722 26.5405 55.5549 26.6132 55.5204C26.6859 55.486 26.7484 55.4398 26.8006 55.382V55.5442H27.2115V55.5444ZM26.8089 55.0159C26.8089 55.0942 26.7786 55.1576 26.718 55.206C26.6574 55.2545 26.5768 55.2787 26.4762 55.2787C26.4073 55.2787 26.3513 55.2629 26.3084 55.2312C26.2656 55.1995 26.2442 55.1548 26.2442 55.097V55.0914C26.2442 55.0243 26.2702 54.973 26.3224 54.9376C26.3746 54.9022 26.4464 54.8845 26.5377 54.8845C26.5899 54.8845 26.6388 54.8896 26.6845 54.8999C26.7302 54.9101 26.7717 54.9236 26.809 54.9404V55.0159H26.8089ZM28.0224 55.5444V53.5033H27.5974V55.5444H28.0224ZM30.9611 55.5444V53.5871H30.5305V54.3616H29.7364V53.5871H29.3058V55.5444H29.7364V54.7587H30.5305V55.5444H30.9611ZM32.7841 54.837V54.8314C32.7841 54.7251 32.7696 54.6231 32.7407 54.5252C32.7119 54.4273 32.6672 54.3407 32.6065 54.2651C32.5459 54.1897 32.47 54.1295 32.3786 54.0848C32.2873 54.0401 32.1792 54.0177 32.0543 54.0177C31.9443 54.0177 31.8441 54.0382 31.7538 54.0793C31.6633 54.1203 31.5855 54.1762 31.5202 54.247C31.455 54.3178 31.4042 54.4008 31.3679 54.4959C31.3315 54.5909 31.3133 54.6915 31.3133 54.7978V54.8034C31.3133 54.919 31.333 55.0239 31.3721 55.118C31.4112 55.2122 31.4658 55.2937 31.5357 55.3627C31.6055 55.4316 31.6885 55.4847 31.7845 55.522C31.8805 55.5593 31.9844 55.578 32.0962 55.578C32.2323 55.578 32.3507 55.5533 32.4514 55.5039C32.552 55.4545 32.6378 55.386 32.7086 55.2984L32.4654 55.0831C32.4057 55.1372 32.3479 55.1763 32.292 55.2005C32.2361 55.2247 32.1727 55.2369 32.1018 55.2369C32.0068 55.2369 31.9271 55.2122 31.8628 55.1628C31.7985 55.1134 31.7561 55.0402 31.7356 54.9432H32.7785C32.7804 54.9227 32.7818 54.9051 32.7827 54.8901C32.7837 54.8752 32.7841 54.8575 32.7841 54.837H32.7841ZM32.3703 54.6776H31.73C31.7468 54.5807 31.7827 54.5034 31.8376 54.4455C31.8926 54.3877 31.9648 54.3588 32.0543 54.3588C32.1438 54.3588 32.2155 54.3882 32.2696 54.4469C32.3237 54.5056 32.3572 54.5825 32.3703 54.6776ZM34.389 55.5444V54.6748C34.389 54.4717 34.3359 54.3132 34.2297 54.1995C34.1234 54.0858 33.9537 54.0289 33.7208 54.0289C33.5941 54.0289 33.4859 54.0401 33.3965 54.0625C33.307 54.0848 33.2213 54.1138 33.1392 54.1492L33.2455 54.4735C33.3144 54.4474 33.3802 54.4273 33.4426 54.4133C33.5051 54.3993 33.5773 54.3923 33.6593 54.3923C33.7656 54.3923 33.8457 54.4156 33.8998 54.4622C33.9538 54.5089 33.9808 54.5768 33.9808 54.6663V54.6914C33.9268 54.6728 33.8714 54.6579 33.8145 54.6467C33.7576 54.6355 33.691 54.6299 33.6146 54.6299C33.5251 54.6299 33.4435 54.6397 33.37 54.6593C33.2963 54.6789 33.2329 54.7082 33.1798 54.7474C33.1267 54.7865 33.0852 54.8359 33.0554 54.8956C33.0255 54.9552 33.0106 55.026 33.0106 55.1081V55.1137C33.0106 55.1882 33.0242 55.254 33.0511 55.3108C33.0782 55.3676 33.115 55.4156 33.1616 55.4548C33.2082 55.4939 33.2627 55.5233 33.3251 55.5429C33.3876 55.5624 33.4542 55.5722 33.5251 55.5722C33.6294 55.5722 33.7179 55.555 33.7907 55.5205C33.8634 55.486 33.9258 55.4399 33.978 55.382V55.5442H34.389V55.5444ZM33.9864 55.016C33.9864 55.0942 33.9561 55.1576 33.8955 55.2061C33.8349 55.2546 33.7543 55.2788 33.6537 55.2788C33.5847 55.2788 33.5288 55.2629 33.4859 55.2313C33.443 55.1996 33.4216 55.1548 33.4216 55.097V55.0914C33.4216 55.0243 33.4477 54.9731 33.4999 54.9376C33.5521 54.9023 33.6238 54.8845 33.7152 54.8845C33.7674 54.8845 33.8163 54.8896 33.862 54.8999C33.9077 54.9102 33.9492 54.9236 33.9864 54.9404V55.016H33.9864ZM35.1999 55.5444V53.5033H34.7749V55.5444H35.1999ZM36.4413 55.4829V55.1417C36.3761 55.1772 36.3062 55.1949 36.2317 55.1949C36.1403 55.1949 36.0946 55.1464 36.0946 55.0495V54.4092H36.4469V54.0457H36.0946V53.6627H35.6696V54.0457H35.4907V54.4092H35.6696V55.1194C35.6696 55.207 35.6804 55.2792 35.7018 55.336C35.7232 55.3929 35.7531 55.4391 35.7912 55.4745C35.8295 55.5099 35.8752 55.5346 35.9283 55.5485C35.9814 55.5625 36.0406 55.5696 36.1058 55.5696C36.1767 55.5696 36.2391 55.5616 36.2932 55.5458C36.3472 55.5299 36.3967 55.509 36.4414 55.4829H36.4413ZM38.1329 55.5444V54.5742C38.1329 54.4008 38.0886 54.2647 38.0001 54.166C37.9116 54.0672 37.7862 54.0178 37.6241 54.0178C37.57 54.0178 37.5215 54.0243 37.4786 54.0374C37.4358 54.0509 37.3967 54.0686 37.3612 54.091C37.3258 54.1138 37.2937 54.1395 37.2648 54.1684C37.2358 54.1977 37.2093 54.228 37.1851 54.2602V53.5034H36.76V55.5445H37.1851V54.7103C37.1851 54.6101 37.2088 54.5342 37.2564 54.4834C37.3039 54.4321 37.3686 54.4065 37.4506 54.4065C37.5327 54.4065 37.5961 54.4321 37.6408 54.4834C37.6855 54.5342 37.7079 54.6101 37.7079 54.7103V55.5445H38.1329L38.1329 55.5444ZM40.8731 55.5444V55.1613H39.8106V54.7504H40.7332V54.3673H39.8106V53.9703H40.8591V53.5872H39.3856V55.5444H40.8731ZM42.5339 55.304L42.2851 55.0523C42.2329 55.1008 42.1802 55.1395 42.1271 55.1684C42.074 55.1972 42.012 55.2117 41.9412 55.2117C41.8834 55.2117 41.8312 55.201 41.7846 55.1796C41.738 55.1581 41.6979 55.1288 41.6644 55.0915C41.6308 55.0542 41.6052 55.0104 41.5875 54.9601C41.5697 54.9097 41.5609 54.8557 41.5609 54.7979V54.7923C41.5609 54.7364 41.5698 54.6838 41.5875 54.6343C41.6052 54.5849 41.6304 54.5416 41.663 54.5043C41.6956 54.467 41.7338 54.4377 41.7776 54.4162C41.8214 54.3948 41.8703 54.3841 41.9244 54.3841C42.0008 54.3841 42.0647 54.399 42.116 54.4289C42.1672 54.4586 42.2171 54.4987 42.2655 54.5491L42.5256 54.2695C42.4547 54.1912 42.3727 54.1296 42.2795 54.0849C42.1863 54.0402 42.0689 54.0178 41.9272 54.0178C41.8117 54.0178 41.7058 54.0383 41.6098 54.0794C41.5138 54.1204 41.4313 54.1763 41.3624 54.2471C41.2934 54.318 41.2394 54.4009 41.2002 54.496C41.1611 54.591 41.1415 54.6917 41.1415 54.7979V54.8035C41.1415 54.9098 41.1611 55.01 41.2002 55.1041C41.2394 55.1983 41.2934 55.2803 41.3624 55.3502C41.4313 55.4201 41.5138 55.4755 41.6098 55.5165C41.7058 55.5575 41.8097 55.5781 41.9216 55.5781C42.0707 55.5781 42.1919 55.5525 42.2851 55.5012C42.3783 55.4499 42.4612 55.3842 42.5339 55.3041V55.304ZM44.3597 54.7979V54.7923C44.3597 54.6842 44.3392 54.583 44.2982 54.4889C44.2571 54.3948 44.2008 54.3128 44.129 54.2429C44.0573 54.173 43.972 54.118 43.8732 54.0779C43.7744 54.0378 43.6672 54.0178 43.5516 54.0178C43.4342 54.0178 43.3261 54.0383 43.2273 54.0793C43.1285 54.1203 43.0428 54.1762 42.9701 54.2471C42.8974 54.3179 42.8405 54.4004 42.7995 54.4945C42.7585 54.5886 42.738 54.6898 42.738 54.7979V54.8035C42.738 54.9116 42.7585 55.0127 42.7995 55.1069C42.8405 55.201 42.8969 55.283 42.9687 55.3529C43.0405 55.4228 43.1257 55.4778 43.2245 55.5179C43.3233 55.558 43.4305 55.578 43.546 55.578C43.6635 55.578 43.7716 55.5575 43.8704 55.5165C43.9692 55.4755 44.0549 55.4195 44.1276 55.3487C44.2003 55.2779 44.2571 55.1954 44.2982 55.1013C44.3392 55.0071 44.3597 54.906 44.3597 54.7979ZM43.9403 54.8035C43.9403 54.8594 43.9315 54.912 43.9137 54.9615C43.896 55.0109 43.8704 55.0542 43.8369 55.0915C43.8033 55.1288 43.7628 55.1581 43.7153 55.1796C43.6677 55.201 43.6132 55.2117 43.5517 55.2117C43.492 55.2117 43.4385 55.2005 43.3909 55.1781C43.3434 55.1558 43.3019 55.1255 43.2665 55.0873C43.2311 55.0491 43.2041 55.0053 43.1854 54.9559C43.1668 54.9064 43.1575 54.8538 43.1575 54.7979V54.7923C43.1575 54.7364 43.1663 54.6838 43.1841 54.6343C43.2018 54.5849 43.2274 54.5416 43.2609 54.5043C43.2944 54.467 43.335 54.4377 43.3825 54.4162C43.4301 54.3948 43.4846 54.3841 43.5461 54.3841C43.6039 54.3841 43.657 54.3953 43.7055 54.4177C43.754 54.44 43.7959 54.4703 43.8313 54.5085C43.8667 54.5467 43.8937 54.5905 43.9124 54.6399C43.931 54.6894 43.9403 54.742 43.9403 54.7979V54.8035ZM45.7661 55.0887V55.0831C45.7661 55.0141 45.7521 54.9554 45.7241 54.9069C45.6962 54.8585 45.6608 54.8174 45.6179 54.7839C45.575 54.7504 45.5265 54.7219 45.4724 54.6986C45.4184 54.6754 45.3653 54.6553 45.3131 54.6385C45.2721 54.6254 45.2334 54.6124 45.1971 54.5993C45.1608 54.5863 45.1286 54.5728 45.1006 54.5588C45.0727 54.5448 45.0503 54.5299 45.0335 54.514C45.0167 54.4982 45.0084 54.48 45.0084 54.4595V54.4539C45.0084 54.4241 45.0215 54.3994 45.0475 54.3798C45.0736 54.3603 45.1128 54.3505 45.1649 54.3505C45.219 54.3505 45.2814 54.3631 45.3523 54.3882C45.4231 54.4134 45.4959 54.4474 45.5704 54.4903L45.7325 54.1968C45.6506 54.1427 45.5606 54.1003 45.4627 54.0695C45.3649 54.0388 45.2684 54.0234 45.1733 54.0234C45.0969 54.0234 45.0256 54.0337 44.9594 54.0541C44.8933 54.0747 44.8355 54.1054 44.7861 54.1464C44.7367 54.1874 44.6975 54.2373 44.6687 54.296C44.6398 54.3547 44.6253 54.4222 44.6253 54.4987V54.5043C44.6253 54.5769 44.6388 54.6385 44.6659 54.6888C44.6929 54.7392 44.7279 54.7816 44.7707 54.816C44.8136 54.8505 44.8616 54.8785 44.9148 54.8999C44.9679 54.9214 45.0206 54.9395 45.0727 54.9545C45.1137 54.9675 45.1529 54.9796 45.1901 54.9908C45.2274 55.002 45.2605 55.0136 45.2894 55.0257C45.3183 55.0379 45.3412 55.0523 45.3579 55.0691C45.3747 55.0859 45.383 55.1054 45.383 55.1278V55.1334C45.383 55.1669 45.3686 55.194 45.3397 55.2145C45.3108 55.235 45.2656 55.2453 45.2041 55.2453C45.1333 55.2453 45.0573 55.2303 44.9762 55.2005C44.8951 55.1707 44.8135 55.126 44.7316 55.0663L44.5498 55.3459C44.6505 55.4241 44.7562 55.4815 44.8672 55.5178C44.9781 55.5541 45.0867 55.5724 45.1929 55.5724C45.273 55.5724 45.3481 55.5625 45.418 55.543C45.4879 55.5234 45.5489 55.4941 45.6011 55.4549C45.6534 55.4158 45.6939 55.3659 45.7228 55.3054C45.7516 55.2447 45.7661 55.1725 45.7661 55.0887ZM47.4968 54.0457H47.055L46.7279 55.0663L46.3868 54.0457H45.9367L46.5238 55.55C46.5052 55.5873 46.4851 55.6129 46.4637 55.6269C46.4423 55.6409 46.4129 55.6479 46.3756 55.6479C46.3477 55.6479 46.3173 55.6423 46.2847 55.6311C46.2521 55.6199 46.2218 55.6059 46.1938 55.5892L46.0513 55.8967C46.1053 55.9284 46.1621 55.9536 46.2218 55.9722C46.2815 55.9909 46.3504 56.0001 46.4287 56.0001C46.4921 56.0001 46.548 55.9927 46.5965 55.9778C46.6449 55.9629 46.6883 55.9387 46.7265 55.9051C46.7647 55.8716 46.7996 55.8282 46.8313 55.7751C46.863 55.722 46.8929 55.6572 46.9208 55.5808L47.4968 54.0458L47.4968 54.0457ZM48.8473 55.0887V55.0831C48.8473 55.0141 48.8333 54.9554 48.8054 54.9069C48.7775 54.8585 48.742 54.8174 48.6991 54.7839C48.6562 54.7504 48.6077 54.7219 48.5537 54.6986C48.4996 54.6754 48.4465 54.6553 48.3943 54.6385C48.3533 54.6254 48.3146 54.6124 48.2783 54.5993C48.242 54.5863 48.2098 54.5728 48.1819 54.5588C48.1539 54.5448 48.1315 54.5299 48.1147 54.514C48.0979 54.4982 48.0896 54.48 48.0896 54.4595V54.4539C48.0896 54.4241 48.1027 54.3994 48.1287 54.3798C48.1548 54.3603 48.194 54.3505 48.2462 54.3505C48.3002 54.3505 48.3627 54.3631 48.4335 54.3882C48.5043 54.4134 48.5771 54.4474 48.6516 54.4903L48.8138 54.1968C48.7318 54.1427 48.6418 54.1003 48.5439 54.0695C48.4461 54.0388 48.3496 54.0234 48.2546 54.0234C48.1781 54.0234 48.1068 54.0337 48.0406 54.0541C47.9745 54.0747 47.9167 54.1054 47.8673 54.1464C47.8179 54.1874 47.7788 54.2373 47.7499 54.296C47.721 54.3547 47.7066 54.4222 47.7066 54.4987V54.5043C47.7066 54.5769 47.7201 54.6385 47.7471 54.6888C47.7741 54.7392 47.8091 54.7816 47.8519 54.816C47.8948 54.8505 47.9428 54.8785 47.996 54.8999C48.0491 54.9214 48.1018 54.9395 48.1539 54.9545C48.1949 54.9675 48.2341 54.9796 48.2714 54.9908C48.3086 55.002 48.3417 55.0136 48.3707 55.0257C48.3995 55.0379 48.4224 55.0523 48.4391 55.0691C48.4559 55.0859 48.4643 55.1054 48.4643 55.1278V55.1334C48.4643 55.1669 48.4498 55.194 48.4209 55.2145C48.392 55.235 48.3468 55.2453 48.2853 55.2453C48.2145 55.2453 48.1385 55.2303 48.0574 55.2005C47.9763 55.1707 47.8948 55.126 47.8128 55.0663L47.631 55.3459C47.7317 55.4241 47.8374 55.4815 47.9484 55.5178C48.0593 55.5541 48.1679 55.5724 48.2741 55.5724C48.3543 55.5724 48.4293 55.5625 48.4992 55.543C48.5691 55.5234 48.6301 55.4941 48.6823 55.4549C48.7346 55.4158 48.7751 55.3659 48.804 55.3054C48.8329 55.2447 48.8473 55.1725 48.8473 55.0887ZM49.9937 55.483V55.1418C49.9285 55.1772 49.8585 55.1949 49.784 55.1949C49.6926 55.1949 49.647 55.1465 49.647 55.0495V54.4093H49.9993V54.0458H49.647V53.6627H49.222V54.0458H49.043V54.4093H49.222V55.1194C49.222 55.207 49.2327 55.2792 49.2541 55.3361C49.2755 55.393 49.3054 55.4391 49.3436 55.4745C49.3818 55.5099 49.4275 55.5347 49.4806 55.5486C49.5338 55.5626 49.5929 55.5696 49.6582 55.5696C49.729 55.5696 49.7915 55.5617 49.8455 55.5458C49.8996 55.53 49.949 55.5091 49.9937 55.483H49.9937ZM51.7104 54.837V54.8314C51.7104 54.7252 51.696 54.6231 51.6671 54.5252C51.6382 54.4274 51.5935 54.3407 51.5329 54.2652C51.4723 54.1897 51.3964 54.1296 51.305 54.0849C51.2137 54.0401 51.1056 54.0178 50.9807 54.0178C50.8707 54.0178 50.7705 54.0383 50.6801 54.0793C50.5897 54.1203 50.5119 54.1762 50.4466 54.2471C50.3814 54.3179 50.3306 54.4008 50.2943 54.4959C50.2579 54.591 50.2397 54.6916 50.2397 54.7979V54.8035C50.2397 54.9191 50.2593 55.0239 50.2984 55.1181C50.3376 55.2122 50.3921 55.2937 50.462 55.3627C50.5319 55.4317 50.6149 55.4848 50.7108 55.5221C50.8069 55.5593 50.9108 55.578 51.0226 55.578C51.1587 55.578 51.2771 55.5533 51.3777 55.5039C51.4784 55.4545 51.5642 55.386 51.635 55.2984L51.3917 55.0831C51.3321 55.1372 51.2743 55.1763 51.2184 55.2005C51.1624 55.2247 51.0991 55.2369 51.0282 55.2369C50.9332 55.2369 50.8535 55.2122 50.7892 55.1628C50.7249 55.1134 50.6825 55.0403 50.662 54.9433H51.7049C51.7068 54.9228 51.7082 54.9051 51.7091 54.8902C51.71 54.8752 51.7105 54.8575 51.7105 54.837H51.7104ZM51.2967 54.6777H50.6564C50.6732 54.5807 50.7091 54.5034 50.764 54.4456C50.819 54.3878 50.8912 54.3589 50.9807 54.3589C51.0702 54.3589 51.1419 54.3882 51.196 54.447C51.2501 54.5057 51.2836 54.5826 51.2967 54.6777ZM54.3136 55.5445V54.5686C54.3136 54.3878 54.2688 54.2508 54.1793 54.1577C54.0899 54.0644 53.9659 54.0178 53.8075 54.0178C53.7049 54.0178 53.6136 54.0379 53.5334 54.0784C53.4533 54.119 53.3806 54.1782 53.3153 54.2574C53.2762 54.1801 53.2207 54.1213 53.149 54.0798C53.0772 54.0383 52.9919 54.0178 52.8932 54.0178C52.8391 54.0178 52.7901 54.0244 52.7464 54.0374C52.7025 54.051 52.663 54.0686 52.6275 54.0911C52.5921 54.1139 52.56 54.1395 52.5311 54.1684C52.5022 54.1977 52.4756 54.228 52.4514 54.2602V54.0458H52.0264V55.5445H52.4514V54.7104C52.4514 54.6102 52.4742 54.5342 52.5199 54.4834C52.5655 54.4322 52.6284 54.4066 52.7086 54.4066C52.7887 54.4066 52.8503 54.4322 52.8932 54.4834C52.936 54.5342 52.9574 54.6102 52.9574 54.7104V55.5445H53.3825V54.7104C53.3825 54.6102 53.4053 54.5342 53.4509 54.4834C53.4966 54.4322 53.5595 54.4066 53.6397 54.4066C53.7198 54.4066 53.7814 54.4322 53.8242 54.4834C53.8671 54.5342 53.8885 54.6102 53.8885 54.7104V55.5445H54.3135L54.3136 55.5445Z" fill="#29298C"/>
</svg>
