<svg width="80" height="80" viewBox="0 0 80 80" fill="none" xmlns="http://www.w3.org/2000/svg">
<circle cx="40" cy="40" r="40" fill="white"/>
<path d="M19.663 57.4939L28.9022 70H2L4.44565 64.7555L19.663 57.4939Z" fill="#95CCEC"/>
<path d="M33.5217 44.8533L8.25 56.956L13.8206 44.8533H33.5217Z" fill="#CDCCCC"/>
<path d="M69.5271 54.132L45.3423 70H35.8315L24.826 55.0733L46.4293 44.8533H65.1793L69.5271 54.132Z" fill="#99C863"/>
<path d="M77 70H55.3967L71.8369 59.2421L77 70Z" fill="#EC7B72"/>
<path d="M24.8262 55.0733L35.8316 70H28.9023L19.6632 57.4939L4.4458 64.7555L8.25015 56.956L33.5219 44.8533H46.4295L24.8262 55.0733Z" fill="#E6E6E5"/>
<path d="M71.837 59.242L55.3968 69.9999H45.3424L69.5272 54.132L71.837 59.242Z" fill="#E6E6E5"/>
<path d="M40.1923 15C32.2781 15 25.8612 21.351 25.8612 29.1839C25.8612 35.6408 35.4865 46.5433 39.0158 50.2481C39.6575 50.989 40.727 50.989 41.4757 50.2481C44.898 46.5433 54.6303 35.6408 54.6303 29.1839C54.5233 21.351 48.1064 15 40.1923 15ZM40.1923 35.1115C36.8769 35.1115 34.2032 32.4653 34.2032 29.1839C34.2032 25.9026 36.8769 23.2563 40.1923 23.2563C43.5077 23.2563 46.1814 25.9026 46.1814 29.1839C46.2883 32.4653 43.5077 35.1115 40.1923 35.1115Z" fill="#33189F"/>
<path d="M43.1265 28.1617H40.86V25.8925H39.3489V28.1617H37.0824V29.6745H39.3489V31.9438H40.86V29.6745H43.1265V28.1617Z" fill="#E14124"/>
<g opacity="0.4">
<path d="M30.5669 24.8441C30.4599 24.8441 30.353 24.8441 30.1391 24.7383C29.7113 24.5266 29.6044 23.9973 29.8183 23.6798C31.2086 21.0335 33.4545 19.1282 36.2351 18.0697C36.6629 17.9638 37.0907 18.1755 37.3046 18.5989C37.4116 19.0223 37.1977 19.4457 36.7699 19.6574C34.417 20.5043 32.385 22.1979 31.2086 24.4207C31.1016 24.7383 30.7808 24.8441 30.5669 24.8441Z" fill="#624AC1"/>
</g>
<g opacity="0.4">
<path d="M39.3367 19.1282C38.9089 19.1282 38.588 18.8106 38.4811 18.3872C38.4811 17.9638 38.8019 17.5404 39.2297 17.5404H40.1923C40.62 17.5404 41.0478 17.858 41.0478 18.3872C41.0478 18.9165 40.727 19.234 40.1923 19.234C39.9784 19.0223 39.6575 19.0223 39.3367 19.1282Z" fill="#624AC1"/>
</g>
</svg>
