<svg width="43" height="56" viewBox="0 0 43 56" fill="none" xmlns="http://www.w3.org/2000/svg">
<path d="M43 0V56H9.52858L0 46.4824V0H43Z" fill="#F0F0F0"/>
<path d="M9.52858 46.4824V56L0 46.4824H9.52858Z" fill="#BB2A64"/>
<path d="M29.8934 48.1038L28.0064 48.1889L27.5253 50.0134L21.1821 42.166L23.5504 40.2563L29.8934 48.1038Z" fill="#EE4659"/>
<path d="M17.2054 48.1038L19.0924 48.1889L19.5737 50.0134L25.9167 42.166L23.5486 40.2563L17.2054 48.1038Z" fill="#EE4659"/>
<path d="M30.1656 38.5245L30.8783 40.2424L29.1585 40.9543V42.813H27.2976L26.5849 44.5308L24.8667 43.8189L23.5498 45.1344L22.2345 43.8189L20.5148 44.5308L19.8021 42.813H17.941V40.9543L16.223 40.2424L16.9339 38.5263L15.6187 37.2109L16.9339 35.8972L16.223 34.1793L17.941 33.4692V31.6105H19.8021L20.5148 29.8926L22.2345 30.6028L23.5498 29.2891L24.8667 30.6044L26.5849 29.8926L27.2976 31.6105H29.1585V33.4674L30.8783 34.1793L30.1656 35.8972L31.4808 37.2109L30.1656 38.5245Z" fill="#F7C680"/>
<path d="M23.5492 42.2928C26.3588 42.2928 28.6364 40.0179 28.6364 37.2116C28.6364 34.4053 26.3588 32.1304 23.5492 32.1304C20.7396 32.1304 18.462 34.4053 18.462 37.2116C18.462 40.0179 20.7396 42.2928 23.5492 42.2928Z" fill="#F6B460"/>
<path d="M2.77222 3.18164H40.2285V17.7384H2.77222V3.18164Z" fill="#EE4659"/>
<path d="M26.2821 9.39729V11.5226H22.5636V15.2368H20.4357V11.5226H16.7172V9.39729H20.4357V5.68311H22.5636V9.39729H26.2821Z" fill="#F0F0F0"/>
<path d="M2.77222 19.417H40.2285V20.6743H2.77222V19.417Z" fill="#E5E5E5"/>
<path d="M2.77246 22.0513H40.2288V23.3086H2.77246V22.0513Z" fill="#E5E5E5"/>
<path d="M2.77246 24.6855H21.1828V25.9429H2.77246V24.6855Z" fill="#E5E5E5"/>
</svg>
