<svg width="50" height="50" viewBox="0 0 50 50" fill="none" xmlns="http://www.w3.org/2000/svg">
<path d="M35.4167 41.6665C35.6944 41.6665 35.9375 41.5623 36.1458 41.354C36.3542 41.1457 36.4583 40.9026 36.4583 40.6248V34.3748C36.4583 34.0971 36.3542 33.854 36.1458 33.6457C35.9375 33.4373 35.6944 33.3332 35.4167 33.3332C35.1389 33.3332 34.8958 33.4373 34.6875 33.6457C34.4792 33.854 34.375 34.0971 34.375 34.3748V40.6248C34.375 40.9026 34.4792 41.1457 34.6875 41.354C34.8958 41.5623 35.1389 41.6665 35.4167 41.6665ZM35.4167 31.2498C35.6944 31.2498 35.9375 31.1457 36.1458 30.9373C36.3542 30.729 36.4583 30.486 36.4583 30.2082C36.4583 29.9304 36.3542 29.6873 36.1458 29.479C35.9375 29.2707 35.6944 29.1665 35.4167 29.1665C35.1389 29.1665 34.8958 29.2707 34.6875 29.479C34.4792 29.6873 34.375 29.9304 34.375 30.2082C34.375 30.486 34.4792 30.729 34.6875 30.9373C34.8958 31.1457 35.1389 31.2498 35.4167 31.2498ZM16.6667 29.1665H21.875C22.4653 29.1665 22.9601 28.9669 23.3594 28.5675C23.7587 28.1682 23.9583 27.6734 23.9583 27.0832C23.9583 26.4929 23.7587 25.9981 23.3594 25.5988C22.9601 25.1995 22.4653 24.9998 21.875 24.9998H16.6667C16.0764 24.9998 15.5816 25.1995 15.1823 25.5988C14.783 25.9981 14.5833 26.4929 14.5833 27.0832C14.5833 27.6734 14.783 28.1682 15.1823 28.5675C15.5816 28.9669 16.0764 29.1665 16.6667 29.1665ZM16.6667 37.4998H18.75C19.3403 37.4998 19.8351 37.3002 20.2344 36.9009C20.6337 36.5016 20.8333 36.0068 20.8333 35.4165C20.8333 34.8262 20.6337 34.3314 20.2344 33.9321C19.8351 33.5328 19.3403 33.3332 18.75 33.3332H16.6667C16.0764 33.3332 15.5816 33.5328 15.1823 33.9321C14.783 34.3314 14.5833 34.8262 14.5833 35.4165C14.5833 36.0068 14.783 36.5016 15.1823 36.9009C15.5816 37.3002 16.0764 37.4998 16.6667 37.4998ZM10.4167 45.8332C9.27083 45.8332 8.28993 45.4252 7.47396 44.6092C6.65799 43.7932 6.25 42.8123 6.25 41.6665V8.33317C6.25 7.18734 6.65799 6.20643 7.47396 5.39046C8.28993 4.57449 9.27083 4.1665 10.4167 4.1665H25.3646C25.9201 4.1665 26.4497 4.27067 26.9531 4.479C27.4566 4.68734 27.8993 4.98248 28.2812 5.36442L38.3854 15.4686C38.7674 15.8505 39.0625 16.2932 39.2708 16.7967C39.4792 17.3002 39.5833 17.8297 39.5833 18.3853V19.0623C39.5833 19.6526 39.3837 20.1474 38.9844 20.5467C38.5851 20.946 38.0903 21.1457 37.5 21.1457C36.9097 21.1457 36.4149 20.946 36.0156 20.5467C35.6163 20.1474 35.4167 19.6526 35.4167 19.0623V18.7498H27.0833C26.4931 18.7498 25.9983 18.5502 25.599 18.1509C25.1997 17.7516 25 17.2568 25 16.6665V8.33317H10.4167V41.6665H21.9271C22.5174 41.6665 23.0122 41.8662 23.4115 42.2655C23.8108 42.6648 24.0104 43.1596 24.0104 43.7498C24.0104 44.3401 23.8108 44.8349 23.4115 45.2342C23.0122 45.6335 22.5174 45.8332 21.9271 45.8332H10.4167ZM35.4167 24.9998C38.2986 24.9998 40.7552 26.0155 42.7865 28.0467C44.8177 30.078 45.8333 32.5346 45.8333 35.4165C45.8333 38.2985 44.8177 40.755 42.7865 42.7863C40.7552 44.8175 38.2986 45.8332 35.4167 45.8332C32.5347 45.8332 30.0781 44.8175 28.0469 42.7863C26.0156 40.755 25 38.2985 25 35.4165C25 32.5346 26.0156 30.078 28.0469 28.0467C30.0781 26.0155 32.5347 24.9998 35.4167 24.9998Z" fill="#33189F"/>
</svg>
