<?xml version="1.0" encoding="UTF-8"?>
<svg id="Layer_1" data-name="Layer 1" xmlns="http://www.w3.org/2000/svg" viewBox="0 0 292.43 214.81">
  <defs>
    <style>
      .cls-1 {
        fill: #ed1c24;
      }

      .cls-1, .cls-2, .cls-3, .cls-4 {
        fill-rule: evenodd;
      }

      .cls-2 {
        fill: #00a651;
      }

      .cls-3 {
        fill: #00aeef;
      }

      .cls-5, .cls-4 {
        fill: #034ea2;
      }

      .cls-6 {
        fill: #231f20;
      }
    </style>
  </defs>
  <path class="cls-5" d="m22.26,138.15l.57-3.12h13.46l-.53,3.12c-.2.05-.39.08-.57.1-.18.01-.34.02-.49.02-.15.03-.3.05-.46.08-.15.03-.3.06-.46.11-.03.03-.06.04-.09.06-.04.01-.08.02-.13.02-.03.03-.06.04-.09.06-.04.01-.08.02-.13.02-.28.1-.51.25-.7.44-.19.19-.34.41-.44.67-.1.25-.19.51-.27.76-.08.25-.14.52-.19.8v.11s-.04.04-.04.06v.17s-.04.04-.04.06v.09s-.04.04-.04.06v.13l-1.67,9.31c-.03.15-.04.28-.06.4-.01.11-.03.23-.06.36-.03.1-.04.2-.06.3-.01.1-.02.2-.02.3-.03.1-.05.21-.08.32-.03.11-.04.23-.04.36v.65c0,.71.11,1.32.32,1.82s.55.9,1.01,1.18c.46.28.96.49,1.52.63.56.14,1.15.21,1.79.21h.38c.13,0,.27-.01.42-.04.15,0,.3-.02.46-.06.15-.04.3-.07.46-.1.3-.05.6-.13.89-.23.29-.1.58-.23.86-.38.28-.13.54-.28.78-.48.24-.19.45-.4.63-.63.15-.2.3-.42.44-.65.14-.23.26-.48.36-.76.1-.28.2-.56.28-.86.09-.29.17-.59.25-.89.03-.1.05-.2.08-.3.03-.1.05-.2.08-.3,0-.08.01-.16.04-.27.03-.1.05-.2.08-.3.03-.1.04-.2.06-.29.01-.09.03-.18.06-.29,0-.1,0-.2.02-.29.01-.09.03-.18.06-.29l1.79-10.61v.04h0v-.02s.01-.03.04-.06h0v-.04h0v-.08c-.03-.23-.09-.43-.21-.61-.11-.18-.29-.32-.51-.42-.23-.13-.46-.22-.7-.27-.24-.05-.5-.09-.78-.11h-.08s-.05-.01-.08-.04h-.49l.57-3.19h10.04l-.57,3.12c-.18.05-.35.08-.53.1-.18.01-.34.03-.49.06-.15.03-.3.04-.46.06-.15.01-.3.04-.46.1-.03,0-.04,0-.06.02-.01.01-.02.02-.02.02-.03.03-.04.04-.06.04h-.06s-.05.04-.08.06c-.03.01-.05.02-.08.02-.28.1-.51.25-.7.44-.19.19-.34.41-.44.67-.1.25-.19.51-.27.76-.08.25-.14.52-.19.8v.11s-.04.04-.04.06v.17s-.04.04-.04.06v.09s-.04.04-.04.06v.13l-1.75,9.85c-.13.74-.28,1.44-.46,2.11-.18.67-.38,1.31-.61,1.92-.23.63-.55,1.22-.97,1.77-.42.54-.92,1.05-1.5,1.5-.43.33-.89.62-1.37.87-.48.25-.99.48-1.52.68-.53.18-1.06.32-1.6.44-.53.11-1.08.21-1.64.29-.23.05-.45.08-.67.09-.22.01-.42.03-.63.06h-.32c-.11,0-.22.01-.32.04h-1.18c-.1-.03-.2-.04-.29-.04h-.29c-.18-.03-.35-.04-.53-.06-.18-.01-.35-.02-.53-.02-.91-.1-1.79-.29-2.62-.55-.84-.27-1.63-.63-2.4-1.08-.76-.46-1.32-1.06-1.69-1.82-.37-.76-.55-1.67-.55-2.74v-.36c0-.11.01-.22.04-.32,0-.13.01-.25.04-.38.03-.13.05-.27.08-.42v-.17c0-.06.01-.13.04-.21,0-.05,0-.11.02-.17.01-.06.03-.13.06-.21v-.08s.01-.05.04-.08v-.19c0-.05,0-.11.02-.17.01-.06.03-.12.06-.17l2.13-12.51v.04-.06s.01-.03.04-.06h0v-.11c0-.28-.08-.51-.23-.68-.15-.18-.37-.32-.65-.42-.3-.1-.61-.18-.93-.23-.32-.05-.65-.08-1.01-.08v-.08h0Zm36.65,6.96l-1.86,10.76v.3c0,.18.03.33.09.46.06.13.15.25.25.38.13.1.27.18.44.25.16.06.35.1.55.1.13,0,.25-.01.38-.04.13-.03.27-.08.42-.15.15-.05.31-.11.48-.19.16-.08.34-.16.51-.27.05-.03.09-.04.13-.06.04-.01.08-.03.13-.06.03-.03.06-.05.11-.08.05-.03.09-.05.11-.08.05-.03.1-.05.13-.08.04-.03.08-.05.13-.08.03-.03.06-.05.11-.08.05-.03.09-.05.11-.08.05-.05.1-.1.15-.13.05-.04.11-.07.19-.09.05-.05.1-.1.15-.13.05-.04.1-.07.15-.1.1-.08.19-.15.27-.21.08-.06.15-.12.23-.17l1.63,2.47c-.56.56-1.15,1.05-1.77,1.48-.62.43-1.29.8-2,1.1-.71.3-1.44.53-2.19.67-.75.14-1.5.21-2.26.21h-.27c-.05-.03-.09-.04-.13-.04h-.4c-.05-.03-.09-.04-.13-.04h-.13c-.48-.05-.95-.14-1.41-.27-.46-.13-.9-.32-1.33-.57-.41-.25-.72-.57-.93-.95-.22-.38-.32-.81-.32-1.29v-.4s.01-.03.04-.06v-.08l2.13-12.43h-2.66l.49-2.66c.89-.18,1.68-.46,2.38-.84.7-.38,1.3-.85,1.81-1.41.51-.58.94-1.22,1.31-1.92.37-.7.68-1.46.93-2.3l3.46-.08-1.03,5.74h5.17l-.61,3.46h-5.17Zm16.73,0l-1.86,10.76v.3c0,.18.03.33.09.46.06.13.15.25.25.38.13.1.27.18.44.25.16.06.35.1.55.1.13,0,.25-.01.38-.04.13-.03.27-.08.42-.15.15-.05.31-.11.48-.19.16-.08.34-.16.51-.27.05-.03.09-.04.13-.06.04-.01.08-.03.13-.06.03-.03.06-.05.11-.08.05-.03.09-.05.11-.08.05-.03.1-.05.13-.08.04-.03.08-.05.13-.08.03-.03.06-.05.11-.08.05-.03.09-.05.11-.08.05-.05.1-.1.15-.13.05-.04.11-.07.19-.09.05-.05.1-.1.15-.13.05-.04.1-.07.15-.1.1-.08.19-.15.27-.21.08-.06.15-.12.23-.17l1.64,2.47c-.56.56-1.15,1.05-1.77,1.48-.62.43-1.29.8-2,1.1-.71.3-1.44.53-2.19.67-.75.14-1.5.21-2.26.21h-.27c-.05-.03-.09-.04-.13-.04h-.4c-.05-.03-.09-.04-.13-.04h-.13c-.48-.05-.95-.14-1.41-.27-.46-.13-.9-.32-1.33-.57-.41-.25-.72-.57-.93-.95-.22-.38-.32-.81-.32-1.29v-.4s.01-.03.04-.06v-.08l2.13-12.43h-2.66l.49-2.66c.89-.18,1.68-.46,2.38-.84.7-.38,1.3-.85,1.81-1.41.51-.58.94-1.22,1.31-1.92.37-.7.68-1.46.93-2.3l3.46-.08-1.03,5.74h5.17l-.61,3.46h-5.17Zm29.24-3.46l-2.43,13.88v.15h0v.04h0s-.04.04-.04.06v.02h0v.04h0c0,.18.04.35.13.51.09.16.21.31.36.44.15.13.32.22.49.29.18.06.37.09.57.09.18,0,.35-.02.51-.06.16-.04.34-.1.51-.17.15-.08.3-.16.46-.27.15-.1.3-.2.46-.3l1.63,1.94c-.43.43-.89.82-1.39,1.18-.49.35-1.01.67-1.54.95-.56.25-1.13.45-1.71.59-.58.14-1.19.21-1.82.21h-.23s-.06-.04-.1-.04h-.32c-.05-.03-.09-.04-.11-.04h-.11c-.41-.05-.8-.14-1.2-.27-.39-.13-.77-.3-1.12-.53-.35-.23-.65-.51-.87-.84-.23-.33-.39-.71-.49-1.14-.38.48-.8.9-1.27,1.25-.47.35-.99.66-1.58.91-.56.23-1.13.4-1.73.51-.6.11-1.2.17-1.81.17h-.42s-.05-.04-.08-.04h-.08c-.43-.03-.86-.1-1.27-.21-.42-.11-.83-.26-1.24-.44-.41-.2-.79-.42-1.14-.67-.35-.24-.67-.51-.95-.82-.41-.41-.75-.84-1.03-1.29-.28-.46-.49-.93-.65-1.41-.18-.51-.3-1.02-.38-1.54-.08-.52-.11-1.06-.11-1.62,0-1.55.27-3,.82-4.37.54-1.37,1.36-2.65,2.45-3.84,1.12-1.19,2.34-2.08,3.67-2.68,1.33-.6,2.79-.89,4.39-.89h.42c.2.03.41.05.61.08.2.03.42.06.65.11.2.03.41.07.61.13.2.06.41.13.61.21.41.15.79.32,1.16.51.37.19.72.42,1.05.7l.27-1.52h5.4Zm-6.58,4.18s-.04.04-.06.04-.02-.01-.02-.04c-.03,0-.04,0-.06-.02-.01-.01-.03-.02-.06-.02-.03-.03-.06-.05-.09-.08-.04-.03-.07-.05-.09-.08-.15-.08-.3-.15-.46-.23-.15-.08-.3-.15-.46-.23-.08-.05-.15-.09-.23-.11-.08-.03-.15-.06-.23-.11-.1-.03-.19-.05-.27-.08-.08-.03-.15-.05-.23-.08-.08-.03-.15-.04-.23-.06-.08-.01-.15-.03-.23-.06h-.09s-.07-.01-.09-.04h-.23c-.71,0-1.35.15-1.92.46-.57.3-1.07.75-1.5,1.33-.43.58-.81,1.2-1.12,1.84-.32.65-.58,1.32-.78,2.03-.1.33-.19.66-.27.99-.08.33-.14.66-.19.99-.03.33-.05.63-.08.91-.03.28-.04.54-.04.8v.08h0v.04h0c0,.43.06.84.17,1.24.11.39.26.77.44,1.12.2.35.48.62.82.8.34.18.75.27,1.24.27.66,0,1.25-.16,1.79-.49.53-.33,1-.82,1.41-1.48.43-.66.8-1.36,1.12-2.11.32-.75.59-1.51.82-2.3.15-.51.29-1,.4-1.48.11-.48.22-.96.32-1.44.1-.46.19-.88.27-1.27.08-.39.15-.74.23-1.05v-.08h0Zm10.53,15.09l2.36-13.38v.04-.06s.01-.03.04-.06h0v-.04h0v-.08c0-.2-.04-.37-.13-.51-.09-.14-.22-.26-.4-.36-.18-.08-.36-.15-.55-.21-.19-.06-.39-.11-.59-.13h-.11c-.05,0-.09-.01-.11-.04h-.36s-.08-.01-.13-.04h-.19l.57-3.19c.03.05.04.08.06.08h.46c.09,0,.18-.01.29-.04h.53c.18,0,.35-.01.53-.04.18-.03.35-.05.53-.08.41-.03.81-.06,1.2-.11.39-.05.79-.11,1.2-.19.41-.08.8-.18,1.18-.3.38-.13.75-.28,1.1-.46l2.02-.08-.49,2.62.08.08c.33-.41.7-.78,1.12-1.12.42-.34.89-.65,1.43-.93.53-.28,1.07-.49,1.62-.65.54-.15,1.1-.23,1.65-.23h.23c.05.03.1.04.13.04h.32c.05.03.09.04.13.04h.09c.35.08.7.18,1.05.32.34.14.67.32.97.55.3.23.54.49.7.8.16.3.25.66.25,1.06,0,.48-.1.91-.29,1.29-.19.38-.46.71-.82.99-.38.25-.77.45-1.18.59-.41.14-.84.21-1.29.21-.25,0-.49-.02-.7-.06-.22-.04-.4-.09-.55-.17-.18-.08-.34-.15-.48-.23-.14-.08-.27-.17-.4-.27-.05-.03-.1-.06-.15-.09-.05-.04-.1-.07-.15-.09-.03-.03-.04-.04-.06-.06-.01-.01-.03-.03-.06-.06-.03,0-.04,0-.06-.02-.01-.01-.03-.03-.06-.06-.03-.03-.06-.04-.1-.06-.04-.01-.07-.03-.1-.06-.05,0-.09,0-.11-.02-.03-.01-.06-.03-.11-.06-.08-.05-.15-.08-.23-.1-.08-.01-.15-.02-.23-.02-.23,0-.44.04-.63.11-.19.08-.37.19-.55.34-.18.15-.34.31-.49.48-.15.16-.29.35-.42.55-.05.08-.1.15-.13.21-.04.06-.08.12-.13.17-.03.08-.06.14-.09.19-.04.05-.07.1-.1.15-.15.25-.29.54-.42.87-.13.33-.25.68-.38,1.06-.05.18-.11.37-.17.57-.06.2-.12.39-.17.57-.05.2-.1.4-.13.59-.04.19-.08.39-.13.59-.08.33-.15.66-.23.99-.08.33-.14.65-.19.95-.08.3-.14.6-.19.87-.05.28-.1.55-.15.8l-.91,4.94h-6.01Z"/>
  <path class="cls-5" d="m149.74,141.65l-2.43,13.88v.15h0v.04h0s-.04.04-.04.06v.02h0v.04h0c0,.18.04.35.13.51.09.16.21.31.36.44.15.13.32.22.49.29.18.06.37.09.57.09.18,0,.35-.02.51-.06.16-.04.34-.1.51-.17.15-.08.3-.16.46-.27.15-.1.3-.2.46-.3l1.63,1.94c-.43.43-.89.82-1.39,1.18-.49.35-1.01.67-1.54.95-.56.25-1.13.45-1.71.59-.58.14-1.19.21-1.82.21h-.23s-.06-.04-.1-.04h-.32c-.05-.03-.09-.04-.11-.04h-.11c-.41-.05-.8-.14-1.2-.27-.39-.13-.77-.3-1.12-.53-.35-.23-.65-.51-.87-.84-.23-.33-.39-.71-.49-1.14-.38.48-.8.9-1.27,1.25-.47.35-.99.66-1.58.91-.56.23-1.13.4-1.73.51-.6.11-1.2.17-1.81.17h-.42s-.05-.04-.08-.04h-.08c-.43-.03-.86-.1-1.27-.21-.42-.11-.83-.26-1.24-.44-.41-.2-.79-.42-1.14-.67-.35-.24-.67-.51-.95-.82-.41-.41-.75-.84-1.03-1.29-.28-.46-.49-.93-.65-1.41-.18-.51-.3-1.02-.38-1.54-.08-.52-.11-1.06-.11-1.62,0-1.55.27-3,.82-4.37.54-1.37,1.36-2.65,2.45-3.84,1.12-1.19,2.34-2.08,3.67-2.68,1.33-.6,2.79-.89,4.39-.89h.42c.2.03.41.05.61.08.2.03.42.06.65.11.2.03.41.07.61.13.2.06.41.13.61.21.41.15.79.32,1.16.51.37.19.72.42,1.05.7l.27-1.52h5.4Zm-6.58,4.18s-.04.04-.06.04-.02-.01-.02-.04c-.03,0-.04,0-.06-.02s-.03-.02-.06-.02c-.03-.03-.06-.05-.1-.08-.04-.03-.07-.05-.09-.08-.15-.08-.3-.15-.46-.23-.15-.08-.3-.15-.46-.23-.08-.05-.15-.09-.23-.11-.08-.03-.15-.06-.23-.11-.1-.03-.19-.05-.27-.08-.08-.03-.15-.05-.23-.08-.08-.03-.15-.04-.23-.06-.08-.01-.15-.03-.23-.06h-.09s-.07-.01-.1-.04h-.23c-.71,0-1.35.15-1.92.46-.57.3-1.07.75-1.5,1.33-.43.58-.8,1.2-1.12,1.84-.32.65-.58,1.32-.78,2.03-.1.33-.19.66-.27.99-.08.33-.14.66-.19.99-.03.33-.05.63-.08.91-.03.28-.04.54-.04.8v.08h0v.04h0c0,.43.06.84.17,1.24.11.39.26.77.44,1.12.2.35.48.62.82.8.34.18.75.27,1.24.27.66,0,1.25-.16,1.79-.49.53-.33,1-.82,1.41-1.48.43-.66.8-1.36,1.12-2.11.32-.75.59-1.51.82-2.3.15-.51.29-1,.4-1.48.11-.48.22-.96.32-1.44.1-.46.19-.88.27-1.27.08-.39.15-.74.23-1.05v-.08h0Zm10.84,15.09l3.8-21.86v.04h0v-.04h0v-.04h0v-.04h0v-.11c0-.1-.01-.19-.04-.27-.03-.08-.06-.15-.11-.23-.03-.08-.08-.15-.15-.21-.08-.06-.18-.12-.3-.17-.18-.08-.35-.15-.51-.21-.16-.06-.34-.11-.51-.13-.18-.05-.37-.09-.57-.11-.2-.03-.41-.04-.61-.04l.49-3.19c.25.03.51.04.78.04s.53-.01.78-.04c.28-.03.55-.06.82-.1.27-.04.54-.07.82-.09.35-.05.72-.1,1.08-.15.37-.05.74-.11,1.12-.19.35-.08.71-.16,1.06-.27.35-.1.7-.22,1.03-.34l1.75-.08-3.16,17.83.08.08c.35-.51.71-1.03,1.06-1.56.35-.53.74-1.05,1.14-1.56.41-.51.84-1,1.29-1.48.46-.48.93-.94,1.41-1.37.51-.43,1.05-.84,1.63-1.24.58-.39,1.19-.75,1.82-1.08.66-.35,1.32-.63,1.98-.84.66-.2,1.33-.34,2.02-.42h.08s.06-.01.11-.04h.76s.05.04.08.04h.46c.33.05.65.13.95.25.3.11.6.27.87.48.28.18.49.39.63.65.14.25.21.56.21.91,0,.43-.08.82-.25,1.16-.16.34-.4.63-.7.86-.3.25-.63.44-.99.55-.35.11-.74.17-1.14.17-.25,0-.48-.01-.68-.04-.2-.03-.38-.06-.53-.11-.15-.05-.29-.1-.42-.15-.13-.05-.25-.11-.38-.19-.03-.03-.06-.04-.1-.06-.04-.01-.07-.03-.09-.06-.05,0-.09,0-.11-.02-.03-.01-.05-.03-.08-.06-.03-.03-.05-.04-.08-.06-.03-.01-.05-.03-.08-.06-.03,0-.05,0-.08-.02-.03-.01-.05-.03-.08-.06-.03,0-.06,0-.1-.02-.04-.01-.08-.03-.13-.06h-.06s-.03-.01-.06-.04h-.27c-.05.03-.09.04-.11.04h-.08c-.05.03-.11.04-.17.06-.06.01-.12.03-.17.06-.18.08-.34.16-.49.25-.15.09-.3.2-.46.32-.15.1-.3.22-.44.36-.14.14-.27.27-.4.4-.03.05-.06.1-.09.15-.04.05-.08.1-.13.15-.03.03-.04.05-.06.08-.01.03-.03.04-.06.04-.03.03-.04.05-.06.08-.01.03-.03.05-.06.08.05.25.09.53.13.84.04.3.08.63.13.99.05.38.11.76.17,1.14.06.38.15.76.25,1.14.15.63.35,1.24.59,1.82.24.58.51,1.14.82,1.67.3.53.68.93,1.14,1.2.46.27.96.4,1.52.4h.34c.05,0,.1,0,.15-.02.05-.01.1-.02.15-.02.1-.03.2-.06.3-.09.1-.04.2-.07.3-.1.03,0,.05,0,.08-.02.03-.01.05-.03.08-.06.05-.03.09-.04.13-.06.04-.01.07-.03.09-.06l.76-.42,1.63,2.24c-.23.28-.49.54-.8.78-.3.24-.65.48-1.03.7-.38.23-.76.43-1.14.61-.38.18-.77.33-1.18.46-.25.1-.51.18-.78.23-.27.05-.54.1-.82.15-.25.05-.5.09-.74.11-.24.03-.46.04-.67.04-.53,0-1.05-.06-1.54-.19-.49-.13-.97-.32-1.43-.57-.46-.28-.86-.59-1.22-.93-.35-.34-.67-.73-.95-1.16-.15-.23-.3-.48-.44-.74-.14-.27-.27-.55-.4-.86-.13-.3-.25-.62-.36-.95-.11-.33-.21-.66-.29-.99-.08-.23-.13-.46-.17-.68-.04-.23-.08-.46-.13-.68-.03-.23-.05-.45-.08-.67-.03-.22-.04-.42-.04-.63v-.3l-.08-.15c-.28.43-.55.84-.8,1.24-.25.39-.48.78-.68,1.16-.23.41-.43.82-.61,1.25-.18.43-.33.89-.46,1.37l-1.14,4.18h-5.82Zm26.46,0l3.8-21.86s0,.03,0,.02v-.17c0-.1-.01-.19-.04-.27-.03-.08-.06-.15-.11-.23-.05-.08-.11-.15-.19-.21-.08-.06-.16-.12-.27-.17-.15-.05-.31-.11-.48-.17-.16-.06-.34-.12-.51-.17-.18-.05-.35-.1-.51-.13-.16-.04-.35-.06-.55-.06l.53-3.19c.38.03.77.02,1.16-.02.39-.04.79-.07,1.2-.09.41-.05.81-.1,1.22-.15.41-.05.81-.11,1.22-.19.23-.05.46-.1.7-.15.24-.05.49-.1.74-.15.23-.05.46-.11.7-.17.24-.06.49-.13.74-.21l1.71-.08-1.82,10.19c.3-.18.63-.35.97-.53s.7-.34,1.08-.49c.38-.15.76-.28,1.14-.38.38-.1.77-.19,1.18-.27.08-.03.15-.04.23-.06.08-.01.16-.02.27-.02.08-.03.15-.04.23-.06.08-.01.15-.02.23-.02h.23c.08,0,.16-.01.27-.04h.72c.05.03.1.04.15.04h.46s.06.04.11.04h.15c.58.08,1.14.21,1.67.4.53.19,1.04.44,1.52.74.48.3.84.67,1.06,1.1.23.43.34.94.34,1.52v.38s-.04.04-.04.06v.17l-1.6,9.77v.23s-.04.04-.04.06v.1c0,.18.03.34.1.49.06.15.16.29.29.42.13.1.27.18.44.25.16.06.35.09.55.09.18,0,.35-.02.51-.06.16-.04.34-.1.51-.17.15-.08.3-.16.46-.25.15-.09.3-.18.46-.29l1.56,2.09c-.33.35-.69.68-1.08.97-.39.29-.82.55-1.27.78-.23.1-.46.2-.68.29-.23.09-.46.17-.68.25-.25.05-.49.1-.72.15-.23.05-.46.09-.68.11h-.15c-.05,0-.1.01-.15.04h-.42c-.05,0-.09.01-.11.04h-.53c-.05-.03-.1-.04-.13-.04h-.4c-.05-.03-.1-.04-.13-.04h-.13c-.51-.08-.99-.18-1.46-.32-.47-.14-.92-.34-1.35-.59-.41-.28-.72-.61-.93-.99-.22-.38-.32-.82-.32-1.33v-.4s.01-.03.04-.06v-.08l1.63-10.07v.04-.06s.01-.03.04-.06h0v-.04h0v-.08c0-.23-.05-.44-.15-.63-.1-.19-.25-.34-.46-.44-.2-.13-.41-.22-.63-.29-.22-.06-.44-.11-.67-.13h-.08s-.05-.01-.08-.04h-.42c-.33,0-.65.03-.95.08-.3.05-.61.13-.91.23-.3.1-.6.21-.89.32-.29.11-.58.23-.86.36l-2.59,14.33h-6.12Z"/>
  <path class="cls-5" d="m228.81,141.65l-2.43,13.88v.15h0v.04h0s-.04.04-.04.06v.02h0v.04h0c0,.18.04.35.13.51.09.16.21.31.36.44.15.13.32.22.49.29.18.06.37.09.57.09.18,0,.35-.02.51-.06.16-.04.34-.1.51-.17.15-.08.3-.16.46-.27.15-.1.3-.2.46-.3l1.63,1.94c-.43.43-.89.82-1.39,1.18-.49.35-1.01.67-1.54.95-.56.25-1.13.45-1.71.59-.58.14-1.19.21-1.82.21h-.23s-.06-.04-.1-.04h-.32c-.05-.03-.09-.04-.11-.04h-.11c-.41-.05-.8-.14-1.2-.27-.39-.13-.77-.3-1.12-.53-.35-.23-.65-.51-.87-.84-.23-.33-.39-.71-.49-1.14-.38.48-.8.9-1.27,1.25-.47.35-.99.66-1.58.91-.56.23-1.13.4-1.73.51-.6.11-1.2.17-1.81.17h-.42s-.05-.04-.08-.04h-.08c-.43-.03-.86-.1-1.27-.21-.42-.11-.83-.26-1.24-.44-.41-.2-.79-.42-1.14-.67-.35-.24-.67-.51-.95-.82-.41-.41-.75-.84-1.03-1.29-.28-.46-.49-.93-.65-1.41-.18-.51-.3-1.02-.38-1.54-.08-.52-.11-1.06-.11-1.62,0-1.55.27-3,.82-4.37.54-1.37,1.36-2.65,2.45-3.84,1.12-1.19,2.34-2.08,3.67-2.68,1.33-.6,2.79-.89,4.39-.89h.42c.2.03.41.05.61.08.2.03.42.06.65.11.2.03.41.07.61.13.2.06.41.13.61.21.41.15.79.32,1.16.51.37.19.72.42,1.05.7l.27-1.52h5.4Zm-6.58,4.18s-.04.04-.06.04-.02-.01-.02-.04c-.03,0-.04,0-.06-.02-.01-.01-.03-.02-.06-.02-.03-.03-.06-.05-.09-.08-.04-.03-.07-.05-.09-.08-.15-.08-.3-.15-.46-.23-.15-.08-.3-.15-.46-.23-.08-.05-.15-.09-.23-.11-.08-.03-.15-.06-.23-.11-.1-.03-.19-.05-.27-.08-.08-.03-.15-.05-.23-.08-.08-.03-.15-.04-.23-.06-.08-.01-.15-.03-.23-.06h-.09s-.07-.01-.09-.04h-.23c-.71,0-1.35.15-1.92.46-.57.3-1.07.75-1.5,1.33-.43.58-.81,1.2-1.12,1.84-.32.65-.58,1.32-.78,2.03-.1.33-.19.66-.27.99-.08.33-.14.66-.19.99-.03.33-.05.63-.08.91-.03.28-.04.54-.04.8v.08h0v.04h0c0,.43.06.84.17,1.24.11.39.26.77.44,1.12.2.35.48.62.82.8s.75.27,1.24.27c.66,0,1.25-.16,1.79-.49.53-.33,1-.82,1.41-1.48.43-.66.8-1.36,1.12-2.11.32-.75.59-1.51.82-2.3.15-.51.29-1,.4-1.48.11-.48.22-.96.32-1.44.1-.46.19-.88.27-1.27.08-.39.15-.74.23-1.05v-.08h0Zm16.42,15.09h-6.01l2.47-13.76v.04h0v-.02s.01-.03.04-.06h0v-.04h0v-.08c-.03-.2-.08-.39-.17-.55-.09-.17-.22-.3-.4-.4-.18-.13-.36-.23-.55-.32-.19-.09-.39-.15-.59-.17-.03,0-.06,0-.11-.02-.05-.01-.09-.02-.11-.02-.05-.03-.1-.04-.13-.04h-.23s-.08-.01-.13-.04h-.19l.46-2.59c.38-.03.79-.06,1.22-.09.43-.04.89-.09,1.37-.17.48-.05.97-.12,1.46-.21.49-.09.98-.18,1.46-.28.05-.03.11-.04.17-.06.06-.01.13-.03.21-.06.05,0,.11,0,.17-.02.06-.01.13-.03.21-.06.13-.03.26-.06.4-.09.14-.04.27-.07.4-.1l2.05-.08-.34,1.86.08.08c.25-.2.53-.4.84-.59.3-.19.63-.37.99-.55.35-.15.72-.29,1.1-.42.38-.13.76-.24,1.14-.34.1-.03.2-.04.29-.06.09-.01.18-.03.28-.06.08-.03.16-.04.25-.06.09-.01.18-.02.29-.02.2-.03.39-.04.55-.06.16-.01.34-.02.51-.02h.27s.06.04.11.04h.46c.05.03.1.04.15.04h.15c.56.08,1.09.22,1.6.42.51.2,1,.46,1.48.76.46.3.8.67,1.03,1.08.23.42.34.89.34,1.43v.38s-.04.04-.04.06v.17l-1.79,9.88v.15h0v.04h0s-.04.04-.04.06v.02h0v.04h0c0,.18.04.34.11.48.08.14.19.27.34.4.13.13.28.22.46.29.18.06.35.09.53.09.13,0,.26-.01.4-.04.14-.03.26-.05.36-.08.05-.03.1-.05.15-.08.05-.03.11-.05.19-.08.05-.03.1-.06.15-.1.05-.04.1-.07.15-.09l.42-.34,1.48,2.09c-.43.43-.89.81-1.37,1.14-.48.33-.99.62-1.52.87-.53.23-1.08.4-1.65.51-.57.11-1.15.17-1.73.17h-.23s-.06-.04-.1-.04h-.51c-.51-.08-.99-.19-1.44-.34-.46-.15-.9-.37-1.33-.65-.41-.28-.72-.6-.93-.97-.22-.37-.31-.79-.29-1.27v-.36s.01-.08.04-.13l1.82-9.96v.04s.01-.01.04-.04v-.27c0-.28-.06-.51-.17-.7-.11-.19-.29-.35-.51-.48-.23-.13-.46-.23-.7-.3-.24-.08-.5-.13-.78-.15h-.61c-.08.03-.14.04-.19.04h-.15c-.1.03-.2.04-.3.06-.1.01-.2.03-.3.06-.23.05-.46.11-.68.19-.23.08-.44.16-.65.27-.23.1-.44.22-.63.34-.19.13-.36.25-.51.38l-2.51,13.99h0Zm42.58-27.83l-3.84,22.35v.15h0v.04h0s-.04.04-.04.06v.02h0v.04h0c0,.18.04.34.11.49.08.15.19.29.34.42.13.13.28.22.46.29.18.06.35.09.53.09.15,0,.29-.01.42-.04.13-.03.24-.06.34-.11.05-.03.1-.05.15-.08.05-.03.11-.05.19-.08.05-.03.1-.06.15-.09.05-.04.1-.07.15-.1.03-.03.05-.04.08-.06.03-.01.05-.03.08-.06,0-.03.01-.04.04-.06.03-.01.05-.03.08-.06.05-.05.1-.09.15-.13.05-.04.1-.07.15-.1l1.6,2.09c-.43.48-.89.91-1.39,1.27-.49.37-1.02.69-1.58.97-.56.25-1.13.45-1.73.59-.6.14-1.21.21-1.84.21h-.46s-.05-.04-.08-.04h-.08c-.46-.03-.89-.1-1.31-.23-.42-.13-.82-.3-1.2-.53-.41-.23-.73-.52-.97-.87-.24-.35-.41-.76-.51-1.22-.1.1-.2.19-.29.27-.09.08-.17.15-.25.23-.1.08-.2.15-.29.23-.09.08-.17.15-.25.23-.38.3-.76.58-1.14.82-.38.24-.76.45-1.14.63-.41.15-.84.27-1.31.36-.47.09-.97.13-1.5.13s-1.1-.05-1.63-.15c-.53-.1-1.03-.25-1.48-.46-.48-.2-.92-.45-1.31-.74-.39-.29-.75-.63-1.08-1.01-.33-.35-.61-.75-.86-1.18-.24-.43-.46-.89-.67-1.37-.18-.48-.31-.98-.4-1.48-.09-.51-.13-1.03-.13-1.56,0-1.5.28-2.93.84-4.3.56-1.37,1.38-2.66,2.47-3.88,1.12-1.22,2.33-2.14,3.65-2.76,1.32-.62,2.75-.93,4.3-.93.41,0,.8.03,1.2.08.39.05.79.14,1.2.27.38.1.76.23,1.14.38.38.15.75.33,1.1.53l.49-3.46s0,.03,0,.02v-.17c0-.2-.04-.39-.13-.55-.09-.16-.23-.3-.44-.4-.18-.13-.37-.23-.59-.32-.22-.09-.42-.15-.63-.17-.1-.03-.2-.04-.28-.06-.09-.01-.17-.02-.25-.02h-.09s-.08-.01-.13-.04h-.23l.49-3.19c.68.03,1.36.02,2.01-.02.66-.04,1.31-.09,1.94-.17.63-.08,1.25-.19,1.86-.34.61-.15,1.2-.35,1.79-.61l2.01-.08h0Zm-8.36,12.7c-.2-.13-.42-.25-.65-.38-.23-.13-.48-.24-.76-.34-.13-.05-.26-.09-.4-.11-.14-.03-.27-.05-.4-.08-.15-.03-.3-.04-.44-.06-.14-.01-.27-.02-.4-.02-.71,0-1.36.15-1.94.46-.58.3-1.09.75-1.52,1.33-.41.61-.76,1.24-1.06,1.88-.3.65-.54,1.32-.72,2.03-.1.33-.18.65-.23.95-.05.3-.1.61-.15.91-.03.3-.05.6-.08.87-.03.28-.04.55-.04.8h0v.04h0v.04h0v.08h0v.32s.01.08.04.13c.03.35.1.7.21,1.03.11.33.26.65.44.95.2.3.46.53.78.67.32.14.7.21,1.16.21.41,0,.79-.07,1.14-.21.35-.14.68-.36.99-.67.3-.28.59-.58.86-.91.27-.33.5-.66.7-.99.03-.05.05-.1.08-.13.03-.04.05-.08.08-.13,0-.03.01-.06.04-.11.03-.05.05-.1.08-.15.03-.05.05-.1.08-.15.03-.05.05-.1.08-.15,0-.03.01-.06.04-.11.03-.05.05-.1.08-.15.13-.3.25-.61.36-.93.11-.32.22-.64.32-.97.1-.33.19-.66.27-.99.08-.33.15-.66.23-.99.05-.18.1-.35.13-.53.04-.18.07-.35.09-.53.03-.1.04-.2.06-.28.01-.09.03-.18.06-.29,0-.08,0-.16.02-.25.01-.09.03-.18.06-.29,0-.08,0-.15.02-.23.01-.08.03-.15.06-.23,0-.05,0-.11.02-.19.01-.08.03-.15.06-.23.03-.08.04-.15.06-.21.01-.06.03-.13.06-.21,0-.05,0-.11.02-.19.01-.08.03-.15.06-.23v-.08h0Z"/>
  <path class="cls-2" d="m10.04,4.55c63.13,23.81,47.25,73.71,114.54,100.93C88.1,66.54,83.76,19.3,10.04,4.55h0Z"/>
  <path class="cls-1" d="m47.59,7.39c35.98,16.41,30.55,40.41,63.63,54.51-18.84-23.1-25.75-47.66-63.63-54.51h0Z"/>
  <path class="cls-4" d="m138.19,12.87c-30.47,5.51-22.59,24.78-9.59,35.18,11.6,9.28,25.69,15.66,3.16,23.79,39.24,9.25,49.31,42.15,12.1,40.07,39.56,10.47,55.68-13.14,18.52-35.15,23.27-29.79-38.78-31.26-24.19-63.88h0Z"/>
  <path class="cls-3" d="m170.76,122.19c29.61.08,32.63-25.29,5.66-42.1,13.28-23.75-10.34-27.13-21.87-40.2-7.64-8.65-8.55-20,1.11-26.44-2.91,15.85,14.21,36.46,32.26,54.9,26.95,27.54,47.3,60.96-17.16,53.84h0Z"/>
  <path class="cls-6" d="m63.2,175.08c-.81,0-1.46.22-1.97.68-.5.45-.76,1.03-.76,1.76,0,.59.21,1.24.62,1.93.42.69,1.51,2.18,3.27,4.48,1.64,2.15,2.46,4.35,2.46,6.62,0,3.11-1.29,5.88-3.85,8.31-2.59,2.45-5.46,3.68-8.61,3.68-2.58,0-4.75-.82-6.51-2.46-1.67-1.55-2.5-3.47-2.5-5.75,0-2.14.74-4.05,2.22-5.71.79-.89,1.78-1.66,2.95-2.29,1.17-.64,2.19-.96,3.06-.96.3,0,.45.12.45.35,0,.22-.28.41-.84.57-1.45.45-2.59,1.05-3.43,1.8-1.61,1.48-2.42,3.34-2.42,5.61s.83,3.99,2.5,5.39c1.54,1.29,3.38,1.94,5.51,1.94,2.66,0,4.95-1.02,6.87-3.07,1.71-1.82,2.56-3.91,2.56-6.27,0-1.34-.29-2.63-.86-3.87-.57-1.24-1.55-2.68-2.91-4.32-.99-1.16-1.65-2.09-1.99-2.78-.34-.69-.51-1.44-.51-2.24,0-1.23.42-2.26,1.25-3.09.86-.86,1.89-1.29,3.09-1.29.85,0,1.99.32,3.44.96.11.06.2.08.29.08.24,0,.41-.22.47-.65.04-.26.17-.39.37-.39.29,0,.56.48.82,1.45.26.97.39,1.98.39,3.03,0,.71-.04,1.2-.11,1.45-.08.25-.22.38-.44.38-.17,0-.3-.06-.36-.18-.06-.13-.17-.55-.34-1.29-.26-1.13-.78-2.05-1.55-2.76-.77-.71-1.65-1.07-2.63-1.08h0Zm10.57,6.61l1.08-.78c.2-.15.35-.22.43-.22.2,0,.36.14.52.42.15.28.22.59.22.93,0,.93-.6,1.87-1.8,2.83-.47.38-.78.57-.92.57-.22,0-.33-.1-.33-.31,0-.08.09-.2.27-.37.51-.46.76-.96.76-1.48,0-.26-.12-.5-.35-.71-.2-.18-.31-.31-.31-.41,0-.11.15-.27.43-.47h0Zm-.41,7.59l-3.22,8.69c-.2.55-.31.91-.31,1.08s.08.27.24.27c.14,0,.35-.08.64-.22.37-.19.6-.29.69-.29.27,0,.41.14.41.41,0,.22-.5.6-1.48,1.15-.99.55-1.69.83-2.1.83-.44,0-.66-.19-.66-.57,0-.13.11-.49.33-1.1l.14-.41,2.8-8.24.15-.45c.15-.43.22-.69.22-.78,0-.22-.11-.33-.33-.33-.08,0-.2.06-.35.16-.35.26-.59.39-.71.39-.24,0-.37-.13-.37-.39,0-.24.54-.71,1.61-1.41,1.07-.69,1.8-1.04,2.18-1.04.44,0,.66.17.66.53,0,.15-.18.73-.55,1.72h0Zm14.17.21c1.49-.96,2.63-1.62,3.42-1.98.79-.36,1.51-.55,2.15-.55,1.09,0,1.64.59,1.64,1.76,0,.62-.35,1.73-1.04,3.34l-2.27,5.31c-.36.85-.53,1.35-.53,1.51,0,.29.14.43.43.43.31,0,.73-.15,1.23-.43.31-.17.53-.27.65-.27.2,0,.31.11.31.31,0,.19-.13.39-.39.59-.26.2-.75.49-1.47.86-1.08.56-1.92.84-2.5.84-.47,0-.7-.15-.7-.45,0-.15.04-.34.13-.56.1-.32.27-.79.49-1.39l2.88-7.66c.27-.71.41-1.29.41-1.74,0-.55-.23-.82-.7-.82-.34,0-.83.14-1.45.42-.62.28-1.21.62-1.75,1.01-.7.52-1.23,1.06-1.6,1.61-.37.55-.79,1.45-1.27,2.7l-2.43,6.37-1.82.62,3.38-10.29.17-.45c.17-.53.27-.94.27-1.21,0-.4-.2-.59-.59-.59s-.99.19-1.79.57c-.8.37-1.43.76-1.87,1.15-.81.7-1.55,1.94-2.22,3.71l-2.58,6.74-1.85.59,3.4-10.26c.31-.95.47-1.5.47-1.64,0-.19-.08-.29-.24-.29s-.41.1-.73.29c-.27.16-.48.24-.59.24-.22,0-.33-.12-.33-.35,0-.29.57-.75,1.7-1.39,1.29-.71,2.14-1.06,2.56-1.06.44,0,.66.17.66.53,0,.18-.09.49-.27.94-.17.37-.31.74-.45,1.13,2.56-1.76,4.59-2.64,6.09-2.64.41,0,.73.09.98.28.24.18.37.43.37.73,0,.09-.1.57-.31,1.43h0Zm10.26,10.84l-.84,2.08c-.86,2.09-1.64,3.6-2.34,4.53-.46.63-1.05,1.16-1.76,1.59-.71.44-1.34.66-1.88.66-.2,0-.31-.1-.31-.29,0-.15.1-.25.31-.31.9-.26,1.64-.79,2.21-1.59.57-.8,1.17-2.14,1.8-4.03l4.17-12.29c.26-.76.39-1.24.39-1.43,0-.15-.08-.22-.22-.22-.17,0-.57.19-1.21.57-.1.06-.19.08-.29.08-.22,0-.33-.1-.33-.31,0-.3.57-.77,1.69-1.41,1.13-.64,1.96-.96,2.49-.96.36,0,.53.15.53.43,0,.19-.16.87-.49,2.03,1.22-1,2.22-1.68,2.98-2.05.76-.37,1.53-.55,2.33-.55s1.51.29,2.03.87c.52.58.79,1.33.79,2.24,0,1.16-.36,2.51-1.08,4.05-.73,1.53-1.64,2.89-2.75,4.08-.93.99-1.92,1.75-2.99,2.31-1.06.56-2.07.84-3.01.84-.8,0-1.55-.31-2.23-.94h0Zm7.85-11.98c-.9,0-1.84.43-2.8,1.3-.96.87-1.8,2.02-2.51,3.47-.93,1.89-1.39,3.5-1.39,4.85,0,.66.17,1.17.5,1.52.34.36.81.55,1.43.55.86,0,1.73-.33,2.61-.99.88-.65,1.68-1.57,2.41-2.74.5-.83.92-1.75,1.24-2.76.32-1,.48-1.88.48-2.63,0-.79-.18-1.41-.52-1.87-.35-.45-.82-.69-1.44-.71h0Zm14.98-11.23l-7.59,20.35c-.24.66-.37,1.07-.37,1.23,0,.19.1.29.29.29.23,0,.71-.27,1.45-.8.15-.1.28-.15.38-.15.23,0,.35.12.35.35,0,.38-.75,1.03-2.25,1.95-.94.57-1.66.86-2.15.86-.36,0-.53-.17-.53-.51,0-.18.12-.58.35-1.21l7.54-20.71c.27-.76.41-1.17.41-1.27,0-.17-.1-.27-.29-.27-.15,0-.4.08-.74.24-.53.27-.85.41-.94.41-.19,0-.29-.1-.29-.31,0-.37.84-.96,2.52-1.76.92-.44,1.51-.66,1.78-.66.34,0,.51.18.51.55,0,.15-.15.62-.43,1.41h0Zm11.17,9.69l-3.22,8.77c-.07.17-.2.53-.41,1.06-.49,1.26-.73,2.25-.73,2.97,0,.13.02.64.06,1.54.01.41.02.74.02.99,0,1.87-.72,3.46-2.15,4.77-1.58,1.45-3.45,2.17-5.61,2.17-1.45,0-2.78-.35-3.98-1.05-1.1-.63-1.66-1.27-1.66-1.94,0-.26.1-.49.29-.69.19-.2.41-.3.66-.3.34,0,.73.29,1.17.88.48.66,1.1,1.18,1.86,1.57.77.39,1.54.59,2.31.59,1.45,0,2.68-.5,3.71-1.5,1.03-1.01,1.54-2.22,1.54-3.66,0-1.17-.13-2.33-.38-3.47-1.6.7-2.8,1.17-3.61,1.41-.82.24-1.59.37-2.33.37-.52,0-.93-.12-1.24-.36-.31-.24-.46-.56-.46-.95,0-.47.24-1.34.71-2.6l2.43-6.95c.24-.67.37-1.04.37-1.13,0-.19-.09-.29-.27-.29-.16,0-.41.1-.76.31-.45.27-.73.41-.84.41-.19,0-.29-.1-.29-.29,0-.15.1-.3.31-.44.2-.15.79-.48,1.76-1.01,1.12-.63,1.85-.94,2.19-.94.4,0,.59.15.59.45,0,.18-.19.71-.57,1.6l-2.7,7.23c-.57,1.55-.86,2.52-.86,2.93,0,.55.38.82,1.13.82.5,0,1.19-.15,2.05-.45.86-.3,1.5-.61,1.92-.92.33-.26.57-.53.73-.81.16-.28.54-1.12,1.14-2.52l3.07-7.68,2.05-.88h0Zm41.48.43c-1.33.78-2.74,1.27-4.24,1.45-.38.06-1.34.15-2.87.27-.38.02-.83.06-1.33.1-1.2,3.21-2.15,5.48-2.82,6.82-.68,1.34-1.55,2.64-2.59,3.89-.99,1.17-2.15,2.08-3.48,2.71-1.34.64-2.75.95-4.24.95-.55,0-.82-.14-.82-.41,0-.29.24-.43.74-.43,2.7-.08,4.92-1.33,6.66-3.73.8-1.13,1.44-2.22,1.9-3.27.47-1.04,1.25-3.12,2.36-6.24-1.5.27-2.73.92-3.68,1.95-.33.36-.58.53-.76.53-.2,0-.31-.1-.31-.31,0-.22.45-.78,1.35-1.7,1.19-1.19,2.57-2.03,4.16-2.52l1.68-4.69c.86-2.39,1.29-3.96,1.29-4.73,0-.7-.62-1.27-1.85-1.73-1.87-.69-3.91-1.04-6.12-1.04-3.53,0-6.38.99-8.52,2.95-1.59,1.46-2.38,3.09-2.38,4.89,0,1.5.51,2.71,1.52,3.61,1.02.91,2.37,1.36,4.05,1.36.44,0,.66.13.66.39,0,.2-.11.34-.33.41-.22.07-.64.1-1.25.1-1.41,0-2.7-.29-3.89-.88-2.06-1.01-3.1-2.54-3.1-4.59,0-1.6.55-3.08,1.65-4.43,1.1-1.36,2.64-2.45,4.64-3.28,2.45-1.04,5.13-1.56,8.05-1.56,2.65,0,5.17.41,7.58,1.23,1.31.45,1.96.96,1.96,1.52,0,.29-.22,1.09-.68,2.41l-2.66,7.68c.5-.01,1.34-.02,2.5-.02,2.46-.01,4.16-.36,5.1-1.02.56-.43,1.1-1.36,1.64-2.76l1.44-3.71.2-.59c.16-.45.24-.73.24-.84,0-.27-.13-.41-.39-.41-.16,0-.43.13-.8.37-.22.13-.4.2-.53.2-.23,0-.35-.12-.35-.35,0-.29.67-.8,2.01-1.55,1.35-.75,2.27-1.12,2.78-1.12.26,0,.39.13.39.37,0,.13-.31.99-.94,2.58l-7.23,18.81c-.31.82-.47,1.34-.47,1.57,0,.24.13.37.37.37.27,0,.8-.22,1.59-.68.17-.1.33-.15.45-.15.2,0,.31.11.31.33,0,.31-.63.83-1.88,1.54-1.52.86-2.54,1.29-3.09,1.29-.41,0-.62-.17-.62-.53,0-.17.26-.93.78-2.29l4.16-11.15h0Zm5.7,9.96c.31,1.66,1.29,2.48,2.93,2.48,1.34,0,2.62-.55,3.83-1.64.31-.29.56-.43.73-.43.24,0,.37.12.37.35,0,.37-.46.87-1.39,1.52-1.64,1.15-3.17,1.72-4.57,1.72-1.23,0-2.21-.4-2.95-1.2-.73-.8-1.1-1.87-1.1-3.19,0-2.27.94-4.48,2.8-6.64.94-1.09,1.95-1.94,3.01-2.55,1.06-.61,2.09-.91,3.07-.91s1.72.31,2.25.92c.45.5.68,1.09.68,1.76,0,1.12-.5,2.31-1.5,3.57-.94,1.2-2.12,2.17-3.55,2.91-1.42.73-2.96,1.18-4.62,1.33h0Zm-.06-.84c1.61-.13,3.01-.52,4.22-1.17,1.08-.59,1.96-1.35,2.64-2.29.68-.93,1.02-1.86,1.02-2.78,0-.66-.19-1.21-.57-1.63-.37-.41-.85-.62-1.44-.62-1.2,0-2.4.69-3.6,2.07-.67.78-1.22,1.71-1.65,2.8-.43,1.1-.64,2.12-.64,3.08l.02.31v.22h0Zm18.96,2.42c-2.1,1.59-4.03,2.38-5.77,2.38-1,0-1.79-.27-2.38-.82-.62-.59-.92-1.36-.92-2.31,0-1.11.31-2.15.93-3.12.62-.96,1.63-1.99,3.02-3.07.04-1.52.55-2.75,1.54-3.68,1.08-1.01,2.43-1.52,4.06-1.52,1.3,0,2.35.33,3.17.99.81.66,1.22,1.52,1.22,2.59,0,.71-.22,1.66-.68,2.87l-1.92,5.05c-.19.53-.29.84-.29.92,0,.17.09.27.27.27.1,0,.2-.03.33-.08.31-.15.54-.22.67-.22.24,0,.37.12.37.35,0,.29-.43.66-1.31,1.14-.87.47-1.58.71-2.11.71-.4,0-.59-.21-.59-.64,0-.16.06-.46.18-.9l.22-.9h0Zm2.97-8.11c.08-.43.13-.73.13-.9,0-.66-.27-1.21-.81-1.66-.54-.45-1.2-.68-1.98-.68-.86,0-1.64.29-2.34.86-.71.59-1.06,1.21-1.06,1.87,0,.1.01.25.04.43,1.12-.59,2.22-.88,3.31-.88.9,0,1.8.32,2.71.96h0Zm-2.99-.13c-1.53,0-3.08.76-4.65,2.29-.67.66-1.2,1.4-1.6,2.22-.4.83-.59,1.61-.59,2.35,0,.7.24,1.27.72,1.7.48.44,1.1.66,1.86.66s1.48-.22,2.27-.64c.8-.43,1.51-1.01,2.15-1.75.55-.63,1.01-1.39,1.41-2.29.38-.89.61-1.71.66-2.45.04-.59-.15-1.08-.57-1.47-.41-.38-.97-.59-1.66-.62h0Zm11.82-1.54c1.22-.86,2.16-1.43,2.84-1.72.67-.29,1.4-.43,2.18-.43s1.5.34,2.05,1.04c.55.69.82,1.55.82,2.57,0,1.45-.36,2.93-1.1,4.44-.73,1.5-1.71,2.81-2.96,3.92-1.83,1.64-3.6,2.45-5.31,2.45-.83,0-1.52-.31-2.05-.92-.6-.69-.9-1.5-.9-2.45,0-.66.21-1.67.64-3.03.69-2.16,1.18-3.64,1.5-4.45.22-.57.33-.96.33-1.17,0-.19-.08-.29-.24-.29-.2,0-.45.12-.74.35-.32.26-.57.39-.71.39-.22,0-.33-.1-.33-.29,0-.3.7-.89,2.09-1.76.72-.45,1.32-.68,1.8-.68.31,0,.47.15.47.43,0,.12-.04.3-.1.53-.04.15-.13.5-.27,1.06h0Zm3.62-.83c-.75-.04-1.56.24-2.43.85-.87.6-1.49,1.33-1.87,2.17-.52,1.14-.98,2.38-1.39,3.74-.41,1.36-.62,2.34-.62,2.94,0,.66.2,1.21.6,1.67.41.45.9.69,1.49.69.55,0,1.17-.22,1.87-.64.71-.43,1.36-.99,1.98-1.69.78-.89,1.4-1.91,1.86-3.07.47-1.16.7-2.27.7-3.34,0-2.13-.73-3.23-2.2-3.31h0Zm7.89,9.03c.31,1.66,1.29,2.48,2.93,2.48,1.34,0,2.62-.55,3.83-1.64.31-.29.56-.43.73-.43.24,0,.37.12.37.35,0,.37-.46.87-1.39,1.52-1.64,1.15-3.17,1.72-4.57,1.72-1.23,0-2.21-.4-2.95-1.2-.73-.8-1.1-1.87-1.1-3.19,0-2.27.94-4.48,2.8-6.64.94-1.09,1.95-1.94,3.01-2.55,1.06-.61,2.09-.91,3.07-.91s1.72.31,2.25.92c.45.5.68,1.09.68,1.76,0,1.12-.5,2.31-1.5,3.57-.94,1.2-2.12,2.17-3.54,2.91-1.42.73-2.96,1.18-4.62,1.33h0Zm-.06-.84c1.61-.13,3.01-.52,4.22-1.17,1.08-.59,1.96-1.35,2.64-2.29.68-.93,1.02-1.86,1.02-2.78,0-.66-.19-1.21-.57-1.63-.37-.41-.85-.62-1.44-.62-1.2,0-2.4.69-3.6,2.07-.67.78-1.22,1.71-1.65,2.8-.43,1.1-.64,2.12-.64,3.08l.02.31v.22h0Zm15.96-6.57c2.57-1.82,4.63-2.73,6.18-2.73.44,0,.79.13,1.06.4s.41.62.41,1.03c0,.55-.2,1.35-.62,2.42l-2.66,6.88c-.27.69-.41,1.16-.41,1.43,0,.23.11.35.33.35.31,0,.75-.15,1.34-.47.26-.15.43-.22.53-.22.19,0,.29.11.29.31,0,.29-.52.71-1.58,1.27-1.05.56-1.85.84-2.4.84-.44,0-.66-.16-.66-.49,0-.22.22-.98.66-2.27l2.43-7.21c.24-.74.37-1.31.37-1.72,0-.63-.31-.94-.92-.94-.78,0-1.83.44-3.17,1.33-.79.55-1.37,1.09-1.74,1.62-.36.53-.8,1.5-1.31,2.89l-2.4,6.47-1.88.68,3.29-9.91.27-.73c.24-.73.37-1.13.37-1.21,0-.22-.1-.33-.31-.33-.16,0-.49.15-.99.47-.15.1-.3.15-.45.15-.23,0-.35-.11-.35-.33,0-.31.61-.82,1.83-1.52,1.22-.71,2.11-1.06,2.66-1.06.34,0,.51.16.51.49,0,.18-.08.48-.24.9-.16.4-.31.8-.45,1.23h0Zm19.47-12.52l-6.88,17.64c-.23.66-.47.99-.71.99-.37,0-.55-.14-.55-.41,0-.03.13-.41.37-1.1l5.38-15.38.08-.27c.13-.43.2-.67.2-.74,0-.19-.08-.29-.24-.29-.07,0-.34.15-.8.43-.55.36-.88.53-1,.53-.26,0-.39-.12-.39-.35,0-.13.07-.27.2-.39.14-.12.56-.42,1.27-.9,1.62-1.13,2.61-1.7,2.95-1.7.13,0,.26.06.38.16.12.11.17.24.17.39,0,.18-.15.64-.43,1.39h0Zm-8.5,20.78c.16,0,.36.3.59.9.1.23.15.38.18.47.07.17.1.29.1.39,0,.23-.33.58-.99,1.04-.15.1-.25.17-.31.2-.1.08-.2.13-.29.13-.12,0-.21-.04-.25-.13-.05-.08-.17-.36-.38-.84-.16-.46-.24-.73-.24-.8,0-.14.22-.4.66-.79.45-.38.75-.58.92-.58h0Z"/>
</svg>