<svg width="80" height="80" viewBox="0 0 80 80" fill="none" xmlns="http://www.w3.org/2000/svg">
<path d="M40 68.5559C38.7531 68.5559 37.5042 68.2607 36.3883 67.7023C33.0159 66.0146 26.4301 62.3954 20.2177 57.1195C12.1362 50.2561 7.34606 42.8892 5.98025 35.2234C4.91939 29.2684 6.43406 23.1892 10.1357 18.5445C13.5639 14.243 18.4218 11.7294 23.8146 11.4665C24.1316 11.451 24.453 11.4431 24.7693 11.4431C29.8218 11.4431 34.5915 13.3903 38.1997 16.9261C38.8515 17.5648 39.4524 18.2425 39.9997 18.9537C40.5473 18.2423 41.1481 17.5645 41.7999 16.9259C45.408 13.3904 50.1779 11.4433 55.2306 11.4433C55.5468 11.4433 55.8683 11.4511 56.1853 11.4666C61.5781 11.7295 66.4361 14.2431 69.8643 18.5449C73.566 23.1895 75.0805 29.2687 74.0193 35.2237C72.6538 42.8894 67.8635 50.2565 59.782 57.1197C53.5697 62.3954 46.9843 66.0146 43.6115 67.7024C42.4959 68.2608 41.2469 68.5559 40 68.5559Z" fill="url(#paint0_linear_259_2836)"/>
<path d="M28.3474 51.5052C28.2962 51.5052 28.2452 51.5046 28.1938 51.503C25.9712 51.4398 24.1265 50.0216 23.4943 47.8898L19.4329 34.1945C19.4117 34.1229 19.3965 34.0713 19.268 34.0679C19.1348 34.0632 19.1213 34.1154 19.0964 34.1857L17.2016 39.5283C16.4882 41.5399 14.5748 42.8914 12.4407 42.8914H2.43819C1.09215 42.8914 0.000854492 41.8001 0.000854492 40.4541C0.000854492 39.108 1.09215 38.0167 2.43819 38.0167H12.4405C12.5152 38.0167 12.5823 37.9694 12.6073 37.8988L14.502 32.5562C15.247 30.4558 17.1717 29.1389 19.3958 29.1949C21.6236 29.2535 23.4725 30.672 24.1063 32.8084L28.1678 46.5038C28.1889 46.5752 28.2041 46.6268 28.3325 46.6304C28.4597 46.6306 28.4788 46.5835 28.5041 46.5134L32.0542 36.6403C32.7638 34.6666 34.5772 33.3554 36.6738 33.2997C38.7723 33.2444 40.6507 34.4574 41.4641 36.3906L41.4783 36.4246C41.5052 36.4887 41.5279 36.5378 41.6531 36.5283C41.7803 36.5185 41.7935 36.4666 41.8114 36.3946L44.3657 26.1909C44.9232 23.9636 46.8401 22.4271 49.1356 22.3678C51.4255 22.3095 53.4245 23.7438 54.0964 25.9393L58.6841 40.9272C58.7027 40.9869 58.7199 41.0436 58.8415 41.0519C58.964 41.0602 58.9878 41.0062 59.0142 40.9496C59.8376 39.168 61.6376 38.0171 63.5998 38.0171H77.5621C78.9081 38.0171 79.9994 39.1084 79.9994 40.4544C79.9994 41.8004 78.9081 42.8917 77.5621 42.8917H63.5998C63.5311 42.8917 63.468 42.932 63.439 42.9946C62.5529 44.9121 60.6162 46.0572 58.5108 45.9153C56.4029 45.7719 54.6415 44.3741 54.0231 42.354L49.4351 27.3659C49.4095 27.2831 49.4023 27.2396 49.2612 27.2407C49.1268 27.2442 49.1152 27.2905 49.0942 27.3747L46.5398 37.5786C46.0024 39.7244 44.2305 41.2197 42.0252 41.3887C39.8211 41.5584 37.8409 40.3495 36.9831 38.3109L36.9689 38.2768C36.9466 38.2236 36.9234 38.1692 36.8027 38.1727C36.6818 38.176 36.6619 38.2312 36.6409 38.2897L33.0907 48.1628C32.356 50.2067 30.5044 51.5052 28.3474 51.5052Z" fill="#FFB42A"/>
<defs>
<linearGradient id="paint0_linear_259_2836" x1="34.333" y1="25.3093" x2="58.3479" y2="55.2941" gradientUnits="userSpaceOnUse">
<stop stop-color="#FF7044"/>
<stop offset="1" stop-color="#F82814"/>
</linearGradient>
</defs>
</svg>
