<svg width="60" height="60" viewBox="0 0 60 60" fill="none" xmlns="http://www.w3.org/2000/svg">
<circle cx="30" cy="30" r="30" fill="#33189F" fill-opacity="0.08"/>
<g clip-path="url(#clip0_5771_13523)">
<path d="M30 48C20.0725 48 12 39.9275 12 30C12 20.0725 20.0725 12 30 12C39.9275 12 48 20.0725 48 30C48 39.9275 39.9275 48 30 48ZM30 14.4407C21.421 14.4407 14.4407 21.421 14.4407 30C14.4407 38.579 21.421 45.5593 30 45.5593C38.579 45.5593 45.5593 38.579 45.5593 30C45.5593 21.421 38.579 14.4407 30 14.4407Z" fill="#F4F4F4"/>
<path d="M30 48C20.0725 48 12 39.9275 12 30C12 20.0725 20.0725 12 30 12C38.3593 12 45.7485 17.9125 47.5668 26.0644C47.8536 27.3458 48 28.6698 48 30H45.5593C45.5593 28.8529 45.4312 27.7058 45.1871 26.5953C43.619 19.5539 37.2305 14.4407 30 14.4407C21.421 14.4407 14.4407 21.421 14.4407 30C14.4407 38.579 21.421 45.5593 30 45.5593C32.2149 45.5593 34.3566 45.1017 36.3641 44.2047L37.3647 46.4319C35.04 47.4753 32.5627 48 30 48Z" fill="#33189F"/>
<path d="M33.0667 26.4844C31.8347 24.1945 30.1534 21.5293 30.1534 21.5293C30.1534 21.5293 28.4722 24.1945 27.2402 26.4844C25.558 29.611 24.7051 31.8128 24.7051 33.0285C24.7051 36.0292 27.1492 38.4705 30.1534 38.4705C33.1577 38.4705 35.6018 36.0292 35.6018 33.0285C35.6018 31.8128 34.7489 29.6111 33.0667 26.4844Z" fill="#33189F" fill-opacity="0.43"/>
<path d="M33.0667 26.4844C31.8347 24.1945 30.1534 21.5293 30.1534 21.5293C30.1534 21.5293 28.4722 24.1945 27.2402 26.4844C25.558 29.611 24.7051 31.8128 24.7051 33.0285C24.7051 36.0292 27.1492 38.4705 30.1534 38.4705C33.1577 38.4705 35.6018 36.0292 35.6018 33.0285C35.6018 31.8128 34.7489 29.6111 33.0667 26.4844Z" fill="#33189F" fill-opacity="0.43"/>
<path d="M33.0676 26.4844C31.8356 24.1945 30.1543 21.5293 30.1543 21.5293V38.4705C33.1586 38.4705 35.6027 36.0292 35.6027 33.0285C35.6027 31.8128 34.7498 29.6111 33.0676 26.4844Z" fill="#33189F"/>
<path d="M31.3281 32.9167H34.2442V33.8888H31.3281V32.9167Z" fill="#FCFCFC"/>
<path d="M26.2324 32.916H29.1485V33.8881H26.2324V32.916Z" fill="#FCFCFC"/>
<path d="M27.2051 34.8601V31.944H28.1771V34.8601H27.2051Z" fill="#FCFCFC"/>
</g>
<defs>
<clipPath id="clip0_5771_13523">
<rect width="36" height="36" fill="white" transform="translate(12 12)"/>
</clipPath>
</defs>
</svg>
