<svg width="60" height="60" viewBox="0 0 60 60" fill="none" xmlns="http://www.w3.org/2000/svg">
<circle cx="30" cy="30" r="30" fill="#33189F" fill-opacity="0.08"/>
<g clip-path="url(#clip0_5353_17082)">
<path d="M30 48C20.0725 48 12 39.9275 12 30C12 20.0725 20.0725 12 30 12C39.9275 12 48 20.0725 48 30C48 39.9275 39.9275 48 30 48ZM30 14.4407C21.421 14.4407 14.4407 21.421 14.4407 30C14.4407 38.579 21.421 45.5593 30 45.5593C38.579 45.5593 45.5593 38.579 45.5593 30C45.5593 21.421 38.579 14.4407 30 14.4407Z" fill="#F4F4F4"/>
<path d="M30 48C20.0725 48 12 39.9275 12 30C12 20.0725 20.0725 12 30 12C38.3593 12 45.7485 17.9125 47.5668 26.0644C47.8536 27.3458 48 28.6698 48 30H45.5593C45.5593 28.8529 45.4312 27.7058 45.1871 26.5953C43.619 19.5539 37.2305 14.4407 30 14.4407C21.421 14.4407 14.4407 21.421 14.4407 30C14.4407 38.579 21.421 45.5593 30 45.5593C32.2149 45.5593 34.3566 45.1017 36.3641 44.2047L37.3647 46.4319C35.04 47.4753 32.5627 48 30 48Z" fill="#33189F"/>
<g clip-path="url(#clip1_5353_17082)">
<path d="M34.93 30.5815C35.1164 31.1885 35.2237 31.8323 35.2237 32.5325C35.2237 35.6805 32.6543 38.2273 29.5007 38.1878C25.8865 38.1426 23.3315 34.7688 24.0515 31.2252C24.7741 27.6563 28.3007 25.4712 29.4583 21.8938C29.4922 21.7836 29.6531 21.7836 29.687 21.8966C30.2461 23.6189 31.3501 25.0163 32.4315 26.4027L34.93 30.5815Z" fill="#33189F"/>
<path d="M33.1756 30.847C35.3587 30.847 37.1285 29.0773 37.1285 26.8941C37.1285 24.711 35.3587 22.9412 33.1756 22.9412C30.9924 22.9412 29.2227 24.711 29.2227 26.8941C29.2227 29.0773 30.9924 30.847 33.1756 30.847Z" fill="#F2F9FC"/>
<path d="M29.5768 34.7999H29.5695C29.4427 34.7963 29.3337 34.709 29.3032 34.5859L28.3935 30.9481L27.8649 32.3579C27.8237 32.468 27.7181 32.5408 27.6004 32.5408H26.1886C26.0325 32.5408 25.9062 32.4146 25.9062 32.2585C25.9062 32.1023 26.0325 31.9761 26.1886 31.9761H27.4047L28.1831 29.9005C28.2266 29.7848 28.3387 29.7119 28.4635 29.7179C28.5872 29.7249 28.6917 29.8116 28.7213 29.9313L29.6051 33.4658L30.4363 30.764C30.4716 30.6496 30.575 30.5697 30.6947 30.5649C30.8135 30.5598 30.9239 30.631 30.9686 30.7422L31.4621 31.9764H32.9651C33.1212 31.9764 33.2474 32.1026 33.2474 32.2588C33.2474 32.4149 33.1212 32.5411 32.9651 32.5411H31.271C31.1555 32.5411 31.0518 32.4708 31.0086 32.3635L30.741 31.6941L29.8468 34.6006C29.8101 34.7195 29.7005 34.7999 29.5768 34.7999Z" fill="white"/>
<path d="M31.3804 29.0906C31.2703 29.2007 31.0896 29.2007 30.9795 29.0906C30.3753 28.4864 30.0703 27.6902 30.0703 26.8939L30.3527 26.6116L30.6378 26.8939C30.6378 27.5433 30.8835 28.1927 31.3804 28.6897C31.4905 28.7998 31.4905 28.9805 31.3804 29.0906Z" fill="#4AAFA3"/>
<path d="M33.1762 23.7881L33.4585 24.0704L33.1762 24.3556C32.843 24.3556 32.5127 24.4177 32.2021 24.5476C31.9028 24.6719 31.6233 24.8554 31.3804 25.0982C30.8835 25.5951 30.6378 26.2446 30.6378 26.894H30.0703C30.0703 26.0977 30.3753 25.3015 30.9795 24.6973C31.5837 24.093 32.38 23.7881 33.1762 23.7881Z" fill="#5DCEC4"/>
<path d="M36.2817 26.894L35.9993 27.1763L35.7141 26.894C35.7141 26.2446 35.4685 25.5951 34.9715 25.0982C34.4774 24.6013 33.8252 24.3556 33.1758 24.3556V23.7881C33.972 23.7881 34.7683 24.093 35.3725 24.6973C35.9767 25.3015 36.2817 26.0977 36.2817 26.894Z" fill="#F9D438"/>
<path d="M36.2814 26.894C36.2814 27.6903 35.9764 28.4865 35.3722 29.0907C35.3157 29.1444 35.2451 29.1726 35.1717 29.1726C35.0983 29.1726 35.0277 29.1444 34.9713 29.0907C34.8611 28.9806 34.8611 28.7999 34.9713 28.6898C35.4682 28.1929 35.7138 27.5435 35.7138 26.894H36.2814Z" fill="#F9415B"/>
<path d="M33.1748 27.1764C33.1212 27.1764 33.0664 27.1609 33.0184 27.129C32.8885 27.0423 32.8535 26.8669 32.9402 26.7373L34.6354 24.1962C34.7218 24.0666 34.8974 24.031 35.027 24.118C35.1569 24.2046 35.1919 24.38 35.1053 24.5096L33.41 27.0508C33.3558 27.1324 33.266 27.1764 33.1748 27.1764Z" fill="#313851"/>
<path d="M33.1767 31.1293C30.8414 31.1293 28.9414 29.2293 28.9414 26.894C28.9414 24.5586 30.8414 22.6587 33.1767 22.6587C35.512 22.6587 37.412 24.5586 37.412 26.894C37.412 29.2293 35.512 31.1293 33.1767 31.1293ZM33.1767 23.2234C31.1528 23.2234 29.5061 24.8701 29.5061 26.894C29.5061 28.9179 31.1528 30.5646 33.1767 30.5646C35.2006 30.5646 36.8473 28.9179 36.8473 26.894C36.8473 24.8701 35.2006 23.2234 33.1767 23.2234Z" fill="#2A2A2A"/>
<path d="M33.176 27.4588C33.4879 27.4588 33.7407 27.2059 33.7407 26.8941C33.7407 26.5822 33.4879 26.3293 33.176 26.3293C32.8642 26.3293 32.6113 26.5822 32.6113 26.8941C32.6113 27.2059 32.8642 27.4588 33.176 27.4588Z" fill="#3E4968"/>
</g>
</g>
<defs>
<clipPath id="clip0_5353_17082">
<rect width="36" height="36" fill="white" transform="translate(12 12)"/>
</clipPath>
<clipPath id="clip1_5353_17082">
<rect width="16.9412" height="16.9412" fill="white" transform="translate(22.5879 21.5293)"/>
</clipPath>
</defs>
</svg>
