<svg width="80" height="80" viewBox="0 0 80 80" fill="none" xmlns="http://www.w3.org/2000/svg">
<g clip-path="url(#clip0_249_1242)">
<path d="M40 29V49" stroke="#C7413A" stroke-width="4" stroke-linecap="round" stroke-linejoin="round"/>
<path d="M33.78 9.51638L2.97477 61.0649C2.33972 62.1671 2.00367 63.4167 2.00003 64.6895C1.99639 65.9623 2.3253 67.2138 2.95404 68.3197C3.58278 69.4255 4.48943 70.3471 5.58382 70.9928C6.67822 71.6384 7.92221 71.9857 9.19206 72H70.8101C72.0794 71.9853 73.3228 71.638 74.4166 70.9925C75.5105 70.347 76.4168 69.4259 77.0454 68.3206C77.674 67.2154 78.0031 65.9645 78 64.6923C77.9968 63.42 77.6615 62.1708 77.0274 61.0687L46.2222 9.51257C45.5741 8.4404 44.661 7.55386 43.5713 6.93856C42.4815 6.32326 41.2519 6 40.0011 6C38.7503 6 37.5207 6.32326 36.4309 6.93856C35.3411 7.55386 34.4281 8.4404 33.78 9.51257V9.51638Z" stroke="#C7413A" stroke-width="4" stroke-linecap="round" stroke-linejoin="round"/>
<circle cx="40" cy="58" r="3" fill="#C7413A"/>
</g>
<defs>
<clipPath id="clip0_249_1242">
<rect width="80" height="80" fill="white"/>
</clipPath>
</defs>
</svg>
