<svg width="18" height="17" viewBox="0 0 18 17" fill="none" xmlns="http://www.w3.org/2000/svg">
<path d="M12.4167 9.08333L11.2084 7.875C11.3612 7.13889 11.1702 6.51042 10.6355 5.98958C10.1008 5.46875 9.45842 5.26389 8.70842 5.375L7.50008 4.16667C7.73619 4.05556 7.97925 3.97222 8.22925 3.91667C8.47925 3.86111 8.73619 3.83333 9.00008 3.83333C10.0417 3.83333 10.9272 4.19792 11.6563 4.92708C12.3855 5.65625 12.7501 6.54167 12.7501 7.58333C12.7501 7.84722 12.7223 8.10417 12.6667 8.35417C12.6112 8.60417 12.5279 8.84722 12.4167 9.08333ZM15.0834 11.7083L13.8751 10.5417C14.4029 10.1389 14.8751 9.69097 15.2917 9.19792C15.7084 8.70486 16.0556 8.16667 16.3334 7.58333C15.639 6.18056 14.6355 5.06597 13.323 4.23958C12.0105 3.41319 10.5695 3 9.00008 3C8.5973 3 8.20494 3.02778 7.823 3.08333C7.44105 3.13889 7.05564 3.22222 6.66675 3.33333L5.37508 2.04167C5.95842 1.80556 6.55217 1.62847 7.15633 1.51042C7.7605 1.39236 8.37508 1.33333 9.00008 1.33333C10.9029 1.33333 12.6424 1.83333 14.2188 2.83333C15.7952 3.83333 17.0001 5.18056 17.8334 6.875C17.889 6.98611 17.9306 7.1007 17.9584 7.21875C17.9862 7.33681 18.0001 7.45833 18.0001 7.58333C18.0001 7.70833 17.9897 7.82986 17.9688 7.94792C17.948 8.06597 17.9098 8.18056 17.8542 8.29167C17.5487 8.97222 17.1598 9.6007 16.6876 10.1771C16.2154 10.7535 15.6806 11.2639 15.0834 11.7083ZM9.00008 13.8333C7.13897 13.8333 5.43758 13.3299 3.89591 12.3229C2.35425 11.316 1.13897 9.99306 0.250081 8.35417C0.180637 8.24306 0.128554 8.12153 0.0938314 7.98958C0.0591092 7.85764 0.041748 7.72222 0.041748 7.58333C0.041748 7.44445 0.0556369 7.3125 0.0834147 7.1875C0.111192 7.0625 0.159804 6.9375 0.229248 6.8125C0.507026 6.25695 0.829943 5.7257 1.198 5.21875C1.56605 4.71181 1.98619 4.25 2.45841 3.83333L0.729248 2.08333C0.57647 1.91667 0.503554 1.71875 0.510498 1.48958C0.517442 1.26042 0.597304 1.06944 0.750081 0.916667C0.902859 0.763889 1.0973 0.6875 1.33341 0.6875C1.56953 0.6875 1.76397 0.763889 1.91675 0.916667L16.0834 15.0833C16.2362 15.2361 16.3161 15.4271 16.323 15.6563C16.3299 15.8854 16.2501 16.0833 16.0834 16.25C15.9306 16.4028 15.7362 16.4792 15.5001 16.4792C15.264 16.4792 15.0695 16.4028 14.9167 16.25L12.0001 13.375C11.514 13.5278 11.0209 13.6424 10.5209 13.7188C10.0209 13.7951 9.51397 13.8333 9.00008 13.8333ZM3.62508 5C3.2223 5.36111 2.85425 5.75695 2.52091 6.1875C2.18758 6.61806 1.90286 7.08333 1.66675 7.58333C2.36119 8.98611 3.36466 10.1007 4.67717 10.9271C5.98967 11.7535 7.43064 12.1667 9.00008 12.1667C9.27786 12.1667 9.54869 12.1493 9.81258 12.1146C10.0765 12.0799 10.3473 12.0417 10.6251 12L9.87508 11.2083C9.7223 11.25 9.57647 11.2813 9.43758 11.3021C9.29869 11.3229 9.15286 11.3333 9.00008 11.3333C7.95842 11.3333 7.073 10.9688 6.34383 10.2396C5.61467 9.51042 5.25008 8.625 5.25008 7.58333C5.25008 7.43056 5.2605 7.28472 5.28133 7.14583C5.30217 7.00695 5.33342 6.86111 5.37508 6.70833L3.62508 5Z" fill="#6C6969"/>
</svg>
