<svg width="87" height="90" viewBox="0 0 87 90" fill="none" xmlns="http://www.w3.org/2000/svg">
<g filter="url(#filter0_d_5969_18728)">
<circle cx="40.2479" cy="46.247" r="33.7479" fill="white"/>
<circle cx="40.2479" cy="46.247" r="33.2479" stroke="#33189F" stroke-opacity="0.1"/>
</g>
<g clip-path="url(#clip0_5969_18728)">
<path d="M65.25 8.85352V33.6437" stroke="#33189F" stroke-width="4" stroke-linecap="round" stroke-linejoin="round"/>
<path d="M52.8555 21.249H77.6456" stroke="#33189F" stroke-width="4" stroke-linecap="round" stroke-linejoin="round"/>
</g>
<g clip-path="url(#clip1_5969_18728)">
<path d="M58.4731 47.6375L40.2451 65.6906L22.017 47.6375C20.8147 46.4676 19.8677 45.0613 19.2356 43.5074C18.6034 41.9534 18.2999 40.2854 18.3441 38.6084C18.3882 36.9314 18.7792 35.2817 19.4922 33.7632C20.2053 32.2446 21.2251 30.8902 22.4873 29.7852C23.7495 28.6801 25.2269 27.8484 26.8264 27.3424C28.4258 26.8364 30.1127 26.667 31.7809 26.8449C33.449 27.0229 35.0622 27.5443 36.519 28.3763C37.9757 29.2084 39.2444 30.333 40.2451 31.6795C41.2501 30.3428 42.5203 29.228 43.976 28.4048C45.4317 27.5816 47.0417 27.0677 48.7052 26.8953C50.3686 26.7229 52.0498 26.8957 53.6434 27.4029C55.237 27.9101 56.7087 28.7408 57.9665 29.843C59.2243 30.9451 60.2411 32.2951 60.9532 33.8083C61.6653 35.3215 62.0574 36.9653 62.1049 38.637C62.1525 40.3087 61.8545 41.9722 61.2295 43.5235C60.6046 45.0747 59.6663 46.4802 58.4731 47.6521" fill="#F73F3F"/>
<path d="M58.4731 47.6375L40.2451 65.6906L22.017 47.6375C20.8147 46.4676 19.8677 45.0613 19.2356 43.5074C18.6034 41.9534 18.2999 40.2854 18.3441 38.6084C18.3882 36.9314 18.7792 35.2817 19.4922 33.7632C20.2053 32.2446 21.2251 30.8902 22.4873 29.7852C23.7495 28.6801 25.2269 27.8484 26.8264 27.3424C28.4258 26.8364 30.1127 26.667 31.7809 26.8449C33.449 27.0229 35.0622 27.5443 36.519 28.3763C37.9757 29.2084 39.2444 30.333 40.2451 31.6795C41.2501 30.3428 42.5203 29.228 43.976 28.4048C45.4317 27.5816 47.0417 27.0677 48.7052 26.8953C50.3686 26.7229 52.0498 26.8957 53.6434 27.4029C55.237 27.9101 56.7087 28.7408 57.9665 29.843C59.2243 30.9451 60.2411 32.2951 60.9532 33.8083C61.6653 35.3215 62.0574 36.9653 62.1049 38.637C62.1525 40.3087 61.8545 41.9722 61.2296 43.5235C60.6046 45.0747 59.6663 46.4802 58.4731 47.6521" stroke="#FFEBEA" stroke-linecap="round" stroke-linejoin="round"/>
<path d="M40.2462 31.665L32.2428 39.6684C31.7872 40.1241 31.5312 40.7422 31.5312 41.3867C31.5312 42.0311 31.7872 42.6492 32.2428 43.105L33.5626 44.4247C35.2395 46.1017 37.9616 46.1017 39.6386 44.4247L42.069 41.9943C43.5193 40.544 45.4863 39.7292 47.5374 39.7292C49.5884 39.7292 51.5555 40.544 53.0058 41.9943L58.4742 47.4627" fill="#F73F3F"/>
<path d="M40.2462 31.665L32.2428 39.6684C31.7872 40.1241 31.5312 40.7422 31.5312 41.3867C31.5312 42.0311 31.7872 42.6492 32.2428 43.105L33.5626 44.4247C35.2395 46.1017 37.9616 46.1017 39.6386 44.4247L42.069 41.9943C43.5193 40.544 45.4863 39.7292 47.5374 39.7292C49.5884 39.7292 51.5555 40.544 53.0058 41.9943L58.4742 47.4627" stroke="#FFEBEA" stroke-linecap="round" stroke-linejoin="round"/>
<path d="M41.4629 54.7539L46.3237 59.6147" stroke="#FFEBEA" stroke-linecap="round" stroke-linejoin="round"/>
<path d="M47.5391 48.6787L52.3999 53.5395" stroke="#FFEBEA" stroke-linecap="round" stroke-linejoin="round"/>
</g>
<defs>
<filter id="filter0_d_5969_18728" x="0.5" y="6.49902" width="83.4961" height="83.4961" filterUnits="userSpaceOnUse" color-interpolation-filters="sRGB">
<feFlood flood-opacity="0" result="BackgroundImageFix"/>
<feColorMatrix in="SourceAlpha" type="matrix" values="0 0 0 0 0 0 0 0 0 0 0 0 0 0 0 0 0 0 127 0" result="hardAlpha"/>
<feOffset dx="2" dy="2"/>
<feGaussianBlur stdDeviation="4"/>
<feComposite in2="hardAlpha" operator="out"/>
<feColorMatrix type="matrix" values="0 0 0 0 0.12549 0 0 0 0 0.12549 0 0 0 0 0.12549 0 0 0 0.12 0"/>
<feBlend mode="normal" in2="BackgroundImageFix" result="effect1_dropShadow_5969_18728"/>
<feBlend mode="normal" in="SourceGraphic" in2="effect1_dropShadow_5969_18728" result="shape"/>
</filter>
<clipPath id="clip0_5969_18728">
<rect width="42.4974" height="42.4974" fill="white" transform="translate(44.002)"/>
</clipPath>
<clipPath id="clip1_5969_18728">
<rect width="49.9969" height="49.9969" fill="white" transform="translate(15.248 21.249)"/>
</clipPath>
</defs>
</svg>
