<svg width="13" height="10" viewBox="0 0 13 10" fill="none" xmlns="http://www.w3.org/2000/svg">
<path d="M6.24392 9.63473C6.1911 9.66554 6.14563 9.69168 6.10829 9.71294C6.07085 9.69134 6.0252 9.66476 5.97216 9.63343C5.80748 9.53616 5.57159 9.39318 5.28825 9.21122C4.72109 8.84698 3.9662 8.32802 3.21255 7.70802C2.45766 7.087 1.71148 6.37066 1.15591 5.61287C0.598287 4.85228 0.25 4.07356 0.25 3.32255C0.25 1.6257 1.62557 0.2501 3.32245 0.250108L3.3244 0.250093C4.36228 0.241999 5.33259 0.764022 5.89776 1.63458L6.10622 1.95568L6.3164 1.6357C6.88583 0.768767 7.85427 0.247693 8.8915 0.250099C10.5853 0.258511 11.9563 1.62943 11.9649 3.32318C11.9647 4.08692 11.6158 4.87175 11.0587 5.63376C10.5034 6.39351 9.75745 7.10814 9.00278 7.72596C8.24935 8.34277 7.49465 8.85708 6.92763 9.21745C6.64437 9.39748 6.40854 9.53872 6.24392 9.63473Z" fill="url(#paint0_linear_407_2310)" stroke="url(#paint1_linear_407_2310)" stroke-width="0.5"/>
<defs>
<linearGradient id="paint0_linear_407_2310" x1="3.62305" y1="0.207031" x2="8.07423" y2="9.41993" gradientUnits="userSpaceOnUse">
<stop stop-color="#AB241D"/>
<stop offset="1" stop-color="#C7413A"/>
</linearGradient>
<linearGradient id="paint1_linear_407_2310" x1="6.10743" y1="0" x2="8.59181" y2="9.93751" gradientUnits="userSpaceOnUse">
<stop stop-color="#FDB0A2"/>
<stop offset="1" stop-opacity="0"/>
<stop offset="1" stop-color="#691913" stop-opacity="0.2"/>
</linearGradient>
</defs>
</svg>
