<svg width="60" height="60" viewBox="0 0 60 60" fill="none" xmlns="http://www.w3.org/2000/svg">
<circle cx="30" cy="30" r="30" fill="#C74D3A" fill-opacity="0.08"/>
<g clip-path="url(#clip0_5353_17014)">
<path fill-rule="evenodd" clip-rule="evenodd" d="M29.9995 24.4109C28.2239 21.5065 25.0205 21.6102 23.3852 23.221C22.7019 23.8922 22.2869 24.8319 22.1527 25.9363C21.9574 27.5349 22.3419 29.4875 23.3364 31.4339C24.4774 33.838 27.4063 36.2543 29.853 37.859C29.9446 37.92 30.0605 37.92 30.152 37.859C32.5988 36.2543 35.5276 33.838 36.6686 31.4339C37.6571 29.4875 38.0476 27.5349 37.8524 25.9363C37.7181 24.8319 37.3032 23.8983 36.6198 23.221C34.9846 21.6102 31.7812 21.5126 30.0056 24.4109H29.9995Z" fill="#F73F3F"/>
<path d="M30 48C20.0725 48 12 39.9275 12 30C12 20.0725 20.0725 12 30 12C39.9275 12 48 20.0725 48 30C48 39.9275 39.9275 48 30 48ZM30 14.4407C21.421 14.4407 14.4407 21.421 14.4407 30C14.4407 38.579 21.421 45.5593 30 45.5593C38.579 45.5593 45.5593 38.579 45.5593 30C45.5593 21.421 38.579 14.4407 30 14.4407Z" fill="#F4F4F4"/>
<path d="M30 48C20.0725 48 12 39.9275 12 30C12 20.0725 20.0725 12 30 12C38.3593 12 45.7485 17.9125 47.5668 26.0644C47.8536 27.3458 48 28.6698 48 30H45.5593C45.5593 28.8529 45.4312 27.7058 45.1871 26.5953C43.619 19.5539 37.2305 14.4407 30 14.4407C21.421 14.4407 14.4407 21.421 14.4407 30C14.4407 38.579 21.421 45.5593 30 45.5593C32.2149 45.5593 34.3566 45.1017 36.3641 44.2047L37.3647 46.4319C35.04 47.4753 32.5627 48 30 48Z" fill="#F73F3F"/>
</g>
<defs>
<clipPath id="clip0_5353_17014">
<rect width="36" height="36" fill="white" transform="translate(12 12)"/>
</clipPath>
</defs>
</svg>
