<svg width="74" height="20" viewBox="0 0 74 20" fill="none" xmlns="http://www.w3.org/2000/svg">
<rect x="0.5" y="0.5" width="73" height="19" rx="9.5" fill="white" stroke="url(#paint0_linear_5969_19429)"/>
<path d="M27.4199 8.85938V9.83105H23.6455V8.85938H27.4199ZM23.9482 5.89062V13H22.7227V5.89062H23.9482ZM28.3623 5.89062V13H27.1416V5.89062H28.3623ZM30.9648 7.7168V13H29.7832V7.7168H30.9648ZM29.7051 6.33008C29.7051 6.15104 29.7637 6.00293 29.8809 5.88574C30.0013 5.7653 30.1673 5.70508 30.3789 5.70508C30.5872 5.70508 30.7516 5.7653 30.8721 5.88574C30.9925 6.00293 31.0527 6.15104 31.0527 6.33008C31.0527 6.50586 30.9925 6.65234 30.8721 6.76953C30.7516 6.88672 30.5872 6.94531 30.3789 6.94531C30.1673 6.94531 30.0013 6.88672 29.8809 6.76953C29.7637 6.65234 29.7051 6.50586 29.7051 6.33008ZM35.6377 7.7168H36.707V12.8535C36.707 13.3288 36.6061 13.7324 36.4043 14.0645C36.2025 14.3965 35.9209 14.6488 35.5596 14.8213C35.1982 14.9971 34.7799 15.085 34.3047 15.085C34.1029 15.085 33.8783 15.0557 33.6309 14.9971C33.3867 14.9385 33.1491 14.8441 32.918 14.7139C32.6901 14.5869 32.4997 14.4193 32.3467 14.2109L32.8984 13.5176C33.0872 13.7422 33.2956 13.9066 33.5234 14.0107C33.7513 14.1149 33.9906 14.167 34.2412 14.167C34.5114 14.167 34.7409 14.1165 34.9297 14.0156C35.1217 13.918 35.2699 13.7731 35.374 13.5811C35.4782 13.389 35.5303 13.1546 35.5303 12.8779V8.91309L35.6377 7.7168ZM32.0488 10.417V10.3145C32.0488 9.91406 32.0977 9.54948 32.1953 9.2207C32.293 8.88867 32.4329 8.60384 32.6152 8.36621C32.7975 8.12533 33.0189 7.94141 33.2793 7.81445C33.5397 7.68424 33.8343 7.61914 34.1631 7.61914C34.5049 7.61914 34.7962 7.68099 35.0371 7.80469C35.2812 7.92839 35.4847 8.10579 35.6475 8.33691C35.8102 8.56478 35.9372 8.83822 36.0283 9.15723C36.1227 9.47298 36.1927 9.82454 36.2383 10.2119V10.5391C36.196 10.9167 36.1243 11.2617 36.0234 11.5742C35.9225 11.8867 35.7891 12.1569 35.623 12.3848C35.457 12.6126 35.252 12.7884 35.0078 12.9121C34.7669 13.0358 34.4821 13.0977 34.1533 13.0977C33.8311 13.0977 33.5397 13.0309 33.2793 12.8975C33.0221 12.764 32.8008 12.5768 32.6152 12.3359C32.4329 12.0951 32.293 11.8118 32.1953 11.4863C32.0977 11.1576 32.0488 10.8011 32.0488 10.417ZM33.2256 10.3145V10.417C33.2256 10.6579 33.2484 10.8825 33.2939 11.0908C33.3428 11.2992 33.416 11.4831 33.5137 11.6426C33.6146 11.7988 33.7415 11.9225 33.8945 12.0137C34.0508 12.1016 34.2347 12.1455 34.4463 12.1455C34.723 12.1455 34.9492 12.0869 35.125 11.9697C35.304 11.8525 35.4408 11.6947 35.5352 11.4961C35.6328 11.2943 35.7012 11.0697 35.7402 10.8223V9.93848C35.7207 9.74642 35.68 9.56738 35.6182 9.40137C35.5596 9.23535 35.4798 9.09049 35.3789 8.9668C35.278 8.83984 35.151 8.74219 34.998 8.67383C34.8451 8.60221 34.6644 8.56641 34.4561 8.56641C34.2445 8.56641 34.0605 8.61198 33.9043 8.70312C33.748 8.79427 33.6195 8.9196 33.5186 9.0791C33.4209 9.23861 33.3477 9.42415 33.2988 9.63574C33.25 9.84733 33.2256 10.0736 33.2256 10.3145ZM39.0898 5.5V13H37.918V5.5H39.0898ZM38.8848 10.1631L38.5039 10.1582C38.5072 9.79362 38.5576 9.45671 38.6553 9.14746C38.7562 8.83822 38.8962 8.56966 39.0752 8.3418C39.2575 8.11068 39.4756 7.93327 39.7295 7.80957C39.9834 7.68262 40.265 7.61914 40.5742 7.61914C40.8346 7.61914 41.069 7.65495 41.2773 7.72656C41.4889 7.79818 41.6712 7.91374 41.8242 8.07324C41.9772 8.22949 42.0928 8.43457 42.1709 8.68848C42.2523 8.93913 42.293 9.24512 42.293 9.60645V13H41.1113V9.59668C41.1113 9.34277 41.0739 9.14095 40.999 8.99121C40.9274 8.84147 40.8216 8.73405 40.6816 8.66895C40.5417 8.60059 40.3708 8.56641 40.1689 8.56641C39.9574 8.56641 39.7702 8.60872 39.6074 8.69336C39.4479 8.77799 39.3145 8.89355 39.207 9.04004C39.0996 9.18652 39.0182 9.35579 38.9629 9.54785C38.9108 9.73991 38.8848 9.94499 38.8848 10.1631ZM46.0918 5.89062H48.6064C49.1468 5.89062 49.6074 5.97201 49.9883 6.13477C50.3691 6.29753 50.6605 6.53841 50.8623 6.85742C51.0674 7.17318 51.1699 7.5638 51.1699 8.0293C51.1699 8.38411 51.1048 8.69661 50.9746 8.9668C50.8444 9.23698 50.6605 9.46484 50.4229 9.65039C50.1852 9.83268 49.902 9.97428 49.5732 10.0752L49.2021 10.2559H46.9414L46.9316 9.28418H48.626C48.9189 9.28418 49.1631 9.2321 49.3584 9.12793C49.5537 9.02376 49.7002 8.88216 49.7979 8.70312C49.8988 8.52083 49.9492 8.31576 49.9492 8.08789C49.9492 7.84049 49.9004 7.62565 49.8027 7.44336C49.7083 7.25781 49.5618 7.11621 49.3633 7.01855C49.1647 6.91764 48.9124 6.86719 48.6064 6.86719H47.3174V13H46.0918V5.89062ZM50.1494 13L48.4795 9.80664L49.7637 9.80176L51.458 12.9365V13H50.1494ZM53.5332 7.7168V13H52.3516V7.7168H53.5332ZM52.2734 6.33008C52.2734 6.15104 52.332 6.00293 52.4492 5.88574C52.5697 5.7653 52.7357 5.70508 52.9473 5.70508C53.1556 5.70508 53.32 5.7653 53.4404 5.88574C53.5609 6.00293 53.6211 6.15104 53.6211 6.33008C53.6211 6.50586 53.5609 6.65234 53.4404 6.76953C53.32 6.88672 53.1556 6.94531 52.9473 6.94531C52.7357 6.94531 52.5697 6.88672 52.4492 6.76953C52.332 6.65234 52.2734 6.50586 52.2734 6.33008ZM57.7861 11.5693C57.7861 11.4521 57.7568 11.3464 57.6982 11.252C57.6396 11.1543 57.5273 11.0664 57.3613 10.9883C57.1986 10.9102 56.9577 10.8385 56.6387 10.7734C56.3587 10.7116 56.1016 10.6383 55.8672 10.5537C55.6361 10.4658 55.4375 10.36 55.2715 10.2363C55.1055 10.1126 54.9769 9.96615 54.8857 9.79688C54.7946 9.6276 54.749 9.43229 54.749 9.21094C54.749 8.99609 54.7962 8.79264 54.8906 8.60059C54.985 8.40853 55.1201 8.23926 55.2959 8.09277C55.4717 7.94629 55.6849 7.83073 55.9355 7.74609C56.1895 7.66146 56.4727 7.61914 56.7852 7.61914C57.2279 7.61914 57.6071 7.69401 57.9229 7.84375C58.2419 7.99023 58.486 8.19043 58.6553 8.44434C58.8245 8.69499 58.9092 8.97819 58.9092 9.29395H57.7324C57.7324 9.15397 57.6966 9.02376 57.625 8.90332C57.5566 8.77962 57.4525 8.68034 57.3125 8.60547C57.1725 8.52734 56.9967 8.48828 56.7852 8.48828C56.5833 8.48828 56.4157 8.52083 56.2822 8.58594C56.152 8.64779 56.0544 8.72917 55.9893 8.83008C55.9274 8.93099 55.8965 9.04167 55.8965 9.16211C55.8965 9.25 55.9128 9.32975 55.9453 9.40137C55.9811 9.46973 56.0397 9.5332 56.1211 9.5918C56.2025 9.64714 56.3132 9.69922 56.4531 9.74805C56.5964 9.79688 56.7754 9.84408 56.9902 9.88965C57.3939 9.97428 57.7406 10.0833 58.0303 10.2168C58.3232 10.347 58.5479 10.5163 58.7041 10.7246C58.8604 10.9297 58.9385 11.1901 58.9385 11.5059C58.9385 11.7402 58.888 11.9551 58.7871 12.1504C58.6895 12.3424 58.5462 12.5101 58.3574 12.6533C58.1686 12.7933 57.9424 12.9023 57.6787 12.9805C57.4183 13.0586 57.1253 13.0977 56.7998 13.0977C56.3213 13.0977 55.916 13.013 55.584 12.8438C55.252 12.6712 54.9997 12.4515 54.8271 12.1846C54.6579 11.9144 54.5732 11.6344 54.5732 11.3447H55.7109C55.724 11.5628 55.7842 11.737 55.8916 11.8672C56.0023 11.9941 56.139 12.0869 56.3018 12.1455C56.4678 12.2008 56.6387 12.2285 56.8145 12.2285C57.026 12.2285 57.2035 12.2008 57.3467 12.1455C57.4899 12.0869 57.599 12.0088 57.6738 11.9111C57.7487 11.8102 57.7861 11.6963 57.7861 11.5693ZM61.1553 5.5V13H59.9736V5.5H61.1553ZM64.4365 7.7168L62.1367 10.2656L60.877 11.5547L60.5693 10.5586L61.5215 9.38184L63.0156 7.7168H64.4365ZM63.2695 13L61.5557 10.5195L62.2979 9.69434L64.6318 13H63.2695Z" fill="#C7413A"/>
<path d="M13.0889 13.8486C13.0559 13.8678 13.0265 13.8848 13.0009 13.8995C12.9751 13.8845 12.9455 13.8672 12.9123 13.8476C12.7779 13.7682 12.5853 13.6515 12.3539 13.5029C11.8905 13.2053 11.2741 12.7815 10.6588 12.2754C10.0424 11.7682 9.43462 11.1845 8.98287 10.5683C8.52907 9.94933 8.25 9.32122 8.25 8.72009C8.25 7.35595 9.35585 6.25008 10.72 6.25009L10.722 6.25007C11.5562 6.24357 12.3361 6.66315 12.7903 7.36287L12.9988 7.68398L13.209 7.36399C13.6667 6.66707 14.4453 6.24817 15.2791 6.25008C16.6408 6.25687 17.7431 7.35901 17.75 8.72072C17.7498 9.33237 17.4701 9.96548 17.0169 10.5855C16.5654 11.2032 15.9579 11.7855 15.3416 12.29C14.7266 12.7935 14.1104 13.2135 13.6472 13.5078C13.4158 13.6549 13.2232 13.7702 13.0889 13.8486Z" fill="url(#paint1_linear_5969_19429)" stroke="url(#paint2_linear_5969_19429)" stroke-width="0.5"/>
<defs>
<linearGradient id="paint0_linear_5969_19429" x1="37" y1="0" x2="37" y2="20" gradientUnits="userSpaceOnUse">
<stop stop-color="#DF4D32"/>
<stop offset="1" stop-color="#7F2413"/>
</linearGradient>
<linearGradient id="paint1_linear_5969_19429" x1="10.9661" y1="6.16949" x2="14.6102" y2="13.7119" gradientUnits="userSpaceOnUse">
<stop stop-color="#AB241D"/>
<stop offset="1" stop-color="#C7413A"/>
</linearGradient>
<linearGradient id="paint2_linear_5969_19429" x1="13" y1="6" x2="15.0339" y2="14.1356" gradientUnits="userSpaceOnUse">
<stop stop-color="#FDB0A2"/>
<stop offset="1" stop-opacity="0"/>
<stop offset="1" stop-color="#691913" stop-opacity="0.2"/>
</linearGradient>
</defs>
</svg>
