<svg width="24" height="24" viewBox="0 0 24 24" fill="none" xmlns="http://www.w3.org/2000/svg">
<g clip-path="url(#clip0_6710_10571)">
<path d="M12 8.5V14.5" stroke="#33189F" stroke-width="1.75" stroke-linecap="round" stroke-linejoin="round"/>
<path d="M10.3632 3.92536L2.25652 17.4908C2.0894 17.7808 2.00096 18.1097 2.00001 18.4446C1.99905 18.7795 2.08561 19.1089 2.25106 19.3999C2.41652 19.6909 2.65511 19.9334 2.94311 20.1034C3.23111 20.2733 3.55847 20.3647 3.89265 20.3684H20.1079C20.442 20.3646 20.7691 20.2732 21.057 20.1033C21.3449 19.9334 21.5834 19.691 21.7488 19.4002C21.9142 19.1093 22.0008 18.7801 22 18.4453C21.9992 18.1105 21.9109 17.7818 21.7441 17.4918L13.6374 3.92436C13.4669 3.64221 13.2266 3.40891 12.9398 3.24699C12.653 3.08507 12.3294 3 12.0003 3C11.6711 3 11.3475 3.08507 11.0608 3.24699C10.774 3.40891 10.5337 3.64221 10.3632 3.92436V3.92536Z" stroke="#33189F" stroke-width="1.75" stroke-linecap="round" stroke-linejoin="round"/>
<circle cx="12" cy="17.2002" r="1" fill="#33189F"/>
</g>
<defs>
<clipPath id="clip0_6710_10571">
<rect width="24" height="24" fill="white"/>
</clipPath>
</defs>
</svg>
