<svg width="28" height="28" viewBox="0 0 28 28" fill="none" xmlns="http://www.w3.org/2000/svg">
<g clip-path="url(#clip0_10806_12346)">
<path d="M13.9993 1.03711C19.703 1.03711 24.3696 5.70378 24.3696 11.4075C24.3696 16.5408 15.8659 24.9927 13.9993 26.7556C12.1326 24.9927 3.62891 16.5408 3.62891 11.4075C3.62891 5.70378 8.29557 1.03711 13.9993 1.03711ZM21.7771 10.889C21.7771 6.58526 18.303 3.11118 13.9993 3.11118C9.69557 3.11118 6.2215 6.58526 6.2215 10.889C6.2215 15.1927 9.69557 18.6667 13.9993 18.6667C18.303 18.6667 21.7771 15.1927 21.7771 10.889Z" fill="#EE4659"/>
<path d="M13.9992 0C20.2733 0 25.4066 5.13333 25.4066 11.4074C25.4066 17.5778 14.777 27.4296 14.3622 27.8444C14.2585 27.9481 14.1029 28 13.9992 28C13.8955 28 13.7399 27.9481 13.6362 27.8444C13.2214 27.4296 2.5918 17.5778 2.5918 11.4074C2.5918 5.13333 7.72513 0 13.9992 0ZM24.3696 11.4074C24.3696 5.7037 19.7029 1.03704 13.9992 1.03704C8.2955 1.03704 3.62883 5.7037 3.62883 11.4074C3.62883 16.5407 12.1325 24.9926 13.9992 26.7556C15.8659 24.9926 24.3696 16.5407 24.3696 11.4074Z" fill="#C7413A"/>
<path d="M13.9985 3.11133C18.3022 3.11133 21.7763 6.5854 21.7763 10.8891C21.7763 15.1928 18.3022 18.6669 13.9985 18.6669C9.69478 18.6669 6.2207 15.1928 6.2207 10.8891C6.2207 6.5854 9.69478 3.11133 13.9985 3.11133ZM20.7392 10.8891C20.7392 7.15577 17.7318 4.14837 13.9985 4.14837C10.2651 4.14837 7.25774 7.15577 7.25774 10.8891C7.25774 14.6224 10.2651 17.6298 13.9985 17.6298C17.7318 17.6298 20.7392 14.6224 20.7392 10.8891Z" fill="#C7413A"/>
<path d="M18 9.90995V11.6897H14.8899V14.7998H13.1101V11.6897H10V9.90995H13.1101V6.7998H14.8899V9.90995H18Z" fill="#C7413A"/>
</g>
<defs>
<clipPath id="clip0_10806_12346">
<rect width="28" height="28" fill="white"/>
</clipPath>
</defs>
</svg>
