<svg width="24" height="24" viewBox="0 0 24 24" fill="none" xmlns="http://www.w3.org/2000/svg">
<g id="manage_accounts_FILL0_wght400_GRAD0_opsz24 1">
<path id="Vector" d="M10.4706 11.4706C9.30588 11.4706 8.30882 11.0559 7.47941 10.2265C6.65 9.39706 6.23529 8.4 6.23529 7.23529C6.23529 6.07059 6.65 5.07353 7.47941 4.24412C8.30882 3.41471 9.30588 3 10.4706 3C11.6353 3 12.6324 3.41471 13.4618 4.24412C14.2912 5.07353 14.7059 6.07059 14.7059 7.23529C14.7059 8.4 14.2912 9.39706 13.4618 10.2265C12.6324 11.0559 11.6353 11.4706 10.4706 11.4706ZM2 17.8235V16.9765C2 16.3941 2.15 15.8471 2.45 15.3353C2.75 14.8235 3.16471 14.4353 3.69412 14.1706C4.59412 13.7118 5.60882 13.3235 6.73824 13.0059C7.86765 12.6882 9.11176 12.5294 10.4706 12.5294H10.8412C10.9471 12.5294 11.0529 12.5471 11.1588 12.5824C11.0176 12.9 10.8985 13.2309 10.8015 13.575C10.7044 13.9191 10.6294 14.2765 10.5765 14.6471H10.4706C9.21765 14.6471 8.09265 14.8059 7.09559 15.1235C6.09853 15.4412 5.28235 15.7588 4.64706 16.0765C4.48824 16.1647 4.36029 16.2882 4.26324 16.4471C4.16618 16.6059 4.11765 16.7824 4.11765 16.9765V17.8235H10.7882C10.8941 18.1941 11.0353 18.5603 11.2118 18.9221C11.3882 19.2838 11.5824 19.6235 11.7941 19.9412H4.11765C3.53529 19.9412 3.03676 19.7338 2.62206 19.3191C2.20735 18.9044 2 18.4059 2 17.8235ZM16.6647 20.1529L16.5059 19.4118C16.2941 19.3235 16.0956 19.2309 15.9103 19.1338C15.725 19.0368 15.5353 18.9176 15.3412 18.7765L14.5735 19.0147C14.3441 19.0853 14.1191 19.0765 13.8985 18.9882C13.6779 18.9 13.5059 18.7588 13.3824 18.5647L13.1706 18.1941C13.0471 17.9824 13.0029 17.7529 13.0382 17.5059C13.0735 17.2588 13.1882 17.0559 13.3824 16.8971L13.9647 16.3941C13.9294 16.1471 13.9118 15.9176 13.9118 15.7059C13.9118 15.4941 13.9294 15.2647 13.9647 15.0176L13.3824 14.5147C13.1882 14.3559 13.0735 14.1574 13.0382 13.9191C13.0029 13.6809 13.0471 13.4559 13.1706 13.2441L13.4088 12.8471C13.5324 12.6529 13.7 12.5118 13.9118 12.4235C14.1235 12.3353 14.3441 12.3265 14.5735 12.3971L15.3412 12.6353C15.5353 12.4941 15.725 12.375 15.9103 12.2779C16.0956 12.1809 16.2941 12.0882 16.5059 12L16.6647 11.2324C16.7176 10.9853 16.8368 10.7868 17.0221 10.6368C17.2074 10.4868 17.4235 10.4118 17.6706 10.4118H18.0941C18.3412 10.4118 18.5574 10.4912 18.7426 10.65C18.9279 10.8088 19.0471 11.0118 19.1 11.2588L19.2588 12C19.4706 12.0882 19.6691 12.1853 19.8544 12.2912C20.0397 12.3971 20.2294 12.5294 20.4235 12.6882L21.1382 12.45C21.3853 12.3618 21.6235 12.3618 21.8529 12.45C22.0824 12.5382 22.2588 12.6882 22.3824 12.9L22.5941 13.2706C22.7176 13.4824 22.7618 13.7118 22.7265 13.9588C22.6912 14.2059 22.5765 14.4088 22.3824 14.5676L21.8 15.0706C21.8353 15.2824 21.8529 15.5029 21.8529 15.7324C21.8529 15.9618 21.8353 16.1824 21.8 16.3941L22.3824 16.8971C22.5765 17.0559 22.6912 17.2544 22.7265 17.4926C22.7618 17.7309 22.7176 17.9559 22.5941 18.1676L22.3559 18.5647C22.2324 18.7588 22.0647 18.9 21.8529 18.9882C21.6412 19.0765 21.4206 19.0853 21.1912 19.0147L20.4235 18.7765C20.2294 18.9176 20.0397 19.0368 19.8544 19.1338C19.6691 19.2309 19.4706 19.3235 19.2588 19.4118L19.1 20.1794C19.0471 20.4265 18.9279 20.625 18.7426 20.775C18.5574 20.925 18.3412 21 18.0941 21H17.6706C17.4235 21 17.2074 20.9206 17.0221 20.7618C16.8368 20.6029 16.7176 20.4 16.6647 20.1529ZM17.8824 17.8235C18.4647 17.8235 18.9632 17.6162 19.3779 17.2015C19.7926 16.7868 20 16.2882 20 15.7059C20 15.1235 19.7926 14.625 19.3779 14.2103C18.9632 13.7956 18.4647 13.5882 17.8824 13.5882C17.3 13.5882 16.8015 13.7956 16.3868 14.2103C15.9721 14.625 15.7647 15.1235 15.7647 15.7059C15.7647 16.2882 15.9721 16.7868 16.3868 17.2015C16.8015 17.6162 17.3 17.8235 17.8824 17.8235ZM10.4706 9.35294C11.0529 9.35294 11.5515 9.14559 11.9662 8.73088C12.3809 8.31618 12.5882 7.81765 12.5882 7.23529C12.5882 6.65294 12.3809 6.15441 11.9662 5.73971C11.5515 5.325 11.0529 5.11765 10.4706 5.11765C9.88824 5.11765 9.38971 5.325 8.975 5.73971C8.56029 6.15441 8.35294 6.65294 8.35294 7.23529C8.35294 7.81765 8.56029 8.31618 8.975 8.73088C9.38971 9.14559 9.88824 9.35294 10.4706 9.35294Z" fill="#33189F"/>
</g>
</svg>
