<svg width="24" height="24" viewBox="0 0 24 24" fill="none" xmlns="http://www.w3.org/2000/svg">
<g clip-path="url(#clip0_6200_13025)">
<path d="M10.4706 11.4706C9.30588 11.4706 8.30882 11.0559 7.47941 10.2265C6.65 9.39706 6.23529 8.4 6.23529 7.23529C6.23529 6.07059 6.65 5.07353 7.47941 4.24412C8.30882 3.41471 9.30588 3 10.4706 3C11.6353 3 12.6324 3.41471 13.4618 4.24412C14.2912 5.07353 14.7059 6.07059 14.7059 7.23529C14.7059 8.4 14.2912 9.39706 13.4618 10.2265C12.6324 11.0559 11.6353 11.4706 10.4706 11.4706ZM2 17.8235V16.9765C2 16.3941 2.15 15.8471 2.45 15.3353C2.75 14.8235 3.16471 14.4353 3.69412 14.1706C4.59412 13.7118 5.60882 13.3235 6.73824 13.0059C7.86765 12.6882 9.11176 12.5294 10.4706 12.5294H10.8412C10.9471 12.5294 11.0529 12.5471 11.1588 12.5824C11.0176 12.9 10.8985 13.2309 10.8015 13.575C10.7044 13.9191 10.6294 14.2765 10.5765 14.6471H10.4706C9.21765 14.6471 8.09265 14.8059 7.09559 15.1235C6.09853 15.4412 5.28235 15.7588 4.64706 16.0765C4.48824 16.1647 4.36029 16.2882 4.26324 16.4471C4.16618 16.6059 4.11765 16.7824 4.11765 16.9765V17.8235H10.7882C10.8941 18.1941 11.0353 18.5603 11.2118 18.9221C11.3882 19.2838 11.5824 19.6235 11.7941 19.9412H4.11765C3.53529 19.9412 3.03676 19.7338 2.62206 19.3191C2.20735 18.9044 2 18.4059 2 17.8235ZM10.4706 9.35294C11.0529 9.35294 11.5515 9.14559 11.9662 8.73088C12.3809 8.31618 12.5882 7.81765 12.5882 7.23529C12.5882 6.65294 12.3809 6.15441 11.9662 5.73971C11.5515 5.325 11.0529 5.11765 10.4706 5.11765C9.88824 5.11765 9.38971 5.325 8.975 5.73971C8.56029 6.15441 8.35294 6.65294 8.35294 7.23529C8.35294 7.81765 8.56029 8.31618 8.975 8.73088C9.38971 9.14559 9.88824 9.35294 10.4706 9.35294Z" fill="#33189F"/>
<g clip-path="url(#clip1_6200_13025)">
<path d="M21.8356 17.4448L16.0023 23.2221L10.169 17.4448C9.7842 17.0704 9.48113 16.6203 9.27883 16.1231C9.07654 15.6258 8.9794 15.092 8.99354 14.5553C9.00767 14.0186 9.13278 13.4907 9.36097 13.0047C9.58917 12.5188 9.91551 12.0853 10.3195 11.7317C10.7234 11.378 11.1962 11.1119 11.708 10.9499C12.2199 10.788 12.7597 10.7338 13.2936 10.7907C13.8274 10.8477 14.3437 11.0145 14.8099 11.2808C15.276 11.5471 15.682 11.907 16.0023 12.3379C16.3239 11.9101 16.7304 11.5534 17.1963 11.2899C17.6621 11.0265 18.1773 10.862 18.7097 10.8069C19.242 10.7517 19.78 10.807 20.29 10.9693C20.8 11.1316 21.271 11.3975 21.6735 11.7502C22.076 12.1029 22.4014 12.5349 22.6293 13.0191C22.8572 13.5034 22.9826 14.0295 22.9979 14.5644C23.0131 15.0994 22.9177 15.6318 22.7177 16.1282C22.5177 16.6246 22.2174 17.0744 21.8356 17.4494" fill="#F73F3F"/>
<path d="M21.8356 17.4448L16.0023 23.2221L10.169 17.4448C9.7842 17.0704 9.48113 16.6203 9.27883 16.1231C9.07654 15.6258 8.9794 15.092 8.99354 14.5553C9.00767 14.0186 9.13278 13.4907 9.36097 13.0047C9.58917 12.5188 9.91551 12.0853 10.3195 11.7317C10.7234 11.378 11.1962 11.1119 11.708 10.9499C12.2199 10.788 12.7597 10.7338 13.2936 10.7907C13.8274 10.8477 14.3437 11.0145 14.8099 11.2808C15.276 11.5471 15.682 11.907 16.0023 12.3379C16.3239 11.9101 16.7304 11.5534 17.1963 11.2899C17.6621 11.0265 18.1773 10.862 18.7097 10.8069C19.242 10.7517 19.78 10.807 20.29 10.9693C20.8 11.1316 21.271 11.3975 21.6735 11.7502C22.076 12.1029 22.4014 12.5349 22.6293 13.0191C22.8572 13.5034 22.9826 14.0295 22.9979 14.5644C23.0131 15.0994 22.9177 15.6318 22.7177 16.1282C22.5177 16.6246 22.2174 17.0744 21.8356 17.4494" stroke="#FFEBEA" stroke-linecap="round" stroke-linejoin="round"/>
<path d="M15.9999 12.3335L13.4387 14.8947C13.2928 15.0406 13.2109 15.2384 13.2109 15.4446C13.2109 15.6508 13.2928 15.8486 13.4387 15.9945L13.861 16.4168C14.3977 16.9535 15.2688 16.9535 15.8054 16.4168L16.5832 15.6391C17.0473 15.1749 17.6768 14.9142 18.3332 14.9142C18.9896 14.9142 19.6191 15.1749 20.0832 15.6391L21.8332 17.3891" fill="#F73F3F"/>
<path d="M15.9999 12.3335L13.4387 14.8947C13.2928 15.0406 13.2109 15.2384 13.2109 15.4446C13.2109 15.6508 13.2928 15.8486 13.4387 15.9945L13.861 16.4168C14.3977 16.9535 15.2688 16.9535 15.8054 16.4168L16.5832 15.6391C17.0473 15.1749 17.6768 14.9142 18.3332 14.9142C18.9896 14.9142 19.6191 15.1749 20.0832 15.6391L21.8332 17.3891" stroke="#FFEBEA" stroke-linecap="round" stroke-linejoin="round"/>
<path d="M16.3906 19.7224L17.9462 21.278" stroke="#FFEBEA" stroke-linecap="round" stroke-linejoin="round"/>
<path d="M18.3359 17.7778L19.8915 19.3334" stroke="#FFEBEA" stroke-linecap="round" stroke-linejoin="round"/>
</g>
</g>
<defs>
<clipPath id="clip0_6200_13025">
<rect width="24" height="24" fill="white"/>
</clipPath>
<clipPath id="clip1_6200_13025">
<rect width="16" height="16" fill="white" transform="translate(8 9)"/>
</clipPath>
</defs>
</svg>
