<?xml version="1.0" encoding="utf-8"?>
<!-- Generator: Adobe Illustrator 24.2.1, SVG Export Plug-In . SVG Version: 6.00 Build 0)  -->
<svg version="1.1" id="Layer_1" xmlns="http://www.w3.org/2000/svg" xmlns:xlink="http://www.w3.org/1999/xlink" x="0px" y="0px"
	 viewBox="0 0 595.28 841.89" style="enable-background:new 0 0 595.28 841.89;" xml:space="preserve">
<style type="text/css">
	.st0{fill-rule:evenodd;clip-rule:evenodd;fill:#C42126;}
	.st1{fill:#010101;}
	.st2{fill-rule:evenodd;clip-rule:evenodd;fill:#EDDB13;}
	.st3{fill-rule:evenodd;clip-rule:evenodd;fill:#FFFFFF;}
</style>
<g>
	<path class="st0" d="M298.73,518.39c-30.62,0.19-61.18,0.45-91.77,0.61c-21.57,0.11-43.09,0.11-64.66,0.19
		c-1.84,0.06-3.01-0.89-4.12-2.14c-8.63-9.66-16.12-20.07-22.38-31.48c-8.49-15.59-13.92-32.18-16.67-49.71
		c-1.81-11.5-1.98-23.05-1.11-34.54c1.48-18.68,6.71-36.35,14.86-53.14c6.54-13.56,15.06-25.8,24.88-37.16
		c13.33-15.34,28.87-27.92,46.21-38.27c21.41-12.72,44.4-21.27,68.78-26.17c21.41-4.29,43.03-5.4,64.75-3.67
		c32.54,2.64,63.3,11.64,91.83,27.86c16.26,9.21,30.87,20.57,43.87,34.13c13.31,13.86,24.24,29.34,32.07,46.93
		c4.98,11.19,8.49,22.85,10.77,34.85c2.48,13,2.87,26.08,1.75,39.19c-2.39,28.2-12,53.81-28.61,76.69
		c-3.54,4.87-7.49,9.44-11.3,14.08c-0.61,0.7-1.86,1.22-2.76,1.28c-18.43,0.17-36.88,0.25-55.31,0.28c-33.71,0.06-67.42,0-101.1,0
		v0.19H298.73z"/>
	<polygon class="st1" points="34.32,418.74 66.02,399.45 66.02,399.31 34.9,398.45 35.07,393.63 73.4,394.66 73.23,400.26 
		41.92,419.44 41.92,419.58 72.68,420.38 72.54,425.2 34.23,424.17 	"/>
	<path class="st1" d="M40.92,363.51L81.72,358l-1.34,5.51l-12.22,1.31l-3.81,15.75l10.22,6.88l-1.2,5.09l-33.74-23.58L40.92,363.51z
		 M63.6,365.41l-18.9,1.98v0.08l15.87,10.55L63.6,365.41z"/>
	<polygon class="st1" points="48.32,351.57 44.42,349.93 56.14,321.62 60.09,323.26 55.19,335.07 86.65,348.12 84.7,352.85 
		53.27,339.8 	"/>
	<polygon class="st1" points="62.93,310.21 96.31,329.03 93.8,333.51 60.37,314.66 	"/>
	<path class="st1" d="M77.69,307.18c-1.48-2.06-2.48-4.23-3.01-6.62c-0.53-2.34-0.58-4.79-0.03-7.29c0.45-2.48,1.64-4.93,3.51-7.38
		c1.84-2.42,3.9-4.2,6.18-5.34c2.25-1.14,4.59-1.78,6.99-1.89c2.45-0.08,4.87,0.28,7.24,1.14c2.39,0.86,4.59,2.12,6.71,3.67
		c2.06,1.56,3.84,3.42,5.32,5.48c1.45,2.09,2.42,4.31,2.98,6.65c0.58,2.34,0.61,4.79,0.08,7.24c-0.53,2.48-1.73,4.93-3.54,7.38
		c-1.84,2.42-3.9,4.23-6.18,5.34c-2.25,1.2-4.62,1.81-7.04,1.89c-2.39,0.08-4.79-0.25-7.15-1.11c-2.39-0.86-4.62-2.09-6.76-3.67
		C80.89,311.07,79.11,309.26,77.69,307.18 M91.05,311.49c1.81,0.72,3.62,1.14,5.51,1.2c1.81,0.08,3.62-0.28,5.4-1.09
		c1.73-0.81,3.28-2.14,4.73-3.98c1.39-1.81,2.23-3.7,2.56-5.59c0.25-1.89,0.17-3.7-0.42-5.48c-0.5-1.75-1.39-3.45-2.59-4.98
		c-1.25-1.53-2.56-2.89-4.06-4.09c-1.59-1.14-3.2-2.09-5.04-2.84c-1.81-0.75-3.62-1.14-5.48-1.2c-1.84-0.08-3.67,0.28-5.4,1.06
		s-3.34,2.14-4.73,3.95c-1.39,1.84-2.25,3.76-2.53,5.65c-0.33,1.89-0.17,3.7,0.42,5.46c0.5,1.78,1.36,3.42,2.53,4.98
		c1.2,1.53,2.62,2.89,4.12,4.04C87.6,309.79,89.24,310.74,91.05,311.49z"/>
	<polygon class="st1" points="102.13,259.72 137.98,269.26 138.06,269.21 117.18,246.13 120.8,242.88 146.5,271.35 142.32,275.11 
		106.86,265.67 106.77,265.76 127.4,288.61 123.81,291.81 98.09,263.39 	"/>
	<path class="st1" d="M144.85,226.45l33.32,24.16l-4.73,3.03l-9.77-7.46L150,254.96l2.64,12.05l-4.4,2.81l-8.21-40.33L144.85,226.45
		z M160,243.46l-15.06-11.55l-0.08,0.06l4.18,18.57L160,243.46z"/>
	<polygon class="st1" points="168.93,212.95 183.41,243.74 201.75,235.14 203.56,239.01 180.59,249.78 164.28,215.1 	"/>
	<polygon class="st1" points="215.92,194.69 219.93,210.64 239.47,205.74 235.51,189.74 240.41,188.51 249.77,225.7 244.81,226.95 
		240.52,209.92 220.93,214.84 225.27,231.85 220.29,233.08 210.93,195.92 	"/>
	<polygon class="st1" points="278.71,183.61 279.24,187.9 257.95,190.24 259.34,202.37 279.1,200.15 279.63,204.43 259.84,206.66 
		261.23,219.83 282.69,217.41 283.17,221.69 256.67,224.64 252.44,186.56 	"/>
	<path class="st1" d="M304.85,183.39l14.45,38.55l-5.65-0.08l-3.98-11.61l-16.23-0.19l-4.48,11.5l-5.21-0.08l15.48-38.11
		L304.85,183.39z M308.11,205.97l-6.18-17.95h-0.11l-6.71,17.79L308.11,205.97z"/>
	<polygon class="st1" points="331.77,185.17 327.43,218.94 347.55,221.53 347.02,225.78 321.8,222.56 326.7,184.5 	"/>
	<polygon class="st1" points="349.28,191.6 350.25,187.4 380.15,194.19 379.2,198.39 366.73,195.55 359.19,228.76 354.18,227.65 
		361.75,194.44 	"/>
	<polygon class="st1" points="393.03,198.48 387.16,213.87 406.03,221.02 411.88,205.58 416.64,207.41 403.11,243.27 398.32,241.48 
		404.56,225 385.66,217.91 379.45,234.33 374.64,232.52 388.22,196.67 	"/>
	<polygon class="st1" points="449.29,224.64 441.11,258.07 469.3,238.25 475.07,242.21 453.44,273.91 449.49,271.16 467.44,244.82 
		467.36,244.77 439.49,264.36 435.93,261.89 443.97,228.85 443.89,228.76 425.91,255.1 421.9,252.4 443.53,220.75 	"/>
	<polygon class="st1" points="488.23,254.37 462.62,282.88 458.78,279.48 484.45,250.98 	"/>
	<path class="st1" d="M505.85,280.09c-0.25-2.06-1.22-4.12-2.95-6.1c-0.75-0.78-1.48-1.53-2.34-2.14c-0.84-0.67-1.75-1.11-2.67-1.36
		c-0.92-0.25-1.81-0.28-2.78-0.11c-0.95,0.22-1.87,0.75-2.81,1.56c-0.86,0.78-1.36,1.7-1.45,2.67c-0.11,1.03,0.08,2.14,0.53,3.34
		c0.36,1.14,1,2.39,1.73,3.67c0.78,1.31,1.53,2.67,2.23,4.04c0.78,1.36,1.45,2.76,2.06,4.2c0.61,1.39,1.03,2.78,1.2,4.23
		c0.11,1.39,0,2.78-0.5,4.15c-0.5,1.36-1.39,2.67-2.84,3.9c-1.48,1.39-3.09,2.17-4.79,2.48c-1.73,0.28-3.42,0.19-4.98-0.25
		c-1.7-0.45-3.2-1.22-4.68-2.25c-1.53-1.06-2.84-2.25-4.04-3.54c-1.42-1.61-2.53-3.28-3.48-5.09c-0.84-1.78-1.36-3.59-1.48-5.4
		c-0.17-1.81,0.11-3.62,0.84-5.34c0.7-1.78,1.92-3.42,3.65-4.98l3.2,3.62c-1.2,1.06-2,2.23-2.48,3.45c-0.5,1.28-0.61,2.51-0.5,3.79
		c0.08,1.22,0.5,2.51,1.17,3.76c0.61,1.28,1.39,2.42,2.34,3.51c0.78,0.86,1.61,1.64,2.53,2.39c0.92,0.7,1.95,1.22,2.92,1.61
		c1.03,0.33,2,0.42,3.09,0.25c1.03-0.11,2.09-0.7,3.12-1.64c1.03-0.86,1.56-1.84,1.73-2.92c0.17-1.06,0.06-2.17-0.36-3.42
		c-0.36-1.22-0.95-2.48-1.7-3.79c-0.75-1.31-1.48-2.64-2.23-3.98c-0.78-1.36-1.48-2.76-2.14-4.12c-0.61-1.39-1.09-2.78-1.28-4.15
		c-0.25-1.36-0.14-2.67,0.25-3.98c0.42-1.28,1.28-2.51,2.59-3.67c1.45-1.31,2.95-2.09,4.54-2.48c1.56-0.36,3.12-0.33,4.68,0
		c1.59,0.42,3.06,1.09,4.48,1.98c1.45,0.95,2.76,2.06,3.92,3.37c1.31,1.48,2.34,3.01,3.12,4.57c0.78,1.56,1.2,3.17,1.31,4.79
		c0.08,1.61-0.19,3.2-0.84,4.79c-0.64,1.56-1.75,3.09-3.26,4.54l-3.26-3.62C505.21,284.29,506.05,282.18,505.85,280.09"/>
	<path class="st1" d="M528.34,311.85c0.17-2.09-0.5-4.29-1.89-6.54c-0.53-0.89-1.2-1.78-1.92-2.51c-0.7-0.78-1.53-1.36-2.37-1.78
		c-0.81-0.42-1.73-0.61-2.76-0.61c-0.95,0.03-1.98,0.36-3.03,1.06c-0.97,0.61-1.64,1.39-1.84,2.39c-0.31,0.97-0.31,2.09-0.08,3.28
		c0.25,1.28,0.58,2.59,1.11,3.98c0.5,1.39,1.03,2.84,1.53,4.31c0.45,1.48,0.89,3.01,1.22,4.48c0.36,1.53,0.53,2.95,0.45,4.4
		c-0.11,1.39-0.53,2.76-1.2,4.01c-0.7,1.22-1.81,2.39-3.45,3.37c-1.73,1.06-3.45,1.61-5.18,1.61c-1.73,0-3.34-0.42-4.87-1.11
		c-1.5-0.75-2.95-1.78-4.23-3.03c-1.28-1.31-2.39-2.67-3.28-4.2c-1.17-1.81-1.98-3.65-2.56-5.59c-0.53-1.89-0.7-3.76-0.53-5.54
		c0.17-1.81,0.7-3.54,1.73-5.15c1.03-1.61,2.51-3.01,4.48-4.23l2.51,4.06c-1.31,0.86-2.39,1.86-3.01,3.01
		c-0.67,1.14-1.06,2.34-1.14,3.62c-0.14,1.22,0.03,2.56,0.5,3.92c0.36,1.31,0.97,2.64,1.7,3.84c0.67,0.97,1.31,1.92,2.09,2.78
		c0.81,0.86,1.7,1.56,2.59,2.09c0.95,0.5,1.95,0.78,3.01,0.78c1.06,0,2.23-0.33,3.37-1.06c1.17-0.7,1.89-1.56,2.23-2.59
		c0.31-1.03,0.36-2.17,0.22-3.42c-0.17-1.28-0.5-2.59-1.03-4.04c-0.45-1.39-0.97-2.87-1.45-4.31c-0.53-1.53-1.03-2.98-1.36-4.45
		c-0.42-1.48-0.61-2.92-0.61-4.29c0.06-1.39,0.33-2.67,0.95-3.87c0.67-1.22,1.7-2.25,3.17-3.23c1.64-1.03,3.28-1.56,4.9-1.64
		c1.67-0.08,3.17,0.19,4.62,0.86c1.48,0.61,2.84,1.53,4.12,2.73c1.22,1.14,2.34,2.51,3.26,3.98c1.03,1.64,1.81,3.34,2.31,5.01
		c0.5,1.64,0.67,3.34,0.45,4.95c-0.17,1.61-0.72,3.09-1.64,4.54c-0.92,1.45-2.23,2.7-3.98,3.9l-2.56-4.12
		C527.01,315.86,528.18,313.97,528.34,311.85"/>
	<polygon class="st1" points="543.9,331.2 508.91,346.84 506.83,342.19 541.84,326.55 	"/>
	<path class="st1" d="M537.72,345.14c2.48,0.08,4.84,0.61,7.13,1.61c2.17,1,4.12,2.48,5.79,4.37c1.7,1.89,2.92,4.31,3.76,7.24
		c0.81,2.95,0.95,5.68,0.53,8.18c-0.5,2.48-1.39,4.73-2.76,6.71c-1.42,1.98-3.15,3.65-5.26,5.07c-2.09,1.36-4.45,2.42-6.96,3.12
		c-2.53,0.7-5.07,1-7.63,0.86c-2.53-0.03-4.84-0.61-7.13-1.61c-2.17-0.97-4.12-2.42-5.79-4.31c-1.64-1.92-2.87-4.37-3.65-7.29
		c-0.86-2.95-1.03-5.65-0.58-8.16c0.45-2.51,1.36-4.73,2.76-6.71c1.36-2,3.12-3.7,5.23-5.07c2.09-1.39,4.4-2.42,6.96-3.12
		C532.63,345.31,535.19,345.03,537.72,345.14 M526.2,353.22c-1.73,0.97-3.12,2.17-4.31,3.62c-1.14,1.45-1.95,3.09-2.39,4.98
		c-0.36,1.84-0.31,3.9,0.31,6.12c0.61,2.25,1.61,4.04,2.92,5.43c1.34,1.36,2.84,2.39,4.62,3.06c1.73,0.61,3.59,0.92,5.51,0.92
		c1.92-0.06,3.87-0.28,5.71-0.84c1.81-0.53,3.62-1.22,5.26-2.25c1.7-0.95,3.12-2.17,4.29-3.62c1.2-1.45,1.98-3.09,2.39-4.95
		c0.42-1.89,0.33-3.92-0.28-6.18c-0.67-2.23-1.61-4.04-2.92-5.43c-1.31-1.36-2.84-2.39-4.59-3.01c-1.73-0.64-3.59-0.95-5.51-0.89
		c-1.92,0-3.87,0.25-5.71,0.78C529.62,351.49,527.87,352.24,526.2,353.22z"/>
	<polygon class="st1" points="560.47,394.36 530.29,415.87 530.29,415.96 561.33,414.59 561.58,419.41 523.25,421.08 523,415.54 
		552.89,394.16 552.89,394.05 522.14,395.41 521.89,390.6 560.22,388.9 	"/>
	<path class="st2" d="M287.18,298.24c0.17,1.98,0.28,3.98,0.45,5.93c0.19,2.84,1.48,3.51,3.92,2c0.17-0.11,2.03-1.2,1.89-1.14
		c0.78,1.28-0.08,3.59,0.7,4.9c2.39-1.45,4.31-2.7,6.29-3.98l0.36,0.42c-1.11,1.14-2.2,2.31-3.34,3.45
		c-0.67,0.67-1.53,1.14-0.97,2.56c0.56,1.36,1.39,1.53,2.56,1.36c0.58-0.06,1.2,0,2.31,0c-0.86,0.86-1.31,1.61-1.98,1.98
		c-1.06,0.58-1.45,1.39-0.89,2.34c0.36,0.67,1.11,1.31,1.84,1.48c2.48,0.53,4.95,0.84,7.4,1.7c-2.34,0.17-4.7,0.28-7.04,0.45
		c-1.03,0.08-2.23-0.19-2.56,1.45c-0.28,1.36-0.86,2.64,0.86,3.45c0.28,0.14,0.67,0.75,1.14,1.28c-1.7,0.11-3.26-0.03-5.4,0.11
		c1.81,2.67,3.45,4.98,5.04,7.29l-0.36,0.33c-1.53-1.2-3.2-2.23-4.65-3.51c-1.36-1.22-2.51-1.36-3.79,0.06
		c0.19,1.36,0.42,2.76,0.67,4.15l-0.33,0.11c-0.56-0.84-1.11-1.64-1.75-2.39c-0.47-0.45-1.22-1.2-1.59-1.06
		c-0.61,0.28-1.31,0.95-1.53,1.64c-0.7,2.09-1.17,4.29-1.73,6.46h-0.61c-0.11-1.78-0.17-3.51-0.42-5.23
		c-0.11-0.95-0.19-2.14-0.78-2.67c-1.09-0.97-2.31-0.25-3.26,0.58c-0.95,0.84-1.89,1.61-3.17,2.14c0.25-0.67,0.36-1.45,0.75-2.06
		c1.17-1.78,0.84-3.09-1.11-4.04c-2.31,1.73-4.59,3.51-6.96,5.26c-0.17-0.11-0.33-0.25-0.5-0.42c1.45-1.73,2.76-3.59,4.26-5.26
		c0.95-1.03,1.45-1.92,0.64-3.26c-0.78-1.28-1.89-0.84-2.95-0.67c-0.61,0.08-1.28,0.25-2.42,0.5c1.14-1.03,1.89-1.81,2.76-2.39
		c1.17-0.86,1.14-2.09,0.7-3.12c-0.19-0.5-1.28-0.78-2.06-0.95c-2.23-0.33-4.45-0.5-6.68-0.78c-0.53-0.17-0.78-0.33-0.78-0.53
		c2.39-0.25,5.57-0.5,7.91-0.86c0.75-0.11,1.73-0.53,2.09-1.11c0.67-1.11-0.19-1.84-1.14-2.42c-0.7-0.45-1.36-1.03-1.84-1.89
		c1,0.25,2,0.53,3.03,0.61c0.61,0,1.7-0.14,1.89-0.58c0.36-0.53,0.42-1.64,0.08-2.23c-1.56-2.42-3.31-4.79-4.98-7.15
		c-0.17-0.19-0.19-0.45-0.03-0.95c1.39,1.25,2.84,2.48,4.29,3.7c0.86,0.78,1.61,1.81,2.59,2.34c0.78,0.42,1.95,0.42,2.81,0.19
		c0.33-0.08,0.47-1.36,0.47-2.09c0-0.75-0.28-1.48-0.11-2.42c0.72,0.7,1.36,1.61,2.2,2.03c1.03,0.5,2.25,0.75,3.37,0.7
		c0.45-0.08,0.86-1.36,1.03-2.14c0.42-1.89,0.67-3.79,0.95-5.68C286.84,298.18,287.04,298.18,287.18,298.24"/>
	<path class="st3" d="M383.07,463.81c1.14,0,2.87,0.03,4.57,0c7.63-0.19,15.14-0.42,22.8-0.67c2.59-0.03,3.95-1.2,4.4-3.7
		c0.19-1.14,0.42-2.42,0.17-3.51c-1.39-4.76-2.81-9.55-4.45-14.22c-4.95-14.34-10.08-28.61-15.14-42.89
		c-2.59-7.24-5.15-14.45-7.82-21.57c-0.92-2.39-2.48-4.59-5.23-4.65c-2.84-0.03-4.12,2.31-4.98,4.57c-1.89,4.82-3.73,9.66-5.4,14.56
		c-6.21,18.34-12.39,36.74-18.51,55.11c-1.11,3.37-2.48,6.74-2.95,10.24c-0.7,4.84,0.86,7.93,6.15,7.63
		C365.34,464.2,373.91,464.11,383.07,463.81 M209.79,366.3c0,1.45-0.19,2.73,0,3.98c0.78,4.98-0.5,9.1-4.45,12.47
		c-2.59,2.23-3.48,5.07-3.26,8.68c0.7,11.47,1.09,23.05,1.56,34.63c0.17,3.65,3.37,6.88,7.13,6.88c10.02,0,20.01-0.03,30.01-0.19
		c4.48-0.11,6.49-2.17,6.49-6.71c0.11-12.14,0.11-24.27,0.36-36.38c0.03-2.92-0.92-5.01-2.78-7.07c-2.81-3.03-6.12-5.96-5.57-10.83
		c0.17-1.28,0-2.59,0.08-3.92c0.14-1.64-0.53-2.31-2.23-2.25c-8.41,0.19-16.87,0.33-25.3,0.5
		C211.27,366.08,210.57,366.21,209.79,366.3z M306.8,480.2v-0.42c6.35,0,12.58,0.03,18.93-0.06c5.34-0.03,5.73-0.7,3.73-5.59
		c-5.65-13.83-11.22-27.61-16.87-41.42c-0.53-1.36-1.2-2.76-2.12-3.9c-1.48-1.89-3.42-1.73-4.82,0.25
		c-0.36,0.45-0.61,0.95-0.89,1.48c-3.65,7.57-7.32,15.14-11,22.77c-3.34,7.01-6.79,14-10.02,21.04c-1.61,3.54,0.17,5.85,3.95,5.85
		C294.11,480.15,300.51,480.2,306.8,480.2z M207.46,337.35c0.11,6.37,1.81,11.52,5.48,16.06c6.29,7.65,17.26,8.27,24.24,1.36
		c9.63-9.49,9.19-25.55-0.89-34.49c-5.23-4.65-13.22-5.23-18.98-1.36C210.52,323.43,207.73,330.06,207.46,337.35z M381.98,369.17
		c2.14-0.53,4.4-0.75,6.37-1.61c11.86-5.34,15.5-21.15,7.38-31.62c-6.04-7.77-16.23-9.35-23.55-3.62
		c-6.99,5.4-9.71,14.81-6.85,23.38C368.12,363.63,374.55,368.69,381.98,369.17z M284.59,398.2c-0.81-1.64-1.17-3.62-2.28-4.93
		c-8.63-9.88-17.48-19.68-26.22-29.48c-2.42-2.76-5.46-3.09-8.8-2.51c-2.42,0.42-3.79,1.98-4.45,4.2
		c-1.22,4.48-0.33,8.55,2.73,11.97c8.02,8.96,16.2,17.81,24.36,26.72c2.73,2.95,6.18,3.92,9.27,2.67
		C281.97,405.74,284.09,402.12,284.59,398.2z M200.61,363.07c-2.45,0.33-5.26,0.78-6.99,3.54c-0.67,0.95-1.48,1.75-2.23,2.67
		c-7.38,8.94-14.72,17.9-22.1,26.86c-2.67,3.23-2.89,7.49-0.72,11c1.89,2.95,4.54,4.2,7.57,2.95c1.92-0.78,3.9-2.09,5.32-3.65
		c7.04-7.91,13.83-15.98,20.82-23.83c2.89-3.26,5.43-6.57,5.59-11.19C208.07,366.55,205.31,363.07,200.61,363.07z M203.67,469.9
		L203.67,469.9v23.97c0,3.79,2.56,6.71,6.54,7.15c2.84,0.33,7.04-1.28,7.79-5.32c0.42-2.87,0.36-5.76,0.36-8.68v-39.55
		c0-4.31-1.45-6.29-5.4-7.54c-4.73-1.48-9.35,1.84-9.3,6.74L203.67,469.9L203.67,469.9z M247.29,470.04
		c0-7.99-0.06-15.98,0.06-23.99c0.03-2.81-1.42-4.45-3.7-5.57c-2.14-0.97-4.4-1.11-6.62-0.33c-2.67,1.03-4.09,2.92-4.09,5.76
		c0.06,16.26,0.06,32.48,0.11,48.68c0,1.11,0.33,2.39,0.95,3.31c1.73,2.7,5.34,3.73,8.63,2.7c3.03-0.95,4.65-3.34,4.65-6.79v-23.77
		H247.29z M367.06,371c-2.34-0.36-3.92,1.22-5.37,3.09c-2.87,3.59-5.71,7.15-8.55,10.77c-4.93,6.35-9.91,12.64-14.73,19.07
		c-1.42,1.84-2.48,4.06-1.92,6.51c0.89,3.87,8.43,6.37,11.55,3.87c0.25-0.19,0.45-0.45,0.67-0.7c8.43-9.27,16.09-19.1,23.33-29.31
		c1.81-2.59,2.31-5.32,1.53-8.27C372.77,372.73,370.54,370.97,367.06,371z M397.49,371.75c-2.28-0.08-4.31,1.22-5.15,3.34
		c-1.45,3.73-0.95,7.21,1.81,10.33c2.48,2.78,4.79,5.76,7.24,8.57c5.79,6.51,11.64,12.92,17.54,19.35c0.58,0.58,1.48,1.22,2.25,1.28
		c3.01,0.03,5.43-1.11,6.99-3.79c1.48-2.56,1.48-5.07-0.25-7.24c-7.65-9.52-15.37-18.98-22.99-28.45
		C403.03,372.78,400.38,371.98,397.49,371.75z M403.14,485.41L403.14,485.41v-9.91c-0.08-5.21-4.4-8.99-9.05-7.91
		c-3.26,0.7-5.57,3.98-5.57,8.16c-0.06,6.43,0,12.89,0.03,19.32c0.06,4.04,3.51,7.13,7.79,7.04c4.12-0.08,6.88-3.01,6.79-7.32
		V485.41z M375.5,485.8L375.5,485.8c0-3.42,0-6.88-0.03-10.3c-0.06-3.2-1.7-5.48-4.45-6.99c-2.37-1.28-4.65-0.95-6.79,0.5
		c-2.28,1.56-3.26,3.81-3.26,6.51c-0.03,6.74-0.08,13.5,0.06,20.21c0.08,3.98,3.45,6.96,7.49,6.79c4.29-0.14,6.96-2.81,6.99-6.99
		L375.5,485.8L375.5,485.8z M273.87,411.95c0.22,2.06,0.36,3.87,0.72,5.65c2.12,11.11,8.52,19.43,20.65,20.65
		c2.92,0.31,4.79-0.95,5.26-3.62c0.58-3.76-0.25-5.23-3.45-5.87c-5.07-1.03-8.91-3.87-11.27-8.41c-1.45-2.76-2.42-5.68-3.79-8.85
		C279.55,411.61,276.79,411.78,273.87,411.95z M317.91,414.84c-0.14-1.06-0.14-2.23-0.47-3.26c-1.09-3.76-3.37-6.29-7.21-7.38
		c-3.45-1.03-6.21,0.25-8.52,2.51c-4.15,4.29-4.29,11.41-0.42,15.98c3.45,4.04,9.41,4.29,13.14,0.58
		C316.77,420.97,317.74,418.1,317.91,414.84z M320.83,438.36c3.7-0.42,7.49-1.2,10.77-3.48c5.76-4.01,7.74-9.94,8.32-16.59
		c0-0.33-0.81-1.11-1.28-1.14c-1.48-0.22-3.01-0.06-4.48-0.22c-1.81-0.25-2.81,0.42-3.45,2.14c-1.03,3.03-2.67,5.73-5.51,7.29
		c-2.37,1.28-4.95,2.2-7.46,3.01c-1.56,0.53-2.48,1.31-2.76,2.89C314.46,435.55,317.02,438.34,320.83,438.36z M318.94,491.81h-0.06
		c0-2.31-0.03-4.65,0.06-6.99c0-1.22-0.58-1.98-1.78-2.14c-1.11-0.17-2.17-0.25-3.26-0.19c-1.45,0.17-2.25,1.03-2.31,2.48
		c0,4.7-0.08,9.35,0.11,14.03c0.03,0.84,1.06,1.86,1.89,2.25c0.78,0.36,1.89,0.08,2.84,0.08c1.84,0.03,2.51-0.95,2.48-2.67
		C318.88,496.37,318.94,494.06,318.94,491.81z M304.21,491.89L304.21,491.89c0-2.14-0.11-4.29,0.06-6.43
		c0.17-1.89-0.7-2.76-2.48-2.95c-0.97-0.03-2.14-0.25-3.01,0.14c-0.75,0.31-1.78,1.31-1.81,2.06c-0.17,4.76-0.08,9.55,0,14.31
		c0.03,1.78,1.36,2.51,3.7,2.51c2.42-0.03,3.45-0.75,3.51-2.64C304.24,496.54,304.21,494.23,304.21,491.89z"/>
	<path class="st1" d="M160.39,536.62v7.15c0,1.56-0.5,2.87-1.31,3.87c-0.95,1.03-2,1.56-3.26,1.53l-1.61-0.08h-0.78
		c-0.36,0-0.61-0.08-0.78-0.25l1.67-0.06l2.98,5.65l1.14,1.95l2.2,3.09l0.95,1.2l-1.56,1.89h-1.7c-0.42-0.25-1.2-1.28-2.31-2.95
		c-1.31-2-2.59-4.37-4.04-7.04l-1.28-2.51l-1.22-2.64l-0.84-1.92l-0.86-1.98l1.7-1.61h1.7l1.7,3.79c0.33,0.67,0.81,1.06,1.56,1.31
		l0.75-0.33c0.86-0.42,1.31-1.45,1.31-3.17v-6.88h-11.44v-2.23h18.65v2.23H160.39z"/>
	<path class="st1" d="M184.8,554.58l-1.64-0.03c-1.03-0.03-1.86-0.17-2.34-0.36c-1.11-0.53-2.06-1.39-2.78-2.59
		c-0.7-1.2-1.11-2.56-1.11-4.06v-10.86h-3.34v-2.23h11.41v2.23h-3.84l7.57,10.38v5.48C187.72,553.91,186.41,554.61,184.8,554.58
		 M180.79,541.16v6.37c0,1.53,0.42,2.67,1.14,3.42l0.86,0.75l0.95,0.36l0.33-0.03l0.42-0.19l0.31-0.08l0.36-0.19l0.95-0.81
		l0.75-1.11L180.79,541.16z"/>
	<path class="st1" d="M202.86,536.62v8.43h-7.4c-0.33,0-0.61,0.03-0.78,0.11c-0.75,0-1.45,0.53-2,1.7
		c-0.61,1.06-0.95,2.14-0.95,3.17c0,2.51,0.78,4.7,2.34,6.6c1.03,1.2,2.25,1.92,3.62,2.23l1.28-0.36c0.36-0.08,0.78-0.28,1.2-0.61
		c0.5-0.28,0.84-0.78,1.22-1.36l1.06-1.84l1.7-0.08l1.81,1.36c-0.75,1.48-1.45,2.51-2.12,3.06c-0.61,0.5-1.56,1.06-2.87,1.81
		c-0.7,0.25-1.39,0.36-2.09,0.33l-1.67-0.03c-1.5-0.06-2.67-0.33-3.48-0.78c-1.03-0.53-2.03-1.39-3.03-2.56
		c-1.89-2.31-2.84-4.93-2.84-7.91c0-2,0.53-3.67,1.61-5.07c1.06-1.45,2.37-2.09,3.84-2.09l5.79-0.06v-6.01h-14.08v-2.23h22.13v2.23
		h-4.29V536.62z"/>
	<polygon class="st1" points="201.69,570.33 197.35,563.29 192.59,570.33 188.42,570.33 195.35,560.53 199.3,560.53 205.76,570.33 	
		"/>
	<path class="st1" d="M239.41,536.62v25.94h-3.87v-6.99c-0.53,0.33-1.06,0.58-1.7,0.84l-1.73,0.19l-1.7-0.08
		c-2.28-0.03-4.06-0.89-5.48-2.59c-1.61-1.89-2.39-4.37-2.42-7.4l1.61-0.03l0.33,0.19l0.42,0.11h0.03l0.86-0.28l0.75-0.67
		c0.75-0.78,1.09-1.98,1.09-3.62c0-1-0.31-2.25-1.09-3.79l-1.03-1.78l-5.85-0.03v-2.23h22.71v2.23h-2.95V536.62z M235.57,536.62
		h-5.68l0.5,1.11l0.33,0.81l0.67,2.09l0.19,1.7c0,2.39-0.78,4.29-2.42,5.59l-1.03,0.53l-1.39,0.5l0.11,0.53l0.17,0.42l0.11,0.45
		l0.17,0.33c0.75,2.06,2,3.34,3.7,3.87c0.28,0,0.7-0.11,1.22-0.42l1.17-0.86c0.25-0.19,0.45-0.42,0.7-0.7l0.53-0.7l0.95-1.7V536.62z
		"/>
	<path class="st1" d="M160.11,562.71h-1.81c-0.45-0.28-1.22-1.22-2.39-3.01c-1.28-2-2.59-4.37-4.04-7.07l-1.31-2.48l-1.2-2.64
		l-0.84-1.98l-0.89-2.14l1.81-1.78h1.75l1.78,3.95c0.33,0.58,0.75,1,1.45,1.2l0.7-0.33c0.84-0.36,1.22-1.31,1.22-2.95v-6.65h-11.47
		v-2.64h18.96v2.64h-3.37v6.96c0,1.61-0.45,2.92-1.36,4.04c-0.84,1.03-1.92,1.53-3.12,1.53l-1.22-0.03l2.7,5.07l1.17,1.89l2.09,3.09
		l1.06,1.31L160.11,562.71z M158.38,562.34H160l1.39-1.7l-0.81-1.03l-2.17-3.15l-1.2-1.92l-2.76-5.26h-0.19h-0.78
		c-0.42,0-0.7-0.11-0.86-0.33l-0.25-0.33l2.06-0.06l0.19,0.33l1.39,0.03c1.14,0,2.14-0.5,2.95-1.45c0.81-1,1.28-2.25,1.28-3.76
		v-7.38h3.28v-1.84h-18.34v1.84h11.47v7.07c0,1.81-0.5,2.92-1.45,3.34l-0.78,0.36l-0.06-0.06c-0.78-0.19-1.31-0.7-1.64-1.36
		l-1.64-3.65h-1.5l-1.61,1.48l0.84,1.84l0.84,1.95l1.22,2.64l1.31,2.48c1.31,2.7,2.67,5.07,3.98,7.04
		C157.18,561.12,158.02,562.09,158.38,562.34z"/>
	<polygon class="st1" points="170.52,536.62 170.52,562.57 166.65,562.57 166.65,536.62 162.58,536.62 162.58,534.4 174.55,534.4 
		174.55,536.62 	"/>
	<path class="st1" d="M184.94,554.77h-0.11l-1.64-0.03c-1.03-0.03-1.89-0.19-2.37-0.42c-1.14-0.53-2.09-1.45-2.89-2.64
		c-0.75-1.25-1.11-2.64-1.11-4.2v-10.66h-3.31v-2.64h11.69v2.64h-3.7l7.46,10.08v5.65l-0.06,0.08
		C187.8,554.08,186.55,554.77,184.94,554.77 M173.72,536.43h3.34v11.08c0,1.48,0.36,2.78,1.03,3.95c0.75,1.17,1.7,2,2.81,2.51
		c0.45,0.19,1.25,0.33,2.25,0.36l1.78,0.03c1.48,0,2.73-0.67,3.67-1.92v-5.34l-7.82-10.66h4.04v-1.84h-11.08v1.84H173.72z
		 M183.68,552.27l-1-0.45l-0.81-0.7c-0.84-0.78-1.22-2-1.22-3.54v-6.93l6.37,8.94l-0.86,1.28l-0.95,0.84l-0.42,0.19l-0.33,0.11
		l-0.33,0.17L183.68,552.27z M182.82,551.49l0.92,0.42l0.33-0.08l0.33-0.11l0.39-0.17l0.28-0.19l0.95-0.75l0.67-0.97l-5.73-7.93
		v5.93c0,1.39,0.33,2.51,1.03,3.26L182.82,551.49z"/>
	<path class="st1" d="M199.13,561.31c0,0-0.17,0-0.25-0.03l-1.67-0.06c-1.5-0.06-2.67-0.28-3.54-0.78
		c-1.06-0.53-2.06-1.39-3.09-2.56c-1.92-2.34-2.87-5.07-2.87-8.1c0-1.98,0.5-3.7,1.64-5.15c1.11-1.45,2.39-2.14,3.92-2.14l5.68-0.03
		v-5.65h-14.08v-2.64h22.44v2.64h-4.29v8.43h-7.57c-0.33,0-0.58,0.06-0.75,0.08l-0.03,0.03c-0.7,0-1.36,0.5-1.89,1.56
		c-0.64,1.06-0.92,2.09-0.92,3.09c-0.03,2.42,0.75,4.62,2.31,6.46c1,1.11,2.14,1.81,3.51,2.14l1.28-0.33
		c0.33-0.08,0.7-0.28,1.14-0.61c0.42-0.28,0.81-0.75,1.11-1.36l1.14-1.89l1.86-0.08l1.89,1.53l-0.08,0.17
		c-0.7,1.53-1.45,2.56-2.14,3.09c-0.61,0.5-1.53,1.06-2.89,1.86C200.41,561.2,199.77,561.31,199.13,561.31 M185.19,536.43h14.08
		v6.37l-5.96,0.03c-1.45,0-2.7,0.7-3.76,2.09c-0.97,1.31-1.53,3.01-1.53,4.84c0,2.98,0.95,5.57,2.81,7.79
		c0.95,1.14,1.98,2,2.95,2.56c0.86,0.45,2.03,0.7,3.45,0.75l1.67,0.08c0.7,0.03,1.36-0.08,2.09-0.33c1.22-0.7,2.23-1.31,2.78-1.78
		c0.61-0.53,1.28-1.48,1.95-2.87l-1.56-1.2l-1.59,0.03l-1.11,1.78c-0.36,0.61-0.75,1.11-1.22,1.45c-0.42,0.28-0.86,0.53-1.22,0.67
		l-1.28,0.33h-0.06c-1.36-0.28-2.64-1.09-3.67-2.23c-1.64-1.92-2.48-4.2-2.42-6.76c0-1.06,0.28-2.17,0.89-3.34
		c0.61-1.11,1.39-1.73,2.14-1.73c0.22-0.03,0.47-0.08,0.84-0.08h7.24v-8.49h4.29v-1.84h-21.82v1.86H185.19z"/>
	<path class="st1" d="M206.12,570.53h-4.54l-4.23-6.96l-4.7,6.96h-4.48l7.13-10.22h4.04L206.12,570.53z M201.8,570.14h3.65
		l-6.29-9.44h-3.79l-6.62,9.44h3.79l4.82-7.15L201.8,570.14z"/>
	<path class="st1" d="M216.53,536.62v25.94h-3.79v-25.94h-3.67v-2.23h3.15c0.03-0.03,0.08-0.11,0.08-0.25
		c0-0.75-1.17-2.89-3.34-6.29c-0.86-1.36-1.75-2.25-2.76-2.92l-0.61,0.5l-0.53,0.78c-0.17,0.17-0.28,0.58-0.5,1.2
		c-0.08,0.28-0.11,0.67-0.19,1.11c0,0.25,0,0.61-0.06,0.95c0,0.5,0.06,0.89,0.14,1.31c0.06,0.36,0.22,0.95,0.45,1.75l0.58,1.36
		l0.25,0.53l-1.64-0.03h-2.39l-0.5-0.86l-0.45-1.17l-0.25-1.14l-0.11-1.28c-0.06-0.67,0.08-1.53,0.36-2.67
		c0.84-3.01,2.34-4.57,4.65-4.62l1.61-0.08c1.48,0,3.01,1.03,4.65,3.2c0.67,0.84,1.22,1.73,1.78,2.76l1.2,2.48l1.48,3.42l3.95-0.03
		v2.23L216.53,536.62L216.53,536.62z"/>
	<path class="st1" d="M239.55,562.71h-4.15v-6.88c-0.45,0.28-0.89,0.5-1.45,0.7l-1.81,0.25l-1.7-0.08
		c-2.31-0.03-4.12-0.95-5.59-2.62c-1.61-1.95-2.45-4.48-2.45-7.57l-0.06-0.19l1.84-0.06l0.36,0.25l0.33,0.17l0.81-0.33l0.78-0.64
		c0.61-0.7,0.97-1.86,0.97-3.45c0.06-1-0.33-2.23-1.03-3.67l-1-1.7l-5.96-0.03v-2.64h23.05v2.64h-3.01v25.86H239.55z M235.68,562.34
		h3.54V536.4h3.03v-1.86h-22.46v1.86l5.79,0.08l1.11,1.81c0.75,1.56,1.06,2.87,1.06,3.9c-0.08,1.7-0.36,2.95-1.11,3.79l-0.78,0.67
		l-1.03,0.33l-0.42-0.14l-0.33-0.19h-1.48c0.08,2.92,0.89,5.32,2.42,7.07c1.39,1.64,3.17,2.51,5.4,2.59l1.7,0.08l1.73-0.19
		c0.58-0.25,1.11-0.5,1.59-0.84l0.19-0.11v7.1H235.68z M230.98,554.77c-1.75-0.58-3.03-1.89-3.87-3.98l-0.11-0.33l-0.14-0.45
		l-0.17-0.42l-0.19-0.75l1.61-0.58l1.03-0.53c1.53-1.22,2.31-3.09,2.31-5.4l-0.22-1.64l-0.67-2.09l-0.36-0.78l-0.58-1.39h6.04v13.83
		l-0.97,1.78l-0.53,0.75c-0.19,0.28-0.45,0.53-0.75,0.75l-1.11,0.78C231.73,554.61,231.28,554.77,230.98,554.77z M226.91,549.09
		l0.06,0.33l0.17,0.42l0.17,0.45l0.14,0.33c0.7,1.98,1.92,3.2,3.62,3.73c0.19,0,0.61-0.11,1.2-0.42l1.06-0.78
		c0.22-0.19,0.5-0.42,0.67-0.7l0.61-0.7l0.81-1.61v-13.33h-5.26l0.39,0.78l0.33,0.84l0.72,2.17l0.19,1.73
		c0,2.48-0.81,4.37-2.51,5.73l-1.09,0.58L226.91,549.09z"/>
	<path class="st1" d="M267.75,536.62v9.1c0,0.17-0.06,0.36-0.11,0.53l-0.25,1.22c-0.25,1.03-0.97,1.73-2.25,2.09
		c-0.19,0-0.42,0.03-0.45,0.11l-0.45,0.08l-2.12-0.08c-0.17,0-0.36-0.08-0.58-0.19l1.7-0.08l2.59,5.23l1.09,1.84l1.98,3.01
		l0.86,1.14l-1.64,1.89h-1.7c-0.5-0.25-1.2-1.14-1.98-2.78l-5.07-9.66l-1.22-2.51l-0.72-1.7l-0.75-1.73l1.81-1.53h1.64l1.2,3.06
		c0.25,0.53,0.45,0.97,0.67,1.2l0.95,0.61l0.36-0.19l0.25-0.42l0.33-0.78l0.08-1.14l-0.06-0.84v-7.49h-9.74v-2.23h18.07v2.23H267.75
		z M268.03,548.34l-1.48-2.25h8.99v2.25H268.03z"/>
	<path class="st1" d="M268.08,562.71h-1.73c-0.53-0.25-1.2-1.14-2.06-2.84l-5.09-9.66l-1.2-2.51l-0.7-1.7l-0.78-1.95l1.89-1.64h1.78
		l1.25,3.17c0.17,0.5,0.42,0.86,0.58,1.11l0.86,0.58l0.33-0.17l0.25-0.36l0.19-0.75l0.08-1.11l-0.03-0.78v-7.29H254v-2.64h18.4v2.64
		h-4.48v8.88v0.19h7.77v2.64H268l-0.5-0.75c-0.31,0.95-1.06,1.61-2.31,1.98c-0.28,0-0.42,0.06-0.5,0.11l-0.45,0.06l-0.67-0.06
		l2.31,4.62l1.11,1.89l2,3.01l1,1.28L268.08,562.71z M266.38,562.34h1.64l1.48-1.7l-0.75-0.97l-1.98-3.01l-1.14-1.92l-2.39-4.82
		h-1.14c-0.19,0-0.42-0.11-0.67-0.25l-0.5-0.36l2.31-0.03l0.17,0.33h0.78l0.36-0.06c0.11-0.08,0.33-0.11,0.53-0.11
		c1.2-0.33,1.89-1.03,2.09-1.92l-1-1.56h1.31c0-0.03,0.03-0.11,0.03-0.19v-9.27h4.45v-1.89h-17.79v1.89h9.8v7.65l0.06,0.84
		l-0.11,1.2l-0.33,0.86l-0.33,0.42l-0.42,0.28l-1.06-0.7c-0.19-0.25-0.36-0.67-0.61-1.2l-1.2-3.01h-1.53l-1.7,1.39l0.75,1.61
		l0.75,1.7l1.14,2.51l5.07,9.63C265.33,561.23,265.94,562.09,266.38,562.34z M268.08,548.2h7.27v-1.89h-7.57v0.03l-0.25,1.03
		L268.08,548.2z M266.88,546.28l0.45,0.7l0.11-0.7H266.88z"/>
	<path class="st1" d="M288.9,536.62v25.94h-3.92v-7.07l-0.06,0.19l-0.11,0.08l-1.31,0.61l-1.31,0.11h-1.59
		c-2.76-0.08-4.7-1.61-5.82-4.59c-0.33-0.78-0.5-1.73-0.53-2.92c0-1.98,0.53-3.79,1.64-5.43c1.03-1.61,2.39-2.48,3.98-2.51
		l1.67-0.06c0.33,0,0.56,0.06,0.75,0.14l0.89,0.17l0.67,0.19c0.28,0,0.5,0.03,0.56,0.11l0.47,2.81h-1.7l-0.42-0.28l-0.42-0.25
		l-0.67-0.25l-0.7-0.25c-0.7,0.11-1.28,0.58-1.81,1.45c-0.61,1.03-0.89,2.23-0.89,3.67c0,1.61,0.28,2.92,0.97,4.01
		c0.28,0.5,0.53,0.81,0.86,1.06l1.11,0.53l0.45-0.08l0.42-0.25l0.45-0.22l0.42-0.33c0.61-0.53,1.03-0.86,1.14-0.95
		c0.33-0.36,0.58-0.84,0.86-1.39v-14.25h-13.81v-2.23h21.49v2.23L288.9,536.62L288.9,536.62z"/>
	<path class="st1" d="M288.99,562.71h-4.12v-6.74l-1.31,0.53l-1.36,0.19l-1.59-0.06c-2.81-0.08-4.82-1.64-5.98-4.7
		c-0.33-0.78-0.45-1.81-0.5-3.01c-0.03-2,0.53-3.87,1.61-5.57c1.14-1.7,2.51-2.51,4.15-2.56l1.67-0.06c0.33,0,0.58,0,0.78,0.08
		l0.86,0.17l0.7,0.25c0.25,0,0.45,0.03,0.61,0.08l0.03,0.03l0.33,1.92v-6.54h-13.83v-2.64h21.8v2.64h-3.87v25.97H288.99z
		 M285.14,562.34h3.59V536.4h3.79v-1.86h-21.1v1.86h13.72v14.5v0.03c-0.33,0.61-0.61,1.06-0.86,1.39c-0.19,0.17-0.58,0.5-1.22,1.03
		l-0.45,0.33l-0.86,0.45l-0.5,0.11l-1.14-0.58c-0.33-0.25-0.67-0.61-0.95-1.11c-0.64-1.11-1.03-2.51-1.03-4.15
		c0-1.45,0.33-2.73,0.95-3.76c0.53-0.86,1.2-1.39,1.95-1.48l0.75,0.19l0.67,0.28l0.45,0.19l0.36,0.33h1.45l-0.36-2.51
		c-0.14-0.06-0.31-0.08-0.5-0.08l-0.7-0.19l-0.86-0.11c-0.19-0.11-0.42-0.17-0.75-0.17l-1.67,0.08c-1.5,0.06-2.87,0.84-3.9,2.48
		c-1.03,1.56-1.59,3.34-1.5,5.26c0,1.14,0.11,2.09,0.42,2.84c1.11,2.92,3.01,4.4,5.73,4.45l1.59,0.08l1.28-0.11l1.31-0.61l0.03-0.08
		l0.33-0.67V562.34z M281,543.58c-0.67,0.11-1.22,0.58-1.7,1.36c-0.61,0.95-0.86,2.17-0.86,3.51c0,1.56,0.25,2.87,0.95,3.95
		c0.25,0.45,0.53,0.78,0.78,0.97l1.11,0.5l0.36-0.11l0.86-0.36l0.36-0.33c0.61-0.5,1.03-0.81,1.14-0.97
		c0.31-0.28,0.53-0.75,0.84-1.28v-6.18l-1.7-0.03l-0.5-0.28l-0.36-0.25l-0.64-0.25L281,543.58z"/>
	<polygon class="st1" points="299.34,536.62 299.34,562.57 295.44,562.57 295.44,536.62 291.32,536.62 291.32,534.4 303.35,534.4 
		303.35,536.62 	"/>
	<path class="st1" d="M299.42,562.71h-4.12v-25.89h-4.09v-2.64h12.28v2.64h-4.06V562.71z M295.61,562.34h3.59V536.4h3.98v-1.84
		h-11.72v1.84h4.15V562.34z"/>
	<path class="st1" d="M315.6,536.62v9.1c0,0.17-0.03,0.36-0.08,0.53l-0.31,1.22c-0.25,1.03-0.95,1.73-2.23,2.09
		c-0.25,0-0.42,0.03-0.5,0.11l-0.42,0.08l-2.17-0.08c0,0-0.33-0.08-0.53-0.19l1.61-0.08l2.59,5.23l1.14,1.84l2.03,3.01l0.86,1.14
		l-1.73,1.89h-1.64c-0.45-0.25-1.14-1.14-2-2.78l-5.07-9.66l-1.14-2.51l-0.78-1.7l-0.7-1.73l1.75-1.53h1.67l1.2,3.06
		c0.25,0.53,0.45,0.97,0.67,1.2l1,0.61l0.28-0.19l0.33-0.42l0.33-0.78l0.03-1.14l-0.03-0.84v-7.49h-9.8v-2.23h18.15v2.23H315.6z
		 M315.9,548.34l-1.45-2.25h8.94v2.25H315.9z"/>
	<path class="st1" d="M315.99,562.71h-1.75c-0.53-0.25-1.17-1.14-2.12-2.84l-5.07-9.66l-1.14-2.51l-0.75-1.7l-0.86-1.95l1.98-1.64
		h1.81l1.2,3.17c0.25,0.5,0.42,0.86,0.58,1.11l0.95,0.58l0.19-0.17l0.31-0.36l0.28-0.75l0.08-1.11l-0.06-0.78v-7.29h-9.8v-2.64h18.4
		v2.64h-4.51v8.88v0.19h7.85v2.64h-7.77l-0.45-0.75c-0.33,0.95-1.09,1.61-2.28,1.98c-0.28,0-0.45,0.06-0.53,0.11l-0.42,0.06
		l-0.67-0.06l2.31,4.62l1.11,1.89l1.98,3.01l1,1.28L315.99,562.71z M314.29,562.34h1.53l1.61-1.7l-0.78-0.97l-2.06-3.01l-1.09-1.92
		l-2.42-4.82h-1.14c-0.17,0-0.36-0.11-0.61-0.25l-0.53-0.36l2.31-0.03l0.17,0.33h0.86l0.33-0.06c0.17-0.08,0.33-0.11,0.58-0.11
		c1.14-0.33,1.84-1.03,2.06-1.92l-0.95-1.56h1.34v-0.19v-9.27h4.48v-1.89h-17.81v1.89h9.8v7.65l0.03,0.84l-0.08,1.2l-0.33,0.86
		l-0.36,0.42l-0.42,0.28l-1.06-0.7c-0.17-0.25-0.42-0.67-0.67-1.2l-1.14-3.01h-1.53l-1.64,1.39l0.67,1.61l0.84,1.7l1.17,2.51
		l5.01,9.63C313.23,561.23,313.84,562.09,314.29,562.34z M315.9,548.2h7.38v-1.89h-7.65v0.03l-0.17,1.03L315.9,548.2z
		 M314.71,546.28l0.5,0.7l0.17-0.7H314.71z"/>
	<path class="st1" d="M337.59,553.63l-1.03,0.95l-1.36,1.03l-1.28,0.7l-1.45,0.53l-1.36,0.08l-1.64-0.03
		c-2.87-0.11-5.26-1.7-7.15-4.65c-0.45-0.7-0.78-1.31-0.97-1.89l-1.11-2.84l1.64-0.08c0.33,0.19,0.7,0.42,1.22,0.67l1.36,0.33
		c1.39,0,2.59-0.58,3.54-1.73c0.97-1.2,1.48-2.73,1.48-4.54c0-1.36-0.36-2.64-1.14-3.79c-0.19-0.36-0.53-0.7-0.89-0.95l-1.03-0.58
		l-0.58,0.33l-0.58,0.45c-0.25,0.17-0.39,0.5-0.5,0.97l-0.17,1.14c0,1.11,0.36,1.89,1.31,2.42l0.53,0.25l0.78,0.11v2.31h-2.23h-0.84
		c-0.25-0.06-0.53-0.17-1-0.45c-0.78-0.45-1.39-1.06-1.81-1.78c-0.33-0.7-0.56-1.73-0.61-2.92c0-1.06,0.28-2.06,1-3.03
		c0.95-1.45,2.17-2.14,3.81-2.14l1.64-0.08c0.53,0,1.28,0.19,2.31,0.67c1.56,0.67,2.64,2.06,3.31,4.06c0.28,1,0.42,1.95,0.42,2.98
		c0.06,2.81-0.75,4.9-2.31,6.29c-1.36,1.22-3.17,1.81-5.4,1.89l-0.5-0.08c0.22,0.53,0.5,1.11,0.92,1.64l1.45,1.39l1.36,0.92
		l0.7,0.17c0.33,0.08,0.53,0.17,0.7,0.25c1.84-0.25,3.54-1.31,4.9-3.26l1-1.36l1.03-2.03l1.64-0.03v4.29L337.59,553.63z"/>
	<path class="st1" d="M331.16,557.11h-0.03l-1.64-0.06c-2.87-0.11-5.34-1.73-7.29-4.73c-0.45-0.7-0.84-1.36-0.97-1.92l-1.2-3.15
		l1.95-0.03v0.03c0.28,0.11,0.67,0.36,1.2,0.61l1.36,0.33c1.31,0,2.45-0.61,3.45-1.78c0.86-1.11,1.39-2.53,1.39-4.31
		c0-1.31-0.42-2.56-1.06-3.62c-0.31-0.42-0.58-0.7-0.95-0.95l-0.95-0.53l-0.53,0.28l-0.53,0.45c-0.17,0.17-0.36,0.45-0.45,0.86
		l-0.17,1.14c0,0.97,0.36,1.7,1.22,2.23l0.53,0.19l0.86,0.19v2.59h-2.34h-0.86c-0.22-0.03-0.53-0.17-0.97-0.42
		c-0.84-0.5-1.48-1.11-1.87-1.86c-0.36-0.78-0.67-1.81-0.67-3.03c-0.03-1.11,0.31-2.17,1-3.17c1-1.45,2.31-2.17,3.92-2.23l1.7-0.08
		c0.53,0,1.34,0.25,2.34,0.67c1.61,0.75,2.73,2.09,3.4,4.23c0.28,0.95,0.45,1.98,0.45,3.01c0.06,2.84-0.78,5.01-2.39,6.46
		c-1.39,1.22-3.26,1.86-5.48,1.89l-0.19-0.03c0.14,0.45,0.42,0.86,0.7,1.31l1.45,1.39l1.36,0.86l0.67,0.19c0.31,0,0.5,0.08,0.7,0.19
		c1.78-0.25,3.4-1.36,4.73-3.2l0.97-1.36l1.09-2.06l1.87-0.08v4.57l-1.34,1.56l-0.95,0.97l-1.36,1.03l-1.36,0.75l-1.39,0.5
		L331.16,557.11z M320.47,547.65l0.95,2.59c0.25,0.53,0.58,1.2,1.03,1.86c1.87,2.92,4.26,4.45,7.04,4.57l1.64,0.08l1.36-0.11
		l1.36-0.5l1.36-0.75l1.28-1.03l0.97-0.86l1.11-1.36v-4.04l-1.45,0.06l-1.03,1.92l-0.95,1.39c-1.39,1.98-3.09,3.09-5.01,3.34h-0.03
		l-0.06-0.03c-0.08-0.03-0.25-0.11-0.61-0.19l-0.75-0.19l-1.39-0.86l-1.45-1.48c-0.45-0.53-0.78-1.11-0.95-1.7l-0.03-0.28l0.67,0.08
		c2.23-0.03,3.95-0.61,5.32-1.81c1.5-1.36,2.25-3.45,2.25-6.18c0-1.03-0.14-1.92-0.42-2.89c-0.7-1.98-1.73-3.34-3.23-3.98
		c-0.97-0.42-1.73-0.67-2.25-0.67l-1.64,0.08c-1.53,0.03-2.78,0.78-3.76,2.14c-0.61,0.86-0.89,1.84-0.89,2.87
		c0,1.14,0.25,2.09,0.56,2.78c0.36,0.7,1,1.28,1.78,1.73c0.45,0.25,0.7,0.36,0.89,0.42H325h2.09v-1.89l-0.7-0.17l-0.53-0.25
		c-1-0.58-1.45-1.45-1.45-2.59l0.17-1.2c0.17-0.53,0.36-0.92,0.56-1.11l0.58-0.45l0.67-0.33l1.11,0.53c0.33,0.28,0.7,0.67,0.95,1.06
		c0.78,1.14,1.17,2.42,1.17,3.87c0,1.86-0.5,3.42-1.48,4.62c-0.97,1.22-2.23,1.84-3.65,1.84l-1.36-0.33
		c-0.58-0.28-0.95-0.45-1.22-0.67L320.47,547.65z"/>
	<path class="st1" d="M354.87,536.62v25.94H351v-6.99c-0.53,0.33-1.06,0.58-1.7,0.84l-1.78,0.19l-1.64-0.08
		c-2.25-0.03-4.06-0.89-5.51-2.59c-1.56-1.89-2.39-4.37-2.48-7.4l1.67-0.03l0.33,0.19l0.42,0.11l0.86-0.28l0.81-0.67
		c0.67-0.78,1-1.98,1.03-3.62c0.03-1-0.33-2.25-1.03-3.79l-1.03-1.78l-5.9-0.03v-2.23h22.71v2.23h-2.89V536.62z M351,536.62h-5.68
		l0.45,1.11l0.36,0.81l0.7,2.09l0.17,1.7c0,2.39-0.78,4.29-2.42,5.59l-1.03,0.53l-1.36,0.5l0.08,0.53l0.14,0.42l0.17,0.45l0.11,0.33
		c0.78,2.06,2,3.34,3.73,3.87c0.31,0,0.72-0.11,1.28-0.42l1.11-0.86c0.22-0.19,0.45-0.42,0.64-0.7l0.58-0.7l0.95-1.7v-13.56H351z"/>
	<path class="st1" d="M354.96,562.71h-4.12v-6.88c-0.5,0.28-0.95,0.5-1.48,0.7l-1.81,0.25l-1.64-0.08
		c-2.31-0.03-4.15-0.95-5.62-2.62c-1.53-1.95-2.42-4.48-2.42-7.57v-0.19l1.81-0.06l0.33,0.25l0.36,0.17l0.78-0.33l0.81-0.64
		c0.61-0.7,0.95-1.86,0.95-3.45c0.06-1-0.28-2.23-1-3.67l-0.97-1.7l-5.93-0.03v-2.64h23.02v2.64h-3.06V562.71z M351.09,562.34h3.59
		V536.4h3.01v-1.86H335.3v1.86l5.82,0.08l1.11,1.81c0.7,1.56,1.06,2.87,1.03,3.9c-0.03,1.7-0.42,2.95-1.11,3.79l-0.86,0.67l-1,0.33
		l-0.33-0.14l-0.33-0.19h-1.5c0.08,2.92,0.89,5.32,2.42,7.07c1.39,1.64,3.17,2.51,5.37,2.59l1.64,0.08l1.78-0.19
		c0.58-0.25,1.06-0.5,1.61-0.84l0.17-0.11v7.1H351.09z M346.44,554.77c-1.81-0.58-3.03-1.89-3.87-3.98l-0.17-0.33l-0.08-0.45
		l-0.11-0.42l-0.19-0.75l1.5-0.58l1.03-0.53c1.53-1.22,2.31-3.09,2.31-5.4l-0.17-1.64l-0.67-2.09l-0.33-0.78l-0.61-1.39h6.01v13.83
		l-0.89,1.78l-0.58,0.75c-0.25,0.28-0.45,0.53-0.7,0.75l-1.14,0.78C347.16,554.61,346.77,554.77,346.44,554.77z M342.32,549.09
		l0.08,0.33l0.19,0.42l0.08,0.45l0.14,0.33c0.75,1.98,1.98,3.2,3.65,3.73c0.19,0,0.61-0.11,1.2-0.42l1.06-0.78
		c0.25-0.19,0.47-0.42,0.67-0.7l0.53-0.7l0.89-1.61v-13.33h-5.26l0.36,0.78l0.36,0.84l0.61,2.17l0.19,1.73
		c0.03,2.48-0.78,4.37-2.48,5.73l-1.09,0.58L342.32,549.09z"/>
	<path class="st1" d="M390.75,534.4l-1.03-1.2l-1.03-1.31c-0.17-0.25-0.47-0.61-0.97-1.2c-0.17-0.17-0.36-0.42-0.7-0.75
		c-0.33-0.33-0.58-0.58-0.75-0.67l-2.45-2.23c-1.48-1.28-3.17-2.14-4.98-2.56c-0.5,0.08-0.86,0.28-1.2,0.58
		c-0.81,0.45-1.48,1.39-2,2.95c-0.22,1.06-0.36,1.89-0.28,2.56v1.09l0.19,1.28l0.28,1.03l0.11,0.45l3.62-0.03v2.23h-3.54v25.89
		h-3.87v-25.89h-3.62v-2.23h3.79l-0.17-0.5l-0.28-1.36l-0.19-1.53l-0.08-0.86c-0.03-0.97,0.08-2,0.42-3.09c1-3.2,3.03-4.87,6.1-4.98
		l1.64-0.03c0.92-0.03,1.98,0.25,3.34,0.86c2.48,1.14,4.7,2.84,6.71,5.01l3.01,3.28l1.2,1.61l1.28,1.59l-1.7-0.03h-2.84V534.4z"/>
	<path class="st1" d="M376.19,562.71h-4.12v-25.89h-3.7v-2.64h3.7l-0.08-0.25l-0.25-1.36l-0.25-1.48l-0.08-0.92
		c-0.06-1.03,0.14-2.09,0.45-3.2c1.03-3.26,3.15-4.98,6.21-5.07l1.64-0.03c0.92-0.08,2.06,0.25,3.37,0.86
		c2.42,1.11,4.73,2.84,6.76,5.07l3.03,3.26l1.2,1.64l1.48,1.92l-2-0.08h-2.84l-1.06-1.22l-1.03-1.31c-0.14-0.25-0.45-0.61-1-1.2
		c-0.14-0.11-0.36-0.36-0.75-0.67c-0.28-0.36-0.53-0.61-0.7-0.75l-2.48-2.2c-1.48-1.22-3.09-2.09-4.9-2.56
		c-0.5,0.11-0.84,0.33-1.11,0.58c-0.78,0.45-1.48,1.39-1.98,2.87c-0.25,0.97-0.33,1.84-0.25,2.48v1.09l0.25,1.22l0.17,1.03
		l0.11,0.28l3.7-0.06v2.64h-3.54v25.94H376.19z M372.33,562.34h3.54V536.4h3.54v-1.84l-3.54,0.08l-0.19-0.58l-0.25-1.06l-0.19-1.22
		l-0.06-1.14c-0.08-0.64,0.08-1.53,0.33-2.59c0.53-1.61,1.28-2.64,2.06-3.09c0.33-0.25,0.75-0.5,1.28-0.61
		c1.89,0.45,3.54,1.31,5.07,2.59l2.48,2.23c0.17,0.14,0.42,0.33,0.75,0.7c0.28,0.33,0.53,0.53,0.7,0.7c0.53,0.58,0.84,1.03,1.03,1.2
		l0.97,1.31l1.03,1.14h2.73l1.25,0.06l-0.95-1.22l-1.22-1.64l-2.95-3.26c-2-2.23-4.23-3.9-6.71-4.98c-1.28-0.61-2.37-0.92-3.26-0.86
		l-1.64,0.03c-3.01,0.11-4.93,1.75-5.93,4.87c-0.33,0.97-0.5,2.06-0.42,3.01l0.06,0.86l0.5,2.84l0.25,0.7h-3.87v1.84h3.65v25.91
		H372.33z"/>
	<path class="st1" d="M397.96,536.62v25.89h-3.76v-13.7h-5.96v3.79l0.06,0.61c0,0-0.06,0.17-0.11,0.33l-0.33,0.33l-0.5,0.08
		l-1.7-0.06c-0.28,0-0.61-0.19-1.06-0.53c0-0.06-0.19-0.33-0.61-0.84c-0.39-0.53-0.89-1.22-1.48-2.17
		c-0.61-0.95-0.89-1.81-1.03-2.56l0.11-0.67c0.03-0.17,0.19-0.33,0.45-0.5l0.19-0.11l0.47-0.11l1.73-0.08v-9.71h-5.26v-2.23h22.02
		v2.23H397.96z M394.2,536.62h-5.96v9.71h5.96V536.62z"/>
	<path class="st1" d="M398.16,562.71h-4.12v-13.75h-5.68v3.62l0.06,0.58c0,0.08,0,0.11-0.08,0.45v0.03l-0.45,0.36l-0.53,0.11
		l-1.7-0.03c-0.33,0-0.67-0.19-1.14-0.58c0-0.06-0.25-0.36-0.61-0.86c-0.42-0.5-0.92-1.22-1.53-2.17c-0.64-0.97-0.95-1.84-1.03-2.64
		v-0.03l0.17-0.78c0.08-0.17,0.19-0.33,0.45-0.53l0.25-0.11l0.45-0.17l1.64-0.08v-9.3h-5.23v-2.64h22.24v2.64h-3.12v25.89H398.16z
		 M394.34,562.34h3.51v-25.91h3.12v-1.84h-21.68v1.84h5.32v10.08l-1.89,0.08l-0.42,0.11l-0.19,0.14c-0.17,0.11-0.31,0.28-0.39,0.42
		l-0.11,0.61c0.08,0.7,0.42,1.48,1.03,2.39c0.61,0.92,1.11,1.64,1.48,2.17c0.42,0.5,0.61,0.78,0.61,0.78c0.36,0.33,0.7,0.5,0.95,0.5
		l1.7,0.06l0.45-0.08l0.28-0.19c0.03-0.25,0.08-0.25,0.08-0.28l-0.08-0.58v-4.01h6.26L394.34,562.34L394.34,562.34z M394.34,546.51
		h-6.26v-10.08h6.26V546.51z M388.36,546.14h5.68v-9.3h-5.68V546.14z"/>
	<path class="st1" d="M414.47,536.62c0.42,0.5,0.7,0.97,0.86,1.45l0.67,1.64l0.36,1.7l0.17,1.73c0,2.14-0.53,4.2-1.64,6.21
		c-1.31,2.42-3.34,3.7-5.93,3.87l6.9,7.54l-1.48,1.89h-1.64l-9.99-11.08l1.48-1.89h1.7l1.28,1.39l0.5-0.06c0,0,0.28-0.03,0.45-0.11
		c0.5-0.11,1-0.33,1.31-0.7l1.28-1.14l1.03-1.36l0.7-1.48l0.06-0.19l0.08-0.19v-0.28c0-0.11,0.06-0.25,0.08-0.33l-1.06,0.61
		l-1.03,0.11l-1.64-0.06c-2.17-0.03-3.67-1.28-4.45-3.59c-0.25-0.75-0.42-1.45-0.42-2.14c0-1.2,0.42-2.34,1.2-3.51l-4.79-0.03v-2.23
		h17.01v2.23L414.47,536.62L414.47,536.62z M412.13,539.52c-0.31-1.31-1.03-2.23-2.34-2.84l-0.58,0.33
		c-0.19,0.11-0.42,0.33-0.5,0.53c-0.25,0.28-0.42,0.61-0.53,1.11l-0.17,1.22c0,1.14,0.19,2.06,0.75,2.64l0.58,0.67l0.61,0.33
		l0.89-0.5l0.86-0.86l0.33-0.61l0.45-0.86L412.13,539.52z"/>
	<path class="st1" d="M414.47,562.84h-1.81v-0.03l-10.13-11.25l1.59-2.09h1.78l1.31,1.39l0.42-0.03c0.17,0,0.33-0.03,0.45-0.08
		c0.5-0.14,0.95-0.33,1.31-0.67l1.28-1.14l1-1.36l0.64-1.45v-0.19l0.08-0.19v-0.19l-0.84,0.45l-1.03,0.17l-1.64-0.06
		c-2.25-0.08-3.79-1.31-4.57-3.7c-0.28-0.75-0.42-1.53-0.42-2.23c0-1.11,0.33-2.23,1-3.28l-4.59-0.08v-2.59h17.29v2.64h-2.78
		c0.28,0.36,0.5,0.78,0.67,1.2l0.7,1.56l0.36,1.73l0.17,1.75c0,2.23-0.53,4.31-1.7,6.37c-1.31,2.34-3.26,3.62-5.68,3.9l6.76,7.32
		L414.47,562.84z M412.83,562.43h1.56l1.22-1.7l-7.1-7.71l0.42-0.03c2.56-0.14,4.54-1.39,5.79-3.79c1.11-1.92,1.64-3.98,1.64-6.1
		l-0.17-1.73l-0.36-1.7l-0.64-1.53c-0.17-0.45-0.45-0.95-0.84-1.45l-0.25-0.33h3.17v-1.86h-16.7v1.86l4.98,0.08l-0.25,0.28
		c-0.72,1.11-1.11,2.23-1.11,3.37c0,0.67,0.17,1.36,0.42,2.06c0.72,2.25,2.14,3.42,4.29,3.48l1.64,0.06l1-0.17l1.73-0.97l-0.5,0.7
		c-0.03,0.03-0.03,0.14-0.03,0.19l-0.08,0.36l-0.03,0.19l-0.06,0.25l-0.7,1.48l-1,1.36l-1.36,1.2c-0.36,0.36-0.86,0.61-1.36,0.7
		c-0.17,0.08-0.33,0.11-0.33,0.11l-0.75,0.08l-1.28-1.45h-1.56l-1.31,1.73L412.83,562.43z M409.93,543.69l-0.75-0.42l-0.56-0.67
		c-0.5-0.67-0.81-1.53-0.81-2.76l0.17-1.34c0.19-0.5,0.36-0.86,0.58-1.11c0.11-0.28,0.33-0.5,0.58-0.61l0.58-0.36l0.08,0.03
		c1.36,0.61,2.14,1.56,2.42,2.95l0.42,1.22l-0.92,1.56l-0.86,0.95L409.93,543.69z M409.37,543l0.56,0.28l0.86-0.45l0.78-0.81
		l0.31-0.61l0.45-0.75l-0.36-1.06c-0.25-1.25-0.95-2.14-2.17-2.73l-0.5,0.28c-0.19,0.11-0.36,0.28-0.45,0.5l-0.06,0.06
		c-0.19,0.25-0.33,0.58-0.5,0.97l-0.11,1.28c0,0.97,0.22,1.84,0.67,2.42L409.37,543z"/>
	<polygon class="st1" points="425.07,536.62 425.07,562.57 421.23,562.57 421.23,536.62 417.14,536.62 417.14,534.4 429.08,534.4 
		429.08,536.62 	"/>
	<path class="st1" d="M425.21,562.71h-4.15v-25.89h-4.09v-2.64h12.28v2.64h-4.04V562.71z M421.37,562.34h3.54V536.4h4.06v-1.84
		h-11.69v1.84h4.06v25.94H421.37z"/>
	<path class="st1" d="M447.48,536.62v25.94h-3.87v-16.23h-6.12v4.7l-0.06,0.75c0,0.14,0,0.19-0.08,0.42l-0.33,0.36l-0.45,0.08
		l-1.7-0.03c-0.17,0-0.45-0.19-0.89-0.67l-1.48-2.09c-0.45-0.58-0.92-1.36-1.36-2.42c-0.31-0.61-0.47-1.11-0.53-1.48
		c0-0.67,0.25-1.2,0.7-1.56l0.33-0.17l0.53-0.03l11.44-0.03v-7.49h-15.48v-2.23h22.77v2.23h-3.42V536.62z"/>
	<path class="st1" d="M447.59,562.71h-4.15v-16.2h-5.82v4.54l-0.08,0.78c0,0.08,0,0.19-0.08,0.45l-0.06,0.03l-0.33,0.42l-0.53,0.11
		l-1.7-0.03c0,0-0.31-0.08-1.03-0.7l-1.48-2.14c-0.42-0.58-0.86-1.36-1.36-2.42c-0.33-0.67-0.5-1.14-0.58-1.53
		c0-0.84,0.28-1.39,0.72-1.81l0.42-0.17l0.58-0.08l11.27-0.03v-7.07h-15.42v-2.64h23.05v2.64h-3.45v25.86H447.59z M443.72,562.34
		h3.56V536.4h3.42v-1.84h-22.44v1.84h15.42v7.91l-11.58,0.03h-0.53l-0.28,0.19c-0.36,0.28-0.61,0.75-0.61,1.36
		c0.08,0.33,0.25,0.78,0.53,1.39c0.45,1.06,0.89,1.81,1.28,2.39l1.56,2.12c0.53,0.53,0.72,0.61,0.72,0.61l1.73,0.03l0.42-0.11
		l0.19-0.28c0.08-0.17,0.08-0.25,0.08-0.25l0.06-0.78v-4.9h6.43v16.23H443.72z"/>
</g>
</svg>
