<svg width="60" height="44" viewBox="0 0 60 44" fill="none" xmlns="http://www.w3.org/2000/svg">
<g clip-path="url(#clip0_4605_18977)">
<path fill-rule="evenodd" clip-rule="evenodd" d="M29.8988 38.0339C26.4796 38.0554 23.0671 38.0849 19.6512 38.1031C17.2425 38.1155 14.8395 38.1155 12.4308 38.1246C12.2253 38.1314 12.0947 38.0237 11.9707 37.8819C11.0071 36.7865 10.1707 35.6059 9.47165 34.312C8.5236 32.5441 7.91725 30.6628 7.61016 28.6748C7.40805 27.3707 7.38906 26.0609 7.48621 24.7579C7.65148 22.6396 8.2355 20.6357 9.14558 18.7317C9.87588 17.194 10.8273 15.806 11.9238 14.5177C13.4124 12.7781 15.1477 11.3515 17.084 10.1778C19.4747 8.73533 22.042 7.76575 24.7644 7.21008C27.1552 6.72358 29.5694 6.59771 31.9948 6.79389C35.6284 7.09327 39.0633 8.11389 42.2492 9.95327C44.0649 10.9977 45.6963 12.286 47.148 13.8237C48.6343 15.3954 49.8548 17.1509 50.7291 19.1456C51.2852 20.4146 51.6772 21.7369 51.9318 23.0977C52.2087 24.5719 52.2523 26.0552 52.1272 27.5419C51.8603 30.7399 50.7872 33.6441 48.9324 36.2387C48.5371 36.791 48.096 37.3093 47.6706 37.8354C47.6025 37.9148 47.4629 37.9738 47.3624 37.9806C45.3044 37.9999 43.2441 38.0089 41.1861 38.0123C37.4218 38.0191 33.6575 38.0123 29.8966 38.0123V38.0339H29.8988Z" fill="#C42126"/>
<path d="M0.373087 26.7334L3.91292 24.5459V24.53L0.437854 24.4325L0.456837 23.8859L4.73702 24.0027L4.71804 24.6377L1.22175 26.8128V26.8286L4.65662 26.9194L4.64099 27.466L0.363037 27.3492L0.373087 26.7334Z" fill="#010101"/>
<path d="M1.11011 20.4702L5.66611 19.8453L5.51648 20.4702L4.15191 20.6187L3.72646 22.4048L4.8677 23.185L4.7337 23.7622L0.966064 21.0882L1.11011 20.4702ZM3.64271 20.6856L1.53221 20.9102V20.9193L3.30436 22.1156L3.64271 20.6856Z" fill="#010101"/>
<path d="M1.93648 19.1162L1.50098 18.9303L2.80971 15.7198L3.25079 15.9058L2.70363 17.2451L6.21666 18.725L5.99891 19.2614L2.48923 17.7815L1.93648 19.1162Z" fill="#010101"/>
<path d="M3.56785 14.4259L7.29528 16.5601L7.015 17.0682L3.28198 14.9305L3.56785 14.4259Z" fill="#010101"/>
<path d="M5.21609 14.0823C5.05082 13.8487 4.93915 13.6026 4.87997 13.3315C4.82079 13.0662 4.8152 12.7883 4.87662 12.5048C4.92687 12.2236 5.05975 11.9458 5.26857 11.6679C5.47404 11.3935 5.70407 11.1916 5.95867 11.0624C6.20992 10.9331 6.47122 10.8605 6.73922 10.848C7.0128 10.839 7.28304 10.8798 7.54769 10.9773C7.81457 11.0748 8.06024 11.2177 8.29697 11.3935C8.527 11.5704 8.72577 11.7813 8.89104 12.0149C9.05295 12.252 9.16127 12.5037 9.2238 12.7691C9.28857 13.0344 9.29192 13.3123 9.23274 13.5901C9.17355 13.8713 9.03955 14.1492 8.83744 14.427C8.63197 14.7014 8.40194 14.9067 8.14734 15.0326C7.89609 15.1687 7.63144 15.2378 7.3612 15.2469C7.09432 15.256 6.82632 15.2185 6.56279 15.121C6.2959 15.0235 6.04689 14.884 5.80792 14.7048C5.57342 14.5234 5.37465 14.3181 5.21609 14.0823ZM6.70795 14.571C6.91007 14.6527 7.11219 14.7003 7.32324 14.7071C7.52535 14.7162 7.72747 14.6754 7.92624 14.5835C8.11942 14.4916 8.2925 14.3408 8.45442 14.1322C8.60964 13.9269 8.70344 13.7126 8.74029 13.4982C8.7682 13.2839 8.75927 13.0787 8.69339 12.8768C8.63755 12.6783 8.53817 12.4856 8.40417 12.3121C8.26459 12.1385 8.1183 11.9843 7.9508 11.8482C7.77325 11.719 7.59347 11.6112 7.388 11.5262C7.18589 11.4411 6.98377 11.3969 6.77607 11.3901C6.5706 11.381 6.36625 11.4218 6.17307 11.5103C5.97989 11.5988 5.8001 11.753 5.64489 11.9582C5.48967 12.1669 5.39364 12.3846 5.36237 12.599C5.32552 12.8133 5.34339 13.0185 5.40927 13.2181C5.4651 13.42 5.56114 13.606 5.69179 13.7829C5.82579 13.9564 5.98435 14.1106 6.15185 14.241C6.3227 14.3782 6.50584 14.486 6.70795 14.571Z" fill="#010101"/>
<path d="M7.94527 8.70022L11.9485 9.78207L11.9575 9.7764L9.62586 7.15908L10.0301 6.79053L12.8999 10.0191L12.4332 10.4455L8.47346 9.37496L8.46341 9.38517L10.7671 11.9764L10.3662 12.3393L7.49414 9.1164L7.94527 8.70022Z" fill="#010101"/>
<path d="M12.7157 4.92737L16.4365 7.66716L15.9083 8.01077L14.8173 7.16479L13.2908 8.16046L13.5856 9.52696L13.0943 9.84562L12.1775 5.27211L12.7157 4.92737ZM14.4075 6.85634L12.7258 5.54654L12.7168 5.55335L13.1836 7.65922L14.4075 6.85634Z" fill="#010101"/>
<path d="M15.4045 3.39648L17.0214 6.88814L19.0694 5.91288L19.2715 6.35174L16.7065 7.57308L14.8853 3.6403L15.4045 3.39648Z" fill="#010101"/>
<path d="M20.6517 1.3257L21.0995 3.13447L23.2814 2.5788L22.8392 0.764364L23.3864 0.624878L24.4316 4.8423L23.8777 4.98405L23.3987 3.05282L21.2111 3.61075L21.6958 5.53972L21.1397 5.67921L20.0945 1.46519L20.6517 1.3257Z" fill="#010101"/>
<path d="M27.6632 0.0692139L27.7224 0.555708L25.345 0.82107L25.5002 2.19664L27.7068 1.94488L27.766 2.43024L25.5561 2.68313L25.7113 4.17664L28.1077 3.9022L28.1613 4.38756L25.2021 4.7221L24.7297 0.40375L27.6632 0.0692139Z" fill="#010101"/>
<path d="M30.5822 0.0442607L32.1958 4.41591L31.5649 4.40684L31.1205 3.09024L29.3081 3.06869L28.8079 4.37282L28.2261 4.36375L29.9547 0.0419922L30.5822 0.0442607ZM30.9463 2.60488L30.2562 0.569313H30.2439L29.4946 2.58674L30.9463 2.60488Z" fill="#010101"/>
<path d="M33.5884 0.246145L33.1038 4.07573L35.3505 4.36944L35.2913 4.8514L32.4751 4.48625L33.0223 0.170166L33.5884 0.246145Z" fill="#010101"/>
<path d="M35.5437 0.975314L35.652 0.499023L38.9909 1.26902L38.8848 1.74531L37.4923 1.42325L36.6503 5.18933L36.0909 5.06346L36.9362 1.29737L35.5437 0.975314Z" fill="#010101"/>
<path d="M40.429 1.75555L39.7736 3.50081L41.8807 4.31163L42.534 2.56071L43.0655 2.76823L41.5546 6.83483L41.0198 6.63184L41.7166 4.76297L39.6061 3.95895L38.9126 5.82102L38.3755 5.61576L39.8919 1.55029L40.429 1.75555Z" fill="#010101"/>
<path d="M46.7114 4.72214L45.7979 8.51317L48.9458 6.26554L49.5902 6.71461L47.1748 10.3095L46.7337 9.9976L48.7381 7.01059L48.7292 7.00492L45.617 9.22647L45.2195 8.94637L46.1173 5.19956L46.1084 5.18936L44.1006 8.17637L43.6528 7.87018L46.0682 4.28101L46.7114 4.72214Z" fill="#010101"/>
<path d="M51.0598 8.09354L48.2 11.3266L47.7712 10.9411L50.6377 7.70911L51.0598 8.09354Z" fill="#010101"/>
<path d="M53.0272 11.0102C52.9993 10.7766 52.891 10.543 52.6978 10.3185C52.614 10.23 52.5325 10.145 52.4365 10.0758C52.3427 9.99984 52.2411 9.94994 52.1384 9.92159C52.0356 9.89324 51.9362 9.88984 51.8279 9.90911C51.7218 9.93406 51.6191 9.99417 51.5141 10.086C51.4181 10.1745 51.3623 10.2788 51.3522 10.3888C51.3399 10.5056 51.3611 10.6315 51.4114 10.7676C51.4516 10.8968 51.5231 11.0386 51.6046 11.1838C51.6917 11.3323 51.7754 11.4865 51.8536 11.6419C51.9407 11.7961 52.0155 11.9549 52.0836 12.1182C52.1517 12.2758 52.1986 12.4334 52.2176 12.5979C52.2299 12.7555 52.2176 12.9131 52.1618 13.0685C52.106 13.2227 52.0066 13.3713 51.8447 13.5108C51.6794 13.6684 51.4996 13.7568 51.3098 13.792C51.1166 13.8238 50.9279 13.8135 50.7537 13.7637C50.5638 13.7126 50.3963 13.6253 50.2311 13.5085C50.0602 13.3883 49.9139 13.2533 49.7799 13.1071C49.6214 12.9245 49.4974 12.7351 49.3913 12.5298C49.2975 12.328 49.2395 12.1227 49.2261 11.9175C49.2071 11.7122 49.2384 11.5069 49.3199 11.3119C49.398 11.11 49.5343 10.9241 49.7275 10.7472L50.0848 11.1577C49.9508 11.2779 49.8615 11.4106 49.8079 11.5489C49.752 11.6941 49.7397 11.8335 49.752 11.9787C49.761 12.1171 49.8079 12.2633 49.8827 12.4051C49.9508 12.5503 50.0379 12.6795 50.144 12.8031C50.2311 12.9007 50.3238 12.9891 50.4265 13.0742C50.5292 13.1535 50.6442 13.2125 50.7526 13.2567C50.8676 13.2942 50.9759 13.3044 51.0976 13.2851C51.2126 13.2726 51.331 13.2057 51.446 13.0991C51.561 13.0016 51.6202 12.8905 51.6392 12.768C51.6582 12.6478 51.6459 12.5219 51.599 12.3801C51.5588 12.2418 51.4929 12.0989 51.4092 11.9504C51.3254 11.8018 51.2439 11.651 51.1601 11.499C51.073 11.3448 50.9949 11.186 50.9212 11.0318C50.8531 10.8742 50.7995 10.7165 50.7782 10.5612C50.7503 10.4069 50.7626 10.2584 50.8062 10.1098C50.8531 9.96468 50.9491 9.8252 51.0954 9.69365C51.2573 9.54509 51.4248 9.45664 51.6023 9.41241C51.7765 9.37159 51.9507 9.37499 52.1249 9.41241C52.3025 9.46004 52.4666 9.53602 52.6252 9.63695C52.7871 9.74468 52.9334 9.87056 53.063 10.0191C53.2092 10.187 53.3242 10.3605 53.4113 10.5374C53.4984 10.7143 53.5453 10.8968 53.5576 11.0806C53.5666 11.2631 53.5364 11.4434 53.4638 11.6238C53.3924 11.8007 53.2684 11.9742 53.0998 12.1386L52.7358 11.7281C52.9557 11.4865 53.0495 11.2473 53.0272 11.0102Z" fill="#010101"/>
<path d="M55.5387 14.6119C55.5577 14.3748 55.4829 14.1254 55.3277 13.8702C55.2685 13.7693 55.1937 13.6683 55.1133 13.5856C55.0351 13.4971 54.9424 13.4313 54.8486 13.3837C54.7582 13.3361 54.6555 13.3145 54.5404 13.3145C54.4344 13.3179 54.3193 13.3554 54.2021 13.4347C54.0938 13.5039 54.019 13.5924 53.9966 13.7058C53.962 13.8158 53.962 13.9428 53.9877 14.0777C54.0156 14.2229 54.0525 14.3714 54.1116 14.5291C54.1675 14.6867 54.2267 14.8511 54.2825 15.0178C54.3327 15.1857 54.3819 15.3592 54.4187 15.5259C54.4589 15.6994 54.4779 15.8604 54.469 16.0248C54.4567 16.1825 54.4098 16.3378 54.335 16.4796C54.2568 16.6179 54.1329 16.7506 53.9497 16.8618C53.7565 16.982 53.5645 17.0443 53.3713 17.0443C53.1781 17.0443 52.9983 16.9967 52.8275 16.9185C52.66 16.8334 52.4981 16.7166 52.3551 16.5748C52.2122 16.4263 52.0882 16.2721 51.9889 16.0986C51.8582 15.8933 51.7678 15.6846 51.703 15.4646C51.6438 15.2503 51.6248 15.0382 51.6438 14.8364C51.6628 14.6311 51.722 14.4349 51.837 14.2524C51.952 14.0698 52.1173 13.911 52.3373 13.7727L52.6175 14.2331C52.4713 14.3306 52.3507 14.444 52.2814 14.5744C52.2066 14.7037 52.1631 14.8398 52.1541 14.9849C52.1385 15.1233 52.1575 15.2753 52.21 15.4295C52.2502 15.578 52.3183 15.7289 52.3998 15.8649C52.4746 15.9749 52.5461 16.0827 52.6332 16.1802C52.7236 16.2777 52.823 16.3571 52.9224 16.4172C53.0285 16.4739 53.1401 16.5057 53.2585 16.5057C53.3769 16.5057 53.5075 16.4682 53.6348 16.3855C53.7655 16.3061 53.8459 16.2086 53.8838 16.0918C53.9185 15.9749 53.924 15.8457 53.9084 15.7039C53.8894 15.5588 53.8526 15.4102 53.7934 15.2458C53.7431 15.0881 53.6851 14.9203 53.6315 14.757C53.5723 14.5835 53.5165 14.4191 53.4796 14.2524C53.4327 14.0845 53.4115 13.9212 53.4115 13.7659C53.4182 13.6082 53.4483 13.4631 53.5176 13.327C53.5924 13.1887 53.7074 13.0719 53.8716 12.9607C54.0547 12.8439 54.2378 12.7838 54.4187 12.7747C54.6052 12.7657 54.7727 12.7963 54.9346 12.8723C55.0999 12.9414 55.2518 13.0458 55.3947 13.1819C55.5309 13.3111 55.656 13.4665 55.7587 13.6332C55.8737 13.8192 55.9608 14.012 56.0167 14.2013C56.0725 14.3873 56.0915 14.5801 56.0669 14.7627C56.0479 14.9453 55.9865 15.1131 55.8838 15.2775C55.7811 15.442 55.6348 15.5837 55.4394 15.7198L55.1535 15.2526C55.3902 15.0666 55.5209 14.8523 55.5387 14.6119Z" fill="#010101"/>
<path d="M57.2762 16.8063L53.369 18.5799L53.1367 18.0525L57.0462 16.2789L57.2762 16.8063Z" fill="#010101"/>
<path d="M56.5861 18.387C56.863 18.3961 57.1266 18.4562 57.3823 18.5696C57.6246 18.683 57.8423 18.8508 58.0288 19.0652C58.2187 19.2795 58.3549 19.5539 58.4487 19.8862C58.5391 20.2207 58.5548 20.5303 58.5079 20.8138C58.452 21.0951 58.3527 21.3502 58.1997 21.5748C58.0411 21.7993 57.8479 21.9887 57.6123 22.1497C57.3789 22.3039 57.1154 22.4241 56.8351 22.5035C56.5526 22.5829 56.269 22.6169 55.9831 22.601C55.7006 22.5976 55.4426 22.5319 55.1869 22.4185C54.9446 22.3085 54.7268 22.144 54.5404 21.9297C54.3572 21.712 54.2199 21.4341 54.1328 21.103C54.0367 20.7685 54.0178 20.4623 54.068 20.1776C54.1183 19.893 54.2199 19.6412 54.3762 19.4167C54.5281 19.1899 54.7246 18.9971 54.9602 18.8418C55.1936 18.6841 55.4516 18.5673 55.7374 18.4879C56.0177 18.4063 56.3036 18.3745 56.5861 18.387ZM55.2997 19.3033C55.1065 19.4133 54.9513 19.5494 54.8184 19.7138C54.6911 19.8783 54.6007 20.0642 54.5515 20.2786C54.5113 20.4872 54.5169 20.7208 54.5861 20.9726C54.6543 21.2277 54.7659 21.4307 54.9122 21.5884C55.0618 21.7426 55.2293 21.8594 55.4281 21.9354C55.6213 22.0045 55.829 22.0397 56.0434 22.0397C56.2578 22.0329 56.4755 22.008 56.681 21.9444C56.8831 21.8843 57.0852 21.8061 57.2684 21.6893C57.4582 21.5816 57.6168 21.4432 57.7474 21.2788C57.8814 21.1143 57.9685 20.9284 58.0143 20.7174C58.0612 20.5031 58.0512 20.2729 57.983 20.0166C57.9082 19.7637 57.8033 19.5585 57.657 19.4008C57.5107 19.2466 57.3398 19.1298 57.1444 19.0595C56.9512 18.9869 56.7435 18.9518 56.5291 18.9586C56.3147 18.9586 56.097 18.9869 55.8915 19.047C55.6816 19.1071 55.4862 19.1922 55.2997 19.3033Z" fill="#010101"/>
<path d="M59.1265 23.9687L55.7564 26.4079V26.4181L59.2225 26.2628L59.2504 26.8094L54.9702 26.9988L54.9423 26.3705L58.28 23.946V23.9335L54.8463 24.0877L54.8184 23.5423L59.0985 23.3495L59.1265 23.9687Z" fill="#010101"/>
<path fill-rule="evenodd" clip-rule="evenodd" d="M28.6091 13.0685C28.628 13.293 28.6403 13.5198 28.6593 13.741C28.6805 14.063 28.8246 14.139 29.097 13.9678C29.116 13.9553 29.3237 13.8317 29.3081 13.8385C29.3952 13.9837 29.2992 14.2456 29.3863 14.3942C29.6531 14.2297 29.8675 14.088 30.0886 13.9428L30.1288 13.9905C30.0049 14.1197 29.8832 14.2524 29.7559 14.3817C29.6811 14.4577 29.585 14.511 29.6476 14.672C29.7101 14.8262 29.8028 14.8455 29.9334 14.8262C29.9982 14.8194 30.0674 14.8262 30.1914 14.8262C30.0953 14.9238 30.0451 15.0088 29.9703 15.0508C29.8519 15.1165 29.8084 15.2084 29.8709 15.3161C29.9111 15.3921 29.9948 15.4647 30.0764 15.484C30.3533 15.5441 30.6291 15.5792 30.9027 15.6768C30.6414 15.696 30.3779 15.7085 30.1166 15.7278C30.0015 15.7369 29.8675 15.7062 29.8307 15.8922C29.7994 16.0464 29.7347 16.1916 29.9267 16.2835C29.958 16.2993 30.0015 16.3685 30.054 16.4286C29.8642 16.4411 29.69 16.4252 29.451 16.4411C29.6531 16.7439 29.8363 17.0058 30.0138 17.2678L29.9736 17.3052C29.8028 17.1691 29.6163 17.0523 29.4544 16.9072C29.3025 16.7688 29.1741 16.7529 29.0312 16.914C29.0524 17.0682 29.0781 17.227 29.106 17.3846L29.0691 17.3971C29.0066 17.3018 28.9452 17.2111 28.8737 17.126C28.8212 17.075 28.7375 16.9899 28.6962 17.0058C28.628 17.0376 28.5499 17.1136 28.5253 17.1918C28.4471 17.4288 28.3947 17.6783 28.3321 17.9244H28.264C28.2517 17.7225 28.245 17.5263 28.2171 17.3313C28.2048 17.2236 28.1959 17.0886 28.13 17.0285C28.0083 16.9185 27.8721 17.0002 27.766 17.0943C27.6599 17.1895 27.5549 17.2769 27.412 17.337C27.4399 17.261 27.4522 17.1725 27.4957 17.1034C27.6264 16.9015 27.5895 16.7529 27.3718 16.6452C27.1138 16.8414 26.8592 17.0432 26.5946 17.2417C26.5756 17.2292 26.5577 17.2133 26.5388 17.1941C26.7007 16.9979 26.847 16.787 27.0145 16.5976C27.1205 16.4808 27.1764 16.3798 27.0859 16.2279C26.9988 16.0827 26.8749 16.1326 26.7565 16.1519C26.6884 16.161 26.6136 16.1803 26.4863 16.2086C26.6136 16.0918 26.6973 16.0034 26.7945 15.9376C26.9251 15.8401 26.9218 15.7006 26.8726 15.5838C26.8514 15.5271 26.7297 15.4953 26.6426 15.476C26.3936 15.4386 26.1457 15.4193 25.8967 15.3876C25.8375 15.3683 25.8096 15.3502 25.8096 15.3275C26.0765 15.2991 26.4316 15.2708 26.6929 15.2299C26.7766 15.2175 26.886 15.1698 26.9262 15.1041C27.0011 14.9782 26.905 14.8954 26.7989 14.8296C26.7208 14.7786 26.6471 14.7128 26.5935 14.6153C26.7051 14.6437 26.8168 14.6754 26.9318 14.6845C26.9999 14.6845 27.1217 14.6686 27.1429 14.6187C27.1831 14.5586 27.1898 14.4327 27.1518 14.3658C26.9776 14.0914 26.7822 13.8226 26.5957 13.555C26.5767 13.5335 26.5745 13.504 26.5924 13.4473C26.7476 13.589 26.9095 13.7285 27.0714 13.8669C27.1674 13.9553 27.2512 14.0721 27.3606 14.1322C27.4477 14.1798 27.5784 14.1798 27.6744 14.1538C27.7113 14.1447 27.7269 13.9995 27.7269 13.9168C27.7269 13.8317 27.6956 13.7489 27.7146 13.6423C27.795 13.7217 27.8665 13.8249 27.9603 13.8725C28.0753 13.9292 28.2115 13.9576 28.3366 13.9519C28.3868 13.9428 28.4326 13.7977 28.4516 13.7092C28.4985 13.4949 28.5264 13.2794 28.5577 13.0651C28.5711 13.0617 28.5934 13.0617 28.6091 13.0685Z" fill="#EDDB13"/>
<path fill-rule="evenodd" clip-rule="evenodd" d="M39.3168 31.8445C39.4441 31.8445 39.6373 31.8479 39.8272 31.8445C40.6792 31.823 41.5178 31.7969 42.3732 31.7685C42.6624 31.7651 42.8142 31.6324 42.8645 31.3489C42.8857 31.2197 42.9114 31.0745 42.8835 30.9509C42.7283 30.4111 42.5697 29.8679 42.3866 29.3383C41.8338 27.7121 41.261 26.0939 40.6959 24.4745C40.4067 23.6535 40.1208 22.8358 39.8227 22.0284C39.72 21.7574 39.5458 21.5079 39.2387 21.5011C38.9215 21.4977 38.7786 21.7631 38.6826 22.0193C38.4715 22.5659 38.2661 23.1148 38.0796 23.6705C37.3861 25.7503 36.696 27.8369 36.0126 29.9201C35.8887 30.3022 35.7357 30.6844 35.6832 31.0813C35.605 31.6302 35.7792 31.9806 36.37 31.9466C37.337 31.8887 38.294 31.8785 39.3168 31.8445ZM19.9672 20.7867C19.9672 20.9511 19.946 21.0963 19.9672 21.238C20.0543 21.8027 19.9114 22.27 19.4703 22.6521C19.1811 22.905 19.0817 23.2271 19.1063 23.6365C19.1845 24.9372 19.228 26.2504 19.2805 27.5636C19.2995 27.9775 19.6568 28.3438 20.0767 28.3438C21.1956 28.3438 22.3111 28.3404 23.4278 28.3222C23.9281 28.3098 24.1525 28.0762 24.1525 27.5613C24.1648 26.1846 24.1648 24.809 24.1927 23.4357C24.1961 23.1046 24.09 22.8676 23.8823 22.634C23.5685 22.2904 23.1989 21.9581 23.2603 21.4058C23.2793 21.2607 23.2603 21.1121 23.2692 20.9613C23.2849 20.7753 23.21 20.6993 23.0202 20.7061C22.0811 20.7277 21.1364 20.7436 20.195 20.7628C20.1325 20.7617 20.0543 20.7765 19.9672 20.7867ZM30.8 33.7032V33.6555C31.5091 33.6555 32.2048 33.6589 32.9139 33.6487C33.5102 33.6453 33.5537 33.5693 33.3304 33.0148C32.6995 31.4465 32.0775 29.8838 31.4466 28.3177C31.3874 28.1635 31.3126 28.0047 31.2098 27.8754C31.0446 27.6611 30.8279 27.6792 30.6716 27.9038C30.6314 27.9548 30.6035 28.0115 30.5722 28.0716C30.1646 28.9301 29.7548 29.7885 29.3439 30.6538C28.9709 31.4487 28.5857 32.2414 28.225 33.0398C28.0452 33.4412 28.244 33.7032 28.6661 33.7032C29.383 33.6975 30.0976 33.7032 30.8 33.7032ZM19.7071 17.5037C19.7193 18.226 19.9092 18.8101 20.319 19.3249C21.0214 20.1924 22.2464 20.2627 23.0258 19.4791C24.1011 18.403 24.052 16.5817 22.9264 15.5679C22.3424 15.0406 21.4502 14.9748 20.807 15.4137C20.0488 15.9251 19.7372 16.677 19.7071 17.5037ZM39.1951 21.1121C39.4341 21.052 39.6865 21.0271 39.9064 20.9295C41.2308 20.324 41.6373 18.5311 40.7305 17.3438C40.0561 16.4626 38.9182 16.2835 38.1008 16.9333C37.3202 17.5456 37.0165 18.6127 37.3359 19.5846C37.6474 20.4839 38.3654 21.0577 39.1951 21.1121ZM28.3199 24.4042C28.2295 24.2182 28.1893 23.9937 28.0653 23.8451C27.1016 22.7247 26.1134 21.6134 25.1374 20.502C24.8672 20.189 24.5277 20.1516 24.1547 20.2174C23.8845 20.265 23.7315 20.4419 23.6578 20.6937C23.5216 21.2017 23.621 21.6633 23.9627 22.0511C24.8582 23.0672 25.7717 24.0708 26.6829 25.0812C26.9877 25.4157 27.373 25.5257 27.718 25.384C28.0273 25.2592 28.2641 24.8487 28.3199 24.4042ZM18.9421 20.4204C18.6686 20.4578 18.3548 20.5088 18.1616 20.8218C18.0868 20.9295 17.9963 21.0203 17.9126 21.1246C17.0885 22.1384 16.2688 23.1545 15.4447 24.1706C15.1466 24.5369 15.122 25.02 15.3643 25.418C15.5754 25.7525 15.8713 25.8943 16.2097 25.7525C16.4241 25.6641 16.6452 25.5155 16.8037 25.3386C17.5899 24.4416 18.3481 23.5265 19.1286 22.6362C19.4513 22.2666 19.735 21.8912 19.7528 21.3673C19.7752 20.815 19.467 20.4204 18.9421 20.4204ZM19.2838 32.5351V35.2534C19.2838 35.6832 19.5697 36.0143 20.0141 36.0642C20.3313 36.1016 20.8003 35.919 20.884 35.4609C20.9309 35.1354 20.9242 34.8077 20.9242 34.4766V29.9915C20.9242 29.5027 20.7623 29.2782 20.3212 29.1365C19.793 28.9686 19.2771 29.3451 19.2827 29.9008L19.2838 32.5351ZM24.1547 32.551C24.1547 31.6449 24.148 30.7388 24.1614 29.8305C24.1648 29.5118 24.0029 29.3258 23.7483 29.1988C23.5093 29.0888 23.2569 29.073 23.009 29.1614C22.7109 29.2782 22.5523 29.4925 22.5523 29.8146C22.559 31.6585 22.559 33.4979 22.5646 35.335C22.5646 35.4609 22.6015 35.606 22.6707 35.7104C22.8639 36.0166 23.267 36.1334 23.6344 36.0166C23.9727 35.9088 24.1536 35.6378 24.1536 35.2466V32.551H24.1547ZM37.5291 21.3197C37.2678 21.2788 37.0913 21.458 36.9294 21.6701C36.6089 22.0772 36.2918 22.4809 35.9747 22.8914C35.4241 23.6115 34.868 24.3248 34.3298 25.054C34.1712 25.2626 34.0529 25.5144 34.1154 25.7922C34.2148 26.2311 35.0568 26.5146 35.4052 26.2311C35.4331 26.2096 35.4554 26.1801 35.48 26.1517C36.4213 25.1005 37.2767 23.9857 38.0852 22.8279C38.2873 22.5342 38.3431 22.2246 38.256 21.8901C38.1667 21.5158 37.9177 21.3163 37.5291 21.3197ZM40.9271 21.4047C40.6725 21.3956 40.4458 21.5431 40.352 21.7835C40.1901 22.2065 40.2459 22.6011 40.5541 22.9549C40.831 23.2702 41.089 23.6081 41.3626 23.9268C42.0091 24.665 42.6624 25.3919 43.3212 26.1211C43.386 26.1869 43.4865 26.2594 43.5725 26.2663C43.9086 26.2697 44.1788 26.1404 44.353 25.8365C44.5183 25.5461 44.5183 25.2615 44.3251 25.0154C43.4708 23.9358 42.6088 22.8631 41.7579 21.7891C41.5457 21.5215 41.2498 21.4308 40.9271 21.4047ZM41.558 34.294V33.1702C41.5491 32.5793 41.0667 32.1507 40.5474 32.2732C40.1834 32.3525 39.9254 32.7245 39.9254 33.1985C39.9187 33.9277 39.9254 34.6603 39.9288 35.3894C39.9355 35.8476 40.3207 36.198 40.7987 36.1878C41.2587 36.1787 41.5669 35.8465 41.5569 35.3577V34.294H41.558ZM38.4715 34.3382C38.4715 33.9504 38.4715 33.558 38.4682 33.1702C38.4615 32.8073 38.2783 32.5487 37.9713 32.3775C37.7066 32.2323 37.452 32.2698 37.213 32.4342C36.9584 32.6111 36.849 32.8663 36.849 33.1724C36.8457 33.9368 36.8401 34.7034 36.8557 35.4643C36.8646 35.9156 37.241 36.2536 37.6921 36.2343C38.1711 36.2184 38.4693 35.9156 38.4726 35.4416L38.4715 34.3382ZM27.1228 25.9635C27.1474 26.1971 27.163 26.4023 27.2032 26.6042C27.44 27.8641 28.1546 28.8076 29.5092 28.9459C29.8352 28.9811 30.044 28.8382 30.0965 28.5354C30.1613 28.109 30.0686 27.9423 29.7113 27.8698C29.1451 27.753 28.7163 27.4309 28.4528 26.916C28.2909 26.6031 28.1826 26.2719 28.0296 25.9124C27.7571 25.9249 27.4489 25.9442 27.1228 25.9635ZM32.0406 26.2912C32.025 26.171 32.025 26.0383 31.9882 25.9215C31.8664 25.4951 31.6118 25.2082 31.183 25.0846C30.7978 24.9678 30.4896 25.113 30.2316 25.3692C29.7682 25.8557 29.7526 26.6632 30.1847 27.1814C30.57 27.6396 31.2355 27.6679 31.652 27.2472C31.9133 26.9864 32.0217 26.6609 32.0406 26.2912ZM32.3667 28.9584C32.7799 28.9108 33.2031 28.8223 33.5694 28.5638C34.2126 28.109 34.4337 27.4366 34.4984 26.6824C34.4984 26.645 34.408 26.5566 34.3555 26.5532C34.1902 26.5282 34.0194 26.5464 33.8552 26.5282C33.6531 26.4999 33.5414 26.5758 33.47 26.7709C33.355 27.1145 33.1718 27.4207 32.8547 27.5976C32.59 27.7427 32.3019 27.8471 32.0217 27.9389C31.8475 27.999 31.7447 28.0875 31.7135 28.2667C31.6554 28.6398 31.9413 28.9561 32.3667 28.9584ZM32.1557 35.0198H32.149C32.149 34.7578 32.1456 34.4924 32.1557 34.2271C32.1557 34.0887 32.0909 34.0025 31.9569 33.9844C31.8329 33.9651 31.7146 33.956 31.5929 33.9628C31.4309 33.9821 31.3416 34.0797 31.3349 34.2441C31.3349 34.7771 31.326 35.3044 31.3472 35.8351C31.3505 35.9304 31.4656 36.046 31.5582 36.0903C31.6453 36.1311 31.7693 36.0993 31.8754 36.0993C32.0808 36.1027 32.1557 35.9916 32.1523 35.7966C32.149 35.5369 32.1557 35.2749 32.1557 35.0198ZM30.5108 35.0288C30.5108 34.7862 30.4985 34.5423 30.5175 34.2997C30.5365 34.0853 30.4393 33.9867 30.2406 33.9651C30.1323 33.9617 30.0016 33.9368 29.9045 33.981C29.8207 34.0161 29.7057 34.1296 29.7023 34.2146C29.6834 34.7544 29.6934 35.2976 29.7023 35.8374C29.7057 36.0392 29.8542 36.122 30.1155 36.122C30.3857 36.1186 30.5008 36.037 30.5075 35.8226C30.5142 35.5562 30.5108 35.2942 30.5108 35.0288Z" fill="white"/>
<path d="M14.4509 40.1012V40.9121C14.4509 41.089 14.395 41.2375 14.3046 41.3509C14.1985 41.4677 14.0812 41.5278 13.9405 41.5244L13.7608 41.5154H13.6737C13.6335 41.5154 13.6055 41.5063 13.5866 41.487L13.773 41.4802L14.1058 42.1209L14.2331 42.3421L14.4788 42.6925L14.5849 42.8286L14.4107 43.0429H14.2208C14.1739 43.0145 14.0868 42.8977 13.9629 42.7083C13.8166 42.4815 13.6737 42.2128 13.5117 41.91L13.3688 41.6254L13.2326 41.326L13.1388 41.1082L13.0427 40.8837L13.2326 40.7011H13.4224L13.6122 41.1309C13.6491 41.2069 13.7027 41.2511 13.7864 41.2795L13.8702 41.2421C13.9662 41.1944 14.0165 41.0776 14.0165 40.8826V40.1024H12.739V39.8495H14.8216V40.1024H14.4509V40.1012Z" fill="#010101"/>
<path d="M17.1766 42.138L16.9935 42.1346C16.8784 42.1312 16.7858 42.1153 16.7322 42.0938C16.6082 42.0337 16.5021 41.9361 16.4217 41.8001C16.3436 41.664 16.2978 41.5098 16.2978 41.3397V40.1081H15.9248V39.8552H17.1989V40.1081H16.7701L17.6154 41.2852V41.9067C17.5027 42.062 17.3564 42.1414 17.1766 42.138ZM16.7288 40.6161V41.3385C16.7288 41.512 16.7757 41.6413 16.8561 41.7264L16.9521 41.8114L17.0582 41.8522L17.0951 41.8488L17.142 41.8273L17.1766 41.8182L17.2168 41.7967L17.3229 41.7048L17.4066 41.5789L16.7288 40.6161Z" fill="#010101"/>
<path d="M19.1933 40.1013V41.0572H18.367C18.3301 41.0572 18.2989 41.0606 18.2799 41.0697C18.1961 41.0697 18.118 41.1298 18.0565 41.2625C17.9884 41.3827 17.9505 41.5052 17.9505 41.622C17.9505 41.9066 18.0376 42.155 18.2118 42.3704C18.3268 42.5065 18.463 42.5882 18.616 42.6233L18.7589 42.5825C18.7991 42.5734 18.846 42.5507 18.8929 42.5133C18.9488 42.4816 18.9867 42.4249 19.0292 42.3591L19.1475 42.1504L19.3374 42.1414L19.5395 42.2956C19.4557 42.4634 19.3776 42.5802 19.3027 42.6426C19.2346 42.6993 19.1285 42.7628 18.9823 42.8479C18.9041 42.8762 18.827 42.8887 18.7489 42.8853L18.5624 42.8819C18.3949 42.8751 18.2642 42.8445 18.1738 42.7934C18.0588 42.7333 17.9471 42.6358 17.8354 42.5031C17.6244 42.2412 17.5183 41.944 17.5183 41.6061C17.5183 41.3793 17.5775 41.1899 17.6981 41.0312C17.8165 40.8667 17.9627 40.7941 18.1269 40.7941L18.7734 40.7873V40.1058H17.2012V39.8529H19.6724V40.1058H19.1933V40.1013Z" fill="#010101"/>
<path d="M19.0626 43.9241L18.578 43.1257L18.0465 43.9241H17.5808L18.3547 42.8127H18.7957L19.5171 43.9241H19.0626Z" fill="#010101"/>
<path d="M23.2747 40.1012V43.0429H22.8425V42.2502C22.7833 42.2876 22.7242 42.316 22.6527 42.3455L22.4595 42.367L22.2697 42.3579C22.0151 42.3545 21.8163 42.257 21.6577 42.0642C21.478 41.8499 21.3909 41.5687 21.3875 41.2251L21.5673 41.2216L21.6042 41.2432L21.6511 41.2557H21.6544L21.7504 41.2239L21.8342 41.1479C21.9179 41.0595 21.9559 40.9234 21.9559 40.7374C21.9559 40.624 21.9213 40.4823 21.8342 40.3076L21.7192 40.1058L21.0659 40.1024V39.8495H23.6019V40.1024H23.2725V40.1012H23.2747ZM22.8459 40.1012H22.2116L22.2675 40.2271L22.3043 40.319L22.3791 40.556L22.4003 40.7488C22.4003 41.0198 22.3132 41.2353 22.1301 41.3827L22.0151 41.4428L21.8599 41.4995L21.8722 41.5596L21.8911 41.6072L21.9034 41.6582L21.9224 41.6957C22.0062 41.9293 22.1457 42.0744 22.3356 42.1345C22.3668 42.1345 22.4137 42.1221 22.4718 42.0869L22.6025 41.9894C22.6304 41.9678 22.6527 41.9418 22.6806 41.91L22.7398 41.8306L22.8459 41.6378V40.1012Z" fill="#010101"/>
<path d="M14.4196 43.0599H14.2175C14.1672 43.0282 14.0812 42.9216 13.9506 42.7186C13.8076 42.4918 13.6614 42.223 13.4994 41.9168L13.3532 41.6356L13.2192 41.3362L13.1254 41.1117L13.026 40.869L13.2281 40.6671H13.4235L13.6223 41.1151C13.6591 41.1808 13.706 41.2285 13.7842 41.2511L13.8624 41.2137C13.9562 41.1729 13.9986 41.0652 13.9986 40.8792V40.1251H12.7178V39.8257H14.835V40.1251H14.4587V40.9143C14.4587 41.0969 14.4084 41.2455 14.3068 41.3725C14.213 41.4893 14.0924 41.546 13.9584 41.546L13.8222 41.5426L14.1237 42.1175L14.2543 42.3319L14.4877 42.6823L14.6061 42.8308L14.4196 43.0599ZM14.2264 43.018H14.4073L14.5625 42.8252L14.4721 42.7084L14.2297 42.3511L14.0957 42.1334L13.7875 41.5369H13.7663H13.6792C13.6323 41.5369 13.6011 41.5244 13.5832 41.4995L13.5553 41.4621L13.7853 41.4553L13.8065 41.4927L13.9617 41.4961C14.089 41.4961 14.2007 41.4394 14.2912 41.3317C14.3816 41.2183 14.4341 41.0765 14.4341 40.9053V40.0684H14.8004V39.8597H12.7524V40.0684H14.0332V40.8701C14.0332 41.0754 13.9774 41.2012 13.8713 41.2489L13.7842 41.2897L13.7775 41.2829C13.6904 41.2614 13.6312 41.2035 13.5944 41.1287L13.4112 40.7148H13.2437L13.0639 40.8826L13.1577 41.0912L13.2515 41.3124L13.3878 41.6118L13.5341 41.893C13.6803 42.1992 13.8322 42.468 13.9785 42.6914C14.0924 42.8796 14.1862 42.9896 14.2264 43.018Z" fill="#010101"/>
<path d="M15.5822 40.1012V43.044H15.15V40.1012H14.6956V39.8495H16.0322V40.1012H15.5822Z" fill="#010101"/>
<path d="M17.1924 42.1595H17.1801L16.9969 42.1561C16.8819 42.1527 16.7859 42.1346 16.7323 42.1085C16.605 42.0484 16.4989 41.9441 16.4096 41.8091C16.3258 41.6674 16.2856 41.5097 16.2856 41.3328V40.124H15.916V39.8246H17.2214V40.124H16.8082L17.6413 41.2671V41.9078L17.6346 41.9169C17.5117 42.0813 17.3721 42.1595 17.1924 42.1595ZM15.9395 40.0797H16.3124V41.3362C16.3124 41.5041 16.3526 41.6515 16.4274 41.7842C16.5112 41.9169 16.6173 42.011 16.7412 42.0688C16.7915 42.0904 16.8808 42.1062 16.9925 42.1096L17.1912 42.113C17.3565 42.113 17.4961 42.0371 17.6011 41.8953V41.2897L16.7278 40.0809H17.179V39.8722H15.9417V40.0809H15.9395V40.0797ZM17.0517 41.876L16.94 41.825L16.8495 41.7456C16.7557 41.6572 16.7133 41.5188 16.7133 41.3442V40.5583L17.4246 41.5721L17.3286 41.7173L17.2225 41.8125L17.1756 41.8341L17.1388 41.8465L17.1019 41.8658L17.0517 41.876ZM16.9556 41.7876L17.0584 41.8352L17.0952 41.8261L17.1321 41.8137L17.1756 41.7944L17.2069 41.7728L17.313 41.6878L17.3878 41.5778L16.7479 40.6785V41.351C16.7479 41.5086 16.7848 41.6356 16.863 41.7207L16.9556 41.7876Z" fill="#010101"/>
<path d="M18.7769 42.9012C18.7769 42.9012 18.758 42.9012 18.749 42.8978L18.5625 42.891C18.395 42.8842 18.2644 42.8593 18.1672 42.8026C18.0489 42.7425 17.9372 42.6449 17.8222 42.5123C17.6078 42.2469 17.5017 41.9373 17.5017 41.5937C17.5017 41.3692 17.5575 41.1741 17.6848 41.0097C17.8088 40.8452 17.9517 40.767 18.1226 40.767L18.7568 40.7636V40.1229H17.1846V39.8235H19.6904V40.1229H19.2113V41.0788H18.366C18.3292 41.0788 18.3012 41.0857 18.2823 41.0879L18.2789 41.0913C18.2007 41.0913 18.127 41.148 18.0679 41.2682C17.9964 41.3884 17.9651 41.5052 17.9651 41.6186C17.9618 41.8931 18.0489 42.1426 18.2231 42.3512C18.3347 42.4771 18.462 42.5565 18.615 42.5939L18.758 42.5565C18.7948 42.5474 18.8361 42.5247 18.8853 42.4873C18.9322 42.4555 18.9757 42.4023 19.0092 42.3331L19.1365 42.1187L19.3442 42.1097L19.5553 42.2832L19.5463 42.3025C19.4682 42.476 19.3844 42.5928 19.3074 42.6529C19.2392 42.7096 19.1365 42.7731 18.9846 42.8638C18.9199 42.8887 18.8484 42.9012 18.7769 42.9012ZM17.2203 40.0798H18.7926V40.8021L18.127 40.8056C17.9651 40.8056 17.8255 40.8849 17.7072 41.0426C17.5989 41.1911 17.5363 41.3839 17.5363 41.5914C17.5363 41.9294 17.6424 42.2231 17.8501 42.4748C17.9562 42.6041 18.0712 42.7016 18.1795 42.7651C18.2756 42.8162 18.4062 42.8445 18.5648 42.8502L18.7513 42.8593C18.8294 42.8627 18.9031 42.8502 18.9846 42.8218C19.1209 42.7425 19.2337 42.6733 19.2951 42.62C19.3632 42.5599 19.438 42.4522 19.5128 42.2945L19.3386 42.1584L19.1611 42.1618L19.0371 42.3637C18.9969 42.4329 18.9534 42.4896 18.9009 42.5281C18.854 42.5599 18.8049 42.5882 18.7647 42.6041L18.6217 42.6415H18.615C18.4632 42.6098 18.3202 42.5179 18.2052 42.3886C18.0221 42.1709 17.9283 41.9124 17.935 41.622C17.935 41.5018 17.9662 41.376 18.0344 41.2433C18.1025 41.1174 18.1896 41.0471 18.2733 41.0471C18.2979 41.0437 18.3258 41.038 18.3671 41.038H19.1756V40.0752H19.6546V39.8666H17.2181V40.0775H17.2203V40.0798Z" fill="#010101"/>
<path d="M19.5574 43.9467H19.0504L18.5781 43.1574L18.0532 43.9467H17.553L18.3492 42.7877H18.8003L19.5574 43.9467ZM19.075 43.9025H19.4826L18.7802 42.8319H18.357L17.6177 43.9025H18.041L18.5792 43.0916L19.075 43.9025Z" fill="#010101"/>
<path d="M20.7198 40.1012V43.0429H20.2966V40.1012H19.8868V39.8483H20.2386C20.2419 39.8449 20.2475 39.8359 20.2475 39.82C20.2475 39.7349 20.1168 39.4923 19.8745 39.1067C19.7785 38.9525 19.6791 38.8515 19.5663 38.7756L19.4982 38.8323L19.439 38.9207C19.42 38.94 19.4078 38.9865 19.3832 39.0568C19.3743 39.0885 19.3709 39.1328 19.362 39.1827C19.362 39.211 19.362 39.2518 19.3553 39.2904C19.3553 39.3471 19.362 39.3913 19.3709 39.439C19.3776 39.4798 19.3955 39.5467 19.4212 39.6374L19.4859 39.7916L19.5138 39.8517L19.3307 39.8483H19.0638L19.008 39.7508L18.9577 39.6181L18.9298 39.4889L18.9175 39.3437C18.9108 39.2677 18.9265 39.1702 18.9577 39.0409C19.0515 38.6996 19.219 38.5227 19.477 38.517L19.6568 38.5079C19.822 38.5079 19.9929 38.6247 20.176 38.8708C20.2508 38.9661 20.3123 39.067 20.3748 39.1838L20.5088 39.465L20.6741 39.8529L21.1151 39.8495V40.1024L20.7198 40.1012Z" fill="#010101"/>
<path d="M23.2905 43.0599H22.8271V42.2797C22.7769 42.3115 22.7277 42.3364 22.6652 42.3591L22.4631 42.3875L22.2733 42.3784C22.0153 42.375 21.8132 42.2707 21.649 42.0813C21.4693 41.8601 21.3755 41.5732 21.3755 41.2228L21.3688 41.2013L21.5742 41.1945L21.6144 41.2228L21.6513 41.2421L21.7417 41.2047L21.8288 41.1321C21.8969 41.0527 21.9371 40.9212 21.9371 40.7409C21.9438 40.6275 21.9003 40.488 21.8221 40.3247L21.7105 40.1319L21.0449 40.1285V39.8291H23.6188V40.1285H23.2827V43.0611H23.2905V43.0599ZM22.8584 43.018H23.2537V40.0763H23.592V39.8654H21.084V40.0763L21.7306 40.0854L21.8545 40.2906C21.9383 40.4676 21.9729 40.6161 21.9729 40.7329C21.9639 40.9257 21.9327 41.0675 21.8489 41.1627L21.7618 41.2387L21.6468 41.2761L21.5999 41.2602L21.5631 41.2387H21.3978C21.4067 41.5698 21.4972 41.842 21.668 42.0404C21.8232 42.2264 22.022 42.3251 22.271 42.3342L22.4609 42.3432L22.654 42.3217C22.7188 42.2933 22.778 42.265 22.8316 42.2264L22.8528 42.214V43.0191H22.8584V43.018ZM22.3336 42.1595C22.1381 42.0937 21.9952 41.9452 21.9014 41.7082L21.8891 41.6708L21.8735 41.6197L21.8545 41.5721L21.8333 41.487L22.0131 41.4213L22.1281 41.3612C22.2989 41.2228 22.386 41.0108 22.386 40.7488L22.3615 40.5628L22.2867 40.3258L22.2465 40.2374L22.1817 40.0797H22.8562V41.6481L22.7478 41.8499L22.6887 41.935C22.6674 41.9667 22.6384 41.9951 22.6049 42.02L22.481 42.1085C22.4173 42.1414 22.3671 42.1595 22.3336 42.1595ZM21.8791 41.5154L21.8858 41.5528L21.9048 41.6004L21.9237 41.6515L21.9394 41.6889C22.0175 41.9134 22.1538 42.0518 22.3436 42.1119C22.3648 42.1119 22.4117 42.0994 22.4776 42.0643L22.596 41.9758C22.6205 41.9543 22.6518 41.9282 22.6708 41.8964L22.7389 41.817L22.8294 41.6345V40.1228H22.242L22.2855 40.2113L22.3224 40.3065L22.4028 40.5526L22.424 40.7488C22.424 41.03 22.3336 41.2444 22.1437 41.3986L22.022 41.4644L21.8791 41.5154Z" fill="#010101"/>
<path d="M26.4395 40.1013V41.1333C26.4395 41.1525 26.4328 41.1741 26.4272 41.1934L26.3993 41.3317C26.3714 41.4485 26.291 41.5279 26.1481 41.5687C26.1269 41.5687 26.1012 41.5721 26.0978 41.5812L26.0476 41.5903L25.8108 41.5812C25.7919 41.5812 25.7706 41.5721 25.7461 41.5597L25.9359 41.5506L26.2251 42.1437L26.3468 42.3523L26.5679 42.6937L26.664 42.823L26.4808 43.0373H26.291C26.2352 43.0089 26.157 42.908 26.0699 42.722L25.5038 41.6266L25.3675 41.3419L25.2871 41.1491L25.2034 40.953L25.4055 40.7795H25.5886L25.7226 41.1265C25.7505 41.1866 25.7729 41.2365 25.7974 41.2625L25.9035 41.3317L25.9437 41.3102L25.9716 41.2625L26.0085 41.1741L26.0174 41.0448L26.0107 40.9496V40.1002H24.9231V39.8473H26.9409V40.1002H26.4395V40.1013ZM26.4708 41.4304L26.3055 41.1752H27.3094V41.4304H26.4708Z" fill="#010101"/>
<path d="M26.4763 43.06H26.2831C26.224 43.0316 26.1491 42.9307 26.0531 42.7379L25.4847 41.6425L25.3507 41.3578L25.2726 41.165L25.1855 40.9439L25.3965 40.7579H25.5953L25.7349 41.1174C25.7538 41.1741 25.7818 41.2149 25.7996 41.2433L25.8957 41.3091L25.9325 41.2898L25.9604 41.249L25.9816 41.1639L25.9906 41.038L25.9872 40.9496V40.1229H24.9041V39.8235H26.9587V40.1229H26.4585V41.1299V41.1514H27.3261V41.4508H26.4674L26.4116 41.3658C26.3769 41.4735 26.2932 41.5483 26.1536 41.5903C26.1223 41.5903 26.1067 41.5971 26.0978 41.6028L26.0475 41.6096L25.9727 41.6028L26.2307 42.1267L26.3546 42.341L26.5779 42.6824L26.6896 42.8275L26.4763 43.06ZM26.2865 43.018H26.4696L26.6349 42.8252L26.5511 42.7152L26.33 42.3739L26.2027 42.1562L25.9359 41.6096H25.8086C25.7873 41.6096 25.7617 41.5971 25.7337 41.5812L25.6779 41.5404L25.9359 41.537L25.9548 41.5744H26.0419L26.0821 41.5676C26.0944 41.5585 26.119 41.5551 26.1413 41.5551C26.2753 41.5177 26.3524 41.4383 26.3747 41.3374L26.263 41.1605H26.4093C26.4093 41.1571 26.4127 41.148 26.4127 41.139V40.0877H26.9096V39.8734H24.923V40.0877H26.0174V40.9552L26.0241 41.0505L26.0118 41.1866L25.9749 41.2841L25.9381 41.3317L25.8912 41.3635L25.7728 41.2841C25.7516 41.2558 25.7326 41.2081 25.7047 41.148L25.5707 40.8067H25.3999L25.21 40.9643L25.2938 41.1469L25.3775 41.3397L25.5048 41.6243L26.071 42.7164C26.1692 42.8921 26.2374 42.9897 26.2865 43.018ZM26.4763 41.4145H27.2881V41.2002H26.4428V41.2036L26.4149 41.3204L26.4763 41.4145ZM26.3423 41.1968L26.3926 41.2762L26.4049 41.1968H26.3423Z" fill="#010101"/>
<path d="M28.8011 40.1013V43.043H28.3633V42.2412L28.3566 42.2628L28.3444 42.2718L28.1981 42.341L28.0518 42.3535H27.8742C27.566 42.3444 27.3494 42.1709 27.2243 41.833C27.1875 41.7445 27.1685 41.6368 27.1652 41.5018C27.1652 41.2773 27.2243 41.072 27.3483 40.886C27.4633 40.7035 27.6152 40.6048 27.7927 40.6014L27.9792 40.5946C28.0161 40.5946 28.0417 40.6014 28.063 40.6105L28.1623 40.6298L28.2372 40.6513C28.2684 40.6513 28.293 40.6547 28.2997 40.6638L28.3522 40.9824H28.1623L28.1154 40.9507L28.0685 40.9223L27.9937 40.894L27.9156 40.8656C27.8374 40.8781 27.7726 40.9314 27.7134 41.0301C27.6453 41.1469 27.6141 41.283 27.6141 41.4463C27.6141 41.6288 27.6453 41.7774 27.7224 41.901C27.7536 41.9577 27.7816 41.9929 27.8184 42.0212L27.9424 42.0813L27.9926 42.0722L28.0395 42.0439L28.0898 42.0189L28.1367 41.9815C28.2048 41.9214 28.2517 41.884 28.264 41.8738C28.3008 41.833 28.3287 41.7785 28.36 41.7162V40.1002H26.8179V39.8473H29.2176V40.1002L28.8011 40.1013Z" fill="#010101"/>
<path d="M28.8113 43.0599H28.3512V42.2956L28.205 42.3557L28.0531 42.3773L27.8755 42.3704C27.5617 42.3614 27.3373 42.1845 27.2078 41.8375C27.1709 41.749 27.1575 41.6322 27.1519 41.4961C27.1486 41.2693 27.2111 41.0572 27.3317 40.8645C27.459 40.6717 27.612 40.5798 27.7951 40.5742L27.9816 40.5674C28.0185 40.5674 28.0464 40.5674 28.0687 40.5764L28.1648 40.5957L28.2429 40.6241C28.2708 40.6241 28.2932 40.6275 28.311 40.6331L28.3144 40.6365L28.3512 40.8543V40.1126H26.8069V39.8132H29.2412V40.1126H28.8091V43.0577H28.8113V43.0599ZM28.3814 43.018H28.7823V40.0763H29.2055V39.8654H26.8493V40.0763H28.3814V41.7207V41.7241C28.3445 41.7932 28.3133 41.8443 28.2854 41.8817C28.2641 41.901 28.2206 41.9384 28.1491 41.9985L28.0989 42.0359L28.0028 42.0869L27.947 42.0994L27.8197 42.0336C27.7828 42.0053 27.7449 41.9645 27.7136 41.9078C27.6422 41.7819 27.5986 41.6231 27.5986 41.4372C27.5986 41.2727 27.6354 41.1276 27.7047 41.0108C27.7639 40.9132 27.8387 40.8531 27.9224 40.8429L28.0062 40.8645L28.081 40.8962L28.1312 40.9178L28.1715 40.9552H28.3334L28.2932 40.6706C28.2775 40.6637 28.2586 40.6615 28.2373 40.6615L28.1592 40.6399L28.0631 40.6275C28.0419 40.615 28.0162 40.6082 27.9794 40.6082L27.7929 40.6172C27.6254 40.6241 27.4724 40.7125 27.3574 40.8985C27.2424 41.0754 27.1799 41.2772 27.1899 41.495C27.1899 41.6243 27.2022 41.732 27.2368 41.817C27.3608 42.1482 27.5729 42.316 27.8766 42.3217L28.0542 42.3308L28.1971 42.3183L28.3434 42.2491L28.3468 42.24L28.3836 42.1641V43.018H28.3814ZM27.9191 40.8906C27.8443 40.903 27.7828 40.9563 27.7292 41.0448C27.6611 41.1525 27.6332 41.2909 27.6332 41.4428C27.6332 41.6197 27.6611 41.7683 27.7393 41.8908C27.7672 41.9418 27.7985 41.9792 27.8264 42.0008L27.9504 42.0575L27.9906 42.045L28.0866 42.0042L28.1268 41.9667C28.1949 41.91 28.2418 41.8749 28.2541 41.8567C28.2887 41.825 28.3133 41.7717 28.3479 41.7116V41.0108L28.1581 41.0074L28.1022 40.9756L28.062 40.9473L27.9906 40.9189L27.9191 40.8906Z" fill="#010101"/>
<path d="M29.9671 40.1012V43.044H29.5316V40.1012H29.0715V39.8495H30.4149V40.1012H29.9671Z" fill="#010101"/>
<path d="M29.9759 43.0599H29.5158V40.124H29.0591V39.8246H30.4303V40.124H29.977V43.0599H29.9759ZM29.5504 43.018H29.9513V40.0763H30.3957V39.8677H29.087V40.0763H29.5504V43.018Z" fill="#010101"/>
<path d="M31.7827 40.1013V41.1333C31.7827 41.1525 31.7793 41.1741 31.7737 41.1934L31.7391 41.3317C31.7112 41.4485 31.633 41.5279 31.4901 41.5687C31.4622 41.5687 31.4432 41.5721 31.4343 41.5812L31.3874 41.5903L31.145 41.5812C31.145 41.5812 31.1082 41.5721 31.0859 41.5597L31.2656 41.5506L31.5549 42.1437L31.6822 42.3523L31.9088 42.6937L32.0049 42.823L31.8117 43.0373H31.6286C31.5783 43.0089 31.5013 42.908 31.4052 42.722L30.8391 41.6266L30.7118 41.3419L30.6247 41.1491L30.5465 40.953L30.7419 40.7795H30.9284L31.0624 41.1265C31.0903 41.1866 31.1127 41.2365 31.1372 41.2625L31.2489 41.3317L31.2802 41.3102L31.317 41.2625L31.3539 41.1741L31.3572 41.0448L31.3539 40.9496V40.1002H30.2595V39.8473H32.2863V40.1002H31.7827V40.1013ZM31.8162 41.4304L31.6542 41.1752H32.6525V41.4304H31.8162Z" fill="#010101"/>
<path d="M31.8262 43.06H31.6308C31.5716 43.0316 31.5001 42.9307 31.3941 42.7379L30.8279 41.6425L30.7006 41.3578L30.6169 41.165L30.5208 40.9439L30.7419 40.7579H30.944L31.078 41.1174C31.106 41.1741 31.1249 41.2149 31.1428 41.2433L31.2489 41.3091L31.2701 41.2898L31.3047 41.249L31.336 41.1639L31.3449 41.038L31.3382 40.9496V40.1229H30.2439V39.8235H32.2986V40.1229H31.7949V41.1299V41.1514H32.6715V41.4508H31.8039L31.7536 41.3658C31.7168 41.4735 31.6319 41.5483 31.499 41.5903C31.4678 41.5903 31.4488 41.5971 31.4398 41.6028L31.3929 41.6096L31.3181 41.6028L31.5761 42.1267L31.7 42.341L31.9211 42.6824L32.0328 42.8275L31.8262 43.06ZM31.6364 43.018H31.8072L31.987 42.8252L31.8999 42.7152L31.6699 42.3739L31.5482 42.1562L31.2779 41.6096H31.1506C31.1316 41.6096 31.1104 41.5971 31.0825 41.5812L31.0233 41.5404L31.2813 41.537L31.3003 41.5744H31.3963L31.4331 41.5676C31.4521 41.5585 31.47 41.5551 31.4979 41.5551C31.6252 41.5177 31.7034 41.4383 31.7279 41.3374L31.6219 41.1605H31.7715V41.139V40.0877H32.2718V39.8734H30.283V40.0877H31.3773V40.9552L31.3807 41.0505L31.3717 41.1866L31.3349 41.2841L31.2947 41.3317L31.2478 41.3635L31.1294 41.2841C31.1104 41.2558 31.0825 41.2081 31.0546 41.148L30.9273 40.8067H30.7564L30.5733 40.9643L30.6481 41.1469L30.7419 41.3397L30.8726 41.6243L31.432 42.7164C31.518 42.8921 31.5861 42.9897 31.6364 43.018ZM31.8162 41.4145H32.6403V41.2002H31.786V41.2036L31.767 41.3204L31.8162 41.4145ZM31.6833 41.1968L31.7391 41.2762L31.7581 41.1968H31.6833Z" fill="#010101"/>
<path d="M34.2382 42.0303L34.1232 42.138L33.9713 42.2548L33.8284 42.3342L33.6665 42.3943L33.5146 42.4034L33.3315 42.4C33.011 42.3875 32.7441 42.2072 32.533 41.8726C32.4828 41.7933 32.4459 41.7241 32.4247 41.6583L32.3008 41.3362L32.4839 41.3272C32.5208 41.3487 32.5621 41.3748 32.6201 41.4031L32.772 41.4406C32.9272 41.4406 33.0612 41.3748 33.1673 41.2444C33.2756 41.1083 33.3326 40.9348 33.3326 40.7295C33.3326 40.5753 33.2924 40.4302 33.2053 40.2997C33.1841 40.2589 33.1461 40.2204 33.1059 40.192L32.9909 40.1262L32.9261 40.1637L32.8614 40.2147C32.8334 40.234 32.8178 40.2714 32.8055 40.3247L32.7865 40.454C32.7865 40.5798 32.8267 40.6683 32.9328 40.7284L32.992 40.7568L33.0791 40.7692V41.0312H32.8301H32.7363C32.7084 41.0244 32.6771 41.0119 32.6246 40.9802C32.5375 40.9291 32.4694 40.86 32.4225 40.7783C32.3856 40.6989 32.36 40.5821 32.3544 40.4472C32.3544 40.327 32.3856 40.2136 32.466 40.1036C32.5721 39.9391 32.7084 39.8609 32.8915 39.8609L33.0746 39.8518C33.1338 39.8518 33.2176 39.8734 33.3326 39.9278C33.5068 40.0038 33.6274 40.1614 33.7022 40.3882C33.7335 40.5016 33.7491 40.6093 33.7491 40.7261C33.7558 41.0448 33.6653 41.2818 33.4911 41.4394C33.3393 41.5778 33.1372 41.6447 32.8881 41.6538L32.8323 41.6447C32.8569 41.7048 32.8882 41.7706 32.9351 41.8307L33.097 41.9883L33.2488 42.0926L33.327 42.1119C33.3638 42.121 33.3862 42.1312 33.4052 42.1403C33.6106 42.1119 33.8005 41.9917 33.9523 41.7706L34.064 41.6163L34.179 41.3861L34.3622 41.3827V41.8692L34.2382 42.0303Z" fill="#010101"/>
<path d="M33.5202 42.4249H33.5168L33.3337 42.4181C33.0132 42.4056 32.7374 42.2219 32.5197 41.8817C32.4694 41.8023 32.4259 41.7275 32.4113 41.664L32.2773 41.3068L32.4951 41.3034V41.3068C32.5264 41.3192 32.5699 41.3476 32.6291 41.3759L32.781 41.4134C32.9272 41.4134 33.0545 41.3442 33.1662 41.2115C33.2622 41.0856 33.3214 40.9246 33.3214 40.7227C33.3214 40.5742 33.2745 40.4324 33.2031 40.3122C33.1684 40.2646 33.1383 40.2329 33.097 40.2045L32.9909 40.1444L32.9317 40.1762L32.8725 40.2272C32.8535 40.2465 32.8323 40.2782 32.8223 40.3247L32.8033 40.454C32.8033 40.564 32.8435 40.6468 32.9395 40.7069L32.9987 40.7284L33.0947 40.75V41.0437H32.8334H32.7374C32.7128 41.0403 32.6782 41.0244 32.6291 40.996C32.5353 40.9393 32.4638 40.8702 32.4203 40.7851C32.3801 40.6967 32.3455 40.5799 32.3455 40.4415C32.3421 40.3156 32.3801 40.1954 32.4571 40.082C32.5688 39.9176 32.7151 39.8359 32.8949 39.8291L33.0847 39.8201C33.1439 39.8201 33.2343 39.8484 33.346 39.896C33.5258 39.9811 33.6508 40.1331 33.7257 40.3757C33.7569 40.4835 33.7759 40.6003 33.7759 40.7171C33.7826 41.0391 33.6888 41.2852 33.509 41.4497C33.3538 41.588 33.145 41.6606 32.8971 41.664L32.8759 41.6606C32.8915 41.7116 32.9228 41.7581 32.954 41.8091L33.116 41.9668L33.2678 42.0643L33.3426 42.0858C33.3773 42.0858 33.3985 42.0949 33.4208 42.1074C33.6196 42.079 33.8005 41.9532 33.949 41.7445L34.0573 41.5903L34.179 41.3567L34.3878 41.3476V41.8658L34.2382 42.0427L34.1321 42.1527L33.9803 42.2696L33.8284 42.3546L33.6732 42.4113L33.5202 42.4249ZM32.3265 41.3521L32.4326 41.6458C32.4605 41.7059 32.4973 41.7819 32.5476 41.8568C32.7564 42.1879 33.0233 42.3614 33.3337 42.375L33.5168 42.3841L33.6687 42.3716L33.8206 42.3149L33.9724 42.2299L34.1154 42.1131L34.2237 42.0155L34.3476 41.8613V41.4032L34.1857 41.41L34.0707 41.6277L33.9646 41.7853C33.8094 42.0099 33.6196 42.1357 33.4052 42.1641H33.4018L33.3951 42.1607C33.3862 42.1573 33.3672 42.1482 33.327 42.1391L33.2433 42.1176L33.088 42.0201L32.9261 41.8522C32.8759 41.7921 32.839 41.7264 32.82 41.6594L32.8167 41.6277L32.8915 41.6368C33.1405 41.6334 33.3326 41.5676 33.4856 41.4315C33.6531 41.2773 33.7368 41.0403 33.7368 40.7307C33.7368 40.6139 33.7212 40.513 33.6899 40.403C33.6118 40.1784 33.4967 40.0242 33.3292 39.9516C33.2209 39.904 33.1361 39.8756 33.078 39.8756L32.8949 39.8847C32.724 39.8881 32.5844 39.9732 32.475 40.1274C32.4069 40.2249 32.3756 40.336 32.3756 40.4528C32.3756 40.5821 32.4035 40.6899 32.4381 40.7681C32.4783 40.8475 32.5498 40.9133 32.6369 40.9643C32.6872 40.9926 32.7151 41.0051 32.7363 41.0119H32.8323H33.0657V40.7976L32.9875 40.7783L32.9284 40.75C32.8167 40.6842 32.7664 40.5855 32.7664 40.4563L32.7854 40.3202C32.8044 40.2601 32.8256 40.2158 32.848 40.1943L32.9127 40.1433L32.9875 40.1058L33.1115 40.1659C33.1483 40.1977 33.1897 40.2419 33.2176 40.2861C33.3047 40.4154 33.3482 40.5606 33.3482 40.725C33.3482 40.9359 33.2924 41.1128 33.183 41.2489C33.0746 41.3873 32.9339 41.4576 32.7754 41.4576L32.6235 41.4202C32.5587 41.3884 32.5174 41.3691 32.4873 41.3442L32.3265 41.3521Z" fill="#010101"/>
<path d="M36.1678 40.1012V43.0429H35.7357V42.2502C35.6765 42.2876 35.6173 42.316 35.5458 42.3455L35.3471 42.367L35.1639 42.3579C34.9127 42.3545 34.7106 42.257 34.5487 42.0642C34.3745 41.8499 34.2818 41.5687 34.2717 41.2251L34.4582 41.2216L34.4951 41.2432L34.542 41.2557L34.638 41.2239L34.7284 41.1479C34.8033 41.0595 34.8401 40.9234 34.8435 40.7374C34.8468 40.624 34.8066 40.4823 34.7284 40.3076L34.6134 40.1058L33.9546 40.1024V39.8495H36.4905V40.1024H36.1678V40.1012ZM35.7357 40.1012H35.1014L35.1517 40.2271L35.1919 40.319L35.27 40.556L35.289 40.7488C35.289 41.0198 35.2019 41.2353 35.0188 41.3827L34.9038 41.4428L34.7519 41.4995L34.7608 41.5596L34.7765 41.6072L34.7954 41.6582L34.8077 41.6957C34.8948 41.9293 35.0311 42.0744 35.2242 42.1345C35.2589 42.1345 35.3046 42.1221 35.3672 42.0869L35.4911 41.9894C35.5157 41.9678 35.5414 41.9418 35.5626 41.91L35.6274 41.8306L35.7334 41.6378V40.1001H35.7357V40.1012Z" fill="#010101"/>
<path d="M36.1779 43.0599H35.7179V42.2797C35.662 42.3115 35.6118 42.3364 35.5526 42.3591L35.3505 42.3875L35.1674 42.3784C34.9094 42.375 34.7039 42.2707 34.5398 42.0813C34.3689 41.8601 34.2696 41.5732 34.2696 41.2228V41.2013L34.4717 41.1945L34.5085 41.2228L34.5487 41.2421L34.6358 41.2047L34.7263 41.1321C34.7944 41.0527 34.8324 40.9212 34.8324 40.7409C34.8391 40.6275 34.8011 40.488 34.7207 40.3247L34.6124 40.1319L33.9502 40.1285V39.8291H36.5208V40.1285H36.1791V43.0599H36.1779ZM35.7458 43.018H36.1467V40.0763H36.4828V39.8654H33.9826V40.0763L34.6325 40.0854L34.7564 40.2906C34.8346 40.4676 34.8748 40.6161 34.8714 40.7329C34.8681 40.9257 34.8245 41.0675 34.7475 41.1627L34.6515 41.2387L34.5398 41.2761L34.5029 41.2602L34.4661 41.2387H34.2986C34.3075 41.5698 34.398 41.842 34.5688 42.0404C34.724 42.2264 34.9228 42.3251 35.1685 42.3342L35.3516 42.3432L35.5504 42.3217C35.6151 42.2933 35.6687 42.265 35.7302 42.2264L35.7491 42.214V43.0191H35.7458V43.018ZM35.2265 42.1595C35.0244 42.0937 34.8882 41.9452 34.7944 41.7082L34.7754 41.6708L34.7665 41.6197L34.7542 41.5721L34.733 41.487L34.9005 41.4213L35.0155 41.3612C35.1863 41.2228 35.2734 41.0108 35.2734 40.7488L35.2545 40.5628L35.1796 40.3258L35.1428 40.2374L35.0747 40.0797H35.7458V41.6481L35.6464 41.8499L35.5816 41.935C35.5537 41.9667 35.5314 41.9951 35.5035 42.02L35.3762 42.1085C35.3069 42.1414 35.2634 42.1595 35.2265 42.1595ZM34.7665 41.5154L34.7754 41.5528L34.7966 41.6004L34.8056 41.6515L34.8212 41.6889C34.9049 41.9134 35.0423 42.0518 35.2288 42.1119C35.25 42.1119 35.2969 42.0994 35.3628 42.0643L35.4811 41.9758C35.5091 41.9543 35.5336 41.9282 35.556 41.8964L35.6151 41.817L35.7145 41.6345V40.1228H35.1272L35.1674 40.2113L35.2076 40.3065L35.2757 40.5526L35.2969 40.7488C35.3002 41.03 35.2098 41.2444 35.02 41.3986L34.8982 41.4644L34.7665 41.5154Z" fill="#010101"/>
<path d="M40.1743 39.8495L40.0593 39.7134L39.9443 39.5649C39.9253 39.5365 39.8918 39.4957 39.836 39.4288C39.817 39.4095 39.7958 39.3812 39.7578 39.3438C39.721 39.3063 39.6931 39.278 39.6741 39.2678L39.4005 39.0149C39.2352 38.8697 39.0465 38.7722 38.8444 38.7246C38.7886 38.7337 38.7484 38.7563 38.7104 38.7904C38.62 38.8414 38.5451 38.948 38.4871 39.1249C38.4625 39.2451 38.4469 39.3392 38.4558 39.4152V39.5388L38.477 39.684L38.5083 39.8008L38.5206 39.8518L38.9248 39.8484V40.1013H38.5295V43.0373H38.0973V40.1013H37.6931V39.8484H38.1163L38.0973 39.7917L38.0661 39.6375L38.0449 39.464L38.0359 39.3664C38.0326 39.2564 38.0449 39.1396 38.0828 39.016C38.1945 38.6531 38.4212 38.4638 38.764 38.4513L38.9471 38.4479C39.0499 38.4445 39.1682 38.4762 39.3201 38.5454C39.597 38.6747 39.8449 38.8675 40.0694 39.1135L40.4055 39.4855L40.5395 39.6681L40.6824 39.8484L40.4926 39.845H40.1755V39.8495H40.1743Z" fill="#010101"/>
<path d="M38.5485 43.0599H38.0885V40.124H37.6753V39.8246H38.0885L38.0795 39.7962L38.0516 39.642L38.0237 39.4742L38.0148 39.3698C38.0081 39.253 38.0304 39.1328 38.065 39.0069C38.18 38.6372 38.4168 38.4422 38.7585 38.432L38.9416 38.4286C39.0443 38.4195 39.1716 38.4569 39.3179 38.5261C39.5881 38.652 39.8461 38.8482 40.0728 39.1011L40.4111 39.4708L40.5451 39.6567L40.7104 39.8745L40.4871 39.8654H40.1699L40.0516 39.727L39.9365 39.5785C39.9209 39.5501 39.8863 39.5093 39.8249 39.4424C39.8092 39.4299 39.7847 39.4016 39.7411 39.3664C39.7099 39.3256 39.6819 39.2972 39.663 39.2814L39.386 39.0319C39.2208 38.8935 39.041 38.7949 38.8389 38.7416C38.783 38.7541 38.7451 38.779 38.7149 38.8074C38.6278 38.8584 38.5496 38.965 38.4938 39.1328C38.4659 39.2428 38.457 39.3415 38.4659 39.4141V39.5377L38.4938 39.676L38.5128 39.7928L38.5251 39.8246L38.9382 39.8178V40.1171H38.5429V43.0588H38.5485V43.0599ZM38.1175 43.018H38.5128V40.0763H38.9081V39.8677L38.5128 39.8767L38.4916 39.811L38.4637 39.6908L38.4424 39.5524L38.4357 39.4231C38.4268 39.3505 38.4447 39.2496 38.4726 39.1294C38.5318 38.9468 38.6155 38.83 38.7026 38.779C38.7395 38.7507 38.7864 38.7223 38.8456 38.7098C39.0566 38.7609 39.2409 38.8584 39.4117 39.0035L39.6886 39.2564C39.7076 39.2723 39.7355 39.2938 39.7724 39.3358C39.8037 39.3732 39.8316 39.3959 39.8506 39.4152C39.9097 39.481 39.9444 39.532 39.9656 39.5513L40.0739 39.6998L40.1889 39.8291H40.4938L40.6333 39.8359L40.5273 39.6976L40.391 39.5116L40.0616 39.1419C39.8383 38.889 39.5893 38.6996 39.3123 38.5771C39.1694 38.508 39.0477 38.4728 38.9483 38.4796L38.7652 38.483C38.429 38.4955 38.2146 38.6815 38.103 39.0353C38.0661 39.1453 38.0471 39.2689 38.0561 39.3766L38.0628 39.4742L38.1186 39.7962L38.1465 39.8756H37.7144V40.0843H38.122V43.0225H38.1175V43.018Z" fill="#010101"/>
<path d="M40.9796 40.1013V43.0373H40.5597V41.4837H39.8942V41.9135L39.9009 41.9827C39.9009 41.9827 39.8942 42.0019 39.8886 42.0201L39.8517 42.0575L39.7959 42.0666L39.6061 42.0598C39.5748 42.0598 39.5379 42.0382 39.4877 41.9997C39.4877 41.9929 39.4665 41.9622 39.4196 41.9044C39.376 41.8443 39.3202 41.766 39.2543 41.6583C39.1862 41.5506 39.1549 41.4531 39.1393 41.368L39.1516 41.292C39.1549 41.2728 39.1728 41.2546 39.2018 41.2353L39.223 41.2229L39.2755 41.2104L39.4687 41.2013V40.1002H38.8813V39.8473H41.3402V40.1002H40.9796V40.1013ZM40.5597 40.1013H39.8942V41.2024H40.5597V40.1013Z" fill="#010101"/>
<path d="M41.0019 43.0599H40.5419V41.5006H39.9076V41.9111L39.9143 41.9769C39.9143 41.986 39.9143 41.9894 39.9054 42.0279V42.0314L39.8551 42.0722L39.7959 42.0847L39.6061 42.0813C39.5693 42.0813 39.5313 42.0597 39.4788 42.0155C39.4788 42.0087 39.4509 41.9747 39.4107 41.918C39.3638 41.8613 39.308 41.7796 39.2398 41.6719C39.1684 41.5619 39.1338 41.4632 39.1248 41.3725V41.3691L39.1438 41.2806C39.1527 41.2614 39.165 41.2432 39.1941 41.2205L39.222 41.2081L39.2722 41.1888L39.4554 41.1797V40.1251H38.8713V39.8257H41.3548V40.1251H41.0064V43.061H41.0019V43.0599ZM40.5754 43.018H40.9673V40.0797H41.3157V39.871H38.8948V40.0797H39.4889V41.2228L39.2778 41.2319L39.2309 41.2443L39.2097 41.2602C39.1907 41.2727 39.1751 41.292 39.1661 41.3078L39.1539 41.377C39.1628 41.4564 39.2008 41.5449 39.2689 41.6481C39.337 41.7524 39.3928 41.834 39.4341 41.8941C39.481 41.9508 39.5023 41.9826 39.5023 41.9826C39.5425 42.02 39.5804 42.0393 39.6083 42.0393L39.7982 42.0461L39.8484 42.037L39.8797 42.0155C39.883 41.9871 39.8886 41.9871 39.8886 41.9837L39.8797 41.918V41.4632H40.5787L40.5754 43.018ZM40.5754 41.2228H39.8763V40.0797H40.5754V41.2228ZM39.9076 41.1808H40.5419V40.1262H39.9076V41.1808Z" fill="#010101"/>
<path d="M42.8233 40.1013C42.8702 40.158 42.9014 40.2113 42.9193 40.2657L42.9941 40.4517L43.0343 40.6445L43.0533 40.8407C43.0533 41.0833 42.9941 41.3169 42.8702 41.5449C42.7239 41.8193 42.4972 41.9645 42.208 41.9837L42.9785 42.8388L42.8132 43.0531H42.6301L41.5145 41.7966L41.6798 41.5823H41.8696L42.0126 41.7399L42.0684 41.7331C42.0684 41.7331 42.0997 41.7297 42.1187 41.7207C42.1745 41.7082 42.2303 41.6832 42.2649 41.6413L42.4079 41.512L42.5229 41.3578L42.6011 41.1899L42.6078 41.1684L42.6167 41.1468V41.1151C42.6167 41.1026 42.6234 41.0867 42.6256 41.0777L42.5073 41.1468L42.3922 41.1593L42.2091 41.1525C41.9668 41.1491 41.7993 41.0074 41.7122 40.7454C41.6843 40.6603 41.6653 40.581 41.6653 40.5027C41.6653 40.3666 41.7122 40.2374 41.7993 40.1047L41.2644 40.1013V39.8484H43.1639V40.1013H42.8233ZM42.562 40.4301C42.5274 40.2816 42.447 40.1773 42.3007 40.1081L42.2359 40.1455C42.2147 40.158 42.189 40.1829 42.1801 40.2056C42.1522 40.2374 42.1332 40.2748 42.1209 40.3315L42.1019 40.4698C42.1019 40.5991 42.1231 40.7034 42.1857 40.7692L42.2504 40.8452L42.3185 40.8826L42.4179 40.8259L42.514 40.7284L42.5508 40.6592L42.6011 40.5617L42.562 40.4301Z" fill="#010101"/>
<path d="M42.8233 43.0747H42.6212V43.0713L41.49 41.7955L41.6675 41.5585H41.8663L42.0126 41.7162L42.0595 41.7128C42.0785 41.7128 42.0963 41.7094 42.1097 41.7037C42.1656 41.6878 42.2158 41.6663 42.256 41.6277L42.399 41.4984L42.5106 41.3442L42.5821 41.1798V41.1582L42.591 41.1367V41.1151L42.4972 41.1662L42.3822 41.1854L42.1991 41.1786C41.9478 41.1696 41.7759 41.0301 41.6888 40.759C41.6575 40.674 41.6419 40.5855 41.6419 40.5062C41.6419 40.3803 41.6787 40.2533 41.7535 40.1342L41.241 40.1251V39.8314H43.1717V40.1308H42.8613C42.8925 40.1716 42.9171 40.2193 42.9361 40.2669L43.0142 40.4438L43.0544 40.64L43.0734 40.8384C43.0734 41.0913 43.0142 41.3272 42.8836 41.5608C42.7373 41.8262 42.5195 41.9713 42.2493 42.0031L43.0042 42.8332L42.8233 43.0747ZM42.6401 43.0282H42.8144L42.9506 42.8354L42.1578 41.9611L42.2047 41.9577C42.4905 41.9418 42.7116 41.8001 42.8512 41.5279C42.9752 41.3102 43.0343 41.0766 43.0343 40.8362L43.0154 40.64L42.9751 40.4472L42.9037 40.2737C42.8847 40.2227 42.8534 40.166 42.8099 40.1093L42.782 40.0718H43.136V39.8609H41.2711V40.0718L41.8272 40.0809L41.7993 40.1127C41.7189 40.2385 41.6754 40.3655 41.6754 40.4948C41.6754 40.5708 41.6943 40.6491 41.7222 40.7284C41.8026 40.9836 41.9612 41.1163 42.2013 41.1231L42.3844 41.1299L42.4961 41.1106L42.6893 41.0006L42.6335 41.08C42.6301 41.0834 42.6301 41.0959 42.6301 41.1015L42.6212 41.1423L42.6178 41.1639L42.6111 41.1922L42.533 41.3601L42.4213 41.5143L42.2694 41.6504C42.2292 41.6912 42.1734 41.7196 42.1176 41.7298C42.0986 41.7388 42.0807 41.7422 42.0807 41.7422L41.997 41.7513L41.854 41.5869H41.6798L41.5335 41.7831L42.6401 43.0282ZM42.3163 40.9031L42.2326 40.8554L42.17 40.7795C42.1142 40.7035 42.0796 40.606 42.0796 40.4665L42.0986 40.3145C42.1198 40.2578 42.1388 40.217 42.1633 40.1886C42.1756 40.1569 42.2002 40.1319 42.2281 40.1195L42.2929 40.0786L42.3018 40.082C42.4537 40.1512 42.5408 40.259 42.572 40.4166L42.6189 40.5549L42.5162 40.7318L42.4202 40.8396L42.3163 40.9031ZM42.2538 40.8248L42.3163 40.8566L42.4124 40.8055L42.4995 40.7137L42.5341 40.6445L42.5843 40.5595L42.5441 40.4393C42.5162 40.2975 42.438 40.1966 42.3018 40.1297L42.246 40.1614C42.2248 40.1739 42.2058 40.1932 42.1957 40.2181L42.189 40.2249C42.1678 40.2533 42.1522 40.2907 42.1332 40.3349L42.1209 40.4801C42.1209 40.5901 42.1455 40.6887 42.1957 40.7545L42.2538 40.8248Z" fill="#010101"/>
<path d="M44.0069 40.1012V43.044H43.5781V40.1012H43.1213V39.8495H44.4546V40.1012H44.0069Z" fill="#010101"/>
<path d="M44.0224 43.0599H43.559V40.124H43.1023V39.8246H44.4736V40.124H44.0224V43.0599ZM43.5936 43.018H43.9889V40.0763H44.4423V39.8677H43.1369V40.0763H43.5903V43.018H43.5936Z" fill="#010101"/>
<path d="M46.5094 40.1012V43.0429H46.0772V41.2024H45.3938V41.7353L45.3871 41.8204C45.3871 41.8363 45.3871 41.8419 45.3782 41.868L45.3413 41.9088L45.2911 41.9179L45.1013 41.9145C45.0823 41.9145 45.051 41.893 45.0019 41.8385L44.8366 41.6015C44.7864 41.5358 44.7339 41.4473 44.6848 41.3271C44.6501 41.2579 44.6323 41.2012 44.6256 41.1593C44.6256 41.0833 44.6535 41.0232 44.7037 40.9824L44.7406 40.9631L44.7998 40.9597L46.0772 40.9563V40.1069H44.3486V39.854H46.8913V40.1069H46.5094V40.1012Z" fill="#010101"/>
<path d="M46.5216 43.0599H46.0582V41.2228H45.4083V41.7377L45.3994 41.8261C45.3994 41.8352 45.3994 41.8477 45.3904 41.8771L45.3837 41.8805L45.3469 41.9282L45.2877 41.9407L45.0979 41.9372C45.0979 41.9372 45.0632 41.9282 44.9828 41.8579L44.8176 41.6152C44.7707 41.5494 44.7215 41.461 44.6657 41.3408C44.6289 41.2648 44.6099 41.2115 44.6009 41.1673C44.6009 41.072 44.6322 41.0096 44.6813 40.962L44.7282 40.9427L44.793 40.9336L46.0515 40.9302V40.1285H44.3296V39.8291H46.9035V40.1285H46.5183V43.0611H46.5216V43.0599ZM46.0895 43.018H46.487V40.0763H46.8689V39.8677H44.3631V40.0763H46.085V40.9733L44.7919 40.9767H44.7327L44.7014 40.9983C44.6612 41.03 44.6333 41.0833 44.6333 41.1525C44.6423 41.1899 44.6612 41.241 44.6925 41.3101C44.7428 41.4303 44.7919 41.5154 44.8354 41.5812L45.0096 41.8216C45.0688 41.8817 45.09 41.8908 45.09 41.8908L45.2832 41.8942L45.3301 41.8817L45.3513 41.8499C45.3603 41.8306 45.3603 41.8216 45.3603 41.8216L45.367 41.7331V41.1775H46.085V43.018H46.0895Z" fill="#010101"/>
</g>
<defs>
<clipPath id="clip0_4605_18977">
<rect width="58.96" height="44" fill="white" transform="translate(0.337402)"/>
</clipPath>
</defs>
</svg>
