<svg width="15" height="14" viewBox="0 0 15 14" fill="none" xmlns="http://www.w3.org/2000/svg">
<g clip-path="url(#clip0_5353_17117)">
<path d="M2.25 7C2.25 7.68944 2.3858 8.37213 2.64963 9.00909C2.91347 9.64605 3.30018 10.2248 3.78769 10.7123C4.2752 11.1998 4.85395 11.5865 5.49091 11.8504C6.12787 12.1142 6.81056 12.25 7.5 12.25C8.18944 12.25 8.87213 12.1142 9.50909 11.8504C10.146 11.5865 10.7248 11.1998 11.2123 10.7123C11.6998 10.2248 12.0865 9.64605 12.3504 9.00909C12.6142 8.37213 12.75 7.68944 12.75 7C12.75 6.31056 12.6142 5.62787 12.3504 4.99091C12.0865 4.35395 11.6998 3.7752 11.2123 3.28769C10.7248 2.80018 10.146 2.41347 9.50909 2.14963C8.87213 1.8858 8.18944 1.75 7.5 1.75C6.81056 1.75 6.12787 1.8858 5.49091 2.14963C4.85395 2.41347 4.2752 2.80018 3.78769 3.28769C3.30018 3.7752 2.91347 4.35395 2.64963 4.99091C2.3858 5.62787 2.25 6.31056 2.25 7Z" stroke="#33189F" stroke-width="1.5" stroke-linecap="round" stroke-linejoin="round"/>
<path d="M5.75 6.99992L6.91667 8.16659L9.25 5.83325" stroke="#33189F" stroke-width="1.5" stroke-linecap="round" stroke-linejoin="round"/>
</g>
<defs>
<clipPath id="clip0_5353_17117">
<rect width="14" height="14" fill="white" transform="translate(0.5)"/>
</clipPath>
</defs>
</svg>
