<svg width="40" height="40" viewBox="0 0 40 40" fill="none" xmlns="http://www.w3.org/2000/svg">
<mask id="mask0_407_2265" style="mask-type:alpha" maskUnits="userSpaceOnUse" x="0" y="0" width="40" height="40">
<rect width="40" height="40" fill="#D9D9D9"/>
</mask>
<g mask="url(#mask0_407_2265)">
<path d="M10.0381 28.8203C11.4547 27.7691 12.998 26.9389 14.6678 26.33C16.3377 25.721 18.1149 25.4165 19.9996 25.4165C21.8842 25.4165 23.6614 25.721 25.3313 26.33C27.0011 26.9389 28.5444 27.7691 29.9611 28.8203C30.9974 27.6815 31.8184 26.3631 32.4242 24.8652C33.03 23.3673 33.3329 21.7455 33.3329 19.9998C33.3329 16.3054 32.0343 13.1595 29.4371 10.5623C26.8398 7.96508 23.694 6.66646 19.9996 6.66646C16.3051 6.66646 13.1593 7.96508 10.5621 10.5623C7.96483 13.1595 6.66622 16.3054 6.66622 19.9998C6.66622 21.7455 6.96911 23.3673 7.57489 24.8652C8.18066 26.3631 9.00172 27.6815 10.0381 28.8203ZM20.0001 21.2498C18.4784 21.2498 17.1951 20.7275 16.1502 19.683C15.1054 18.6384 14.5829 17.3553 14.5829 15.8336C14.5829 14.3119 15.1052 13.0287 16.1497 11.9838C17.1943 10.9389 18.4774 10.4165 19.9991 10.4165C21.5207 10.4165 22.804 10.9388 23.8489 11.9833C24.8937 13.0279 25.4162 14.311 25.4162 15.8326C25.4162 17.3543 24.8939 18.6376 23.8494 19.6825C22.8048 20.7273 21.5217 21.2498 20.0001 21.2498ZM19.9996 35.8331C17.8008 35.8331 15.7383 35.4196 13.8121 34.5927C11.8858 33.7658 10.2101 32.6397 8.78484 31.2145C7.35965 29.7893 6.23359 28.1135 5.40668 26.1873C4.57973 24.261 4.16626 22.1985 4.16626 19.9998C4.16626 17.8011 4.57973 15.7386 5.40668 13.8123C6.23359 11.8861 7.35965 10.2103 8.78484 8.78509C10.2101 7.35989 11.8858 6.23384 13.8121 5.40692C15.7383 4.57998 17.8008 4.1665 19.9996 4.1665C22.1983 4.1665 24.2608 4.57998 26.187 5.40692C28.1133 6.23384 29.789 7.35989 31.2143 8.78509C32.6395 10.2103 33.7655 11.8861 34.5924 13.8123C35.4194 15.7386 35.8328 17.8011 35.8328 19.9998C35.8328 22.1985 35.4194 24.261 34.5924 26.1873C33.7655 28.1135 32.6395 29.7893 31.2143 31.2145C29.789 32.6397 28.1133 33.7658 26.187 34.5927C24.2608 35.4196 22.1983 35.8331 19.9996 35.8331ZM19.9996 33.3331C21.5038 33.3331 22.9541 33.0912 24.3505 32.6072C25.7469 32.1232 26.9868 31.4464 28.0701 30.5767C26.9868 29.7391 25.7629 29.0863 24.3986 28.6184C23.0343 28.1504 21.5679 27.9164 19.9996 27.9164C18.4312 27.9164 16.9621 28.1477 15.5925 28.6103C14.2228 29.073 13.0016 29.7284 11.929 30.5767C13.0123 31.4464 14.2522 32.1232 15.6486 32.6072C17.045 33.0912 18.4953 33.3331 19.9996 33.3331ZM19.9996 18.7498C20.8286 18.7498 21.522 18.471 22.0797 17.9133C22.6374 17.3556 22.9163 16.6622 22.9163 15.8331C22.9163 15.0041 22.6374 14.3107 22.0797 13.753C21.522 13.1953 20.8286 12.9164 19.9996 12.9164C19.1705 12.9164 18.4771 13.1953 17.9194 13.753C17.3617 14.3107 17.0828 15.0041 17.0828 15.8331C17.0828 16.6622 17.3617 17.3556 17.9194 17.9133C18.4771 18.471 19.1705 18.7498 19.9996 18.7498Z" fill="#33189F"/>
</g>
</svg>
