<svg width="14" height="14" viewBox="0 0 14 14" fill="none" xmlns="http://www.w3.org/2000/svg">
<g clip-path="url(#clip0_6982_6992)">
<path d="M9.91602 12.8332V11.6665" stroke="#C7413A" stroke-linecap="round" stroke-linejoin="round"/>
<path d="M5.25 8.75L8.75 5.25" stroke="#C7413A" stroke-linecap="round" stroke-linejoin="round"/>
<path d="M6.41602 3.49985L6.6861 3.18719C7.23315 2.64021 7.97508 2.33295 8.74868 2.33301C9.52228 2.33306 10.2642 2.64042 10.8111 3.18748C11.3581 3.73453 11.6654 4.47646 11.6653 5.25006C11.6653 6.02365 11.3579 6.76554 10.8108 7.31252L10.4993 7.58319" stroke="#C7413A" stroke-linecap="round" stroke-linejoin="round"/>
<path d="M7.58407 10.4998L7.35248 10.8113C6.79905 11.3586 6.05211 11.6656 5.27378 11.6656C4.49544 11.6656 3.74851 11.3586 3.19507 10.8113C2.92228 10.5416 2.70571 10.2204 2.5579 9.86642C2.41009 9.51241 2.33398 9.13259 2.33398 8.74896C2.33398 8.36533 2.41009 7.98552 2.5579 7.6315C2.70571 7.27749 2.92228 6.95632 3.19507 6.68659L3.50073 6.4165" stroke="#C7413A" stroke-linecap="round" stroke-linejoin="round"/>
<path d="M11.666 9.9165H12.8327" stroke="#C7413A" stroke-linecap="round" stroke-linejoin="round"/>
<path d="M1.16602 4.0835H2.33268" stroke="#C7413A" stroke-linecap="round" stroke-linejoin="round"/>
<path d="M4.08398 1.1665V2.33317" stroke="#C7413A" stroke-linecap="round" stroke-linejoin="round"/>
</g>
<defs>
<clipPath id="clip0_6982_6992">
<rect width="14" height="14" fill="white"/>
</clipPath>
</defs>
</svg>
