<svg width="1012" height="56" viewBox="0 0 1012 56" fill="none" xmlns="http://www.w3.org/2000/svg">
<rect width="1012" height="56" rx="12" fill="white"/>
<rect x="0.5" y="0.5" width="1011" height="55" rx="11.5" stroke="#33189F" stroke-opacity="0.1"/>
<rect x="207.5" y="16.5" width="135" height="23" rx="11.5" fill="white" stroke="url(#paint0_linear_6127_28159)"/>
<rect x="321" y="22" width="12" height="12" rx="2" fill="#FFB42A"/>
<path d="M325.731 27.2866H326.386C326.618 27.2866 326.808 27.2471 326.958 27.168C327.11 27.0859 327.223 26.9746 327.296 26.834C327.372 26.6904 327.41 26.5249 327.41 26.3374C327.41 26.1528 327.376 25.9932 327.309 25.8584C327.242 25.7207 327.139 25.6152 327.001 25.542C326.867 25.4658 326.694 25.4277 326.483 25.4277C326.313 25.4277 326.156 25.4614 326.013 25.5288C325.872 25.5962 325.759 25.6929 325.674 25.8188C325.592 25.9419 325.551 26.0898 325.551 26.2627H324.387C324.387 25.917 324.478 25.6138 324.659 25.353C324.844 25.0894 325.093 24.8828 325.406 24.7334C325.72 24.584 326.07 24.5093 326.457 24.5093C326.878 24.5093 327.248 24.5796 327.564 24.7202C327.883 24.8579 328.131 25.0615 328.307 25.3311C328.485 25.6006 328.575 25.9346 328.575 26.333C328.575 26.5234 328.529 26.7139 328.438 26.9043C328.351 27.0918 328.22 27.2617 328.047 27.4141C327.877 27.5635 327.668 27.6851 327.419 27.7788C327.173 27.8696 326.89 27.915 326.571 27.915H325.731V27.2866ZM325.731 28.1831V27.5635H326.571C326.931 27.5635 327.243 27.606 327.507 27.6909C327.773 27.7729 327.993 27.8901 328.166 28.0425C328.339 28.1919 328.466 28.3662 328.548 28.5654C328.633 28.7646 328.676 28.9785 328.676 29.207C328.676 29.5059 328.62 29.7725 328.509 30.0068C328.397 30.2383 328.241 30.4346 328.039 30.5957C327.839 30.7568 327.605 30.8799 327.335 30.9648C327.066 31.0469 326.774 31.0879 326.461 31.0879C326.188 31.0879 325.923 31.0513 325.666 30.978C325.411 30.9019 325.181 30.7891 324.976 30.6396C324.771 30.4873 324.608 30.2969 324.488 30.0684C324.368 29.8369 324.308 29.5688 324.308 29.2642H325.472C325.472 29.4399 325.515 29.5967 325.6 29.7344C325.688 29.8721 325.808 29.9805 325.96 30.0596C326.115 30.1357 326.29 30.1738 326.483 30.1738C326.697 30.1738 326.88 30.1357 327.032 30.0596C327.188 29.9805 327.306 29.8691 327.388 29.7256C327.47 29.5791 327.511 29.4048 327.511 29.2026C327.511 28.9624 327.466 28.7676 327.375 28.6182C327.284 28.4688 327.154 28.3589 326.984 28.2886C326.817 28.2183 326.618 28.1831 326.386 28.1831H325.731Z" fill="white"/>
<path d="M238.414 29.4541H239.757C239.714 29.9661 239.571 30.4227 239.327 30.8237C239.084 31.2212 238.742 31.5345 238.301 31.7637C237.861 31.9928 237.326 32.1074 236.695 32.1074C236.212 32.1074 235.777 32.0215 235.39 31.8496C235.003 31.6742 234.672 31.4271 234.396 31.1084C234.121 30.7861 233.91 30.3976 233.763 29.9429C233.619 29.4881 233.548 28.9797 233.548 28.4175V27.7676C233.548 27.2054 233.621 26.6969 233.768 26.2422C233.918 25.7874 234.133 25.3989 234.413 25.0767C234.692 24.7508 235.027 24.502 235.417 24.3301C235.811 24.1582 236.253 24.0723 236.744 24.0723C237.367 24.0723 237.893 24.1868 238.323 24.416C238.752 24.6452 239.085 24.9621 239.322 25.3667C239.562 25.7713 239.708 26.235 239.762 26.7578H238.419C238.384 26.4212 238.305 26.133 238.183 25.8931C238.065 25.6532 237.889 25.4705 237.657 25.3452C237.424 25.2163 237.12 25.1519 236.744 25.1519C236.436 25.1519 236.167 25.2091 235.938 25.3237C235.709 25.4383 235.517 25.6066 235.363 25.8286C235.209 26.0506 235.093 26.3245 235.014 26.6504C234.939 26.9727 234.901 27.3415 234.901 27.7568V28.4175C234.901 28.8114 234.935 29.1694 235.003 29.4917C235.075 29.8104 235.182 30.0843 235.326 30.3135C235.472 30.5426 235.659 30.7199 235.884 30.8452C236.11 30.9705 236.38 31.0332 236.695 31.0332C237.078 31.0332 237.388 30.9723 237.625 30.8506C237.864 30.7288 238.045 30.5516 238.167 30.3188C238.292 30.0825 238.375 29.7943 238.414 29.4541ZM240.605 29.1587V29.0352C240.605 28.6162 240.666 28.2277 240.788 27.8696C240.91 27.508 241.085 27.1947 241.314 26.9297C241.547 26.6611 241.83 26.4535 242.163 26.3066C242.5 26.1562 242.879 26.0811 243.302 26.0811C243.728 26.0811 244.107 26.1562 244.44 26.3066C244.777 26.4535 245.062 26.6611 245.294 26.9297C245.527 27.1947 245.704 27.508 245.826 27.8696C245.948 28.2277 246.009 28.6162 246.009 29.0352V29.1587C246.009 29.5776 245.948 29.9661 245.826 30.3242C245.704 30.6823 245.527 30.9956 245.294 31.2642C245.062 31.5291 244.779 31.7368 244.446 31.8872C244.113 32.034 243.735 32.1074 243.312 32.1074C242.886 32.1074 242.505 32.034 242.168 31.8872C241.835 31.7368 241.553 31.5291 241.32 31.2642C241.087 30.9956 240.91 30.6823 240.788 30.3242C240.666 29.9661 240.605 29.5776 240.605 29.1587ZM241.9 29.0352V29.1587C241.9 29.4201 241.927 29.6672 241.98 29.8999C242.034 30.1326 242.118 30.3368 242.233 30.5122C242.347 30.6877 242.494 30.8255 242.673 30.9258C242.852 31.026 243.065 31.0762 243.312 31.0762C243.552 31.0762 243.76 31.026 243.936 30.9258C244.115 30.8255 244.261 30.6877 244.376 30.5122C244.491 30.3368 244.575 30.1326 244.628 29.8999C244.686 29.6672 244.714 29.4201 244.714 29.1587V29.0352C244.714 28.7773 244.686 28.5339 244.628 28.3047C244.575 28.0719 244.489 27.866 244.371 27.687C244.256 27.508 244.109 27.3683 243.93 27.2681C243.755 27.1642 243.545 27.1123 243.302 27.1123C243.058 27.1123 242.847 27.1642 242.668 27.2681C242.493 27.3683 242.347 27.508 242.233 27.687C242.118 27.866 242.034 28.0719 241.98 28.3047C241.927 28.5339 241.9 28.7773 241.9 29.0352ZM248.377 27.4292V32H247.083V26.1885H248.302L248.377 27.4292ZM248.146 28.8794L247.728 28.874C247.731 28.4622 247.788 28.0845 247.899 27.7407C248.014 27.397 248.172 27.1016 248.372 26.8545C248.576 26.6074 248.82 26.4176 249.103 26.2852C249.385 26.1491 249.701 26.0811 250.048 26.0811C250.327 26.0811 250.58 26.1204 250.805 26.1992C251.034 26.2744 251.229 26.3979 251.391 26.5698C251.555 26.7417 251.681 26.9655 251.767 27.2412C251.853 27.5133 251.896 27.8481 251.896 28.2456V32H250.596V28.2402C250.596 27.9609 250.555 27.7407 250.472 27.5796C250.393 27.4149 250.277 27.2985 250.123 27.2305C249.973 27.1589 249.785 27.123 249.559 27.123C249.337 27.123 249.138 27.1696 248.963 27.2627C248.787 27.3558 248.639 27.4829 248.517 27.644C248.399 27.8052 248.308 27.9914 248.243 28.2026C248.179 28.4139 248.146 28.6395 248.146 28.8794ZM256.477 30.4263C256.477 30.2974 256.445 30.181 256.38 30.0771C256.316 29.9697 256.192 29.873 256.01 29.7871C255.831 29.7012 255.566 29.6224 255.215 29.5508C254.907 29.4827 254.624 29.4022 254.366 29.3091C254.112 29.2124 253.894 29.096 253.711 28.96C253.528 28.8239 253.387 28.6628 253.287 28.4766C253.186 28.2904 253.136 28.0755 253.136 27.832C253.136 27.5957 253.188 27.3719 253.292 27.1606C253.396 26.9494 253.544 26.7632 253.738 26.6021C253.931 26.4409 254.166 26.3138 254.441 26.2207C254.721 26.1276 255.032 26.0811 255.376 26.0811C255.863 26.0811 256.28 26.1634 256.627 26.3281C256.978 26.4893 257.247 26.7095 257.433 26.9888C257.619 27.2645 257.712 27.576 257.712 27.9233H256.418C256.418 27.7694 256.379 27.6261 256.3 27.4937C256.225 27.3576 256.11 27.2484 255.956 27.166C255.802 27.0801 255.609 27.0371 255.376 27.0371C255.154 27.0371 254.97 27.0729 254.823 27.1445C254.68 27.2126 254.572 27.3021 254.5 27.4131C254.432 27.5241 254.398 27.6458 254.398 27.7783C254.398 27.875 254.416 27.9627 254.452 28.0415C254.492 28.1167 254.556 28.1865 254.646 28.251C254.735 28.3118 254.857 28.3691 255.011 28.4229C255.168 28.4766 255.365 28.5285 255.602 28.5786C256.046 28.6717 256.427 28.7917 256.746 28.9385C257.068 29.0817 257.315 29.2679 257.487 29.4971C257.659 29.7227 257.745 30.0091 257.745 30.3564C257.745 30.6143 257.689 30.8506 257.578 31.0654C257.471 31.2767 257.313 31.4611 257.105 31.6187C256.898 31.7726 256.649 31.8926 256.359 31.9785C256.072 32.0645 255.75 32.1074 255.392 32.1074C254.866 32.1074 254.42 32.0143 254.055 31.8281C253.689 31.6383 253.412 31.3966 253.222 31.103C253.036 30.8058 252.943 30.4979 252.943 30.1792H254.194C254.209 30.4191 254.275 30.6107 254.393 30.7539C254.515 30.8936 254.665 30.9956 254.844 31.0601C255.027 31.1209 255.215 31.1514 255.408 31.1514C255.641 31.1514 255.836 31.1209 255.994 31.0601C256.151 30.9956 256.271 30.9097 256.354 30.8022C256.436 30.6912 256.477 30.5659 256.477 30.4263ZM261.44 32.1074C261.01 32.1074 260.622 32.0376 260.274 31.8979C259.931 31.7547 259.637 31.556 259.394 31.3018C259.154 31.0475 258.969 30.7485 258.84 30.4048C258.711 30.061 258.647 29.6904 258.647 29.293V29.0781C258.647 28.6234 258.713 28.2116 258.846 27.8428C258.978 27.474 259.163 27.1589 259.399 26.8975C259.635 26.6325 259.915 26.4302 260.237 26.2905C260.559 26.1509 260.908 26.0811 261.284 26.0811C261.7 26.0811 262.063 26.1509 262.375 26.2905C262.686 26.4302 262.944 26.6271 263.148 26.8813C263.356 27.132 263.51 27.431 263.61 27.7783C263.714 28.1257 263.766 28.5088 263.766 28.9277V29.481H259.275V28.5518H262.487V28.4497C262.48 28.217 262.434 27.9985 262.348 27.7944C262.265 27.5903 262.138 27.4256 261.966 27.3003C261.794 27.175 261.565 27.1123 261.279 27.1123C261.064 27.1123 260.872 27.1589 260.704 27.252C260.539 27.3415 260.402 27.4722 260.291 27.644C260.18 27.8159 260.094 28.0236 260.033 28.2671C259.975 28.507 259.947 28.7773 259.947 29.0781V29.293C259.947 29.5472 259.981 29.7835 260.049 30.002C260.12 30.2168 260.224 30.4048 260.36 30.5659C260.496 30.7271 260.661 30.8542 260.854 30.9473C261.048 31.0368 261.268 31.0815 261.515 31.0815C261.827 31.0815 262.104 31.0189 262.348 30.8936C262.591 30.7682 262.802 30.591 262.981 30.3618L263.664 31.0225C263.538 31.2051 263.375 31.3805 263.175 31.5488C262.974 31.7135 262.729 31.8478 262.439 31.9517C262.153 32.0555 261.819 32.1074 261.44 32.1074ZM266.059 27.4292V32H264.765V26.1885H265.984L266.059 27.4292ZM265.828 28.8794L265.409 28.874C265.413 28.4622 265.47 28.0845 265.581 27.7407C265.696 27.397 265.853 27.1016 266.054 26.8545C266.258 26.6074 266.501 26.4176 266.784 26.2852C267.067 26.1491 267.382 26.0811 267.729 26.0811C268.009 26.0811 268.261 26.1204 268.487 26.1992C268.716 26.2744 268.911 26.3979 269.072 26.5698C269.237 26.7417 269.362 26.9655 269.448 27.2412C269.534 27.5133 269.577 27.8481 269.577 28.2456V32H268.277V28.2402C268.277 27.9609 268.236 27.7407 268.154 27.5796C268.075 27.4149 267.959 27.2985 267.805 27.2305C267.654 27.1589 267.466 27.123 267.241 27.123C267.019 27.123 266.82 27.1696 266.645 27.2627C266.469 27.3558 266.32 27.4829 266.199 27.644C266.081 27.8052 265.989 27.9914 265.925 28.2026C265.86 28.4139 265.828 28.6395 265.828 28.8794ZM273.562 26.1885V27.1338H270.286V26.1885H273.562ZM271.231 24.7651H272.526V30.394C272.526 30.5731 272.551 30.7109 272.601 30.8076C272.655 30.9007 272.728 30.9634 272.821 30.9956C272.914 31.0278 273.024 31.0439 273.149 31.0439C273.238 31.0439 273.324 31.0386 273.407 31.0278C273.489 31.0171 273.555 31.0063 273.605 30.9956L273.611 31.9839C273.503 32.0161 273.378 32.0448 273.235 32.0698C273.095 32.0949 272.934 32.1074 272.751 32.1074C272.454 32.1074 272.191 32.0555 271.962 31.9517C271.733 31.8442 271.554 31.6706 271.425 31.4307C271.296 31.1908 271.231 30.8721 271.231 30.4746V24.7651ZM280.4 29.0835H278.364V28.0146H280.4C280.754 28.0146 281.041 27.9574 281.259 27.8428C281.478 27.7282 281.637 27.5706 281.737 27.3701C281.841 27.166 281.893 26.9333 281.893 26.6719C281.893 26.4248 281.841 26.1938 281.737 25.979C281.637 25.7606 281.478 25.5851 281.259 25.4526C281.041 25.3201 280.754 25.2539 280.4 25.2539H278.778V32H277.43V24.1797H280.4C281.005 24.1797 281.519 24.2871 281.941 24.502C282.368 24.7132 282.692 25.0068 282.914 25.3828C283.136 25.7552 283.247 26.1813 283.247 26.6611C283.247 27.166 283.136 27.5993 282.914 27.9609C282.692 28.3226 282.368 28.6001 281.941 28.7935C281.519 28.9868 281.005 29.0835 280.4 29.0835ZM286.813 32.1074C286.383 32.1074 285.995 32.0376 285.647 31.8979C285.304 31.7547 285.01 31.556 284.767 31.3018C284.527 31.0475 284.342 30.7485 284.213 30.4048C284.084 30.061 284.02 29.6904 284.02 29.293V29.0781C284.02 28.6234 284.086 28.2116 284.219 27.8428C284.351 27.474 284.536 27.1589 284.772 26.8975C285.008 26.6325 285.288 26.4302 285.61 26.2905C285.932 26.1509 286.281 26.0811 286.657 26.0811C287.073 26.0811 287.436 26.1509 287.748 26.2905C288.059 26.4302 288.317 26.6271 288.521 26.8813C288.729 27.132 288.883 27.431 288.983 27.7783C289.087 28.1257 289.139 28.5088 289.139 28.9277V29.481H284.648V28.5518H287.86V28.4497C287.853 28.217 287.807 27.9985 287.721 27.7944C287.638 27.5903 287.511 27.4256 287.339 27.3003C287.167 27.175 286.938 27.1123 286.652 27.1123C286.437 27.1123 286.245 27.1589 286.077 27.252C285.912 27.3415 285.775 27.4722 285.664 27.644C285.553 27.8159 285.467 28.0236 285.406 28.2671C285.348 28.507 285.32 28.7773 285.32 29.0781V29.293C285.32 29.5472 285.354 29.7835 285.422 30.002C285.493 30.2168 285.597 30.4048 285.733 30.5659C285.869 30.7271 286.034 30.8542 286.228 30.9473C286.421 31.0368 286.641 31.0815 286.888 31.0815C287.2 31.0815 287.477 31.0189 287.721 30.8936C287.964 30.7682 288.175 30.591 288.354 30.3618L289.037 31.0225C288.911 31.2051 288.748 31.3805 288.548 31.5488C288.347 31.7135 288.102 31.8478 287.812 31.9517C287.526 32.0555 287.193 32.1074 286.813 32.1074ZM291.432 27.4292V32H290.138V26.1885H291.357L291.432 27.4292ZM291.201 28.8794L290.782 28.874C290.786 28.4622 290.843 28.0845 290.954 27.7407C291.069 27.397 291.226 27.1016 291.427 26.8545C291.631 26.6074 291.874 26.4176 292.157 26.2852C292.44 26.1491 292.755 26.0811 293.103 26.0811C293.382 26.0811 293.634 26.1204 293.86 26.1992C294.089 26.2744 294.284 26.3979 294.445 26.5698C294.61 26.7417 294.735 26.9655 294.821 27.2412C294.907 27.5133 294.95 27.8481 294.95 28.2456V32H293.65V28.2402C293.65 27.9609 293.609 27.7407 293.527 27.5796C293.448 27.4149 293.332 27.2985 293.178 27.2305C293.027 27.1589 292.839 27.123 292.614 27.123C292.392 27.123 292.193 27.1696 292.018 27.2627C291.842 27.3558 291.694 27.4829 291.572 27.644C291.454 27.8052 291.362 27.9914 291.298 28.2026C291.233 28.4139 291.201 28.6395 291.201 28.8794ZM299.816 30.7969V23.75H301.116V32H299.94L299.816 30.7969ZM296.035 29.1587V29.0459C296.035 28.6055 296.087 28.2044 296.191 27.8428C296.295 27.4775 296.445 27.1642 296.642 26.9028C296.839 26.6379 297.079 26.4355 297.362 26.2959C297.645 26.1527 297.963 26.0811 298.318 26.0811C298.669 26.0811 298.977 26.1491 299.242 26.2852C299.507 26.4212 299.732 26.6164 299.918 26.8706C300.105 27.1213 300.253 27.422 300.364 27.7729C300.475 28.1203 300.554 28.507 300.601 28.9331V29.293C300.554 29.7083 300.475 30.0879 300.364 30.4316C300.253 30.7754 300.105 31.0726 299.918 31.3232C299.732 31.5739 299.505 31.7673 299.236 31.9033C298.971 32.0394 298.662 32.1074 298.307 32.1074C297.956 32.1074 297.639 32.034 297.356 31.8872C297.077 31.7404 296.839 31.5345 296.642 31.2695C296.445 31.0046 296.295 30.693 296.191 30.335C296.087 29.9733 296.035 29.5812 296.035 29.1587ZM297.33 29.0459V29.1587C297.33 29.4237 297.353 29.6707 297.399 29.8999C297.45 30.1291 297.527 30.3314 297.63 30.5068C297.734 30.6787 297.868 30.8148 298.033 30.915C298.201 31.0117 298.402 31.0601 298.635 31.0601C298.928 31.0601 299.17 30.9956 299.36 30.8667C299.55 30.7378 299.698 30.5641 299.806 30.3457C299.917 30.1237 299.992 29.8766 300.031 29.6045V28.6323C300.01 28.4211 299.965 28.2241 299.897 28.0415C299.833 27.8589 299.745 27.6995 299.634 27.5635C299.523 27.4238 299.385 27.3164 299.22 27.2412C299.059 27.1624 298.868 27.123 298.646 27.123C298.409 27.123 298.209 27.1732 298.044 27.2734C297.879 27.3737 297.743 27.5116 297.636 27.687C297.532 27.8625 297.455 28.0666 297.405 28.2993C297.355 28.5321 297.33 28.7809 297.33 29.0459ZM303.855 26.1885V32H302.556V26.1885H303.855ZM302.47 24.6631C302.47 24.4661 302.534 24.3032 302.663 24.1743C302.796 24.0418 302.978 23.9756 303.211 23.9756C303.44 23.9756 303.621 24.0418 303.753 24.1743C303.886 24.3032 303.952 24.4661 303.952 24.6631C303.952 24.8564 303.886 25.0176 303.753 25.1465C303.621 25.2754 303.44 25.3398 303.211 25.3398C302.978 25.3398 302.796 25.2754 302.663 25.1465C302.534 25.0176 302.47 24.8564 302.47 24.6631ZM306.557 27.4292V32H305.263V26.1885H306.482L306.557 27.4292ZM306.326 28.8794L305.907 28.874C305.911 28.4622 305.968 28.0845 306.079 27.7407C306.194 27.397 306.351 27.1016 306.552 26.8545C306.756 26.6074 306.999 26.4176 307.282 26.2852C307.565 26.1491 307.88 26.0811 308.228 26.0811C308.507 26.0811 308.759 26.1204 308.985 26.1992C309.214 26.2744 309.409 26.3979 309.57 26.5698C309.735 26.7417 309.86 26.9655 309.946 27.2412C310.032 27.5133 310.075 27.8481 310.075 28.2456V32H308.775V28.2402C308.775 27.9609 308.734 27.7407 308.652 27.5796C308.573 27.4149 308.457 27.2985 308.303 27.2305C308.152 27.1589 307.964 27.123 307.739 27.123C307.517 27.123 307.318 27.1696 307.143 27.2627C306.967 27.3558 306.819 27.4829 306.697 27.644C306.579 27.8052 306.487 27.9914 306.423 28.2026C306.358 28.4139 306.326 28.6395 306.326 28.8794ZM315.119 26.1885H316.295V31.8389C316.295 32.3617 316.184 32.8057 315.962 33.1709C315.74 33.5361 315.43 33.8136 315.033 34.0034C314.635 34.1968 314.175 34.2935 313.652 34.2935C313.43 34.2935 313.183 34.2612 312.911 34.1968C312.643 34.1323 312.381 34.0285 312.127 33.8853C311.876 33.7456 311.667 33.5612 311.499 33.332L312.105 32.5693C312.313 32.8164 312.542 32.9972 312.793 33.1118C313.044 33.2264 313.307 33.2837 313.583 33.2837C313.88 33.2837 314.132 33.2282 314.34 33.1172C314.551 33.0098 314.714 32.8504 314.829 32.6392C314.943 32.4279 315 32.1701 315 31.8657V27.5044L315.119 26.1885ZM311.171 29.1587V29.0459C311.171 28.6055 311.225 28.2044 311.332 27.8428C311.439 27.4775 311.593 27.1642 311.794 26.9028C311.994 26.6379 312.238 26.4355 312.524 26.2959C312.811 26.1527 313.135 26.0811 313.497 26.0811C313.873 26.0811 314.193 26.1491 314.458 26.2852C314.727 26.4212 314.95 26.6164 315.129 26.8706C315.308 27.1213 315.448 27.422 315.548 27.7729C315.652 28.1203 315.729 28.507 315.779 28.9331V29.293C315.733 29.7083 315.654 30.0879 315.543 30.4316C315.432 30.7754 315.285 31.0726 315.103 31.3232C314.92 31.5739 314.694 31.7673 314.426 31.9033C314.161 32.0394 313.847 32.1074 313.486 32.1074C313.131 32.1074 312.811 32.034 312.524 31.8872C312.242 31.7404 311.998 31.5345 311.794 31.2695C311.593 31.0046 311.439 30.693 311.332 30.335C311.225 29.9733 311.171 29.5812 311.171 29.1587ZM312.465 29.0459V29.1587C312.465 29.4237 312.49 29.6707 312.541 29.8999C312.594 30.1291 312.675 30.3314 312.782 30.5068C312.893 30.6787 313.033 30.8148 313.201 30.915C313.373 31.0117 313.575 31.0601 313.808 31.0601C314.112 31.0601 314.361 30.9956 314.555 30.8667C314.752 30.7378 314.902 30.5641 315.006 30.3457C315.113 30.1237 315.188 29.8766 315.231 29.6045V28.6323C315.21 28.4211 315.165 28.2241 315.097 28.0415C315.033 27.8589 314.945 27.6995 314.834 27.5635C314.723 27.4238 314.583 27.3164 314.415 27.2412C314.247 27.1624 314.048 27.123 313.819 27.123C313.586 27.123 313.384 27.1732 313.212 27.2734C313.04 27.3737 312.899 27.5116 312.788 27.687C312.68 27.8625 312.6 28.0666 312.546 28.2993C312.492 28.5321 312.465 28.7809 312.465 29.0459Z" fill="#FFB42A"/>
<g clip-path="url(#clip0_6127_28159)">
<path fill-rule="evenodd" clip-rule="evenodd" d="M221.91 22.0989C222.264 22.0339 222.628 22 223 22C226.314 22 229 24.6863 229 28C229 31.3137 226.314 34 223 34C222.628 34 222.264 33.9661 221.91 33.9011C221.638 33.8512 221.458 33.5906 221.508 33.319C221.558 33.0474 221.819 32.8677 222.09 32.9176C222.385 32.9717 222.689 33 223 33C225.761 33 228 30.7614 228 28C228 25.2386 225.761 23 223 23C222.689 23 222.385 23.0283 222.09 23.0825C221.819 23.1324 221.558 22.9526 221.508 22.681C221.458 22.4094 221.638 22.1488 221.91 22.0989ZM220.683 22.9854C220.821 23.2245 220.739 23.5303 220.5 23.6686C219.818 24.0632 219.238 24.6145 218.808 25.2731C218.657 25.5044 218.348 25.5697 218.116 25.4188C217.885 25.268 217.82 24.9582 217.971 24.7269C218.486 23.9372 219.181 23.2763 220 22.803C220.239 22.6647 220.545 22.7464 220.683 22.9854ZM223 24.5C223.276 24.5 223.5 24.7239 223.5 25V27.7498L225.3 29.1C225.521 29.2657 225.566 29.5791 225.4 29.8C225.234 30.0209 224.921 30.0657 224.7 29.9L222.706 28.4042C222.676 28.3824 222.654 28.361 222.638 28.345C222.596 28.3004 222.569 28.2559 222.553 28.2234C222.536 28.1909 222.517 28.1429 222.507 28.082C222.503 28.0601 222.499 28.0294 222.5 27.9924V25C222.5 24.7239 222.724 24.5 223 24.5ZM217.756 26.263C218.025 26.3255 218.192 26.5942 218.13 26.8632C218.045 27.2279 218 27.6084 218 28C218 28.3916 218.045 28.7721 218.13 29.1368C218.192 29.4058 218.025 29.6745 217.756 29.737C217.487 29.7996 217.218 29.6322 217.156 29.3632C217.054 28.9248 217 28.4683 217 28C217 27.5317 217.054 27.0753 217.156 26.6368C217.218 26.3678 217.487 26.2005 217.756 26.263ZM218.116 30.5812C218.348 30.4304 218.657 30.4956 218.808 30.7269C219.238 31.3856 219.818 31.9368 220.5 32.3314C220.739 32.4697 220.821 32.7755 220.683 33.0146C220.545 33.2536 220.239 33.3352 220 33.197C219.181 32.7236 218.486 32.0628 217.971 31.2731C217.82 31.0417 217.885 30.732 218.116 30.5812Z" fill="#FFB42A"/>
</g>
<path d="M30.1611 29.2275H26.8301V27.4785H30.1611C30.7412 27.4785 31.21 27.3848 31.5674 27.1973C31.9248 27.0098 32.1855 26.752 32.3496 26.4238C32.5195 26.0898 32.6045 25.709 32.6045 25.2812C32.6045 24.877 32.5195 24.499 32.3496 24.1475C32.1855 23.79 31.9248 23.5029 31.5674 23.2861C31.21 23.0693 30.7412 22.9609 30.1611 22.9609H27.5068V34H25.3008V21.2031H30.1611C31.1514 21.2031 31.9922 21.3789 32.6836 21.7305C33.3809 22.0762 33.9111 22.5566 34.2744 23.1719C34.6377 23.7812 34.8193 24.4785 34.8193 25.2637C34.8193 26.0898 34.6377 26.7988 34.2744 27.3906C33.9111 27.9824 33.3809 28.4365 32.6836 28.7529C31.9922 29.0693 31.1514 29.2275 30.1611 29.2275ZM41.8418 32.0928V27.5576C41.8418 27.2178 41.7803 26.9248 41.6572 26.6787C41.5342 26.4326 41.3467 26.2422 41.0947 26.1074C40.8486 25.9727 40.5381 25.9053 40.1631 25.9053C39.8174 25.9053 39.5186 25.9639 39.2666 26.0811C39.0146 26.1982 38.8184 26.3564 38.6777 26.5557C38.5371 26.7549 38.4668 26.9805 38.4668 27.2324H36.3574C36.3574 26.8574 36.4482 26.4941 36.6299 26.1426C36.8115 25.791 37.0752 25.4775 37.4209 25.2021C37.7666 24.9268 38.1797 24.71 38.6602 24.5518C39.1406 24.3936 39.6797 24.3145 40.2773 24.3145C40.9922 24.3145 41.625 24.4346 42.1758 24.6748C42.7324 24.915 43.1689 25.2783 43.4854 25.7646C43.8076 26.2451 43.9688 26.8486 43.9688 27.5752V31.8027C43.9688 32.2363 43.998 32.626 44.0566 32.9717C44.1211 33.3115 44.2119 33.6074 44.3291 33.8594V34H42.1582C42.0586 33.7715 41.9795 33.4814 41.9209 33.1299C41.8682 32.7725 41.8418 32.4268 41.8418 32.0928ZM42.1494 28.2168L42.167 29.5264H40.6465C40.2539 29.5264 39.9082 29.5645 39.6094 29.6406C39.3105 29.7109 39.0615 29.8164 38.8623 29.957C38.6631 30.0977 38.5137 30.2676 38.4141 30.4668C38.3145 30.666 38.2646 30.8916 38.2646 31.1436C38.2646 31.3955 38.3232 31.627 38.4404 31.8379C38.5576 32.043 38.7275 32.2041 38.9502 32.3213C39.1787 32.4385 39.4541 32.4971 39.7764 32.4971C40.21 32.4971 40.5879 32.4092 40.9102 32.2334C41.2383 32.0518 41.4961 31.832 41.6836 31.5742C41.8711 31.3105 41.9707 31.0615 41.9824 30.8271L42.668 31.7676C42.5977 32.0078 42.4775 32.2656 42.3076 32.541C42.1377 32.8164 41.915 33.0801 41.6396 33.332C41.3701 33.5781 41.0449 33.7803 40.6641 33.9385C40.2891 34.0967 39.8555 34.1758 39.3633 34.1758C38.7422 34.1758 38.1885 34.0527 37.7021 33.8066C37.2158 33.5547 36.835 33.2178 36.5596 32.7959C36.2842 32.3682 36.1465 31.8848 36.1465 31.3457C36.1465 30.8418 36.2402 30.3965 36.4277 30.0098C36.6211 29.6172 36.9023 29.2891 37.2715 29.0254C37.6465 28.7617 38.1035 28.5625 38.6426 28.4277C39.1816 28.2871 39.7969 28.2168 40.4883 28.2168H42.1494ZM48.8027 32.9629L51.3867 24.4902H53.6543L49.8398 35.4502C49.752 35.6846 49.6377 35.9395 49.4971 36.2148C49.3564 36.4902 49.1719 36.751 48.9434 36.9971C48.7207 37.249 48.4424 37.4512 48.1084 37.6035C47.7744 37.7617 47.3701 37.8408 46.8955 37.8408C46.708 37.8408 46.5264 37.8232 46.3506 37.7881C46.1807 37.7588 46.0195 37.7266 45.8672 37.6914L45.8584 36.0742C45.917 36.0801 45.9873 36.0859 46.0693 36.0918C46.1572 36.0977 46.2275 36.1006 46.2803 36.1006C46.6318 36.1006 46.9248 36.0566 47.1592 35.9688C47.3936 35.8867 47.584 35.752 47.7305 35.5645C47.8828 35.377 48.0117 35.125 48.1172 34.8086L48.8027 32.9629ZM47.3438 24.4902L49.6025 31.6094L49.9805 33.8418L48.5127 34.2197L45.0586 24.4902H47.3438ZM59.2266 24.4902V26.0371H53.8652V24.4902H59.2266ZM55.4121 22.1611H57.5303V31.3721C57.5303 31.665 57.5713 31.8906 57.6533 32.0488C57.7412 32.2012 57.8613 32.3037 58.0137 32.3564C58.166 32.4092 58.3447 32.4355 58.5498 32.4355C58.6963 32.4355 58.8369 32.4268 58.9717 32.4092C59.1064 32.3916 59.2148 32.374 59.2969 32.3564L59.3057 33.9736C59.1299 34.0264 58.9248 34.0732 58.6904 34.1143C58.4619 34.1553 58.1982 34.1758 57.8994 34.1758C57.4131 34.1758 56.9824 34.0908 56.6074 33.9209C56.2324 33.7451 55.9395 33.4609 55.7285 33.0684C55.5176 32.6758 55.4121 32.1543 55.4121 31.5039V22.1611ZM62.9795 26.4238V34H60.8613V24.4902H62.8564L62.9795 26.4238ZM62.6367 28.8936L61.916 28.8848C61.916 28.2285 61.998 27.6221 62.1621 27.0654C62.3262 26.5088 62.5664 26.0254 62.8828 25.6152C63.1992 25.1992 63.5918 24.8799 64.0605 24.6572C64.5352 24.4287 65.083 24.3145 65.7041 24.3145C66.1377 24.3145 66.5332 24.3789 66.8906 24.5078C67.2539 24.6309 67.5674 24.8271 67.8311 25.0967C68.1006 25.3662 68.3057 25.7119 68.4463 26.1338C68.5928 26.5557 68.666 27.0654 68.666 27.6631V34H66.5479V27.8477C66.5479 27.3848 66.4775 27.0215 66.3369 26.7578C66.2021 26.4941 66.0059 26.3066 65.748 26.1953C65.4961 26.0781 65.1943 26.0195 64.8428 26.0195C64.4443 26.0195 64.1045 26.0957 63.8232 26.248C63.5479 26.4004 63.3223 26.6084 63.1465 26.8721C62.9707 27.1357 62.8418 27.4404 62.7598 27.7861C62.6777 28.1318 62.6367 28.501 62.6367 28.8936ZM68.5342 28.3311L67.541 28.5508C67.541 27.9766 67.6201 27.4346 67.7783 26.9248C67.9424 26.4092 68.1797 25.958 68.4902 25.5713C68.8066 25.1787 69.1963 24.8711 69.6592 24.6484C70.1221 24.4258 70.6523 24.3145 71.25 24.3145C71.7363 24.3145 72.1699 24.3818 72.5508 24.5166C72.9375 24.6455 73.2656 24.8506 73.5352 25.1318C73.8047 25.4131 74.0098 25.7793 74.1504 26.2305C74.291 26.6758 74.3613 27.2148 74.3613 27.8477V34H72.2344V27.8389C72.2344 27.3584 72.1641 26.9863 72.0234 26.7227C71.8887 26.459 71.6953 26.2773 71.4434 26.1777C71.1914 26.0723 70.8896 26.0195 70.5381 26.0195C70.21 26.0195 69.9199 26.0811 69.668 26.2041C69.4219 26.3213 69.2139 26.4883 69.0439 26.7051C68.874 26.916 68.7451 27.1592 68.6572 27.4346C68.5752 27.71 68.5342 28.0088 68.5342 28.3311Z" fill="#202020"/>
<path d="M811.828 22.625H813.328V30.3203C813.328 31.1745 813.138 31.8854 812.758 32.4531C812.378 33.0208 811.872 33.4479 811.242 33.7344C810.617 34.0156 809.938 34.1562 809.203 34.1562C808.432 34.1562 807.734 34.0156 807.109 33.7344C806.49 33.4479 805.997 33.0208 805.633 32.4531C805.273 31.8854 805.094 31.1745 805.094 30.3203V22.625H806.586V30.3203C806.586 30.9141 806.695 31.4036 806.914 31.7891C807.133 32.1745 807.438 32.4609 807.828 32.6484C808.224 32.8359 808.682 32.9297 809.203 32.9297C809.729 32.9297 810.188 32.8359 810.578 32.6484C810.974 32.4609 811.281 32.1745 811.5 31.7891C811.719 31.4036 811.828 30.9141 811.828 30.3203V22.625ZM816.922 27.1719V37.25H815.469V25.5469H816.797L816.922 27.1719ZM822.617 29.7031V29.8672C822.617 30.4818 822.544 31.0521 822.398 31.5781C822.253 32.099 822.039 32.5521 821.758 32.9375C821.482 33.3229 821.141 33.6224 820.734 33.8359C820.328 34.0495 819.862 34.1562 819.336 34.1562C818.799 34.1562 818.326 34.0677 817.914 33.8906C817.503 33.7135 817.154 33.4557 816.867 33.1172C816.581 32.7786 816.352 32.3724 816.18 31.8984C816.013 31.4245 815.898 30.8906 815.836 30.2969V29.4219C815.898 28.7969 816.016 28.237 816.188 27.7422C816.359 27.2474 816.586 26.8255 816.867 26.4766C817.154 26.1224 817.5 25.8542 817.906 25.6719C818.312 25.4844 818.781 25.3906 819.312 25.3906C819.844 25.3906 820.315 25.4948 820.727 25.7031C821.138 25.9062 821.484 26.1979 821.766 26.5781C822.047 26.9583 822.258 27.4141 822.398 27.9453C822.544 28.4714 822.617 29.0573 822.617 29.7031ZM821.164 29.8672V29.7031C821.164 29.2812 821.12 28.8854 821.031 28.5156C820.943 28.1406 820.805 27.8125 820.617 27.5312C820.435 27.2448 820.201 27.0208 819.914 26.8594C819.628 26.6927 819.286 26.6094 818.891 26.6094C818.526 26.6094 818.208 26.6719 817.938 26.7969C817.672 26.9219 817.445 27.0911 817.258 27.3047C817.07 27.513 816.917 27.7526 816.797 28.0234C816.682 28.2891 816.596 28.5651 816.539 28.8516V30.875C816.643 31.2396 816.789 31.5833 816.977 31.9062C817.164 32.224 817.414 32.4818 817.727 32.6797C818.039 32.8724 818.432 32.9688 818.906 32.9688C819.297 32.9688 819.633 32.888 819.914 32.7266C820.201 32.5599 820.435 32.3333 820.617 32.0469C820.805 31.7604 820.943 31.4323 821.031 31.0625C821.12 30.6875 821.164 30.2891 821.164 29.8672ZM826.031 22V34H824.578V22H826.031ZM827.969 29.8672V29.6875C827.969 29.0781 828.057 28.513 828.234 27.9922C828.411 27.4661 828.667 27.0104 829 26.625C829.333 26.2344 829.737 25.9323 830.211 25.7188C830.685 25.5 831.216 25.3906 831.805 25.3906C832.398 25.3906 832.932 25.5 833.406 25.7188C833.885 25.9323 834.292 26.2344 834.625 26.625C834.964 27.0104 835.221 27.4661 835.398 27.9922C835.576 28.513 835.664 29.0781 835.664 29.6875V29.8672C835.664 30.4766 835.576 31.0417 835.398 31.5625C835.221 32.0833 834.964 32.5391 834.625 32.9297C834.292 33.3151 833.888 33.6172 833.414 33.8359C832.945 34.0495 832.414 34.1562 831.82 34.1562C831.227 34.1562 830.693 34.0495 830.219 33.8359C829.745 33.6172 829.339 33.3151 829 32.9297C828.667 32.5391 828.411 32.0833 828.234 31.5625C828.057 31.0417 827.969 30.4766 827.969 29.8672ZM829.414 29.6875V29.8672C829.414 30.2891 829.464 30.6875 829.562 31.0625C829.661 31.4323 829.81 31.7604 830.008 32.0469C830.211 32.3333 830.464 32.5599 830.766 32.7266C831.068 32.888 831.419 32.9688 831.82 32.9688C832.216 32.9688 832.562 32.888 832.859 32.7266C833.161 32.5599 833.411 32.3333 833.609 32.0469C833.807 31.7604 833.956 31.4323 834.055 31.0625C834.159 30.6875 834.211 30.2891 834.211 29.8672V29.6875C834.211 29.2708 834.159 28.8776 834.055 28.5078C833.956 28.1328 833.805 27.8021 833.602 27.5156C833.404 27.224 833.154 26.9948 832.852 26.8281C832.555 26.6615 832.206 26.5781 831.805 26.5781C831.409 26.5781 831.06 26.6615 830.758 26.8281C830.461 26.9948 830.211 27.224 830.008 27.5156C829.81 27.8021 829.661 28.1328 829.562 28.5078C829.464 28.8776 829.414 29.2708 829.414 29.6875ZM842.461 32.5547V28.2031C842.461 27.8698 842.393 27.5807 842.258 27.3359C842.128 27.0859 841.93 26.8932 841.664 26.7578C841.398 26.6224 841.07 26.5547 840.68 26.5547C840.315 26.5547 839.995 26.6172 839.719 26.7422C839.448 26.8672 839.234 27.0312 839.078 27.2344C838.927 27.4375 838.852 27.6562 838.852 27.8906H837.406C837.406 27.5885 837.484 27.2891 837.641 26.9922C837.797 26.6953 838.021 26.4271 838.312 26.1875C838.609 25.9427 838.964 25.75 839.375 25.6094C839.792 25.4635 840.255 25.3906 840.766 25.3906C841.38 25.3906 841.922 25.4948 842.391 25.7031C842.865 25.9115 843.234 26.2266 843.5 26.6484C843.771 27.0651 843.906 27.5885 843.906 28.2188V32.1562C843.906 32.4375 843.93 32.737 843.977 33.0547C844.029 33.3724 844.104 33.6458 844.203 33.875V34H842.695C842.622 33.8333 842.565 33.612 842.523 33.3359C842.482 33.0547 842.461 32.7943 842.461 32.5547ZM842.711 28.875L842.727 29.8906H841.266C840.854 29.8906 840.487 29.9245 840.164 29.9922C839.841 30.0547 839.57 30.151 839.352 30.2812C839.133 30.4115 838.966 30.5755 838.852 30.7734C838.737 30.9661 838.68 31.1927 838.68 31.4531C838.68 31.7188 838.74 31.9609 838.859 32.1797C838.979 32.3984 839.159 32.5729 839.398 32.7031C839.643 32.8281 839.943 32.8906 840.297 32.8906C840.74 32.8906 841.13 32.7969 841.469 32.6094C841.807 32.4219 842.076 32.1927 842.273 31.9219C842.477 31.651 842.586 31.388 842.602 31.1328L843.219 31.8281C843.182 32.0469 843.083 32.2891 842.922 32.5547C842.76 32.8203 842.544 33.0755 842.273 33.3203C842.008 33.5599 841.69 33.7604 841.32 33.9219C840.956 34.0781 840.544 34.1562 840.086 34.1562C839.513 34.1562 839.01 34.0443 838.578 33.8203C838.151 33.5964 837.818 33.2969 837.578 32.9219C837.344 32.5417 837.227 32.1172 837.227 31.6484C837.227 31.1953 837.315 30.7969 837.492 30.4531C837.669 30.1042 837.924 29.8151 838.258 29.5859C838.591 29.3516 838.992 29.1745 839.461 29.0547C839.93 28.9349 840.453 28.875 841.031 28.875H842.711ZM851.508 32.3594V22H852.961V34H851.633L851.508 32.3594ZM845.82 29.8672V29.7031C845.82 29.0573 845.898 28.4714 846.055 27.9453C846.216 27.4141 846.443 26.9583 846.734 26.5781C847.031 26.1979 847.383 25.9062 847.789 25.7031C848.201 25.4948 848.659 25.3906 849.164 25.3906C849.695 25.3906 850.159 25.4844 850.555 25.6719C850.956 25.8542 851.294 26.1224 851.57 26.4766C851.852 26.8255 852.073 27.2474 852.234 27.7422C852.396 28.237 852.508 28.7969 852.57 29.4219V30.1406C852.513 30.7604 852.401 31.3177 852.234 31.8125C852.073 32.3073 851.852 32.7292 851.57 33.0781C851.294 33.4271 850.956 33.6953 850.555 33.8828C850.154 34.0651 849.685 34.1562 849.148 34.1562C848.654 34.1562 848.201 34.0495 847.789 33.8359C847.383 33.6224 847.031 33.3229 846.734 32.9375C846.443 32.5521 846.216 32.099 846.055 31.5781C845.898 31.0521 845.82 30.4818 845.82 29.8672ZM847.273 29.7031V29.8672C847.273 30.2891 847.315 30.6849 847.398 31.0547C847.487 31.4245 847.622 31.75 847.805 32.0312C847.987 32.3125 848.219 32.5339 848.5 32.6953C848.781 32.8516 849.117 32.9297 849.508 32.9297C849.987 32.9297 850.38 32.8281 850.688 32.625C851 32.4219 851.25 32.1536 851.438 31.8203C851.625 31.487 851.771 31.125 851.875 30.7344V28.8516C851.812 28.5651 851.721 28.2891 851.602 28.0234C851.487 27.7526 851.336 27.513 851.148 27.3047C850.966 27.0911 850.74 26.9219 850.469 26.7969C850.203 26.6719 849.888 26.6094 849.523 26.6094C849.128 26.6094 848.786 26.6927 848.5 26.8594C848.219 27.0208 847.987 27.2448 847.805 27.5312C847.622 27.8125 847.487 28.1406 847.398 28.5156C847.315 28.8854 847.273 29.2812 847.273 29.7031ZM858.719 34.1562C858.13 34.1562 857.596 34.0573 857.117 33.8594C856.643 33.6562 856.234 33.3724 855.891 33.0078C855.552 32.6432 855.292 32.2109 855.109 31.7109C854.927 31.2109 854.836 30.6641 854.836 30.0703V29.7422C854.836 29.0547 854.938 28.4427 855.141 27.9062C855.344 27.3646 855.62 26.9062 855.969 26.5312C856.318 26.1562 856.714 25.8724 857.156 25.6797C857.599 25.487 858.057 25.3906 858.531 25.3906C859.135 25.3906 859.656 25.4948 860.094 25.7031C860.536 25.9115 860.898 26.2031 861.18 26.5781C861.461 26.9479 861.669 27.3854 861.805 27.8906C861.94 28.3906 862.008 28.9375 862.008 29.5312V30.1797H855.695V29H860.562V28.8906C860.542 28.5156 860.464 28.151 860.328 27.7969C860.198 27.4427 859.99 27.151 859.703 26.9219C859.417 26.6927 859.026 26.5781 858.531 26.5781C858.203 26.5781 857.901 26.6484 857.625 26.7891C857.349 26.9245 857.112 27.1276 856.914 27.3984C856.716 27.6693 856.562 28 856.453 28.3906C856.344 28.7812 856.289 29.2318 856.289 29.7422V30.0703C856.289 30.4714 856.344 30.849 856.453 31.2031C856.568 31.5521 856.732 31.8594 856.945 32.125C857.164 32.3906 857.427 32.599 857.734 32.75C858.047 32.901 858.401 32.9766 858.797 32.9766C859.307 32.9766 859.74 32.8724 860.094 32.6641C860.448 32.4557 860.758 32.1771 861.023 31.8281L861.898 32.5234C861.716 32.7995 861.484 33.0625 861.203 33.3125C860.922 33.5625 860.576 33.7656 860.164 33.9219C859.758 34.0781 859.276 34.1562 858.719 34.1562ZM869.023 32.3594V22H870.477V34H869.148L869.023 32.3594ZM863.336 29.8672V29.7031C863.336 29.0573 863.414 28.4714 863.57 27.9453C863.732 27.4141 863.958 26.9583 864.25 26.5781C864.547 26.1979 864.898 25.9062 865.305 25.7031C865.716 25.4948 866.174 25.3906 866.68 25.3906C867.211 25.3906 867.674 25.4844 868.07 25.6719C868.471 25.8542 868.81 26.1224 869.086 26.4766C869.367 26.8255 869.589 27.2474 869.75 27.7422C869.911 28.237 870.023 28.7969 870.086 29.4219V30.1406C870.029 30.7604 869.917 31.3177 869.75 31.8125C869.589 32.3073 869.367 32.7292 869.086 33.0781C868.81 33.4271 868.471 33.6953 868.07 33.8828C867.669 34.0651 867.201 34.1562 866.664 34.1562C866.169 34.1562 865.716 34.0495 865.305 33.8359C864.898 33.6224 864.547 33.3229 864.25 32.9375C863.958 32.5521 863.732 32.099 863.57 31.5781C863.414 31.0521 863.336 30.4818 863.336 29.8672ZM864.789 29.7031V29.8672C864.789 30.2891 864.831 30.6849 864.914 31.0547C865.003 31.4245 865.138 31.75 865.32 32.0312C865.503 32.3125 865.734 32.5339 866.016 32.6953C866.297 32.8516 866.633 32.9297 867.023 32.9297C867.503 32.9297 867.896 32.8281 868.203 32.625C868.516 32.4219 868.766 32.1536 868.953 31.8203C869.141 31.487 869.286 31.125 869.391 30.7344V28.8516C869.328 28.5651 869.237 28.2891 869.117 28.0234C869.003 27.7526 868.852 27.513 868.664 27.3047C868.482 27.0911 868.255 26.9219 867.984 26.7969C867.719 26.6719 867.404 26.6094 867.039 26.6094C866.643 26.6094 866.302 26.6927 866.016 26.8594C865.734 27.0208 865.503 27.2448 865.32 27.5312C865.138 27.8125 865.003 28.1406 864.914 28.5156C864.831 28.8854 864.789 29.2812 864.789 29.7031ZM876.312 29.8672V29.6875C876.312 29.0781 876.401 28.513 876.578 27.9922C876.755 27.4661 877.01 27.0104 877.344 26.625C877.677 26.2344 878.081 25.9323 878.555 25.7188C879.029 25.5 879.56 25.3906 880.148 25.3906C880.742 25.3906 881.276 25.5 881.75 25.7188C882.229 25.9323 882.635 26.2344 882.969 26.625C883.307 27.0104 883.565 27.4661 883.742 27.9922C883.919 28.513 884.008 29.0781 884.008 29.6875V29.8672C884.008 30.4766 883.919 31.0417 883.742 31.5625C883.565 32.0833 883.307 32.5391 882.969 32.9297C882.635 33.3151 882.232 33.6172 881.758 33.8359C881.289 34.0495 880.758 34.1562 880.164 34.1562C879.57 34.1562 879.036 34.0495 878.562 33.8359C878.089 33.6172 877.682 33.3151 877.344 32.9297C877.01 32.5391 876.755 32.0833 876.578 31.5625C876.401 31.0417 876.312 30.4766 876.312 29.8672ZM877.758 29.6875V29.8672C877.758 30.2891 877.807 30.6875 877.906 31.0625C878.005 31.4323 878.154 31.7604 878.352 32.0469C878.555 32.3333 878.807 32.5599 879.109 32.7266C879.411 32.888 879.763 32.9688 880.164 32.9688C880.56 32.9688 880.906 32.888 881.203 32.7266C881.505 32.5599 881.755 32.3333 881.953 32.0469C882.151 31.7604 882.299 31.4323 882.398 31.0625C882.503 30.6875 882.555 30.2891 882.555 29.8672V29.6875C882.555 29.2708 882.503 28.8776 882.398 28.5078C882.299 28.1328 882.148 27.8021 881.945 27.5156C881.747 27.224 881.497 26.9948 881.195 26.8281C880.898 26.6615 880.549 26.5781 880.148 26.5781C879.753 26.5781 879.404 26.6615 879.102 26.8281C878.805 26.9948 878.555 27.224 878.352 27.5156C878.154 27.8021 878.005 28.1328 877.906 28.5078C877.807 28.8776 877.758 29.2708 877.758 29.6875ZM887.266 27.3516V34H885.82V25.5469H887.188L887.266 27.3516ZM886.922 29.4531L886.32 29.4297C886.326 28.8516 886.411 28.3177 886.578 27.8281C886.745 27.3333 886.979 26.9036 887.281 26.5391C887.583 26.1745 887.943 25.8932 888.359 25.6953C888.781 25.4922 889.247 25.3906 889.758 25.3906C890.174 25.3906 890.549 25.4479 890.883 25.5625C891.216 25.6719 891.5 25.849 891.734 26.0938C891.974 26.3385 892.156 26.6562 892.281 27.0469C892.406 27.4323 892.469 27.9036 892.469 28.4609V34H891.016V28.4453C891.016 28.0026 890.951 27.6484 890.82 27.3828C890.69 27.112 890.5 26.9167 890.25 26.7969C890 26.6719 889.693 26.6094 889.328 26.6094C888.969 26.6094 888.641 26.6849 888.344 26.8359C888.052 26.987 887.799 27.1953 887.586 27.4609C887.378 27.7266 887.214 28.0312 887.094 28.375C886.979 28.7135 886.922 29.0729 886.922 29.4531ZM894.602 33.2344C894.602 32.9896 894.677 32.7839 894.828 32.6172C894.984 32.4453 895.208 32.3594 895.5 32.3594C895.792 32.3594 896.013 32.4453 896.164 32.6172C896.32 32.7839 896.398 32.9896 896.398 33.2344C896.398 33.474 896.32 33.6771 896.164 33.8438C896.013 34.0104 895.792 34.0938 895.5 34.0938C895.208 34.0938 894.984 34.0104 894.828 33.8438C894.677 33.6771 894.602 33.474 894.602 33.2344ZM894.609 26.3359C894.609 26.0911 894.685 25.8854 894.836 25.7188C894.992 25.5469 895.216 25.4609 895.508 25.4609C895.799 25.4609 896.021 25.5469 896.172 25.7188C896.328 25.8854 896.406 26.0911 896.406 26.3359C896.406 26.5755 896.328 26.7786 896.172 26.9453C896.021 27.112 895.799 27.1953 895.508 27.1953C895.216 27.1953 894.992 27.112 894.836 26.9453C894.685 26.7786 894.609 26.5755 894.609 26.3359Z" fill="#6C6969"/>
<path d="M907.695 22.5625V34H906.25V24.3672L903.336 25.4297V24.125L907.469 22.5625H907.695ZM916.695 22.5625V34H915.25V24.3672L912.336 25.4297V24.125L916.469 22.5625H916.695ZM926.133 22.625L921.391 34.9766H920.148L924.898 22.625H926.133ZM934.695 27.4062V29.1406C934.695 30.0729 934.612 30.8594 934.445 31.5C934.279 32.1406 934.039 32.6562 933.727 33.0469C933.414 33.4375 933.036 33.7214 932.594 33.8984C932.156 34.0703 931.661 34.1562 931.109 34.1562C930.672 34.1562 930.268 34.1016 929.898 33.9922C929.529 33.8828 929.195 33.7083 928.898 33.4688C928.607 33.224 928.357 32.9062 928.148 32.5156C927.94 32.125 927.781 31.651 927.672 31.0938C927.562 30.5365 927.508 29.8854 927.508 29.1406V27.4062C927.508 26.474 927.591 25.6927 927.758 25.0625C927.93 24.4323 928.172 23.9271 928.484 23.5469C928.797 23.1615 929.172 22.8854 929.609 22.7188C930.052 22.5521 930.547 22.4688 931.094 22.4688C931.536 22.4688 931.943 22.5234 932.312 22.6328C932.688 22.737 933.021 22.9062 933.312 23.1406C933.604 23.3698 933.852 23.6771 934.055 24.0625C934.263 24.4427 934.422 24.9089 934.531 25.4609C934.641 26.013 934.695 26.6615 934.695 27.4062ZM933.242 29.375V27.1641C933.242 26.6536 933.211 26.2057 933.148 25.8203C933.091 25.4297 933.005 25.0964 932.891 24.8203C932.776 24.5443 932.63 24.3203 932.453 24.1484C932.281 23.9766 932.081 23.8516 931.852 23.7734C931.628 23.6901 931.375 23.6484 931.094 23.6484C930.75 23.6484 930.445 23.7135 930.18 23.8438C929.914 23.9688 929.69 24.1693 929.508 24.4453C929.331 24.7214 929.195 25.0833 929.102 25.5312C929.008 25.9792 928.961 26.5234 928.961 27.1641V29.375C928.961 29.8854 928.99 30.3359 929.047 30.7266C929.109 31.1172 929.201 31.4557 929.32 31.7422C929.44 32.0234 929.586 32.2552 929.758 32.4375C929.93 32.6198 930.128 32.7552 930.352 32.8438C930.581 32.9271 930.833 32.9688 931.109 32.9688C931.464 32.9688 931.773 32.901 932.039 32.7656C932.305 32.6302 932.526 32.4193 932.703 32.1328C932.885 31.8411 933.021 31.4688 933.109 31.0156C933.198 30.5573 933.242 30.0104 933.242 29.375ZM938.664 27.6016H939.695C940.201 27.6016 940.617 27.5182 940.945 27.3516C941.279 27.1797 941.526 26.9479 941.688 26.6562C941.854 26.3594 941.938 26.026 941.938 25.6562C941.938 25.2188 941.865 24.8516 941.719 24.5547C941.573 24.2578 941.354 24.0339 941.062 23.8828C940.771 23.7318 940.401 23.6562 939.953 23.6562C939.547 23.6562 939.188 23.737 938.875 23.8984C938.568 24.0547 938.326 24.2786 938.148 24.5703C937.977 24.862 937.891 25.2057 937.891 25.6016H936.445C936.445 25.0234 936.591 24.4974 936.883 24.0234C937.174 23.5495 937.583 23.1719 938.109 22.8906C938.641 22.6094 939.255 22.4688 939.953 22.4688C940.641 22.4688 941.242 22.5911 941.758 22.8359C942.273 23.0755 942.674 23.4349 942.961 23.9141C943.247 24.388 943.391 24.9792 943.391 25.6875C943.391 25.974 943.323 26.2812 943.188 26.6094C943.057 26.9323 942.852 27.2344 942.57 27.5156C942.294 27.7969 941.935 28.0286 941.492 28.2109C941.049 28.388 940.518 28.4766 939.898 28.4766H938.664V27.6016ZM938.664 28.7891V27.9219H939.898C940.622 27.9219 941.221 28.0078 941.695 28.1797C942.169 28.3516 942.542 28.5807 942.812 28.8672C943.089 29.1536 943.281 29.4688 943.391 29.8125C943.505 30.151 943.562 30.4896 943.562 30.8281C943.562 31.3594 943.471 31.8307 943.289 32.2422C943.112 32.6536 942.859 33.0026 942.531 33.2891C942.208 33.5755 941.828 33.7917 941.391 33.9375C940.953 34.0833 940.477 34.1562 939.961 34.1562C939.466 34.1562 939 34.0859 938.562 33.9453C938.13 33.8047 937.747 33.6016 937.414 33.3359C937.081 33.0651 936.82 32.7344 936.633 32.3438C936.445 31.9479 936.352 31.4974 936.352 30.9922H937.797C937.797 31.388 937.883 31.7344 938.055 32.0312C938.232 32.3281 938.482 32.5599 938.805 32.7266C939.133 32.888 939.518 32.9688 939.961 32.9688C940.404 32.9688 940.784 32.8932 941.102 32.7422C941.424 32.5859 941.672 32.3516 941.844 32.0391C942.021 31.7266 942.109 31.3333 942.109 30.8594C942.109 30.3854 942.01 29.9974 941.812 29.6953C941.615 29.388 941.333 29.1615 940.969 29.0156C940.609 28.8646 940.185 28.7891 939.695 28.7891H938.664ZM950.742 22.625L946 34.9766H944.758L949.508 22.625H950.742ZM959.617 32.8125V34H952.172V32.9609L955.898 28.8125C956.357 28.3021 956.711 27.8698 956.961 27.5156C957.216 27.1562 957.393 26.8359 957.492 26.5547C957.596 26.2682 957.648 25.9766 957.648 25.6797C957.648 25.3047 957.57 24.9661 957.414 24.6641C957.263 24.3568 957.039 24.112 956.742 23.9297C956.445 23.7474 956.086 23.6562 955.664 23.6562C955.159 23.6562 954.737 23.7552 954.398 23.9531C954.065 24.1458 953.815 24.4167 953.648 24.7656C953.482 25.1146 953.398 25.5156 953.398 25.9688H951.953C951.953 25.3281 952.094 24.7422 952.375 24.2109C952.656 23.6797 953.073 23.2578 953.625 22.9453C954.177 22.6276 954.857 22.4688 955.664 22.4688C956.383 22.4688 956.997 22.5964 957.508 22.8516C958.018 23.1016 958.409 23.4557 958.68 23.9141C958.956 24.3672 959.094 24.8984 959.094 25.5078C959.094 25.8411 959.036 26.1797 958.922 26.5234C958.812 26.862 958.659 27.2005 958.461 27.5391C958.268 27.8776 958.042 28.2109 957.781 28.5391C957.526 28.8672 957.253 29.1901 956.961 29.5078L953.914 32.8125H959.617ZM968.305 27.4062V29.1406C968.305 30.0729 968.221 30.8594 968.055 31.5C967.888 32.1406 967.648 32.6562 967.336 33.0469C967.023 33.4375 966.646 33.7214 966.203 33.8984C965.766 34.0703 965.271 34.1562 964.719 34.1562C964.281 34.1562 963.878 34.1016 963.508 33.9922C963.138 33.8828 962.805 33.7083 962.508 33.4688C962.216 33.224 961.966 32.9062 961.758 32.5156C961.549 32.125 961.391 31.651 961.281 31.0938C961.172 30.5365 961.117 29.8854 961.117 29.1406V27.4062C961.117 26.474 961.201 25.6927 961.367 25.0625C961.539 24.4323 961.781 23.9271 962.094 23.5469C962.406 23.1615 962.781 22.8854 963.219 22.7188C963.661 22.5521 964.156 22.4688 964.703 22.4688C965.146 22.4688 965.552 22.5234 965.922 22.6328C966.297 22.737 966.63 22.9062 966.922 23.1406C967.214 23.3698 967.461 23.6771 967.664 24.0625C967.872 24.4427 968.031 24.9089 968.141 25.4609C968.25 26.013 968.305 26.6615 968.305 27.4062ZM966.852 29.375V27.1641C966.852 26.6536 966.82 26.2057 966.758 25.8203C966.701 25.4297 966.615 25.0964 966.5 24.8203C966.385 24.5443 966.24 24.3203 966.062 24.1484C965.891 23.9766 965.69 23.8516 965.461 23.7734C965.237 23.6901 964.984 23.6484 964.703 23.6484C964.359 23.6484 964.055 23.7135 963.789 23.8438C963.523 23.9688 963.299 24.1693 963.117 24.4453C962.94 24.7214 962.805 25.0833 962.711 25.5312C962.617 25.9792 962.57 26.5234 962.57 27.1641V29.375C962.57 29.8854 962.599 30.3359 962.656 30.7266C962.719 31.1172 962.81 31.4557 962.93 31.7422C963.049 32.0234 963.195 32.2552 963.367 32.4375C963.539 32.6198 963.737 32.7552 963.961 32.8438C964.19 32.9271 964.443 32.9688 964.719 32.9688C965.073 32.9688 965.383 32.901 965.648 32.7656C965.914 32.6302 966.135 32.4193 966.312 32.1328C966.495 31.8411 966.63 31.4688 966.719 31.0156C966.807 30.5573 966.852 30.0104 966.852 29.375ZM977.617 32.8125V34H970.172V32.9609L973.898 28.8125C974.357 28.3021 974.711 27.8698 974.961 27.5156C975.216 27.1562 975.393 26.8359 975.492 26.5547C975.596 26.2682 975.648 25.9766 975.648 25.6797C975.648 25.3047 975.57 24.9661 975.414 24.6641C975.263 24.3568 975.039 24.112 974.742 23.9297C974.445 23.7474 974.086 23.6562 973.664 23.6562C973.159 23.6562 972.737 23.7552 972.398 23.9531C972.065 24.1458 971.815 24.4167 971.648 24.7656C971.482 25.1146 971.398 25.5156 971.398 25.9688H969.953C969.953 25.3281 970.094 24.7422 970.375 24.2109C970.656 23.6797 971.073 23.2578 971.625 22.9453C972.177 22.6276 972.857 22.4688 973.664 22.4688C974.383 22.4688 974.997 22.5964 975.508 22.8516C976.018 23.1016 976.409 23.4557 976.68 23.9141C976.956 24.3672 977.094 24.8984 977.094 25.5078C977.094 25.8411 977.036 26.1797 976.922 26.5234C976.812 26.862 976.659 27.2005 976.461 27.5391C976.268 27.8776 976.042 28.2109 975.781 28.5391C975.526 28.8672 975.253 29.1901 974.961 29.5078L971.914 32.8125H977.617ZM986.852 30.1719V31.3594H978.633V30.5078L983.727 22.625H984.906L983.641 24.9062L980.273 30.1719H986.852ZM985.266 22.625V34H983.82V22.625H985.266Z" fill="#202020"/>
<rect x="88.5" y="16.5" width="110" height="23" rx="11.5" fill="white" stroke="url(#paint1_linear_6127_28159)"/>
<path d="M122.999 24.1797V32H121.65L118.143 26.3979V32H116.795V24.1797H118.143L121.661 29.7925V24.1797H122.999ZM124.229 29.1587V29.0352C124.229 28.6162 124.289 28.2277 124.411 27.8696C124.533 27.508 124.708 27.1947 124.938 26.9297C125.17 26.6611 125.453 26.4535 125.786 26.3066C126.123 26.1562 126.502 26.0811 126.925 26.0811C127.351 26.0811 127.73 26.1562 128.063 26.3066C128.4 26.4535 128.685 26.6611 128.917 26.9297C129.15 27.1947 129.327 27.508 129.449 27.8696C129.571 28.2277 129.632 28.6162 129.632 29.0352V29.1587C129.632 29.5776 129.571 29.9661 129.449 30.3242C129.327 30.6823 129.15 30.9956 128.917 31.2642C128.685 31.5291 128.402 31.7368 128.069 31.8872C127.736 32.034 127.358 32.1074 126.936 32.1074C126.509 32.1074 126.128 32.034 125.792 31.8872C125.458 31.7368 125.176 31.5291 124.943 31.2642C124.71 30.9956 124.533 30.6823 124.411 30.3242C124.289 29.9661 124.229 29.5776 124.229 29.1587ZM125.523 29.0352V29.1587C125.523 29.4201 125.55 29.6672 125.604 29.8999C125.657 30.1326 125.741 30.3368 125.856 30.5122C125.971 30.6877 126.117 30.8255 126.296 30.9258C126.475 31.026 126.688 31.0762 126.936 31.0762C127.175 31.0762 127.383 31.026 127.559 30.9258C127.738 30.8255 127.884 30.6877 127.999 30.5122C128.114 30.3368 128.198 30.1326 128.251 29.8999C128.309 29.6672 128.337 29.4201 128.337 29.1587V29.0352C128.337 28.7773 128.309 28.5339 128.251 28.3047C128.198 28.0719 128.112 27.866 127.994 27.687C127.879 27.508 127.732 27.3683 127.553 27.2681C127.378 27.1642 127.168 27.1123 126.925 27.1123C126.681 27.1123 126.47 27.1642 126.291 27.2681C126.116 27.3683 125.971 27.508 125.856 27.687C125.741 27.866 125.657 28.0719 125.604 28.3047C125.55 28.5339 125.523 28.7773 125.523 29.0352ZM132 27.4292V32H130.706V26.1885H131.925L132 27.4292ZM131.77 28.8794L131.351 28.874C131.354 28.4622 131.411 28.0845 131.522 27.7407C131.637 27.397 131.795 27.1016 131.995 26.8545C132.199 26.6074 132.443 26.4176 132.726 26.2852C133.008 26.1491 133.324 26.0811 133.671 26.0811C133.95 26.0811 134.203 26.1204 134.428 26.1992C134.657 26.2744 134.853 26.3979 135.014 26.5698C135.178 26.7417 135.304 26.9655 135.39 27.2412C135.476 27.5133 135.519 27.8481 135.519 28.2456V32H134.219V28.2402C134.219 27.9609 134.178 27.7407 134.095 27.5796C134.016 27.4149 133.9 27.2985 133.746 27.2305C133.596 27.1589 133.408 27.123 133.182 27.123C132.96 27.123 132.761 27.1696 132.586 27.2627C132.41 27.3558 132.262 27.4829 132.14 27.644C132.022 27.8052 131.931 27.9914 131.866 28.2026C131.802 28.4139 131.77 28.6395 131.77 28.8794ZM139.445 28.1436V29.1748H136.604V28.1436H139.445ZM145.605 30.9312V32H141.679V30.9312H145.605ZM142.055 24.1797V32H140.707V24.1797H142.055ZM147.904 26.1885V32H146.604V26.1885H147.904ZM146.519 24.6631C146.519 24.4661 146.583 24.3032 146.712 24.1743C146.844 24.0418 147.027 23.9756 147.26 23.9756C147.489 23.9756 147.67 24.0418 147.802 24.1743C147.935 24.3032 148.001 24.4661 148.001 24.6631C148.001 24.8564 147.935 25.0176 147.802 25.1465C147.67 25.2754 147.489 25.3398 147.26 25.3398C147.027 25.3398 146.844 25.2754 146.712 25.1465C146.583 25.0176 146.519 24.8564 146.519 24.6631ZM150.606 27.4292V32H149.312V26.1885H150.531L150.606 27.4292ZM150.375 28.8794L149.956 28.874C149.96 28.4622 150.017 28.0845 150.128 27.7407C150.243 27.397 150.4 27.1016 150.601 26.8545C150.805 26.6074 151.048 26.4176 151.331 26.2852C151.614 26.1491 151.929 26.0811 152.276 26.0811C152.556 26.0811 152.808 26.1204 153.034 26.1992C153.263 26.2744 153.458 26.3979 153.619 26.5698C153.784 26.7417 153.909 26.9655 153.995 27.2412C154.081 27.5133 154.124 27.8481 154.124 28.2456V32H152.824V28.2402C152.824 27.9609 152.783 27.7407 152.701 27.5796C152.622 27.4149 152.506 27.2985 152.352 27.2305C152.201 27.1589 152.013 27.123 151.788 27.123C151.566 27.123 151.367 27.1696 151.191 27.2627C151.016 27.3558 150.867 27.4829 150.746 27.644C150.627 27.8052 150.536 27.9914 150.472 28.2026C150.407 28.4139 150.375 28.6395 150.375 28.8794ZM156.75 23.75V32H155.451V23.75H156.75ZM160.36 26.1885L157.83 28.9922L156.444 30.4102L156.106 29.3145L157.153 28.02L158.797 26.1885H160.36ZM159.076 32L157.191 29.2715L158.007 28.3638L160.575 32H159.076ZM163.636 32.1074C163.207 32.1074 162.818 32.0376 162.471 31.8979C162.127 31.7547 161.833 31.556 161.59 31.3018C161.35 31.0475 161.166 30.7485 161.037 30.4048C160.908 30.061 160.843 29.6904 160.843 29.293V29.0781C160.843 28.6234 160.91 28.2116 161.042 27.8428C161.174 27.474 161.359 27.1589 161.595 26.8975C161.832 26.6325 162.111 26.4302 162.433 26.2905C162.755 26.1509 163.104 26.0811 163.48 26.0811C163.896 26.0811 164.259 26.1509 164.571 26.2905C164.882 26.4302 165.14 26.6271 165.344 26.8813C165.552 27.132 165.706 27.431 165.806 27.7783C165.91 28.1257 165.962 28.5088 165.962 28.9277V29.481H161.472V28.5518H164.684V28.4497C164.676 28.217 164.63 27.9985 164.544 27.7944C164.462 27.5903 164.334 27.4256 164.163 27.3003C163.991 27.175 163.762 27.1123 163.475 27.1123C163.26 27.1123 163.069 27.1589 162.9 27.252C162.736 27.3415 162.598 27.4722 162.487 27.644C162.376 27.8159 162.29 28.0236 162.229 28.2671C162.172 28.507 162.143 28.7773 162.143 29.0781V29.293C162.143 29.5472 162.177 29.7835 162.245 30.002C162.317 30.2168 162.421 30.4048 162.557 30.5659C162.693 30.7271 162.857 30.8542 163.051 30.9473C163.244 31.0368 163.464 31.0815 163.711 31.0815C164.023 31.0815 164.3 31.0189 164.544 30.8936C164.787 30.7682 164.999 30.591 165.178 30.3618L165.86 31.0225C165.735 31.2051 165.572 31.3805 165.371 31.5488C165.171 31.7135 164.925 31.8478 164.635 31.9517C164.349 32.0555 164.016 32.1074 163.636 32.1074ZM170.517 30.7969V23.75H171.816V32H170.64L170.517 30.7969ZM166.735 29.1587V29.0459C166.735 28.6055 166.787 28.2044 166.891 27.8428C166.995 27.4775 167.145 27.1642 167.342 26.9028C167.539 26.6379 167.779 26.4355 168.062 26.2959C168.345 26.1527 168.664 26.0811 169.018 26.0811C169.369 26.0811 169.677 26.1491 169.942 26.2852C170.207 26.4212 170.432 26.6164 170.619 26.8706C170.805 27.1213 170.953 27.422 171.064 27.7729C171.175 28.1203 171.254 28.507 171.301 28.9331V29.293C171.254 29.7083 171.175 30.0879 171.064 30.4316C170.953 30.7754 170.805 31.0726 170.619 31.3232C170.432 31.5739 170.205 31.7673 169.937 31.9033C169.672 32.0394 169.362 32.1074 169.007 32.1074C168.656 32.1074 168.34 32.034 168.057 31.8872C167.777 31.7404 167.539 31.5345 167.342 31.2695C167.145 31.0046 166.995 30.693 166.891 30.335C166.787 29.9733 166.735 29.5812 166.735 29.1587ZM168.03 29.0459V29.1587C168.03 29.4237 168.053 29.6707 168.1 29.8999C168.15 30.1291 168.227 30.3314 168.331 30.5068C168.434 30.6787 168.569 30.8148 168.733 30.915C168.902 31.0117 169.102 31.0601 169.335 31.0601C169.629 31.0601 169.87 30.9956 170.06 30.8667C170.25 30.7378 170.398 30.5641 170.506 30.3457C170.617 30.1237 170.692 29.8766 170.731 29.6045V28.6323C170.71 28.4211 170.665 28.2241 170.597 28.0415C170.533 27.8589 170.445 27.6995 170.334 27.5635C170.223 27.4238 170.085 27.3164 169.92 27.2412C169.759 27.1624 169.568 27.123 169.346 27.123C169.109 27.123 168.909 27.1732 168.744 27.2734C168.579 27.3737 168.443 27.5116 168.336 27.687C168.232 27.8625 168.155 28.0666 168.105 28.2993C168.055 28.5321 168.03 28.7809 168.03 29.0459Z" fill="#C7413A"/>
<rect x="177" y="22" width="12" height="12" rx="2" fill="#C7413A"/>
<path d="M184.794 30.0859V31H180.461V30.2178L182.54 27.9722C182.757 27.7261 182.928 27.5122 183.054 27.3306C183.18 27.1489 183.27 26.9849 183.322 26.8384C183.378 26.689 183.406 26.5469 183.406 26.4121C183.406 26.2158 183.371 26.0444 183.3 25.8979C183.23 25.7485 183.127 25.6328 182.993 25.5508C182.861 25.4688 182.698 25.4277 182.505 25.4277C182.291 25.4277 182.108 25.4775 181.956 25.5771C181.806 25.6738 181.692 25.8086 181.613 25.9814C181.537 26.1543 181.499 26.3521 181.499 26.5747H180.334C180.334 26.1968 180.422 25.8525 180.598 25.542C180.773 25.2285 181.025 24.978 181.354 24.7905C181.682 24.603 182.071 24.5093 182.522 24.5093C182.962 24.5093 183.334 24.5825 183.639 24.729C183.943 24.8726 184.175 25.0776 184.333 25.3442C184.491 25.6108 184.57 25.9287 184.57 26.2979C184.57 26.5029 184.537 26.7051 184.469 26.9043C184.402 27.1035 184.307 27.3013 184.184 27.4976C184.063 27.6909 183.92 27.8872 183.753 28.0864C183.586 28.2856 183.4 28.4893 183.195 28.6973L181.947 30.0859H184.794Z" fill="white"/>
<g clip-path="url(#clip1_6127_28159)">
<path d="M107.916 33.8332V32.6665" stroke="#C7413A" stroke-linecap="round" stroke-linejoin="round"/>
<path d="M103.25 29.75L106.75 26.25" stroke="#C7413A" stroke-linecap="round" stroke-linejoin="round"/>
<path d="M104.416 24.4999L104.686 24.1872C105.233 23.6402 105.975 23.333 106.749 23.333C107.522 23.3331 108.264 23.6404 108.811 24.1875C109.358 24.7345 109.665 25.4765 109.665 26.2501C109.665 27.0237 109.358 27.7655 108.811 28.3125L108.499 28.5832" stroke="#C7413A" stroke-linecap="round" stroke-linejoin="round"/>
<path d="M105.584 31.4998L105.352 31.8113C104.799 32.3586 104.052 32.6656 103.274 32.6656C102.495 32.6656 101.749 32.3586 101.195 31.8113C100.922 31.5416 100.706 31.2204 100.558 30.8664C100.41 30.5124 100.334 30.1326 100.334 29.749C100.334 29.3653 100.41 28.9855 100.558 28.6315C100.706 28.2775 100.922 27.9563 101.195 27.6866L101.501 27.4165" stroke="#C7413A" stroke-linecap="round" stroke-linejoin="round"/>
<path d="M109.666 30.9165H110.833" stroke="#C7413A" stroke-linecap="round" stroke-linejoin="round"/>
<path d="M99.166 25.0835H100.333" stroke="#C7413A" stroke-linecap="round" stroke-linejoin="round"/>
<path d="M102.084 22.1665V23.3332" stroke="#C7413A" stroke-linecap="round" stroke-linejoin="round"/>
</g>
<defs>
<linearGradient id="paint0_linear_6127_28159" x1="275" y1="16" x2="275" y2="40" gradientUnits="userSpaceOnUse">
<stop stop-color="#FFB42A"/>
<stop offset="1" stop-color="#DB981D"/>
</linearGradient>
<linearGradient id="paint1_linear_6127_28159" x1="143.5" y1="16" x2="143.5" y2="40" gradientUnits="userSpaceOnUse">
<stop stop-color="#DF4D32"/>
<stop offset="1" stop-color="#7F2413"/>
</linearGradient>
<clipPath id="clip0_6127_28159">
<rect width="12" height="12" fill="white" transform="translate(217 22)"/>
</clipPath>
<clipPath id="clip1_6127_28159">
<rect width="14" height="14" fill="white" transform="translate(98 21)"/>
</clipPath>
</defs>
</svg>
