<svg width="60" height="60" viewBox="0 0 60 60" fill="none" xmlns="http://www.w3.org/2000/svg">
<circle cx="30" cy="30" r="30" fill="#337D38" fill-opacity="0.08"/>
<g clip-path="url(#clip0_5353_16883)">
<path d="M30 48C20.0725 48 12 39.9275 12 30C12 20.0725 20.0725 12 30 12C39.9275 12 48 20.0725 48 30C48 39.9275 39.9275 48 30 48ZM30 14.4407C21.421 14.4407 14.4407 21.421 14.4407 30C14.4407 38.579 21.421 45.5593 30 45.5593C38.579 45.5593 45.5593 38.579 45.5593 30C45.5593 21.421 38.579 14.4407 30 14.4407Z" fill="#F4F4F4"/>
<path d="M30 48C20.0725 48 12 39.9275 12 30C12 20.0725 20.0725 12 30 12C38.3593 12 45.7485 17.9125 47.5668 26.0644C47.8536 27.3458 48 28.6698 48 30H45.5593C45.5593 28.8529 45.4312 27.7058 45.1871 26.5953C43.619 19.5539 37.2305 14.4407 30 14.4407C21.421 14.4407 14.4407 21.421 14.4407 30C14.4407 38.579 21.421 45.5593 30 45.5593C32.2149 45.5593 34.3566 45.1017 36.3641 44.2047L37.3647 46.4319C35.04 47.4753 32.5627 48 30 48Z" fill="#056137"/>
<path d="M32.531 28.6535C32.531 30.0476 32.2875 31.2647 31.7933 32.3195C31.2991 33.3743 30.5984 34.1784 29.6763 34.7463C28.7543 35.3143 27.7069 35.602 26.5193 35.602C25.3317 35.602 24.299 35.3217 23.377 34.7537C22.4549 34.1857 21.7468 33.3817 21.2378 32.3417C20.7289 31.3016 20.4781 30.0919 20.4707 28.7273V28.0265C20.4707 26.6324 20.7215 25.4079 21.2231 24.3457C21.7247 23.2836 22.4328 22.4722 23.3548 21.9042C24.2769 21.3362 25.3169 21.0559 26.4971 21.0559C27.6774 21.0559 28.7248 21.3362 29.6395 21.9042C30.5541 22.4722 31.2696 23.2836 31.7712 24.3457C32.2728 25.4079 32.5236 26.625 32.5236 28.0118V28.6461L32.531 28.6535ZM29.5731 28.0118C29.5731 26.5291 29.3075 25.4006 28.7764 24.626C28.2453 23.8515 27.4856 23.468 26.5045 23.468C25.5235 23.468 24.7711 23.8515 24.24 24.6113C23.7089 25.371 23.4434 26.4922 23.436 27.9601V28.6535C23.436 30.0993 23.7015 31.2205 24.2326 32.0171C24.7637 32.8137 25.5309 33.2121 26.5267 33.2121C27.5225 33.2121 28.2601 32.8285 28.7838 32.0614C29.3075 31.2942 29.5731 30.173 29.5804 28.7051V28.0118H29.5731Z" fill="#056137"/>
<path d="M38.4699 38.7222H32.8122V37.601L35.4825 34.7538C35.8513 34.3554 36.1168 34.0014 36.2939 33.7063C36.4709 33.4039 36.5594 33.1236 36.5594 32.858C36.5594 32.4892 36.4635 32.2016 36.2791 31.995C36.0947 31.7885 35.8291 31.6778 35.4825 31.6778C35.1136 31.6778 34.8186 31.8032 34.6047 32.0614C34.3908 32.3196 34.2875 32.6515 34.2875 33.0646H32.6426C32.6426 32.563 32.7606 32.1057 33.004 31.6852C33.2474 31.2648 33.5794 30.9476 34.0219 30.7042C34.4572 30.4681 34.9587 30.3501 35.512 30.3501C36.3602 30.3501 37.0241 30.5566 37.4888 30.9623C37.9609 31.368 38.1969 31.9434 38.1969 32.6884C38.1969 33.0941 38.0937 33.5145 37.8798 33.935C37.6658 34.3554 37.3044 34.8496 36.7881 35.4176L34.9145 37.3945H38.4625V38.7148L38.4699 38.7222Z" fill="#056137"/>
</g>
<defs>
<clipPath id="clip0_5353_16883">
<rect width="36" height="36" fill="white" transform="translate(12 12)"/>
</clipPath>
</defs>
</svg>
