<svg width="60" height="60" viewBox="0 0 60 60" fill="none" xmlns="http://www.w3.org/2000/svg">
<circle cx="30" cy="30" r="30" fill="#FFB800" fill-opacity="0.08"/>
<g clip-path="url(#clip0_5353_16978)">
<path d="M30 48C20.0725 48 12 39.9275 12 30C12 20.0725 20.0725 12 30 12C39.9275 12 48 20.0725 48 30C48 39.9275 39.9275 48 30 48ZM30 14.4407C21.421 14.4407 14.4407 21.421 14.4407 30C14.4407 38.579 21.421 45.5593 30 45.5593C38.579 45.5593 45.5593 38.579 45.5593 30C45.5593 21.421 38.579 14.4407 30 14.4407Z" fill="#F4F4F4"/>
<path d="M30 48C20.0725 48 12 39.9275 12 30C12 20.0725 20.0725 12 30 12C38.3593 12 45.7485 17.9125 47.5668 26.0644C47.8536 27.3458 48 28.6698 48 30H45.5593C45.5593 28.8529 45.4312 27.7058 45.1871 26.5953C43.619 19.5539 37.2305 14.4407 30 14.4407C21.421 14.4407 14.4407 21.421 14.4407 30C14.4407 38.579 21.421 45.5593 30 45.5593C32.2149 45.5593 34.3566 45.1017 36.3641 44.2047L37.3647 46.4319C35.04 47.4753 32.5627 48 30 48Z" fill="#FFB800"/>
</g>
<path d="M30.126 39.5293C28.5122 39.5293 27.1992 38.2163 27.1992 36.6025C27.1992 35.8099 27.5241 35.0579 28.0773 34.5138V23.5781C28.0772 22.4484 28.9963 21.5293 30.126 21.5293C31.2558 21.5293 32.1748 22.4484 32.1748 23.5781V34.5138C32.728 35.0579 33.0529 35.8099 33.0529 36.6025C33.0529 38.2163 31.7399 39.5293 30.126 39.5293Z" fill="#E4E4E4"/>
<path d="M30.1261 22.7C29.6412 22.7 29.248 23.0931 29.248 23.578V25.0621L31.0041 25.0414V23.578C31.0041 23.0931 30.6111 22.7 30.1261 22.7Z" fill="#F4F4F4"/>
<path d="M31.0033 35.0818V25.0414C31.0033 24.5564 30.6102 24.1633 30.1253 24.1633C29.6403 24.1633 29.2472 24.5564 29.2472 25.0414V35.0818C28.7225 35.3855 28.3691 35.9525 28.3691 36.6024C28.3691 37.5722 29.1554 38.3585 30.1252 38.3585C31.0951 38.3585 31.8813 37.5722 31.8813 36.6024C31.8814 35.9525 31.5281 35.3855 31.0033 35.0818Z" fill="#FFB800"/>
<path d="M26.9074 24.427H26.0293C25.8837 24.427 25.7656 24.309 25.7656 24.1633C25.7656 24.0177 25.8837 23.8997 26.0293 23.8997H26.9074C27.053 23.8997 27.171 24.0177 27.171 24.1633C27.171 24.309 27.053 24.427 26.9074 24.427Z" fill="#202020"/>
<path d="M26.9068 25.8904H26.3945C26.2489 25.8904 26.1309 25.7724 26.1309 25.6267C26.1309 25.4811 26.2489 25.363 26.3945 25.363H26.9067C27.0523 25.363 27.1704 25.4811 27.1704 25.6267C27.1704 25.7724 27.0524 25.8904 26.9068 25.8904Z" fill="#202020"/>
<path d="M26.9074 27.354H26.0293C25.8837 27.354 25.7656 27.236 25.7656 27.0903C25.7656 26.9447 25.8837 26.8267 26.0293 26.8267H26.9074C27.053 26.8267 27.171 26.9447 27.171 27.0903C27.171 27.236 27.053 27.354 26.9074 27.354Z" fill="#202020"/>
<path d="M26.9068 28.8174H26.3945C26.2489 28.8174 26.1309 28.6994 26.1309 28.5537C26.1309 28.4081 26.2489 28.29 26.3945 28.29H26.9067C27.0523 28.29 27.1704 28.4081 27.1704 28.5537C27.1704 28.6994 27.0524 28.8174 26.9068 28.8174Z" fill="#202020"/>
<path d="M26.9074 30.2808H26.0293C25.8837 30.2808 25.7656 30.1627 25.7656 30.0171C25.7656 29.8714 25.8837 29.7534 26.0293 29.7534H26.9074C27.053 29.7534 27.171 29.8714 27.171 30.0171C27.171 30.1627 27.053 30.2808 26.9074 30.2808Z" fill="#202020"/>
<path d="M26.9068 31.7441H26.3945C26.2489 31.7441 26.1309 31.6261 26.1309 31.4805C26.1309 31.3348 26.2489 31.2168 26.3945 31.2168H26.9067C27.0523 31.2168 27.1704 31.3348 27.1704 31.4805C27.1704 31.6261 27.0524 31.7441 26.9068 31.7441Z" fill="#202020"/>
<path d="M26.9074 33.2075H26.0293C25.8837 33.2075 25.7656 33.0895 25.7656 32.9438C25.7656 32.7982 25.8837 32.6802 26.0293 32.6802H26.9074C27.053 32.6802 27.171 32.7982 27.171 32.9438C27.171 33.0895 27.053 33.2075 26.9074 33.2075Z" fill="#202020"/>
<defs>
<clipPath id="clip0_5353_16978">
<rect width="36" height="36" fill="white" transform="translate(12 12)"/>
</clipPath>
</defs>
</svg>
