<svg width="15" height="14" viewBox="0 0 15 14" fill="none" xmlns="http://www.w3.org/2000/svg">
<path d="M4.25 6.25V12.25C4.25 12.4489 4.17098 12.6397 4.03033 12.7803C3.88968 12.921 3.69891 13 3.5 13H2C1.80109 13 1.61032 12.921 1.46967 12.7803C1.32902 12.6397 1.25 12.4489 1.25 12.25V7C1.25 6.80109 1.32902 6.61032 1.46967 6.46967C1.61032 6.32902 1.80109 6.25 2 6.25H4.25ZM4.25 6.25C5.04565 6.25 5.80871 5.93393 6.37132 5.37132C6.93393 4.80871 7.25 4.04565 7.25 3.25V2.5C7.25 2.10218 7.40804 1.72064 7.68934 1.43934C7.97064 1.15804 8.35218 1 8.75 1C9.14782 1 9.52936 1.15804 9.81066 1.43934C10.092 1.72064 10.25 2.10218 10.25 2.5V6.25H12.5C12.8978 6.25 13.2794 6.40804 13.5607 6.68934C13.842 6.97064 14 7.35218 14 7.75L13.25 11.5C13.1421 11.9601 12.9375 12.3552 12.667 12.6257C12.3964 12.8963 12.0746 13.0276 11.75 13H6.5C5.90326 13 5.33097 12.7629 4.90901 12.341C4.48705 11.919 4.25 11.3467 4.25 10.75" stroke="#337D38" stroke-width="1.5" stroke-linecap="round" stroke-linejoin="round"/>
</svg>
