<svg width="15" height="14" viewBox="0 0 15 14" fill="none" xmlns="http://www.w3.org/2000/svg">
<path d="M10.75 7.75L10.75 1.75C10.75 1.55109 10.829 1.36032 10.9697 1.21967C11.1103 1.07902 11.3011 1 11.5 1H13C13.1989 1 13.3897 1.07902 13.5303 1.21967C13.671 1.36032 13.75 1.55109 13.75 1.75L13.75 7C13.75 7.19891 13.671 7.38968 13.5303 7.53033C13.3897 7.67098 13.1989 7.75 13 7.75H10.75ZM10.75 7.75C9.95435 7.75 9.19129 8.06607 8.62868 8.62868C8.06607 9.19129 7.75 9.95435 7.75 10.75V11.5C7.75 11.8978 7.59196 12.2794 7.31066 12.5607C7.02936 12.842 6.64782 13 6.25 13C5.85218 13 5.47064 12.842 5.18934 12.5607C4.90804 12.2794 4.75 11.8978 4.75 11.5V7.75L2.5 7.75C2.10218 7.75 1.72064 7.59196 1.43934 7.31066C1.15804 7.02936 1 6.64782 1 6.25L1.75 2.5C1.85786 2.03989 2.06247 1.64482 2.33301 1.37428C2.60355 1.10374 2.92537 0.972383 3.25 1L8.5 1C9.09674 1 9.66903 1.23705 10.091 1.65901C10.5129 2.08097 10.75 2.65326 10.75 3.25" stroke="#C7413A" stroke-width="1.5" stroke-linecap="round" stroke-linejoin="round"/>
</svg>
