<svg width="24" height="24" viewBox="0 0 24 24" fill="none" xmlns="http://www.w3.org/2000/svg">
<circle cx="12" cy="12" r="9" fill="#337D38"/>
<path d="M10.7768 13.9768L16.25 8.50355L17.2964 9.55L10.6 16.2464L6.70355 12.35L7.75 11.3036L10.4232 13.9768L10.6 14.1536L10.7768 13.9768ZM12 21.75C10.6492 21.75 9.38306 21.4939 8.19905 20.983C7.01018 20.47 5.97852 19.775 5.10178 18.8982C4.22503 18.0215 3.53005 16.9898 3.01704 15.801C2.50613 14.6169 2.25 13.3508 2.25 12C2.25 10.6492 2.50613 9.38306 3.01704 8.19905C3.53005 7.01018 4.22503 5.97852 5.10178 5.10178C5.97852 4.22503 7.01018 3.53005 8.19905 3.01704C9.38306 2.50613 10.6492 2.25 12 2.25C13.3508 2.25 14.6169 2.50613 15.801 3.01704C16.9898 3.53005 18.0215 4.22503 18.8982 5.10178C19.775 5.97852 20.47 7.01018 20.983 8.19905C21.4939 9.38306 21.75 10.6492 21.75 12C21.75 13.3508 21.4939 14.6169 20.983 15.801C20.47 16.9898 19.775 18.0215 18.8982 18.8982C18.0215 19.775 16.9898 20.47 15.801 20.983C14.6169 21.4939 13.3508 21.75 12 21.75ZM12 20.25C14.2982 20.25 16.2539 19.4496 17.8518 17.8518C19.4496 16.2539 20.25 14.2982 20.25 12C20.25 9.70176 19.4496 7.74609 17.8518 6.14822C16.2539 4.55036 14.2982 3.75 12 3.75C9.70176 3.75 7.74609 4.55036 6.14822 6.14822C4.55036 7.74609 3.75 9.70176 3.75 12C3.75 14.2982 4.55036 16.2539 6.14822 17.8518C7.74609 19.4496 9.70176 20.25 12 20.25Z" fill="white" stroke="#337D38" stroke-width="0.5"/>
</svg>
