<svg width="24" height="24" viewBox="0 0 24 24" fill="none" xmlns="http://www.w3.org/2000/svg">
<g clip-path="url(#clip0_7849_11648)">
<path d="M12 8.57129V14.5713" stroke="#FFB800" stroke-width="2" stroke-linecap="round" stroke-linejoin="round"/>
<path d="M10.3169 4.38051L1.97869 18.3335C1.8068 18.6318 1.71584 18.9701 1.71485 19.3146C1.71387 19.6591 1.8029 19.9979 1.97308 20.2972C2.14326 20.5965 2.38868 20.846 2.6849 21.0207C2.98113 21.1955 3.31785 21.2895 3.66157 21.2934H20.3401C20.6837 21.2894 21.0203 21.1954 21.3163 21.0207C21.6124 20.846 21.8577 20.5966 22.0279 20.2975C22.198 19.9983 22.2871 19.6597 22.2863 19.3153C22.2854 18.971 22.1947 18.6328 22.023 18.3345L13.6848 4.37948C13.5093 4.08927 13.2622 3.8493 12.9672 3.68276C12.6723 3.51621 12.3394 3.42871 12.0009 3.42871C11.6623 3.42871 11.3295 3.51621 11.0345 3.68276C10.7395 3.8493 10.4924 4.08927 10.3169 4.37948V4.38051Z" stroke="#FFB800" stroke-width="2" stroke-linecap="round" stroke-linejoin="round"/>
<circle cx="12" cy="17.2856" r="1" fill="#FFB800"/>
</g>
<defs>
<clipPath id="clip0_7849_11648">
<rect width="24" height="24" fill="white"/>
</clipPath>
</defs>
</svg>
